<?xml version="1.0" encoding="utf-8" standalone="no"?>
<!DOCTYPE svg PUBLIC "-//W3C//DTD SVG 1.1//EN"
  "http://www.w3.org/Graphics/SVG/1.1/DTD/svg11.dtd">
<!-- Created with matplotlib (https://matplotlib.org/) -->
<svg height="360pt" version="1.1" viewBox="0 0 360 360" width="360pt" xmlns="http://www.w3.org/2000/svg" xmlns:xlink="http://www.w3.org/1999/xlink">
 <defs>
  <style type="text/css">
*{stroke-linecap:butt;stroke-linejoin:round;}
  </style>
 </defs>
 <g id="figure_1">
  <g id="patch_1">
   <path d="M 0 360 
L 360 360 
L 360 0 
L 0 0 
z
" style="fill:#ffffff;"/>
  </g>
  <g id="axes_1">
   <g id="patch_2">
    <path d="M 45 315 
L 324 315 
L 324 43.2 
L 45 43.2 
z
" style="fill:#ffffff;"/>
   </g>
   <g id="matplotlib.axis_1">
    <g id="xtick_1">
     <g id="line2d_1">
      <defs>
       <path d="M 0 0 
L 0 3.5 
" id="m0a6cfe38e2" style="stroke:#000000;stroke-width:0.8;"/>
      </defs>
      <g>
       <use style="stroke:#000000;stroke-width:0.8;" x="59.27406" xlink:href="#m0a6cfe38e2" y="315"/>
      </g>
     </g>
     <g id="text_1">
      <!-- 400 -->
      <defs>
       <path d="M 37.796875 64.3125 
L 12.890625 25.390625 
L 37.796875 25.390625 
z
M 35.203125 72.90625 
L 47.609375 72.90625 
L 47.609375 25.390625 
L 58.015625 25.390625 
L 58.015625 17.1875 
L 47.609375 17.1875 
L 47.609375 0 
L 37.796875 0 
L 37.796875 17.1875 
L 4.890625 17.1875 
L 4.890625 26.703125 
z
" id="DejaVuSans-52"/>
       <path d="M 31.78125 66.40625 
Q 24.171875 66.40625 20.328125 58.90625 
Q 16.5 51.421875 16.5 36.375 
Q 16.5 21.390625 20.328125 13.890625 
Q 24.171875 6.390625 31.78125 6.390625 
Q 39.453125 6.390625 43.28125 13.890625 
Q 47.125 21.390625 47.125 36.375 
Q 47.125 51.421875 43.28125 58.90625 
Q 39.453125 66.40625 31.78125 66.40625 
z
M 31.78125 74.21875 
Q 44.046875 74.21875 50.515625 64.515625 
Q 56.984375 54.828125 56.984375 36.375 
Q 56.984375 17.96875 50.515625 8.265625 
Q 44.046875 -1.421875 31.78125 -1.421875 
Q 19.53125 -1.421875 13.0625 8.265625 
Q 6.59375 17.96875 6.59375 36.375 
Q 6.59375 54.828125 13.0625 64.515625 
Q 19.53125 74.21875 31.78125 74.21875 
z
" id="DejaVuSans-48"/>
      </defs>
      <g transform="translate(49.73031 329.598437)scale(0.1 -0.1)">
       <use xlink:href="#DejaVuSans-52"/>
       <use x="63.623047" xlink:href="#DejaVuSans-48"/>
       <use x="127.246094" xlink:href="#DejaVuSans-48"/>
      </g>
     </g>
    </g>
    <g id="xtick_2">
     <g id="line2d_2">
      <g>
       <use style="stroke:#000000;stroke-width:0.8;" x="101.182704" xlink:href="#m0a6cfe38e2" y="315"/>
      </g>
     </g>
     <g id="text_2">
      <!-- 450 -->
      <defs>
       <path d="M 10.796875 72.90625 
L 49.515625 72.90625 
L 49.515625 64.59375 
L 19.828125 64.59375 
L 19.828125 46.734375 
Q 21.96875 47.46875 24.109375 47.828125 
Q 26.265625 48.1875 28.421875 48.1875 
Q 40.625 48.1875 47.75 41.5 
Q 54.890625 34.8125 54.890625 23.390625 
Q 54.890625 11.625 47.5625 5.09375 
Q 40.234375 -1.421875 26.90625 -1.421875 
Q 22.3125 -1.421875 17.546875 -0.640625 
Q 12.796875 0.140625 7.71875 1.703125 
L 7.71875 11.625 
Q 12.109375 9.234375 16.796875 8.0625 
Q 21.484375 6.890625 26.703125 6.890625 
Q 35.15625 6.890625 40.078125 11.328125 
Q 45.015625 15.765625 45.015625 23.390625 
Q 45.015625 31 40.078125 35.4375 
Q 35.15625 39.890625 26.703125 39.890625 
Q 22.75 39.890625 18.8125 39.015625 
Q 14.890625 38.140625 10.796875 36.28125 
z
" id="DejaVuSans-53"/>
      </defs>
      <g transform="translate(91.638954 329.598437)scale(0.1 -0.1)">
       <use xlink:href="#DejaVuSans-52"/>
       <use x="63.623047" xlink:href="#DejaVuSans-53"/>
       <use x="127.246094" xlink:href="#DejaVuSans-48"/>
      </g>
     </g>
    </g>
    <g id="xtick_3">
     <g id="line2d_3">
      <g>
       <use style="stroke:#000000;stroke-width:0.8;" x="143.091349" xlink:href="#m0a6cfe38e2" y="315"/>
      </g>
     </g>
     <g id="text_3">
      <!-- 500 -->
      <g transform="translate(133.547599 329.598437)scale(0.1 -0.1)">
       <use xlink:href="#DejaVuSans-53"/>
       <use x="63.623047" xlink:href="#DejaVuSans-48"/>
       <use x="127.246094" xlink:href="#DejaVuSans-48"/>
      </g>
     </g>
    </g>
    <g id="xtick_4">
     <g id="line2d_4">
      <g>
       <use style="stroke:#000000;stroke-width:0.8;" x="184.999993" xlink:href="#m0a6cfe38e2" y="315"/>
      </g>
     </g>
     <g id="text_4">
      <!-- 550 -->
      <g transform="translate(175.456243 329.598437)scale(0.1 -0.1)">
       <use xlink:href="#DejaVuSans-53"/>
       <use x="63.623047" xlink:href="#DejaVuSans-53"/>
       <use x="127.246094" xlink:href="#DejaVuSans-48"/>
      </g>
     </g>
    </g>
    <g id="xtick_5">
     <g id="line2d_5">
      <g>
       <use style="stroke:#000000;stroke-width:0.8;" x="226.908637" xlink:href="#m0a6cfe38e2" y="315"/>
      </g>
     </g>
     <g id="text_5">
      <!-- 600 -->
      <defs>
       <path d="M 33.015625 40.375 
Q 26.375 40.375 22.484375 35.828125 
Q 18.609375 31.296875 18.609375 23.390625 
Q 18.609375 15.53125 22.484375 10.953125 
Q 26.375 6.390625 33.015625 6.390625 
Q 39.65625 6.390625 43.53125 10.953125 
Q 47.40625 15.53125 47.40625 23.390625 
Q 47.40625 31.296875 43.53125 35.828125 
Q 39.65625 40.375 33.015625 40.375 
z
M 52.59375 71.296875 
L 52.59375 62.3125 
Q 48.875 64.0625 45.09375 64.984375 
Q 41.3125 65.921875 37.59375 65.921875 
Q 27.828125 65.921875 22.671875 59.328125 
Q 17.53125 52.734375 16.796875 39.40625 
Q 19.671875 43.65625 24.015625 45.921875 
Q 28.375 48.1875 33.59375 48.1875 
Q 44.578125 48.1875 50.953125 41.515625 
Q 57.328125 34.859375 57.328125 23.390625 
Q 57.328125 12.15625 50.6875 5.359375 
Q 44.046875 -1.421875 33.015625 -1.421875 
Q 20.359375 -1.421875 13.671875 8.265625 
Q 6.984375 17.96875 6.984375 36.375 
Q 6.984375 53.65625 15.1875 63.9375 
Q 23.390625 74.21875 37.203125 74.21875 
Q 40.921875 74.21875 44.703125 73.484375 
Q 48.484375 72.75 52.59375 71.296875 
z
" id="DejaVuSans-54"/>
      </defs>
      <g transform="translate(217.364887 329.598437)scale(0.1 -0.1)">
       <use xlink:href="#DejaVuSans-54"/>
       <use x="63.623047" xlink:href="#DejaVuSans-48"/>
       <use x="127.246094" xlink:href="#DejaVuSans-48"/>
      </g>
     </g>
    </g>
    <g id="xtick_6">
     <g id="line2d_6">
      <g>
       <use style="stroke:#000000;stroke-width:0.8;" x="268.817281" xlink:href="#m0a6cfe38e2" y="315"/>
      </g>
     </g>
     <g id="text_6">
      <!-- 650 -->
      <g transform="translate(259.273531 329.598437)scale(0.1 -0.1)">
       <use xlink:href="#DejaVuSans-54"/>
       <use x="63.623047" xlink:href="#DejaVuSans-53"/>
       <use x="127.246094" xlink:href="#DejaVuSans-48"/>
      </g>
     </g>
    </g>
    <g id="xtick_7">
     <g id="line2d_7">
      <g>
       <use style="stroke:#000000;stroke-width:0.8;" x="310.725926" xlink:href="#m0a6cfe38e2" y="315"/>
      </g>
     </g>
     <g id="text_7">
      <!-- 700 -->
      <defs>
       <path d="M 8.203125 72.90625 
L 55.078125 72.90625 
L 55.078125 68.703125 
L 28.609375 0 
L 18.3125 0 
L 43.21875 64.59375 
L 8.203125 64.59375 
z
" id="DejaVuSans-55"/>
      </defs>
      <g transform="translate(301.182176 329.598437)scale(0.1 -0.1)">
       <use xlink:href="#DejaVuSans-55"/>
       <use x="63.623047" xlink:href="#DejaVuSans-48"/>
       <use x="127.246094" xlink:href="#DejaVuSans-48"/>
      </g>
     </g>
    </g>
    <g id="text_8">
     <!-- Wavelenght -->
     <defs>
      <path d="M 3.328125 72.90625 
L 13.28125 72.90625 
L 28.609375 11.28125 
L 43.890625 72.90625 
L 54.984375 72.90625 
L 70.3125 11.28125 
L 85.59375 72.90625 
L 95.609375 72.90625 
L 77.296875 0 
L 64.890625 0 
L 49.515625 63.28125 
L 33.984375 0 
L 21.578125 0 
z
" id="DejaVuSans-87"/>
      <path d="M 34.28125 27.484375 
Q 23.390625 27.484375 19.1875 25 
Q 14.984375 22.515625 14.984375 16.5 
Q 14.984375 11.71875 18.140625 8.90625 
Q 21.296875 6.109375 26.703125 6.109375 
Q 34.1875 6.109375 38.703125 11.40625 
Q 43.21875 16.703125 43.21875 25.484375 
L 43.21875 27.484375 
z
M 52.203125 31.203125 
L 52.203125 0 
L 43.21875 0 
L 43.21875 8.296875 
Q 40.140625 3.328125 35.546875 0.953125 
Q 30.953125 -1.421875 24.3125 -1.421875 
Q 15.921875 -1.421875 10.953125 3.296875 
Q 6 8.015625 6 15.921875 
Q 6 25.140625 12.171875 29.828125 
Q 18.359375 34.515625 30.609375 34.515625 
L 43.21875 34.515625 
L 43.21875 35.40625 
Q 43.21875 41.609375 39.140625 45 
Q 35.0625 48.390625 27.6875 48.390625 
Q 23 48.390625 18.546875 47.265625 
Q 14.109375 46.140625 10.015625 43.890625 
L 10.015625 52.203125 
Q 14.9375 54.109375 19.578125 55.046875 
Q 24.21875 56 28.609375 56 
Q 40.484375 56 46.34375 49.84375 
Q 52.203125 43.703125 52.203125 31.203125 
z
" id="DejaVuSans-97"/>
      <path d="M 2.984375 54.6875 
L 12.5 54.6875 
L 29.59375 8.796875 
L 46.6875 54.6875 
L 56.203125 54.6875 
L 35.6875 0 
L 23.484375 0 
z
" id="DejaVuSans-118"/>
      <path d="M 56.203125 29.59375 
L 56.203125 25.203125 
L 14.890625 25.203125 
Q 15.484375 15.921875 20.484375 11.0625 
Q 25.484375 6.203125 34.421875 6.203125 
Q 39.59375 6.203125 44.453125 7.46875 
Q 49.3125 8.734375 54.109375 11.28125 
L 54.109375 2.78125 
Q 49.265625 0.734375 44.1875 -0.34375 
Q 39.109375 -1.421875 33.890625 -1.421875 
Q 20.796875 -1.421875 13.15625 6.1875 
Q 5.515625 13.8125 5.515625 26.8125 
Q 5.515625 40.234375 12.765625 48.109375 
Q 20.015625 56 32.328125 56 
Q 43.359375 56 49.78125 48.890625 
Q 56.203125 41.796875 56.203125 29.59375 
z
M 47.21875 32.234375 
Q 47.125 39.59375 43.09375 43.984375 
Q 39.0625 48.390625 32.421875 48.390625 
Q 24.90625 48.390625 20.390625 44.140625 
Q 15.875 39.890625 15.1875 32.171875 
z
" id="DejaVuSans-101"/>
      <path d="M 9.421875 75.984375 
L 18.40625 75.984375 
L 18.40625 0 
L 9.421875 0 
z
" id="DejaVuSans-108"/>
      <path d="M 54.890625 33.015625 
L 54.890625 0 
L 45.90625 0 
L 45.90625 32.71875 
Q 45.90625 40.484375 42.875 44.328125 
Q 39.84375 48.1875 33.796875 48.1875 
Q 26.515625 48.1875 22.3125 43.546875 
Q 18.109375 38.921875 18.109375 30.90625 
L 18.109375 0 
L 9.078125 0 
L 9.078125 54.6875 
L 18.109375 54.6875 
L 18.109375 46.1875 
Q 21.34375 51.125 25.703125 53.5625 
Q 30.078125 56 35.796875 56 
Q 45.21875 56 50.046875 50.171875 
Q 54.890625 44.34375 54.890625 33.015625 
z
" id="DejaVuSans-110"/>
      <path d="M 45.40625 27.984375 
Q 45.40625 37.75 41.375 43.109375 
Q 37.359375 48.484375 30.078125 48.484375 
Q 22.859375 48.484375 18.828125 43.109375 
Q 14.796875 37.75 14.796875 27.984375 
Q 14.796875 18.265625 18.828125 12.890625 
Q 22.859375 7.515625 30.078125 7.515625 
Q 37.359375 7.515625 41.375 12.890625 
Q 45.40625 18.265625 45.40625 27.984375 
z
M 54.390625 6.78125 
Q 54.390625 -7.171875 48.1875 -13.984375 
Q 42 -20.796875 29.203125 -20.796875 
Q 24.46875 -20.796875 20.265625 -20.09375 
Q 16.0625 -19.390625 12.109375 -17.921875 
L 12.109375 -9.1875 
Q 16.0625 -11.328125 19.921875 -12.34375 
Q 23.78125 -13.375 27.78125 -13.375 
Q 36.625 -13.375 41.015625 -8.765625 
Q 45.40625 -4.15625 45.40625 5.171875 
L 45.40625 9.625 
Q 42.625 4.78125 38.28125 2.390625 
Q 33.9375 0 27.875 0 
Q 17.828125 0 11.671875 7.65625 
Q 5.515625 15.328125 5.515625 27.984375 
Q 5.515625 40.671875 11.671875 48.328125 
Q 17.828125 56 27.875 56 
Q 33.9375 56 38.28125 53.609375 
Q 42.625 51.21875 45.40625 46.390625 
L 45.40625 54.6875 
L 54.390625 54.6875 
z
" id="DejaVuSans-103"/>
      <path d="M 54.890625 33.015625 
L 54.890625 0 
L 45.90625 0 
L 45.90625 32.71875 
Q 45.90625 40.484375 42.875 44.328125 
Q 39.84375 48.1875 33.796875 48.1875 
Q 26.515625 48.1875 22.3125 43.546875 
Q 18.109375 38.921875 18.109375 30.90625 
L 18.109375 0 
L 9.078125 0 
L 9.078125 75.984375 
L 18.109375 75.984375 
L 18.109375 46.1875 
Q 21.34375 51.125 25.703125 53.5625 
Q 30.078125 56 35.796875 56 
Q 45.21875 56 50.046875 50.171875 
Q 54.890625 44.34375 54.890625 33.015625 
z
" id="DejaVuSans-104"/>
      <path d="M 18.3125 70.21875 
L 18.3125 54.6875 
L 36.8125 54.6875 
L 36.8125 47.703125 
L 18.3125 47.703125 
L 18.3125 18.015625 
Q 18.3125 11.328125 20.140625 9.421875 
Q 21.96875 7.515625 27.59375 7.515625 
L 36.8125 7.515625 
L 36.8125 0 
L 27.59375 0 
Q 17.1875 0 13.234375 3.875 
Q 9.28125 7.765625 9.28125 18.015625 
L 9.28125 47.703125 
L 2.6875 47.703125 
L 2.6875 54.6875 
L 9.28125 54.6875 
L 9.28125 70.21875 
z
" id="DejaVuSans-116"/>
     </defs>
     <g transform="translate(154.523438 343.276563)scale(0.1 -0.1)">
      <use xlink:href="#DejaVuSans-87"/>
      <use x="98.783203" xlink:href="#DejaVuSans-97"/>
      <use x="160.0625" xlink:href="#DejaVuSans-118"/>
      <use x="219.242188" xlink:href="#DejaVuSans-101"/>
      <use x="280.765625" xlink:href="#DejaVuSans-108"/>
      <use x="308.548828" xlink:href="#DejaVuSans-101"/>
      <use x="370.072266" xlink:href="#DejaVuSans-110"/>
      <use x="433.451172" xlink:href="#DejaVuSans-103"/>
      <use x="496.927734" xlink:href="#DejaVuSans-104"/>
      <use x="560.306641" xlink:href="#DejaVuSans-116"/>
     </g>
    </g>
   </g>
   <g id="matplotlib.axis_2">
    <g id="ytick_1">
     <g id="line2d_8">
      <defs>
       <path d="M 0 0 
L -3.5 0 
" id="m38c07e60f3" style="stroke:#000000;stroke-width:0.8;"/>
      </defs>
      <g>
       <use style="stroke:#000000;stroke-width:0.8;" x="45" xlink:href="#m38c07e60f3" y="301.651802"/>
      </g>
     </g>
     <g id="text_9">
      <!-- 0.0 -->
      <defs>
       <path d="M 10.6875 12.40625 
L 21 12.40625 
L 21 0 
L 10.6875 0 
z
" id="DejaVuSans-46"/>
      </defs>
      <g transform="translate(22.096875 305.451021)scale(0.1 -0.1)">
       <use xlink:href="#DejaVuSans-48"/>
       <use x="63.623047" xlink:href="#DejaVuSans-46"/>
       <use x="95.410156" xlink:href="#DejaVuSans-48"/>
      </g>
     </g>
    </g>
    <g id="ytick_2">
     <g id="line2d_9">
      <g>
       <use style="stroke:#000000;stroke-width:0.8;" x="45" xlink:href="#m38c07e60f3" y="264.458997"/>
      </g>
     </g>
     <g id="text_10">
      <!-- 0.1 -->
      <defs>
       <path d="M 12.40625 8.296875 
L 28.515625 8.296875 
L 28.515625 63.921875 
L 10.984375 60.40625 
L 10.984375 69.390625 
L 28.421875 72.90625 
L 38.28125 72.90625 
L 38.28125 8.296875 
L 54.390625 8.296875 
L 54.390625 0 
L 12.40625 0 
z
" id="DejaVuSans-49"/>
      </defs>
      <g transform="translate(22.096875 268.258216)scale(0.1 -0.1)">
       <use xlink:href="#DejaVuSans-48"/>
       <use x="63.623047" xlink:href="#DejaVuSans-46"/>
       <use x="95.410156" xlink:href="#DejaVuSans-49"/>
      </g>
     </g>
    </g>
    <g id="ytick_3">
     <g id="line2d_10">
      <g>
       <use style="stroke:#000000;stroke-width:0.8;" x="45" xlink:href="#m38c07e60f3" y="227.266192"/>
      </g>
     </g>
     <g id="text_11">
      <!-- 0.2 -->
      <defs>
       <path d="M 19.1875 8.296875 
L 53.609375 8.296875 
L 53.609375 0 
L 7.328125 0 
L 7.328125 8.296875 
Q 12.9375 14.109375 22.625 23.890625 
Q 32.328125 33.6875 34.8125 36.53125 
Q 39.546875 41.84375 41.421875 45.53125 
Q 43.3125 49.21875 43.3125 52.78125 
Q 43.3125 58.59375 39.234375 62.25 
Q 35.15625 65.921875 28.609375 65.921875 
Q 23.96875 65.921875 18.8125 64.3125 
Q 13.671875 62.703125 7.8125 59.421875 
L 7.8125 69.390625 
Q 13.765625 71.78125 18.9375 73 
Q 24.125 74.21875 28.421875 74.21875 
Q 39.75 74.21875 46.484375 68.546875 
Q 53.21875 62.890625 53.21875 53.421875 
Q 53.21875 48.921875 51.53125 44.890625 
Q 49.859375 40.875 45.40625 35.40625 
Q 44.1875 33.984375 37.640625 27.21875 
Q 31.109375 20.453125 19.1875 8.296875 
z
" id="DejaVuSans-50"/>
      </defs>
      <g transform="translate(22.096875 231.065411)scale(0.1 -0.1)">
       <use xlink:href="#DejaVuSans-48"/>
       <use x="63.623047" xlink:href="#DejaVuSans-46"/>
       <use x="95.410156" xlink:href="#DejaVuSans-50"/>
      </g>
     </g>
    </g>
    <g id="ytick_4">
     <g id="line2d_11">
      <g>
       <use style="stroke:#000000;stroke-width:0.8;" x="45" xlink:href="#m38c07e60f3" y="190.073387"/>
      </g>
     </g>
     <g id="text_12">
      <!-- 0.3 -->
      <defs>
       <path d="M 40.578125 39.3125 
Q 47.65625 37.796875 51.625 33 
Q 55.609375 28.21875 55.609375 21.1875 
Q 55.609375 10.40625 48.1875 4.484375 
Q 40.765625 -1.421875 27.09375 -1.421875 
Q 22.515625 -1.421875 17.65625 -0.515625 
Q 12.796875 0.390625 7.625 2.203125 
L 7.625 11.71875 
Q 11.71875 9.328125 16.59375 8.109375 
Q 21.484375 6.890625 26.8125 6.890625 
Q 36.078125 6.890625 40.9375 10.546875 
Q 45.796875 14.203125 45.796875 21.1875 
Q 45.796875 27.640625 41.28125 31.265625 
Q 36.765625 34.90625 28.71875 34.90625 
L 20.21875 34.90625 
L 20.21875 43.015625 
L 29.109375 43.015625 
Q 36.375 43.015625 40.234375 45.921875 
Q 44.09375 48.828125 44.09375 54.296875 
Q 44.09375 59.90625 40.109375 62.90625 
Q 36.140625 65.921875 28.71875 65.921875 
Q 24.65625 65.921875 20.015625 65.03125 
Q 15.375 64.15625 9.8125 62.3125 
L 9.8125 71.09375 
Q 15.4375 72.65625 20.34375 73.4375 
Q 25.25 74.21875 29.59375 74.21875 
Q 40.828125 74.21875 47.359375 69.109375 
Q 53.90625 64.015625 53.90625 55.328125 
Q 53.90625 49.265625 50.4375 45.09375 
Q 46.96875 40.921875 40.578125 39.3125 
z
" id="DejaVuSans-51"/>
      </defs>
      <g transform="translate(22.096875 193.872606)scale(0.1 -0.1)">
       <use xlink:href="#DejaVuSans-48"/>
       <use x="63.623047" xlink:href="#DejaVuSans-46"/>
       <use x="95.410156" xlink:href="#DejaVuSans-51"/>
      </g>
     </g>
    </g>
    <g id="ytick_5">
     <g id="line2d_12">
      <g>
       <use style="stroke:#000000;stroke-width:0.8;" x="45" xlink:href="#m38c07e60f3" y="152.880582"/>
      </g>
     </g>
     <g id="text_13">
      <!-- 0.4 -->
      <g transform="translate(22.096875 156.679801)scale(0.1 -0.1)">
       <use xlink:href="#DejaVuSans-48"/>
       <use x="63.623047" xlink:href="#DejaVuSans-46"/>
       <use x="95.410156" xlink:href="#DejaVuSans-52"/>
      </g>
     </g>
    </g>
    <g id="ytick_6">
     <g id="line2d_13">
      <g>
       <use style="stroke:#000000;stroke-width:0.8;" x="45" xlink:href="#m38c07e60f3" y="115.687777"/>
      </g>
     </g>
     <g id="text_14">
      <!-- 0.5 -->
      <g transform="translate(22.096875 119.486996)scale(0.1 -0.1)">
       <use xlink:href="#DejaVuSans-48"/>
       <use x="63.623047" xlink:href="#DejaVuSans-46"/>
       <use x="95.410156" xlink:href="#DejaVuSans-53"/>
      </g>
     </g>
    </g>
    <g id="ytick_7">
     <g id="line2d_14">
      <g>
       <use style="stroke:#000000;stroke-width:0.8;" x="45" xlink:href="#m38c07e60f3" y="78.494973"/>
      </g>
     </g>
     <g id="text_15">
      <!-- 0.6 -->
      <g transform="translate(22.096875 82.294191)scale(0.1 -0.1)">
       <use xlink:href="#DejaVuSans-48"/>
       <use x="63.623047" xlink:href="#DejaVuSans-46"/>
       <use x="95.410156" xlink:href="#DejaVuSans-54"/>
      </g>
     </g>
    </g>
    <g id="text_16">
     <!-- Intensity (a.u.) -->
     <defs>
      <path d="M 9.8125 72.90625 
L 19.671875 72.90625 
L 19.671875 0 
L 9.8125 0 
z
" id="DejaVuSans-73"/>
      <path d="M 44.28125 53.078125 
L 44.28125 44.578125 
Q 40.484375 46.53125 36.375 47.5 
Q 32.28125 48.484375 27.875 48.484375 
Q 21.1875 48.484375 17.84375 46.4375 
Q 14.5 44.390625 14.5 40.28125 
Q 14.5 37.15625 16.890625 35.375 
Q 19.28125 33.59375 26.515625 31.984375 
L 29.59375 31.296875 
Q 39.15625 29.25 43.1875 25.515625 
Q 47.21875 21.78125 47.21875 15.09375 
Q 47.21875 7.46875 41.1875 3.015625 
Q 35.15625 -1.421875 24.609375 -1.421875 
Q 20.21875 -1.421875 15.453125 -0.5625 
Q 10.6875 0.296875 5.421875 2 
L 5.421875 11.28125 
Q 10.40625 8.6875 15.234375 7.390625 
Q 20.0625 6.109375 24.8125 6.109375 
Q 31.15625 6.109375 34.5625 8.28125 
Q 37.984375 10.453125 37.984375 14.40625 
Q 37.984375 18.0625 35.515625 20.015625 
Q 33.0625 21.96875 24.703125 23.78125 
L 21.578125 24.515625 
Q 13.234375 26.265625 9.515625 29.90625 
Q 5.8125 33.546875 5.8125 39.890625 
Q 5.8125 47.609375 11.28125 51.796875 
Q 16.75 56 26.8125 56 
Q 31.78125 56 36.171875 55.265625 
Q 40.578125 54.546875 44.28125 53.078125 
z
" id="DejaVuSans-115"/>
      <path d="M 9.421875 54.6875 
L 18.40625 54.6875 
L 18.40625 0 
L 9.421875 0 
z
M 9.421875 75.984375 
L 18.40625 75.984375 
L 18.40625 64.59375 
L 9.421875 64.59375 
z
" id="DejaVuSans-105"/>
      <path d="M 32.171875 -5.078125 
Q 28.375 -14.84375 24.75 -17.8125 
Q 21.140625 -20.796875 15.09375 -20.796875 
L 7.90625 -20.796875 
L 7.90625 -13.28125 
L 13.1875 -13.28125 
Q 16.890625 -13.28125 18.9375 -11.515625 
Q 21 -9.765625 23.484375 -3.21875 
L 25.09375 0.875 
L 2.984375 54.6875 
L 12.5 54.6875 
L 29.59375 11.921875 
L 46.6875 54.6875 
L 56.203125 54.6875 
z
" id="DejaVuSans-121"/>
      <path id="DejaVuSans-32"/>
      <path d="M 31 75.875 
Q 24.46875 64.65625 21.28125 53.65625 
Q 18.109375 42.671875 18.109375 31.390625 
Q 18.109375 20.125 21.3125 9.0625 
Q 24.515625 -2 31 -13.1875 
L 23.1875 -13.1875 
Q 15.875 -1.703125 12.234375 9.375 
Q 8.59375 20.453125 8.59375 31.390625 
Q 8.59375 42.28125 12.203125 53.3125 
Q 15.828125 64.359375 23.1875 75.875 
z
" id="DejaVuSans-40"/>
      <path d="M 8.5 21.578125 
L 8.5 54.6875 
L 17.484375 54.6875 
L 17.484375 21.921875 
Q 17.484375 14.15625 20.5 10.265625 
Q 23.53125 6.390625 29.59375 6.390625 
Q 36.859375 6.390625 41.078125 11.03125 
Q 45.3125 15.671875 45.3125 23.6875 
L 45.3125 54.6875 
L 54.296875 54.6875 
L 54.296875 0 
L 45.3125 0 
L 45.3125 8.40625 
Q 42.046875 3.421875 37.71875 1 
Q 33.40625 -1.421875 27.6875 -1.421875 
Q 18.265625 -1.421875 13.375 4.4375 
Q 8.5 10.296875 8.5 21.578125 
z
M 31.109375 56 
z
" id="DejaVuSans-117"/>
      <path d="M 8.015625 75.875 
L 15.828125 75.875 
Q 23.140625 64.359375 26.78125 53.3125 
Q 30.421875 42.28125 30.421875 31.390625 
Q 30.421875 20.453125 26.78125 9.375 
Q 23.140625 -1.703125 15.828125 -13.1875 
L 8.015625 -13.1875 
Q 14.5 -2 17.703125 9.0625 
Q 20.90625 20.125 20.90625 31.390625 
Q 20.90625 42.671875 17.703125 53.65625 
Q 14.5 64.65625 8.015625 75.875 
z
" id="DejaVuSans-41"/>
     </defs>
     <g transform="translate(16.017187 215.764062)rotate(-90)scale(0.1 -0.1)">
      <use xlink:href="#DejaVuSans-73"/>
      <use x="29.492188" xlink:href="#DejaVuSans-110"/>
      <use x="92.871094" xlink:href="#DejaVuSans-116"/>
      <use x="132.080078" xlink:href="#DejaVuSans-101"/>
      <use x="193.603516" xlink:href="#DejaVuSans-110"/>
      <use x="256.982422" xlink:href="#DejaVuSans-115"/>
      <use x="309.082031" xlink:href="#DejaVuSans-105"/>
      <use x="336.865234" xlink:href="#DejaVuSans-116"/>
      <use x="376.074219" xlink:href="#DejaVuSans-121"/>
      <use x="435.253906" xlink:href="#DejaVuSans-32"/>
      <use x="467.041016" xlink:href="#DejaVuSans-40"/>
      <use x="506.054688" xlink:href="#DejaVuSans-97"/>
      <use x="567.333984" xlink:href="#DejaVuSans-46"/>
      <use x="599.121094" xlink:href="#DejaVuSans-117"/>
      <use x="662.5" xlink:href="#DejaVuSans-46"/>
      <use x="694.287109" xlink:href="#DejaVuSans-41"/>
     </g>
    </g>
   </g>
   <g id="line2d_15">
    <path clip-path="url(#p62f97834b4)" d="M 57.681818 301.918147 
L 57.869159 301.237548 
L 57.962829 301.758006 
L 58.243891 300.71709 
L 58.337587 301.417707 
L 58.6187 300.396808 
L 58.712422 301.391017 
L 58.806143 300.850541 
L 58.899865 301.737989 
L 58.993612 300.803833 
L 59.18108 301.89813 
L 59.368575 300.950629 
L 59.462322 301.731316 
L 59.556094 301.524467 
L 59.649841 301.918147 
L 59.743614 300.997337 
L 60.024957 301.631228 
L 60.306352 300.630347 
L 60.40015 301.16415 
L 60.493949 300.209977 
L 60.77542 301.92482 
L 60.869244 301.184168 
L 60.963068 301.831404 
L 61.056917 300.77047 
L 61.150741 302.151686 
L 61.526164 301.204185 
L 61.620039 301.144133 
L 61.807789 301.524467 
L 61.995564 300.503569 
L 62.18334 301.157478 
L 62.27724 301.150805 
L 62.371141 300.583639 
L 62.465067 301.13746 
L 62.558967 300.977319 
L 62.840746 302.151686 
L 62.934672 301.984873 
L 63.12255 301.204185 
L 63.216501 302.031581 
L 63.404405 301.017354 
L 63.498382 301.697954 
L 63.592359 301.417707 
L 63.686311 300.490224 
L 63.780288 301.144133 
L 63.968268 300.843868 
L 64.062246 301.350981 
L 64.156248 301.010682 
L 64.344254 301.791369 
L 64.438257 301.998218 
L 64.626314 301.197513 
L 64.720317 302.004891 
L 64.814345 301.204185 
L 64.908399 301.891457 
L 65.096482 301.711299 
L 65.19051 301.044044 
L 65.284564 301.624556 
L 65.378618 301.11077 
L 65.472698 301.317619 
L 65.566752 300.657037 
L 65.660831 301.150805 
L 65.754911 300.870558 
L 65.84899 301.350981 
L 65.94307 300.990664 
L 66.037175 302.038253 
L 66.131255 301.691281 
L 66.22536 301.791369 
L 66.319465 301.677936 
L 66.41357 301.364326 
L 66.601806 301.617883 
L 66.695937 300.937284 
L 66.790068 301.764679 
L 66.884198 300.850541 
L 66.978329 301.437724 
L 67.07246 300.903921 
L 67.166616 301.537813 
L 67.260772 300.79716 
L 67.354929 300.963974 
L 67.449085 300.817178 
L 67.543241 301.457742 
L 67.637423 300.870558 
L 67.731605 301.517795 
L 67.825787 301.097425 
L 67.919969 301.791369 
L 68.014151 301.444397 
L 68.20254 302.111651 
L 68.296748 301.310946 
L 68.390955 301.651246 
L 68.485163 301.324291 
L 68.579396 301.457742 
L 68.673603 300.490224 
L 68.956302 301.644573 
L 69.050536 300.576967 
L 69.144794 300.677055 
L 69.239027 301.404362 
L 69.333286 300.74378 
L 69.521803 301.571175 
L 69.616087 300.970646 
L 69.710346 301.84475 
L 69.898914 301.491105 
L 69.993199 302.231757 
L 70.276077 301.204185 
L 70.559006 301.637901 
L 70.841987 300.74378 
L 71.124993 301.297601 
L 71.219354 301.370999 
L 71.313689 300.957301 
L 71.502411 301.684609 
L 71.596772 301.05739 
L 71.691159 302.411916 
L 71.974293 301.444397 
L 72.068679 302.218412 
L 72.257478 301.05739 
L 72.351864 301.157478 
L 72.540689 300.817178 
L 72.635101 301.58452 
L 72.729513 300.316737 
L 72.823951 300.503569 
L 73.0128 301.617883 
L 73.107238 301.037372 
L 73.390602 302.645455 
L 73.48504 301.257566 
L 73.579503 301.304274 
L 73.673966 301.878112 
L 73.768455 301.13746 
L 73.862919 302.191722 
L 74.051871 301.177495 
L 74.14636 300.943956 
L 74.335363 301.19084 
L 74.429852 300.156596 
L 74.524366 300.997337 
L 74.713395 300.456861 
L 75.091504 301.911475 
L 75.186044 301.19084 
L 75.280584 301.571175 
L 75.375124 301.544485 
L 75.46969 301.257566 
L 75.56423 301.417707 
L 75.658795 301.911475 
L 75.847926 301.050717 
L 75.942517 301.517795 
L 76.037083 301.030699 
L 76.131674 301.50445 
L 76.226265 301.304274 
L 76.510039 300.203304 
L 76.604656 301.250893 
L 76.699272 300.897249 
L 76.983123 301.92482 
L 77.077739 301.92482 
L 77.172382 301.204185 
L 77.267024 301.684609 
L 77.361666 301.624556 
L 77.456309 301.457742 
L 77.550951 301.798042 
L 77.645619 301.364326 
L 77.740261 301.471087 
L 77.834929 301.010682 
L 78.024265 301.204185 
L 78.118958 300.637019 
L 78.30832 301.87144 
L 78.403013 301.437724 
L 78.497707 301.724644 
L 78.5924 301.691281 
L 78.687119 301.564503 
L 78.781813 301.717971 
L 78.876532 301.524467 
L 78.971251 301.017354 
L 79.06597 301.55783 
L 79.160689 301.244221 
L 79.255434 301.497777 
L 79.539642 301.217531 
L 79.634387 301.204185 
L 79.729131 301.037372 
L 80.013416 301.210858 
L 80.108187 301.010682 
L 80.202957 301.310946 
L 80.297753 300.71709 
L 80.392523 301.50445 
L 80.487319 300.910594 
L 80.582114 301.597865 
L 80.67691 301.55783 
L 80.771706 302.064943 
L 80.866502 301.697954 
L 80.961323 302.405243 
L 81.15094 300.79716 
L 81.340609 301.197513 
L 81.43543 300.963974 
L 81.530277 301.08408 
L 81.625098 300.336755 
L 81.719945 301.290929 
L 81.814792 300.837196 
L 82.004512 301.404362 
L 82.194231 301.664591 
L 82.289104 301.070735 
L 82.383976 301.691281 
L 82.478874 301.644573 
L 82.763518 301.117442 
L 82.858416 301.717971 
L 83.048238 300.817178 
L 83.143136 301.010682 
L 83.332983 300.763798 
L 83.427907 301.47776 
L 83.52283 301.224203 
L 83.617754 301.310946 
L 83.712703 300.790488 
L 83.807627 301.84475 
L 83.902576 301.771352 
L 83.997526 301.497777 
L 84.187424 301.971528 
L 84.282399 301.337636 
L 84.377374 301.858095 
L 84.567298 301.264238 
L 84.662298 301.310946 
L 84.852248 301.631228 
L 85.23225 300.456861 
L 85.422276 301.317619 
L 85.517277 301.157478 
L 85.612303 301.45107 
L 85.707329 300.943956 
L 85.802355 301.804714 
L 85.897406 301.324291 
L 85.992432 301.45107 
L 86.087484 301.764679 
L 86.182535 301.150805 
L 86.372639 301.604538 
L 86.46769 301.370999 
L 86.657819 300.583639 
L 86.752896 301.471087 
L 86.847973 300.316737 
L 86.943051 301.204185 
L 87.038153 301.017354 
L 87.228333 301.444397 
L 87.323436 301.370999 
L 87.418539 301.671263 
L 87.513641 301.637901 
L 87.703872 300.857213 
L 87.894104 301.524467 
L 87.989232 301.150805 
L 88.08436 301.764679 
L 88.179514 301.19084 
L 88.274642 301.424379 
L 88.369796 301.13746 
L 88.46495 301.357654 
L 88.560104 300.903921 
L 88.655258 301.017354 
L 88.750412 300.356773 
L 88.845591 301.377672 
L 88.940745 301.277583 
L 89.035925 301.45107 
L 89.131104 300.643692 
L 89.226284 301.551158 
L 89.321463 301.244221 
L 89.416668 301.95151 
L 89.511873 301.524467 
L 89.702258 301.918147 
L 90.083129 301.13746 
L 90.178334 301.544485 
L 90.273565 301.024027 
L 90.464052 301.297601 
L 90.559283 300.643692 
L 90.749795 301.197513 
L 90.845026 301.230876 
L 91.035564 301.611211 
L 91.13082 301.724644 
L 91.226102 301.464415 
L 91.321358 301.537813 
L 91.41664 301.84475 
L 91.702511 301.431052 
L 91.797792 300.710417 
L 91.8931 301.357654 
L 92.083715 300.983992 
L 92.179022 300.877231 
L 92.274355 301.217531 
L 92.464995 300.850541 
L 92.655661 301.651246 
L 92.846327 301.117442 
L 93.037019 301.971528 
L 93.132377 301.804714 
L 93.227736 301.364326 
L 93.323094 301.444397 
L 93.513837 301.297601 
L 93.609195 301.564503 
L 93.70458 301.144133 
L 93.895348 301.491105 
L 93.990732 301.444397 
L 94.086142 300.576967 
L 94.181526 301.310946 
L 94.276935 300.883903 
L 94.372345 301.657918 
L 94.467755 301.290929 
L 94.754009 301.791369 
L 94.849445 301.210858 
L 94.94488 301.89813 
L 95.04029 301.87144 
L 95.326621 301.090752 
L 95.422082 301.357654 
L 95.613004 301.017354 
L 95.708465 300.950629 
L 95.803925 300.430171 
L 95.899412 301.631228 
L 95.994873 301.044044 
L 96.090359 301.324291 
L 96.185845 301.204185 
L 96.281332 301.464415 
L 96.376818 300.990664 
L 96.472305 301.858095 
L 96.567817 301.424379 
L 96.663329 301.92482 
L 96.758841 301.804714 
L 96.854353 301.984873 
L 97.045377 301.384344 
L 97.140914 301.16415 
L 97.236426 301.310946 
L 97.331964 299.98311 
L 97.523039 301.511122 
L 97.809678 300.590312 
L 98.000804 301.544485 
L 98.096367 301.177495 
L 98.383082 301.651246 
L 98.478671 300.850541 
L 98.669848 301.524467 
L 98.765437 301.764679 
L 99.052229 300.977319 
L 99.147843 301.284256 
L 99.434686 300.750453 
L 99.530301 300.643692 
L 99.625941 300.29672 
L 99.72158 301.391017 
L 99.817195 301.05739 
L 99.912835 301.270911 
L 100.0085 301.931493 
L 100.10414 301.591193 
L 100.19978 301.724644 
L 100.295445 302.218412 
L 100.391111 301.411034 
L 100.486776 301.764679 
L 100.678107 301.150805 
L 100.773798 301.397689 
L 100.965155 300.957301 
L 101.060846 301.170823 
L 101.156537 300.623674 
L 101.252228 301.064062 
L 101.347919 300.877231 
L 101.539327 301.677936 
L 101.635044 301.644573 
L 101.73076 301.337636 
L 101.922193 301.651246 
L 102.017936 301.064062 
L 102.113652 301.657918 
L 102.209395 301.597865 
L 102.305137 301.651246 
L 102.496621 301.230876 
L 102.688131 301.244221 
L 102.783873 301.217531 
L 102.879641 300.697072 
L 102.975409 300.857213 
L 103.071177 301.551158 
L 103.166945 301.050717 
L 103.262738 301.250893 
L 103.358506 301.731316 
L 103.454299 301.644573 
L 103.550093 301.938165 
L 103.645886 301.05739 
L 103.741679 302.311827 
L 103.837473 301.070735 
L 103.933292 301.911475 
L 104.029085 301.677936 
L 104.124904 301.037372 
L 104.220723 301.264238 
L 104.412361 300.930611 
L 104.508205 301.350981 
L 104.604024 300.850541 
L 104.699869 301.377672 
L 104.795713 300.590312 
L 104.891532 300.617002 
L 104.987403 300.463533 
L 105.179092 301.13746 
L 105.274962 301.431052 
L 105.370832 301.144133 
L 105.466676 301.524467 
L 105.562547 300.236667 
L 105.658442 301.89813 
L 105.754312 301.771352 
L 105.946078 300.536931 
L 106.041974 301.991545 
L 106.13787 301.384344 
L 106.233765 301.664591 
L 106.425557 300.943956 
L 106.521478 300.71709 
L 106.617374 301.19084 
L 106.713295 300.27003 
L 106.809216 301.891457 
L 106.905137 300.963974 
L 107.192927 301.918147 
L 107.288874 301.831404 
L 107.384821 301.811387 
L 107.480767 301.491105 
L 107.576714 301.544485 
L 107.768634 301.364326 
L 107.86458 300.683727 
L 107.960553 301.244221 
L 108.056525 300.109889 
L 108.152498 301.357654 
L 108.24847 301.13746 
L 108.344468 301.230876 
L 108.440441 301.017354 
L 108.536439 301.798042 
L 108.632411 301.50445 
L 108.920431 302.004891 
L 109.016429 301.624556 
L 109.112452 302.058271 
L 109.400497 301.104097 
L 109.496521 301.471087 
L 109.688594 301.124115 
L 109.784617 300.817178 
L 109.880666 301.11077 
L 109.976716 300.229994 
L 110.168814 301.651246 
L 110.456987 301.184168 
L 110.553062 301.691281 
L 110.649137 301.497777 
L 110.745211 301.684609 
L 110.841286 301.364326 
L 110.937361 301.671263 
L 111.033436 300.683727 
L 111.129536 301.858095 
L 111.225636 300.950629 
L 111.321737 301.53114 
L 111.706163 300.470206 
L 111.802264 300.79716 
L 111.89839 301.551158 
L 111.994516 300.66371 
L 112.090641 301.45107 
L 112.186767 301.424379 
L 112.282893 300.857213 
L 112.571322 301.804714 
L 112.859777 301.310946 
L 112.955954 301.217531 
L 113.148282 300.697072 
L 113.244434 301.431052 
L 113.340611 301.177495 
L 113.436788 301.551158 
L 113.53299 301.064062 
L 113.629168 301.671263 
L 113.91775 300.943956 
L 114.110155 302.165032 
L 114.206358 301.484432 
L 114.302561 301.697954 
L 114.494991 301.150805 
L 114.59122 301.224203 
L 114.687448 301.544485 
L 114.783676 301.05739 
L 114.976158 301.257566 
L 115.072386 301.257566 
L 115.16864 300.903921 
L 115.361122 301.617883 
L 115.457376 300.983992 
L 115.649909 301.671263 
L 115.746163 301.317619 
L 115.842442 301.651246 
L 116.034975 301.204185 
L 116.13128 301.471087 
L 116.22756 301.19084 
L 116.323839 301.764679 
L 116.420119 301.637901 
L 116.612729 300.66371 
L 116.709033 301.184168 
L 116.805338 300.470206 
L 116.997948 301.08408 
L 117.190584 301.657918 
L 117.286914 301.764679 
L 117.383245 301.237548 
L 117.479575 302.338518 
L 117.575906 301.47776 
L 117.672237 301.731316 
L 117.768567 301.13746 
L 117.864923 301.87144 
L 117.961279 301.571175 
L 118.153991 300.790488 
L 118.250348 300.957301 
L 118.346704 300.677055 
L 118.44306 301.044044 
L 118.539442 300.823851 
L 118.732179 300.990664 
L 118.828561 301.210858 
L 118.924943 301.05739 
L 119.02135 301.417707 
L 119.117732 301.104097 
L 119.310521 302.225084 
L 119.406928 301.95151 
L 119.599743 301.204185 
L 119.792557 301.250893 
L 119.985397 301.304274 
L 120.08183 300.870558 
L 120.178263 301.010682 
L 120.274696 300.670382 
L 120.371129 301.391017 
L 120.467561 300.276702 
L 120.56402 301.764679 
L 120.660453 301.350981 
L 120.756911 301.644573 
L 120.85337 301.457742 
L 120.949828 301.84475 
L 121.046286 301.270911 
L 121.142745 302.145014 
L 121.335687 301.491105 
L 121.432171 301.010682 
L 121.528655 301.684609 
L 121.625139 301.130788 
L 121.721623 301.537813 
L 121.818107 300.610329 
L 121.914591 301.08408 
L 122.011101 300.617002 
L 122.300604 301.310946 
L 122.397114 300.843868 
L 122.590159 301.564503 
L 122.686668 301.204185 
L 122.783203 301.804714 
L 122.976248 301.524467 
L 123.072783 301.9782 
L 123.169318 301.264238 
L 123.265854 301.764679 
L 123.362414 301.664591 
L 123.55551 301.010682 
L 123.652071 301.471087 
L 123.845193 301.16415 
L 123.941753 300.750453 
L 124.328047 301.517795 
L 124.424634 301.437724 
L 124.617806 301.457742 
L 124.811005 302.098306 
L 124.907591 301.284256 
L 125.004203 301.597865 
L 125.100815 300.817178 
L 125.197427 300.910594 
L 125.390651 301.424379 
L 125.5839 300.917266 
L 125.777149 301.064062 
L 125.873787 300.950629 
L 125.970424 301.637901 
L 126.067062 301.411034 
L 126.163699 301.524467 
L 126.357 301.364326 
L 126.5503 301.791369 
L 126.646963 301.591193 
L 126.743627 301.11077 
L 126.840315 301.277583 
L 126.936978 301.711299 
L 127.13033 300.763798 
L 127.227019 300.630347 
L 127.323682 301.037372 
L 127.42037 300.410153 
L 127.613773 301.284256 
L 127.710462 301.537813 
L 127.903865 301.471087 
L 128.097293 301.424379 
L 128.194007 301.931493 
L 128.290722 301.150805 
L 128.484176 301.697954 
L 128.67763 300.783815 
L 128.871109 302.37188 
L 128.967849 300.803833 
L 129.161329 301.297601 
L 129.354834 300.837196 
L 129.451599 301.551158 
L 129.548365 301.297601 
L 129.838661 301.838077 
L 129.935452 300.863886 
L 130.032217 301.551158 
L 130.129008 301.290929 
L 130.225773 301.364326 
L 130.322564 300.990664 
L 130.419355 301.070735 
L 130.516172 300.990664 
L 130.709754 301.564503 
L 130.903361 300.276702 
L 131.096994 301.310946 
L 131.193811 301.50445 
L 131.290627 301.144133 
L 131.484286 301.324291 
L 131.581128 301.037372 
L 131.677945 301.604538 
L 131.774787 301.384344 
L 131.871629 301.544485 
L 132.065313 301.150805 
L 132.162155 301.631228 
L 132.259023 301.177495 
L 132.355891 301.437724 
L 132.452733 300.710417 
L 132.549601 300.790488 
L 132.646468 301.077407 
L 132.743336 301.044044 
L 132.840204 301.244221 
L 132.937097 301.858095 
L 133.033965 301.771352 
L 133.227726 301.998218 
L 133.324619 300.997337 
L 133.421512 301.611211 
L 133.712218 301.017354 
L 133.809111 300.910594 
L 133.90603 301.217531 
L 134.002949 300.6904 
L 134.099842 301.030699 
L 134.196761 300.703745 
L 134.390624 301.370999 
L 134.487543 301.230876 
L 134.584487 301.50445 
L 134.681406 301.284256 
L 134.778351 302.004891 
L 134.875295 301.097425 
L 134.972239 301.591193 
L 135.069184 301.417707 
L 135.166128 302.004891 
L 135.456987 300.930611 
L 135.553957 301.511122 
L 135.747897 300.843868 
L 135.844867 300.943956 
L 135.941837 301.624556 
L 136.038833 300.997337 
L 136.135803 301.391017 
L 136.232798 300.750453 
L 136.426764 301.944838 
L 136.620755 301.264238 
L 136.717776 301.297601 
L 136.814772 301.157478 
L 136.911768 301.524467 
L 137.10581 301.170823 
L 137.202831 300.783815 
L 137.396873 301.391017 
L 137.493895 300.957301 
L 137.590916 301.037372 
L 137.687963 300.830523 
L 137.784984 300.923939 
L 137.88203 301.45107 
L 137.979077 300.917266 
L 138.173171 301.651246 
L 138.270217 301.9782 
L 138.367264 301.310946 
L 138.464337 301.684609 
L 138.561383 301.411034 
L 138.658456 301.651246 
L 138.949647 300.803833 
L 139.046745 301.377672 
L 139.143817 300.870558 
L 139.24089 301.204185 
L 139.337988 300.657037 
L 139.43506 300.943956 
L 139.532158 300.790488 
L 139.629256 301.691281 
L 139.726354 301.264238 
L 139.920575 301.384344 
L 140.114771 301.024027 
L 140.211894 301.58452 
L 140.406141 301.364326 
L 140.600388 301.938165 
L 140.891784 301.070735 
L 140.988908 301.144133 
L 141.086057 301.377672 
L 141.280355 300.783815 
L 141.377504 301.711299 
L 141.474653 300.903921 
L 141.668977 301.651246 
L 141.766126 301.310946 
L 142.154799 301.838077 
L 142.446348 300.957301 
L 142.543549 301.497777 
L 142.737923 300.937284 
L 142.835124 301.024027 
L 142.932324 301.491105 
L 143.029524 300.343428 
L 143.223925 301.684609 
L 143.32115 301.244221 
L 143.515576 301.944838 
L 143.612802 301.424379 
L 143.710028 301.45107 
L 143.807254 301.45107 
L 143.90448 301.284256 
L 144.098931 301.684609 
L 144.196183 301.250893 
L 144.293408 301.397689 
L 144.487911 301.077407 
L 144.585163 301.497777 
L 144.682414 300.937284 
L 144.876942 301.257566 
L 144.974194 301.130788 
L 145.265999 301.691281 
L 145.363276 301.564503 
L 145.460553 301.684609 
L 145.655107 301.417707 
L 145.752409 301.13746 
L 145.849686 301.677936 
L 146.141568 300.510241 
L 146.238871 301.264238 
L 146.336174 301.184168 
L 146.530779 300.657037 
L 146.822737 301.84475 
L 146.920065 300.977319 
L 147.114722 301.637901 
L 147.21205 301.657918 
L 147.309378 301.210858 
L 147.50406 301.571175 
L 147.601388 301.431052 
L 147.698742 300.970646 
L 147.796095 301.257566 
L 147.893423 300.930611 
L 148.088156 301.337636 
L 148.18551 300.343428 
L 148.282864 300.356773 
L 148.380243 301.471087 
L 148.477597 301.350981 
L 148.574976 301.417707 
L 148.672355 300.963974 
L 148.769709 302.078288 
L 148.867088 301.444397 
L 148.964493 302.091634 
L 149.061872 301.08408 
L 149.354036 301.771352 
L 149.451441 300.870558 
L 149.548846 301.384344 
L 149.64625 300.883903 
L 149.743655 301.391017 
L 149.84106 300.923939 
L 149.938465 301.004009 
L 150.230731 300.583639 
L 150.328136 301.684609 
L 150.522996 301.471087 
L 150.620427 301.55783 
L 150.717857 302.218412 
L 151.010174 301.070735 
L 151.205086 301.597865 
L 151.302542 301.517795 
L 151.399973 301.16415 
L 151.59491 301.217531 
L 151.692366 301.884785 
L 151.789822 300.336755 
L 151.98476 301.224203 
L 152.082241 301.497777 
L 152.179723 301.444397 
L 152.277205 301.464415 
L 152.374686 301.878112 
L 152.472168 301.637901 
L 152.569649 301.677936 
L 152.667157 301.998218 
L 152.764638 300.970646 
L 152.862145 301.824732 
L 153.057134 300.817178 
L 153.154641 301.197513 
L 153.252149 301.391017 
L 153.349656 300.843868 
L 153.447163 300.923939 
L 153.544721 300.937284 
L 153.642228 301.150805 
L 153.739736 300.790488 
L 153.837243 301.704626 
L 153.934801 301.13746 
L 154.032308 301.778024 
L 154.129867 301.11077 
L 154.324932 301.411034 
L 154.42249 301.070735 
L 154.617556 301.404362 
L 154.715114 301.11077 
L 154.910231 301.330964 
L 155.007789 301.090752 
L 155.202906 301.524467 
L 155.398023 301.250893 
L 155.495632 300.610329 
L 155.690749 301.84475 
L 156.081084 301.384344 
L 156.373862 301.664591 
L 156.66669 300.830523 
L 156.7643 301.257566 
L 156.861909 301.197513 
L 156.959519 301.230876 
L 157.154738 300.790488 
L 157.252398 301.257566 
L 157.350008 300.943956 
L 157.545278 301.524467 
L 157.642887 301.397689 
L 157.740497 302.058271 
L 157.838157 301.92482 
L 158.033428 301.144133 
L 158.131088 301.938165 
L 158.228749 301.884785 
L 158.424019 300.963974 
L 158.52168 301.697954 
L 158.717001 301.217531 
L 158.814662 300.410153 
L 159.107695 301.577848 
L 159.205355 300.617002 
L 159.303067 301.958183 
L 159.400728 301.537813 
L 159.5961 301.604538 
L 159.693761 300.863886 
L 159.791473 301.677936 
L 159.889184 300.703745 
L 159.986845 301.858095 
L 160.182269 301.097425 
L 160.377692 300.783815 
L 160.475404 301.157478 
L 160.573116 300.456861 
L 160.76854 301.150805 
L 160.866251 300.857213 
L 160.963963 301.864767 
L 161.061675 301.391017 
L 161.25715 302.3185 
L 161.354913 301.684609 
L 161.452624 301.751334 
L 161.550387 302.37188 
L 161.843574 301.290929 
L 161.941337 301.564503 
L 162.0391 301.044044 
L 162.136863 301.631228 
L 162.234626 300.703745 
L 162.332389 301.104097 
L 162.430152 300.657037 
L 162.527915 301.170823 
L 162.625678 301.044044 
L 162.723441 301.677936 
L 162.821204 301.58452 
L 162.918967 301.637901 
L 163.114544 302.118324 
L 163.212307 301.524467 
L 163.310121 301.564503 
L 163.407884 301.55783 
L 163.505698 301.277583 
L 163.603461 301.55783 
L 163.701275 301.177495 
L 163.896852 301.317619 
L 163.994666 301.424379 
L 164.190294 300.903921 
L 164.288109 301.284256 
L 164.385923 301.070735 
L 164.483737 301.304274 
L 164.581551 300.79716 
L 164.777179 301.724644 
L 164.972859 301.290929 
L 165.070673 302.004891 
L 165.168538 301.257566 
L 165.266352 301.464415 
L 165.559897 300.850541 
L 165.755576 301.344309 
L 165.853441 301.004009 
L 165.951307 301.217531 
L 166.244851 301.010682 
L 166.440582 301.771352 
L 166.538447 301.330964 
L 166.636364 301.444397 
L 166.734229 301.104097 
L 166.832094 301.664591 
L 166.929959 301.471087 
L 167.223606 301.651246 
L 167.321523 300.790488 
L 167.419388 301.684609 
L 167.517305 301.177495 
L 167.615221 301.404362 
L 167.713086 301.037372 
L 167.908919 301.50445 
L 168.006836 300.563621 
L 168.202617 301.537813 
L 168.300534 301.344309 
L 168.39845 301.737989 
L 168.496367 301.517795 
L 168.594334 302.325173 
L 168.790167 301.631228 
L 168.888084 301.778024 
L 168.986051 301.631228 
L 169.083968 301.004009 
L 169.181884 301.357654 
L 169.279852 301.244221 
L 169.377768 301.444397 
L 169.573652 300.670382 
L 169.965471 301.337636 
L 170.161407 301.717971 
L 170.259374 301.704626 
L 170.455309 301.364326 
L 170.553277 301.931493 
L 170.84718 301.077407 
L 170.945198 301.784697 
L 171.043166 300.510241 
L 171.33712 301.471087 
L 171.435139 301.19084 
L 171.533106 301.737989 
L 171.631125 301.070735 
L 172.121168 302.171704 
L 172.219135 301.964855 
L 172.317154 301.19084 
L 172.513192 301.911475 
L 172.61121 301.484432 
L 172.709229 301.511122 
L 172.807299 301.671263 
L 173.003336 300.563621 
L 173.101355 301.010682 
L 173.199425 300.857213 
L 173.297444 301.397689 
L 173.395514 301.330964 
L 173.591603 301.524467 
L 173.689621 301.177495 
L 173.98378 302.205067 
L 174.08185 301.84475 
L 174.17992 300.837196 
L 174.277938 302.004891 
L 174.376008 300.923939 
L 174.474078 301.47776 
L 174.670218 301.324291 
L 174.768288 300.523586 
L 174.964479 301.317619 
L 175.062549 300.950629 
L 175.258689 301.864767 
L 175.35681 301.831404 
L 175.553001 301.484432 
L 175.651071 302.185049 
L 175.749192 301.284256 
L 175.847262 301.684609 
L 175.945383 301.370999 
L 176.043504 302.358535 
L 176.141574 301.564503 
L 176.239695 301.624556 
L 176.337816 301.484432 
L 176.435937 301.818059 
L 176.534058 300.637019 
L 176.730249 301.277583 
L 176.82837 300.997337 
L 176.926542 301.097425 
L 177.024663 300.977319 
L 177.220905 301.577848 
L 177.319026 301.250893 
L 177.417199 302.071616 
L 177.51532 301.397689 
L 177.613441 301.991545 
L 177.809734 301.617883 
L 177.907906 301.16415 
L 178.1042 301.47776 
L 178.300493 300.943956 
L 178.398665 301.471087 
L 178.496837 300.66371 
L 178.59501 301.224203 
L 178.693131 301.19084 
L 178.791303 301.350981 
L 178.889475 301.150805 
L 179.08582 301.84475 
L 179.282215 301.491105 
L 179.380387 301.711299 
L 179.576732 301.604538 
L 179.674955 301.697954 
L 179.8713 301.350981 
L 179.969523 301.497777 
L 180.067695 300.603657 
L 180.165919 301.377672 
L 180.362314 300.910594 
L 180.460538 300.990664 
L 180.55871 301.564503 
L 180.755157 301.424379 
L 180.951603 301.631228 
L 181.14805 301.858095 
L 181.246274 301.250893 
L 181.344497 301.691281 
L 181.44272 301.411034 
L 181.540944 301.911475 
L 181.737391 301.297601 
L 181.835614 301.204185 
L 181.933888 301.404362 
L 182.032112 301.017354 
L 182.130386 301.230876 
L 182.22861 300.6904 
L 182.326833 301.457742 
L 182.425108 300.923939 
L 182.523382 301.284256 
L 182.621606 300.950629 
L 182.818104 301.737989 
L 182.916378 301.177495 
L 183.014653 301.858095 
L 183.112927 301.124115 
L 183.211202 302.071616 
L 183.4077 301.384344 
L 183.505974 301.330964 
L 183.604249 301.58452 
L 183.702574 301.517795 
L 183.800849 301.070735 
L 183.899124 301.264238 
L 183.997398 301.210858 
L 184.193998 300.596984 
L 184.390547 301.444397 
L 184.488873 301.024027 
L 184.587148 301.517795 
L 184.685473 301.497777 
L 184.783748 301.664591 
L 184.882074 300.677055 
L 185.177 302.018236 
L 185.275274 301.130788 
L 185.3736 301.310946 
L 185.471925 301.090752 
L 185.570251 301.284256 
L 185.668577 300.950629 
L 185.766903 301.264238 
L 185.865228 301.157478 
L 185.963554 301.257566 
L 186.06188 300.903921 
L 186.160205 301.891457 
L 186.258531 301.537813 
L 186.356857 301.677936 
L 186.455183 302.064943 
L 186.553559 300.957301 
L 186.750211 301.657918 
L 186.946913 301.310946 
L 187.04529 301.544485 
L 187.241993 301.257566 
L 187.438695 301.437724 
L 187.537072 301.370999 
L 187.635398 300.917266 
L 187.733775 301.004009 
L 187.832152 301.617883 
L 187.930528 300.823851 
L 188.127231 301.991545 
L 188.225608 301.537813 
L 188.323985 301.964855 
L 188.422362 300.670382 
L 188.52079 301.751334 
L 188.717543 301.417707 
L 188.81592 301.798042 
L 188.914297 301.124115 
L 189.012725 301.671263 
L 189.111102 301.097425 
L 189.209479 301.19084 
L 189.307907 301.778024 
L 189.504712 300.590312 
L 189.603089 301.277583 
L 189.701517 301.11077 
L 189.799893 300.476878 
L 189.898321 301.751334 
L 189.996698 301.004009 
L 190.095126 301.577848 
L 190.193554 301.551158 
L 190.39041 301.717971 
L 190.488787 302.26512 
L 190.587215 301.45107 
L 190.685643 301.697954 
L 190.980927 300.550276 
L 191.177835 301.471087 
L 191.276262 301.684609 
L 191.374691 301.424379 
L 191.473119 300.697072 
L 191.670026 301.864767 
L 191.768454 301.664591 
L 191.866933 301.818059 
L 191.965361 301.444397 
L 192.06384 301.811387 
L 192.162268 301.771352 
L 192.359175 301.597865 
L 192.457655 301.831404 
L 192.556134 301.230876 
L 192.654562 301.310946 
L 192.753041 300.77047 
L 192.85152 301.517795 
L 193.048478 300.77047 
L 193.146958 301.397689 
L 193.245437 301.177495 
L 193.343865 300.603657 
L 193.442395 301.604538 
L 193.540874 301.337636 
L 193.737833 302.124996 
L 193.836312 301.457742 
L 194.03327 301.604538 
L 194.131801 301.317619 
L 194.23028 301.484432 
L 194.328759 301.250893 
L 194.427289 301.471087 
L 194.525768 300.763798 
L 194.624299 301.370999 
L 194.722778 301.097425 
L 194.821308 301.364326 
L 194.919787 300.396808 
L 195.018318 300.583639 
L 195.215327 301.257566 
L 195.313858 301.144133 
L 195.510918 301.611211 
L 195.609449 301.651246 
L 195.806458 301.310946 
L 195.904988 301.45107 
L 196.003519 301.884785 
L 196.102049 301.838077 
L 196.200579 301.971528 
L 196.496222 300.77047 
L 196.594752 301.691281 
L 196.791864 300.957301 
L 196.988924 301.13746 
L 197.087506 300.963974 
L 197.186036 301.497777 
L 197.284618 301.284256 
L 197.383148 301.684609 
L 197.48173 301.250893 
L 197.58026 301.804714 
L 197.678841 301.19084 
L 197.875953 301.964855 
L 198.073116 301.55783 
L 198.171698 301.964855 
L 198.270228 300.957301 
L 198.368809 301.624556 
L 198.664554 301.144133 
L 198.763135 301.350981 
L 198.861717 300.723762 
L 198.960298 301.130788 
L 199.05888 300.850541 
L 199.157513 301.317619 
L 199.256094 301.250893 
L 199.354676 301.484432 
L 199.453257 301.424379 
L 199.551839 302.225084 
L 199.749053 301.577848 
L 199.847685 301.564503 
L 199.946267 302.004891 
L 200.044899 301.324291 
L 200.143481 301.517795 
L 200.439328 300.883903 
L 200.537909 300.009801 
L 200.932389 302.044926 
L 201.031021 301.651246 
L 201.129654 301.89813 
L 201.228287 301.417707 
L 201.326919 302.004891 
L 201.425552 301.484432 
L 201.524185 302.018236 
L 201.622817 301.677936 
L 201.72145 301.938165 
L 201.820082 301.157478 
L 202.017348 301.471087 
L 202.510613 300.777143 
L 202.609246 301.391017 
L 202.707879 301.324291 
L 202.806562 301.317619 
L 202.905195 301.9782 
L 203.003879 301.58452 
L 203.102512 301.791369 
L 203.201195 301.370999 
L 203.299879 301.711299 
L 203.398512 301.130788 
L 203.497196 301.47776 
L 203.595879 300.790488 
L 203.694512 301.130788 
L 203.793196 300.863886 
L 203.89188 301.524467 
L 203.990563 301.444397 
L 204.089247 301.357654 
L 204.187931 301.050717 
L 204.286615 301.08408 
L 204.385299 301.050717 
L 204.483983 301.277583 
L 204.582666 301.050717 
L 204.68135 301.931493 
L 204.780034 301.778024 
L 204.878718 301.284256 
L 205.076085 301.657918 
L 205.17482 301.317619 
L 205.273504 301.524467 
L 205.372188 300.983992 
L 205.470923 301.684609 
L 205.569607 301.250893 
L 205.66829 301.617883 
L 206.063128 300.723762 
L 206.359282 301.384344 
L 206.655436 301.778024 
L 206.754171 301.577848 
L 206.852905 301.831404 
L 206.95164 301.157478 
L 207.050375 302.145014 
L 207.149059 301.104097 
L 207.247794 301.964855 
L 207.346529 301.117442 
L 207.445264 301.297601 
L 207.543999 301.204185 
L 207.642734 300.883903 
L 207.74152 301.224203 
L 207.840255 301.064062 
L 207.93899 301.13746 
L 208.037725 301.350981 
L 208.13646 300.930611 
L 208.235246 301.778024 
L 208.432716 301.004009 
L 208.630237 301.89813 
L 208.728972 301.684609 
L 208.827758 301.811387 
L 208.926493 301.204185 
L 209.025279 301.457742 
L 209.124014 301.204185 
L 209.2228 301.691281 
L 209.321535 301.611211 
L 209.420322 301.677936 
L 209.617843 300.910594 
L 209.716629 301.097425 
L 209.815415 300.930611 
L 209.914201 301.491105 
L 210.012936 301.310946 
L 210.111722 301.684609 
L 210.309294 301.471087 
L 210.40808 301.437724 
L 210.506867 301.204185 
L 210.605653 302.131669 
L 210.803225 301.45107 
L 210.902011 301.631228 
L 211.000797 301.611211 
L 211.099583 300.990664 
L 211.198421 301.55783 
L 211.395993 301.244221 
L 211.494779 301.524467 
L 211.593616 300.850541 
L 211.692402 301.55783 
L 211.791188 301.330964 
L 211.890026 301.591193 
L 211.988812 301.044044 
L 212.087649 301.124115 
L 212.285273 301.677936 
L 212.384059 301.204185 
L 212.482896 301.851422 
L 212.581682 301.244221 
L 212.680519 301.891457 
L 212.779357 301.277583 
L 212.878143 301.431052 
L 213.075817 301.350981 
L 213.174655 301.391017 
L 213.273492 301.097425 
L 213.471115 301.47776 
L 213.569953 301.004009 
L 213.66879 302.058271 
L 213.767627 301.244221 
L 213.866464 301.257566 
L 214.162976 301.991545 
L 214.261814 301.878112 
L 214.360702 301.337636 
L 214.459539 301.384344 
L 214.558377 301.911475 
L 214.953777 300.983992 
L 215.052614 301.150805 
L 215.151503 300.943956 
L 215.349228 301.391017 
L 215.448066 300.923939 
L 215.645791 301.737989 
L 215.843517 302.011563 
L 215.942405 301.257566 
L 216.140131 301.864767 
L 216.23902 301.617883 
L 216.337857 301.684609 
L 216.436745 301.497777 
L 216.535634 300.730435 
L 216.634522 301.751334 
L 216.733411 300.837196 
L 216.832248 301.044044 
L 216.931136 300.603657 
L 217.030025 301.304274 
L 217.128913 300.830523 
L 217.227802 301.184168 
L 217.32669 300.71709 
L 217.524467 301.731316 
L 217.623355 301.377672 
L 217.722244 301.971528 
L 217.920072 301.290929 
L 218.117849 301.591193 
L 218.216737 301.617883 
L 218.315677 301.050717 
L 218.414565 301.564503 
L 218.513454 301.070735 
L 218.612393 301.431052 
L 218.711282 300.416825 
L 218.810221 300.757125 
L 218.90911 300.263357 
L 219.205826 302.071616 
L 219.403705 301.617883 
L 219.502594 301.838077 
L 219.601533 301.691281 
L 219.700422 300.957301 
L 219.799361 301.537813 
L 219.997241 301.350981 
L 220.096129 300.937284 
L 220.195069 301.257566 
L 220.294008 300.77047 
L 220.392948 300.990664 
L 220.491888 300.71709 
L 220.590827 300.790488 
L 220.788655 301.424379 
L 220.986534 300.963974 
L 221.085525 301.224203 
L 221.184465 301.831404 
L 221.283404 301.551158 
L 221.382344 301.778024 
L 221.481283 300.623674 
L 221.580223 301.824732 
L 221.679163 300.930611 
L 221.877093 301.210858 
L 222.074972 300.336755 
L 222.173963 300.40348 
L 222.272903 300.803833 
L 222.371842 300.523586 
L 222.470833 300.590312 
L 222.569773 300.209977 
L 222.668763 300.630347 
L 222.767703 300.290047 
L 222.866694 301.197513 
L 223.064624 300.450188 
L 223.163564 300.530259 
L 223.262554 301.19084 
L 223.361494 300.903921 
L 223.460485 301.037372 
L 223.559475 300.850541 
L 223.658466 299.969765 
L 223.757406 300.603657 
L 223.856397 299.496015 
L 224.054378 300.023146 
L 224.252308 300.089871 
L 224.351299 298.922176 
L 224.549281 300.109889 
L 224.648271 299.709536 
L 224.945244 300.596984 
L 225.044234 299.749571 
L 225.143225 300.423498 
L 225.242216 299.415944 
L 225.440249 299.609448 
L 225.539239 299.209095 
L 225.63823 299.569413 
L 225.836212 298.988902 
L 225.935254 299.516032 
L 226.034244 298.74869 
L 226.133235 298.928849 
L 226.232277 298.681964 
L 226.5293 299.215768 
L 226.628291 298.375028 
L 226.826324 299.309184 
L 227.123398 298.194869 
L 227.22244 298.728672 
L 227.420473 298.234904 
L 227.618506 297.707773 
L 227.81659 297.974675 
L 228.014622 296.900396 
L 228.113664 297.974675 
L 228.311748 297.327438 
L 228.410739 297.260713 
L 228.509781 298.201542 
L 228.608822 297.240695 
L 228.707864 297.347456 
L 228.806906 297.627703 
L 229.104032 296.540079 
L 229.203074 296.606804 
L 229.500251 295.54587 
L 229.599293 296.006275 
L 229.698335 295.132172 
L 229.896418 295.298985 
L 229.995512 295.932877 
L 230.094553 295.892842 
L 230.193595 295.619268 
L 230.39173 295.866152 
L 230.589865 294.945341 
L 230.688907 295.298985 
L 230.787949 294.691784 
L 230.887042 294.751837 
L 230.986084 294.851926 
L 231.085177 293.677558 
L 231.184219 293.851044 
L 231.283312 294.251397 
L 231.481447 293.530762 
L 231.58054 293.484054 
L 231.679582 292.236289 
L 231.877768 292.970268 
L 231.97681 292.783437 
L 232.174996 292.323032 
L 232.373131 291.902662 
L 232.472224 292.249634 
L 232.571317 291.021887 
L 232.670411 291.055249 
L 232.769504 291.822592 
L 232.967639 290.641551 
L 233.066732 290.474738 
L 233.165825 290.714949 
L 233.264918 289.420477 
L 233.463104 289.834174 
L 233.562197 288.913364 
L 233.66129 289.30037 
L 233.760383 289.040142 
L 233.958621 287.111777 
L 234.057714 287.819066 
L 234.156807 288.112657 
L 234.2559 287.498784 
L 234.354993 287.759014 
L 234.454086 286.75146 
L 234.55323 286.991671 
L 235.048747 284.669627 
L 235.147891 284.629591 
L 235.246984 283.321773 
L 235.346077 284.149168 
L 235.445221 284.009044 
L 235.643458 282.08068 
L 235.841696 283.054871 
L 236.039933 281.787088 
L 236.139026 282.040645 
L 236.436408 279.024656 
L 236.535552 279.238177 
L 236.832933 277.403229 
L 236.932078 277.743529 
L 237.130315 276.442382 
L 237.229459 277.042911 
L 237.427748 275.294706 
L 237.526892 275.341412 
L 237.625985 274.820954 
L 237.725129 274.967749 
L 238.022562 272.619015 
L 238.22085 272.232009 
L 238.419139 269.990033 
L 238.518283 270.410403 
L 238.815716 268.061669 
L 238.914911 267.988271 
L 239.014055 266.520311 
L 239.1132 266.733834 
L 239.311488 264.945592 
L 239.410632 264.978954 
L 239.608972 263.604412 
L 239.80726 261.829516 
L 239.906456 259.967877 
L 240.0056 260.708528 
L 240.104744 260.248122 
L 240.20394 258.019494 
L 240.303084 258.513262 
L 240.600568 256.571553 
L 240.699763 256.271287 
L 240.898103 253.508855 
L 240.997247 254.509736 
L 241.195586 251.827375 
L 241.294782 252.294452 
L 241.790657 246.522702 
L 241.889852 246.302512 
L 241.989047 245.775381 
L 242.187387 242.005393 
L 242.286582 241.992048 
L 242.484922 240.877735 
L 242.584117 238.575705 
L 242.683313 239.396427 
L 242.782508 238.749191 
L 243.080043 233.624678 
L 243.179238 234.565509 
L 243.377629 231.936525 
L 243.57602 229.774622 
L 243.873606 226.031326 
L 244.071997 225.450818 
L 244.270388 221.200408 
L 244.468778 216.342793 
L 244.568025 217.737356 
L 244.66722 217.717338 
L 245.064053 211.191594 
L 245.163248 211.15823 
L 245.361639 208.215643 
L 245.460886 207.521698 
L 245.857719 198.306915 
L 245.956914 197.032462 
L 246.155356 192.848774 
L 246.254551 193.109001 
L 246.353798 188.778524 
L 246.452993 190.473349 
L 246.750682 183.940928 
L 247.048319 179.890695 
L 247.147566 179.370242 
L 247.246761 174.999728 
L 247.346007 176.227471 
L 247.742942 170.502431 
L 248.536761 151.745912 
L 248.636008 152.159612 
L 249.727669 128.692289 
L 249.826915 129.846632 
L 249.926162 128.165152 
L 250.124655 120.878742 
L 250.223902 119.911214 
L 250.422395 111.730675 
L 250.521641 112.017604 
L 251.414911 93.05424 
L 251.514158 93.594711 
L 252.010493 81.163757 
L 252.705321 68.919663 
L 252.903865 65.256429 
L 253.003112 65.856955 
L 253.102358 65.716827 
L 253.201656 66.384081 
L 253.300902 68.599371 
L 253.499447 60.578979 
L 253.697991 62.961066 
L 253.797289 61.032704 
L 253.896535 55.894856 
L 254.095079 56.842344 
L 254.194377 59.211107 
L 254.293624 55.554545 
L 254.492219 60.29205 
L 254.591466 60.712434 
L 254.690763 59.311199 
L 254.790061 60.619015 
L 254.889308 60.325414 
L 255.18715 65.943701 
L 255.286447 67.211481 
L 255.484991 76.146019 
L 255.782885 77.280344 
L 256.080727 88.717078 
L 257.272197 130.940932 
L 257.669388 143.818938 
L 259.556146 201.269521 
L 259.754742 205.413172 
L 259.953388 211.551912 
L 260.052686 212.719607 
L 260.449928 224.303136 
L 260.549226 224.88365 
L 260.84717 231.409393 
L 260.946519 230.201668 
L 261.343761 237.801693 
L 261.542407 239.26965 
L 261.641705 239.950249 
L 261.840351 244.78784 
L 261.939649 244.834549 
L 262.336942 251.400329 
L 262.535589 253.602268 
L 262.634938 253.802446 
L 262.833584 256.291305 
L 263.131529 259.100446 
L 263.230877 258.32643 
L 263.429524 260.708528 
L 263.727519 264.772106 
L 264.422808 270.023397 
L 264.621455 271.364577 
L 264.720803 271.037623 
L 264.820152 273.853437 
L 264.91945 272.779156 
L 265.217497 275.388122 
L 265.316794 275.227978 
L 265.515492 277.082947 
L 265.61479 276.942822 
L 265.912836 280.379182 
L 266.012185 279.164779 
L 266.210832 281.119834 
L 266.310181 280.659429 
L 266.409529 281.907194 
L 266.508878 281.386735 
L 266.608176 282.868039 
L 266.707525 282.254166 
L 266.806874 283.76216 
L 266.906223 283.428533 
L 267.10492 284.723007 
L 267.89966 288.059278 
L 267.999009 287.578855 
L 268.197707 288.513011 
L 268.297004 288.132676 
L 268.396353 288.639789 
L 268.495702 288.479648 
L 268.6944 290.041023 
L 268.793749 289.553926 
L 269.091795 290.775002 
L 269.191144 292.049458 
L 269.290493 291.015214 
L 269.389842 292.730057 
L 269.687888 291.475619 
L 269.787237 292.623297 
L 269.886637 292.349722 
L 269.985986 292.883526 
L 270.184684 292.383085 
L 270.284033 293.243843 
L 270.383382 292.976941 
L 270.48273 293.110392 
L 270.582079 294.111274 
L 270.681428 293.544107 
L 270.780777 293.664213 
L 270.979475 294.524971 
L 271.078875 294.478263 
L 271.178224 295.372384 
L 271.277572 294.911979 
L 271.376921 295.339021 
L 271.47627 294.751837 
L 271.674968 295.025411 
L 271.774368 294.718475 
L 271.873717 294.938668 
L 271.973066 295.512507 
L 272.072415 294.631732 
L 272.171763 294.718475 
L 272.271163 294.424883 
L 272.469861 295.872825 
L 272.56921 295.832789 
L 272.668559 296.653512 
L 272.767959 296.399955 
L 272.867308 296.920414 
L 272.966657 296.319885 
L 273.066005 297.374146 
L 273.165354 296.38661 
L 273.264754 297.167297 
L 273.463452 295.999603 
L 273.662201 296.900396 
L 273.76155 296.173089 
L 273.860899 296.580114 
L 273.960247 296.43999 
L 274.059648 295.62594 
L 274.158996 297.000484 
L 274.258345 296.666857 
L 274.556443 297.400836 
L 274.655792 298.001365 
L 274.755192 296.773618 
L 274.854541 296.786963 
L 274.95389 297.801189 
L 275.152638 297.707773 
L 275.251987 297.96133 
L 275.351387 297.767826 
L 275.550085 298.455098 
L 275.649485 297.334111 
L 275.748834 298.361683 
L 275.848183 297.394164 
L 275.947583 297.994693 
L 276.146281 297.254041 
L 276.245681 298.348338 
L 276.345029 298.30163 
L 276.543778 298.975556 
L 276.643127 298.461771 
L 276.841876 298.868796 
L 276.941225 298.762035 
L 277.040625 298.294957 
L 277.139974 298.935521 
L 277.338723 298.181524 
L 277.73622 298.521823 
L 277.835569 298.501806 
L 278.034318 298.708655 
L 278.133667 298.66862 
L 278.531165 299.362564 
L 278.630514 297.827879 
L 278.729914 300.003128 
L 278.829263 299.255803 
L 278.928663 299.449307 
L 279.22676 299.235786 
L 279.32616 299.996455 
L 279.425509 298.535169 
L 279.524858 299.182405 
L 279.624258 298.975556 
L 279.723607 299.435962 
L 279.823007 299.095662 
L 279.922356 299.19575 
L 280.021756 299.129025 
L 280.220505 299.98311 
L 280.319854 300.29672 
L 280.419254 300.129906 
L 280.518602 300.3501 
L 280.717351 299.769589 
L 280.816751 299.829642 
L 280.9161 300.163269 
L 281.0155 300.109889 
L 281.214249 299.649483 
L 281.313598 300.256685 
L 281.611747 299.342546 
L 281.711096 300.263357 
L 281.810496 299.776262 
L 282.108593 300.763798 
L 282.207942 300.810506 
L 282.307342 300.983992 
L 282.605491 300.243339 
L 282.70484 300.71709 
L 282.80424 300.430171 
L 282.903589 300.550276 
L 283.002989 299.729554 
L 283.102338 300.697072 
L 283.201738 299.742899 
L 283.301087 300.003128 
L 283.400487 299.963093 
L 283.499836 299.776262 
L 283.698585 300.603657 
L 283.797985 299.856332 
L 283.897333 300.870558 
L 283.996733 300.216649 
L 284.096082 301.104097 
L 284.195482 300.723762 
L 284.294831 301.117442 
L 284.394231 300.436843 
L 284.49358 301.144133 
L 284.791729 300.356773 
L 284.891078 300.677055 
L 284.990478 300.203304 
L 285.089827 300.390135 
L 285.189227 299.742899 
L 285.387976 300.490224 
L 285.487324 300.643692 
L 285.686073 301.591193 
L 285.785473 300.917266 
L 285.884822 301.184168 
L 285.984222 300.556949 
L 286.083571 301.244221 
L 286.182971 298.828761 
L 286.38172 301.324291 
L 286.481069 300.617002 
L 286.580469 301.050717 
L 286.679818 300.129906 
L 286.779218 300.71709 
L 286.878618 299.802952 
L 286.977967 301.16415 
L 287.077367 301.004009 
L 287.176716 301.284256 
L 287.375464 300.963974 
L 287.474864 301.064062 
L 287.673613 301.737989 
L 287.772962 301.150805 
L 287.872362 301.370999 
L 288.071111 301.077407 
L 288.17046 301.004009 
L 288.269809 301.317619 
L 288.369209 301.264238 
L 288.468558 300.777143 
L 288.567958 301.364326 
L 288.667307 300.583639 
L 288.766707 301.064062 
L 288.866055 300.283375 
L 288.965455 301.277583 
L 289.064804 300.009801 
L 289.164204 301.631228 
L 289.263553 300.817178 
L 289.561702 301.491105 
L 289.661051 301.11077 
L 289.760451 301.264238 
L 289.8598 300.917266 
L 289.9592 301.471087 
L 290.058549 300.937284 
L 290.257298 301.19084 
L 290.456046 300.977319 
L 290.555395 301.044044 
L 290.654795 300.163269 
L 290.754144 301.150805 
L 290.853544 300.843868 
L 290.952893 300.957301 
L 291.052242 300.730435 
L 291.350391 301.457742 
L 291.44974 301.024027 
L 291.648489 301.751334 
L 291.847237 301.364326 
L 291.946586 301.244221 
L 292.045986 300.523586 
L 292.145335 301.404362 
L 292.244684 300.830523 
L 292.344084 301.264238 
L 292.542833 300.550276 
L 292.642182 300.643692 
L 292.741531 301.037372 
L 292.840931 300.483551 
L 293.03968 301.310946 
L 293.139028 301.150805 
L 293.337777 301.884785 
L 293.536475 301.090752 
L 293.635875 301.170823 
L 293.735224 300.610329 
L 293.834573 301.204185 
L 294.033322 300.863886 
L 294.232071 301.257566 
L 294.430768 300.630347 
L 294.530168 300.74378 
L 294.728866 301.297601 
L 294.927615 301.791369 
L 295.026964 301.631228 
L 295.126364 300.74378 
L 295.325062 301.277583 
L 295.42441 301.130788 
L 295.52381 301.737989 
L 295.623159 301.030699 
L 295.722508 301.370999 
L 295.821857 300.877231 
L 295.921257 301.290929 
L 296.020606 300.583639 
L 296.318704 301.270911 
L 296.418052 301.344309 
L 296.517401 300.483551 
L 296.71615 301.304274 
L 296.815499 301.257566 
L 296.914848 300.803833 
L 297.014197 301.537813 
L 297.212946 301.47776 
L 297.312294 301.544485 
L 297.510992 300.657037 
L 297.610341 301.304274 
L 297.80909 300.476878 
L 297.908439 300.777143 
L 298.007788 300.40348 
L 298.107137 301.337636 
L 298.206485 301.177495 
L 298.405234 301.904802 
L 298.80263 301.097425 
L 298.901979 301.804714 
L 299.001328 301.210858 
L 299.200025 301.444397 
L 299.299374 301.024027 
L 299.398774 301.611211 
L 299.498123 300.857213 
L 299.597472 301.010682 
L 299.79617 300.790488 
L 299.895518 301.044044 
L 299.994867 300.897249 
L 300.094216 301.577848 
L 300.193565 301.424379 
L 300.292914 301.95151 
L 300.392263 301.55783 
L 300.491612 301.764679 
L 300.690309 301.090752 
L 300.789658 301.691281 
L 300.889007 301.19084 
L 300.988356 301.257566 
L 301.087705 300.843868 
L 301.187054 301.017354 
L 301.286402 301.424379 
L 301.385751 300.670382 
L 301.4851 301.370999 
L 301.783096 300.79716 
L 301.882444 301.53114 
L 301.981793 301.391017 
L 302.081142 301.597865 
L 302.180491 301.491105 
L 302.379189 301.050717 
L 302.478538 301.517795 
L 302.577835 301.16415 
L 302.677184 301.771352 
L 302.776533 301.090752 
L 302.875882 301.664591 
L 302.975231 301.104097 
L 303.07458 301.350981 
L 303.273226 300.543604 
L 303.372575 301.204185 
L 303.471924 301.05739 
L 303.571273 300.710417 
L 303.67057 301.824732 
L 303.769919 301.457742 
L 303.869268 301.891457 
L 304.067915 301.150805 
L 304.167264 301.591193 
L 304.365961 301.391017 
L 304.465259 301.484432 
L 304.564608 301.05739 
L 304.663957 301.324291 
L 304.763254 300.910594 
L 304.862603 301.16415 
L 304.961952 301.097425 
L 305.06125 301.337636 
L 305.259948 300.903921 
L 305.458594 301.144133 
L 305.557892 300.963974 
L 305.657241 301.551158 
L 305.955236 300.857213 
L 306.054534 301.664591 
L 306.153883 301.484432 
L 306.253232 301.564503 
L 306.352529 301.210858 
L 306.451878 301.544485 
L 306.650525 301.391017 
L 306.749822 300.583639 
L 306.849171 301.217531 
L 306.948469 301.144133 
L 307.047818 301.350981 
L 307.147116 300.790488 
L 307.246464 301.764679 
L 307.345762 301.11077 
L 307.445111 301.684609 
L 307.643706 301.457742 
L 307.842353 301.9782 
L 307.941702 301.491105 
L 308.041 301.758006 
L 308.338944 300.6904 
L 308.438241 301.217531 
L 308.636888 300.923939 
L 308.736186 300.857213 
L 308.835535 300.496896 
L 309.03413 301.350981 
L 309.133479 301.270911 
L 309.232777 301.664591 
L 309.431372 301.124115 
L 309.530721 301.424379 
L 309.630019 301.304274 
L 309.729316 300.757125 
L 310.027261 302.044926 
L 310.225856 300.970646 
L 310.325154 301.671263 
L 310.424451 300.650364 
L 310.5238 300.810506 
L 310.623098 301.624556 
L 310.722396 300.963974 
L 310.821693 301.677936 
L 310.920991 300.590312 
L 311.119586 301.55783 
L 311.218884 301.611211 
L 311.318182 301.384344 
L 311.318182 301.384344 
" style="fill:none;stroke:#ff0000;stroke-linecap:square;stroke-width:1.5;"/>
   </g>
   <g id="patch_3">
    <path d="M 45 315 
L 45 43.2 
" style="fill:none;stroke:#000000;stroke-linecap:square;stroke-linejoin:miter;stroke-width:0.8;"/>
   </g>
   <g id="patch_4">
    <path d="M 45 315 
L 324 315 
" style="fill:none;stroke:#000000;stroke-linecap:square;stroke-linejoin:miter;stroke-width:0.8;"/>
   </g>
   <g id="text_17">
    <!-- DLP LightCrafter 4500 uncorrected -->
    <defs>
     <path d="M 19.671875 64.796875 
L 19.671875 8.109375 
L 31.59375 8.109375 
Q 46.6875 8.109375 53.6875 14.9375 
Q 60.6875 21.78125 60.6875 36.53125 
Q 60.6875 51.171875 53.6875 57.984375 
Q 46.6875 64.796875 31.59375 64.796875 
z
M 9.8125 72.90625 
L 30.078125 72.90625 
Q 51.265625 72.90625 61.171875 64.09375 
Q 71.09375 55.28125 71.09375 36.53125 
Q 71.09375 17.671875 61.125 8.828125 
Q 51.171875 0 30.078125 0 
L 9.8125 0 
z
" id="DejaVuSans-68"/>
     <path d="M 9.8125 72.90625 
L 19.671875 72.90625 
L 19.671875 8.296875 
L 55.171875 8.296875 
L 55.171875 0 
L 9.8125 0 
z
" id="DejaVuSans-76"/>
     <path d="M 19.671875 64.796875 
L 19.671875 37.40625 
L 32.078125 37.40625 
Q 38.96875 37.40625 42.71875 40.96875 
Q 46.484375 44.53125 46.484375 51.125 
Q 46.484375 57.671875 42.71875 61.234375 
Q 38.96875 64.796875 32.078125 64.796875 
z
M 9.8125 72.90625 
L 32.078125 72.90625 
Q 44.34375 72.90625 50.609375 67.359375 
Q 56.890625 61.8125 56.890625 51.125 
Q 56.890625 40.328125 50.609375 34.8125 
Q 44.34375 29.296875 32.078125 29.296875 
L 19.671875 29.296875 
L 19.671875 0 
L 9.8125 0 
z
" id="DejaVuSans-80"/>
     <path d="M 64.40625 67.28125 
L 64.40625 56.890625 
Q 59.421875 61.53125 53.78125 63.8125 
Q 48.140625 66.109375 41.796875 66.109375 
Q 29.296875 66.109375 22.65625 58.46875 
Q 16.015625 50.828125 16.015625 36.375 
Q 16.015625 21.96875 22.65625 14.328125 
Q 29.296875 6.6875 41.796875 6.6875 
Q 48.140625 6.6875 53.78125 8.984375 
Q 59.421875 11.28125 64.40625 15.921875 
L 64.40625 5.609375 
Q 59.234375 2.09375 53.4375 0.328125 
Q 47.65625 -1.421875 41.21875 -1.421875 
Q 24.65625 -1.421875 15.125 8.703125 
Q 5.609375 18.84375 5.609375 36.375 
Q 5.609375 53.953125 15.125 64.078125 
Q 24.65625 74.21875 41.21875 74.21875 
Q 47.75 74.21875 53.53125 72.484375 
Q 59.328125 70.75 64.40625 67.28125 
z
" id="DejaVuSans-67"/>
     <path d="M 41.109375 46.296875 
Q 39.59375 47.171875 37.8125 47.578125 
Q 36.03125 48 33.890625 48 
Q 26.265625 48 22.1875 43.046875 
Q 18.109375 38.09375 18.109375 28.8125 
L 18.109375 0 
L 9.078125 0 
L 9.078125 54.6875 
L 18.109375 54.6875 
L 18.109375 46.1875 
Q 20.953125 51.171875 25.484375 53.578125 
Q 30.03125 56 36.53125 56 
Q 37.453125 56 38.578125 55.875 
Q 39.703125 55.765625 41.0625 55.515625 
z
" id="DejaVuSans-114"/>
     <path d="M 37.109375 75.984375 
L 37.109375 68.5 
L 28.515625 68.5 
Q 23.6875 68.5 21.796875 66.546875 
Q 19.921875 64.59375 19.921875 59.515625 
L 19.921875 54.6875 
L 34.71875 54.6875 
L 34.71875 47.703125 
L 19.921875 47.703125 
L 19.921875 0 
L 10.890625 0 
L 10.890625 47.703125 
L 2.296875 47.703125 
L 2.296875 54.6875 
L 10.890625 54.6875 
L 10.890625 58.5 
Q 10.890625 67.625 15.140625 71.796875 
Q 19.390625 75.984375 28.609375 75.984375 
z
" id="DejaVuSans-102"/>
     <path d="M 48.78125 52.59375 
L 48.78125 44.1875 
Q 44.96875 46.296875 41.140625 47.34375 
Q 37.3125 48.390625 33.40625 48.390625 
Q 24.65625 48.390625 19.8125 42.84375 
Q 14.984375 37.3125 14.984375 27.296875 
Q 14.984375 17.28125 19.8125 11.734375 
Q 24.65625 6.203125 33.40625 6.203125 
Q 37.3125 6.203125 41.140625 7.25 
Q 44.96875 8.296875 48.78125 10.40625 
L 48.78125 2.09375 
Q 45.015625 0.34375 40.984375 -0.53125 
Q 36.96875 -1.421875 32.421875 -1.421875 
Q 20.0625 -1.421875 12.78125 6.34375 
Q 5.515625 14.109375 5.515625 27.296875 
Q 5.515625 40.671875 12.859375 48.328125 
Q 20.21875 56 33.015625 56 
Q 37.15625 56 41.109375 55.140625 
Q 45.0625 54.296875 48.78125 52.59375 
z
" id="DejaVuSans-99"/>
     <path d="M 30.609375 48.390625 
Q 23.390625 48.390625 19.1875 42.75 
Q 14.984375 37.109375 14.984375 27.296875 
Q 14.984375 17.484375 19.15625 11.84375 
Q 23.34375 6.203125 30.609375 6.203125 
Q 37.796875 6.203125 41.984375 11.859375 
Q 46.1875 17.53125 46.1875 27.296875 
Q 46.1875 37.015625 41.984375 42.703125 
Q 37.796875 48.390625 30.609375 48.390625 
z
M 30.609375 56 
Q 42.328125 56 49.015625 48.375 
Q 55.71875 40.765625 55.71875 27.296875 
Q 55.71875 13.875 49.015625 6.21875 
Q 42.328125 -1.421875 30.609375 -1.421875 
Q 18.84375 -1.421875 12.171875 6.21875 
Q 5.515625 13.875 5.515625 27.296875 
Q 5.515625 40.765625 12.171875 48.375 
Q 18.84375 56 30.609375 56 
z
" id="DejaVuSans-111"/>
     <path d="M 45.40625 46.390625 
L 45.40625 75.984375 
L 54.390625 75.984375 
L 54.390625 0 
L 45.40625 0 
L 45.40625 8.203125 
Q 42.578125 3.328125 38.25 0.953125 
Q 33.9375 -1.421875 27.875 -1.421875 
Q 17.96875 -1.421875 11.734375 6.484375 
Q 5.515625 14.40625 5.515625 27.296875 
Q 5.515625 40.1875 11.734375 48.09375 
Q 17.96875 56 27.875 56 
Q 33.9375 56 38.25 53.625 
Q 42.578125 51.265625 45.40625 46.390625 
z
M 14.796875 27.296875 
Q 14.796875 17.390625 18.875 11.75 
Q 22.953125 6.109375 30.078125 6.109375 
Q 37.203125 6.109375 41.296875 11.75 
Q 45.40625 17.390625 45.40625 27.296875 
Q 45.40625 37.203125 41.296875 42.84375 
Q 37.203125 48.484375 30.078125 48.484375 
Q 22.953125 48.484375 18.875 42.84375 
Q 14.796875 37.203125 14.796875 27.296875 
z
" id="DejaVuSans-100"/>
    </defs>
    <g transform="translate(79.65 37.2)scale(0.12 -0.12)">
     <use xlink:href="#DejaVuSans-68"/>
     <use x="77.001953" xlink:href="#DejaVuSans-76"/>
     <use x="132.714844" xlink:href="#DejaVuSans-80"/>
     <use x="193.017578" xlink:href="#DejaVuSans-32"/>
     <use x="224.804688" xlink:href="#DejaVuSans-76"/>
     <use x="280.517578" xlink:href="#DejaVuSans-105"/>
     <use x="308.300781" xlink:href="#DejaVuSans-103"/>
     <use x="371.777344" xlink:href="#DejaVuSans-104"/>
     <use x="435.15625" xlink:href="#DejaVuSans-116"/>
     <use x="474.365234" xlink:href="#DejaVuSans-67"/>
     <use x="544.189453" xlink:href="#DejaVuSans-114"/>
     <use x="585.302734" xlink:href="#DejaVuSans-97"/>
     <use x="646.582031" xlink:href="#DejaVuSans-102"/>
     <use x="681.771484" xlink:href="#DejaVuSans-116"/>
     <use x="720.980469" xlink:href="#DejaVuSans-101"/>
     <use x="782.503906" xlink:href="#DejaVuSans-114"/>
     <use x="823.617188" xlink:href="#DejaVuSans-32"/>
     <use x="855.404297" xlink:href="#DejaVuSans-52"/>
     <use x="919.027344" xlink:href="#DejaVuSans-53"/>
     <use x="982.650391" xlink:href="#DejaVuSans-48"/>
     <use x="1046.273438" xlink:href="#DejaVuSans-48"/>
     <use x="1109.896484" xlink:href="#DejaVuSans-32"/>
     <use x="1141.683594" xlink:href="#DejaVuSans-117"/>
     <use x="1205.0625" xlink:href="#DejaVuSans-110"/>
     <use x="1268.441406" xlink:href="#DejaVuSans-99"/>
     <use x="1323.421875" xlink:href="#DejaVuSans-111"/>
     <use x="1384.603516" xlink:href="#DejaVuSans-114"/>
     <use x="1425.701172" xlink:href="#DejaVuSans-114"/>
     <use x="1466.783203" xlink:href="#DejaVuSans-101"/>
     <use x="1528.306641" xlink:href="#DejaVuSans-99"/>
     <use x="1583.287109" xlink:href="#DejaVuSans-116"/>
     <use x="1622.496094" xlink:href="#DejaVuSans-101"/>
     <use x="1684.019531" xlink:href="#DejaVuSans-100"/>
    </g>
   </g>
  </g>
 </g>
 <defs>
  <clipPath id="p62f97834b4">
   <rect height="271.8" width="279" x="45" y="43.2"/>
  </clipPath>
 </defs>
</svg>
