<?xml version="1.0" encoding="utf-8" standalone="no"?>
<!DOCTYPE svg PUBLIC "-//W3C//DTD SVG 1.1//EN"
  "http://www.w3.org/Graphics/SVG/1.1/DTD/svg11.dtd">
<!-- Created with matplotlib (https://matplotlib.org/) -->
<svg height="360pt" version="1.1" viewBox="0 0 360 360" width="360pt" xmlns="http://www.w3.org/2000/svg" xmlns:xlink="http://www.w3.org/1999/xlink">
 <defs>
  <style type="text/css">
*{stroke-linecap:butt;stroke-linejoin:round;}
  </style>
 </defs>
 <g id="figure_1">
  <g id="patch_1">
   <path d="M 0 360 
L 360 360 
L 360 0 
L 0 0 
z
" style="fill:#ffffff;"/>
  </g>
  <g id="axes_1">
   <g id="patch_2">
    <path d="M 45 315 
L 324 315 
L 324 43.2 
L 45 43.2 
z
" style="fill:#ffffff;"/>
   </g>
   <g id="matplotlib.axis_1">
    <g id="xtick_1">
     <g id="line2d_1">
      <defs>
       <path d="M 0 0 
L 0 3.5 
" id="me47cba3491" style="stroke:#000000;stroke-width:0.8;"/>
      </defs>
      <g>
       <use style="stroke:#000000;stroke-width:0.8;" x="59.27406" xlink:href="#me47cba3491" y="315"/>
      </g>
     </g>
     <g id="text_1">
      <!-- 400 -->
      <defs>
       <path d="M 37.796875 64.3125 
L 12.890625 25.390625 
L 37.796875 25.390625 
z
M 35.203125 72.90625 
L 47.609375 72.90625 
L 47.609375 25.390625 
L 58.015625 25.390625 
L 58.015625 17.1875 
L 47.609375 17.1875 
L 47.609375 0 
L 37.796875 0 
L 37.796875 17.1875 
L 4.890625 17.1875 
L 4.890625 26.703125 
z
" id="DejaVuSans-52"/>
       <path d="M 31.78125 66.40625 
Q 24.171875 66.40625 20.328125 58.90625 
Q 16.5 51.421875 16.5 36.375 
Q 16.5 21.390625 20.328125 13.890625 
Q 24.171875 6.390625 31.78125 6.390625 
Q 39.453125 6.390625 43.28125 13.890625 
Q 47.125 21.390625 47.125 36.375 
Q 47.125 51.421875 43.28125 58.90625 
Q 39.453125 66.40625 31.78125 66.40625 
z
M 31.78125 74.21875 
Q 44.046875 74.21875 50.515625 64.515625 
Q 56.984375 54.828125 56.984375 36.375 
Q 56.984375 17.96875 50.515625 8.265625 
Q 44.046875 -1.421875 31.78125 -1.421875 
Q 19.53125 -1.421875 13.0625 8.265625 
Q 6.59375 17.96875 6.59375 36.375 
Q 6.59375 54.828125 13.0625 64.515625 
Q 19.53125 74.21875 31.78125 74.21875 
z
" id="DejaVuSans-48"/>
      </defs>
      <g transform="translate(49.73031 329.598437)scale(0.1 -0.1)">
       <use xlink:href="#DejaVuSans-52"/>
       <use x="63.623047" xlink:href="#DejaVuSans-48"/>
       <use x="127.246094" xlink:href="#DejaVuSans-48"/>
      </g>
     </g>
    </g>
    <g id="xtick_2">
     <g id="line2d_2">
      <g>
       <use style="stroke:#000000;stroke-width:0.8;" x="101.182704" xlink:href="#me47cba3491" y="315"/>
      </g>
     </g>
     <g id="text_2">
      <!-- 450 -->
      <defs>
       <path d="M 10.796875 72.90625 
L 49.515625 72.90625 
L 49.515625 64.59375 
L 19.828125 64.59375 
L 19.828125 46.734375 
Q 21.96875 47.46875 24.109375 47.828125 
Q 26.265625 48.1875 28.421875 48.1875 
Q 40.625 48.1875 47.75 41.5 
Q 54.890625 34.8125 54.890625 23.390625 
Q 54.890625 11.625 47.5625 5.09375 
Q 40.234375 -1.421875 26.90625 -1.421875 
Q 22.3125 -1.421875 17.546875 -0.640625 
Q 12.796875 0.140625 7.71875 1.703125 
L 7.71875 11.625 
Q 12.109375 9.234375 16.796875 8.0625 
Q 21.484375 6.890625 26.703125 6.890625 
Q 35.15625 6.890625 40.078125 11.328125 
Q 45.015625 15.765625 45.015625 23.390625 
Q 45.015625 31 40.078125 35.4375 
Q 35.15625 39.890625 26.703125 39.890625 
Q 22.75 39.890625 18.8125 39.015625 
Q 14.890625 38.140625 10.796875 36.28125 
z
" id="DejaVuSans-53"/>
      </defs>
      <g transform="translate(91.638954 329.598437)scale(0.1 -0.1)">
       <use xlink:href="#DejaVuSans-52"/>
       <use x="63.623047" xlink:href="#DejaVuSans-53"/>
       <use x="127.246094" xlink:href="#DejaVuSans-48"/>
      </g>
     </g>
    </g>
    <g id="xtick_3">
     <g id="line2d_3">
      <g>
       <use style="stroke:#000000;stroke-width:0.8;" x="143.091349" xlink:href="#me47cba3491" y="315"/>
      </g>
     </g>
     <g id="text_3">
      <!-- 500 -->
      <g transform="translate(133.547599 329.598437)scale(0.1 -0.1)">
       <use xlink:href="#DejaVuSans-53"/>
       <use x="63.623047" xlink:href="#DejaVuSans-48"/>
       <use x="127.246094" xlink:href="#DejaVuSans-48"/>
      </g>
     </g>
    </g>
    <g id="xtick_4">
     <g id="line2d_4">
      <g>
       <use style="stroke:#000000;stroke-width:0.8;" x="184.999993" xlink:href="#me47cba3491" y="315"/>
      </g>
     </g>
     <g id="text_4">
      <!-- 550 -->
      <g transform="translate(175.456243 329.598437)scale(0.1 -0.1)">
       <use xlink:href="#DejaVuSans-53"/>
       <use x="63.623047" xlink:href="#DejaVuSans-53"/>
       <use x="127.246094" xlink:href="#DejaVuSans-48"/>
      </g>
     </g>
    </g>
    <g id="xtick_5">
     <g id="line2d_5">
      <g>
       <use style="stroke:#000000;stroke-width:0.8;" x="226.908637" xlink:href="#me47cba3491" y="315"/>
      </g>
     </g>
     <g id="text_5">
      <!-- 600 -->
      <defs>
       <path d="M 33.015625 40.375 
Q 26.375 40.375 22.484375 35.828125 
Q 18.609375 31.296875 18.609375 23.390625 
Q 18.609375 15.53125 22.484375 10.953125 
Q 26.375 6.390625 33.015625 6.390625 
Q 39.65625 6.390625 43.53125 10.953125 
Q 47.40625 15.53125 47.40625 23.390625 
Q 47.40625 31.296875 43.53125 35.828125 
Q 39.65625 40.375 33.015625 40.375 
z
M 52.59375 71.296875 
L 52.59375 62.3125 
Q 48.875 64.0625 45.09375 64.984375 
Q 41.3125 65.921875 37.59375 65.921875 
Q 27.828125 65.921875 22.671875 59.328125 
Q 17.53125 52.734375 16.796875 39.40625 
Q 19.671875 43.65625 24.015625 45.921875 
Q 28.375 48.1875 33.59375 48.1875 
Q 44.578125 48.1875 50.953125 41.515625 
Q 57.328125 34.859375 57.328125 23.390625 
Q 57.328125 12.15625 50.6875 5.359375 
Q 44.046875 -1.421875 33.015625 -1.421875 
Q 20.359375 -1.421875 13.671875 8.265625 
Q 6.984375 17.96875 6.984375 36.375 
Q 6.984375 53.65625 15.1875 63.9375 
Q 23.390625 74.21875 37.203125 74.21875 
Q 40.921875 74.21875 44.703125 73.484375 
Q 48.484375 72.75 52.59375 71.296875 
z
" id="DejaVuSans-54"/>
      </defs>
      <g transform="translate(217.364887 329.598437)scale(0.1 -0.1)">
       <use xlink:href="#DejaVuSans-54"/>
       <use x="63.623047" xlink:href="#DejaVuSans-48"/>
       <use x="127.246094" xlink:href="#DejaVuSans-48"/>
      </g>
     </g>
    </g>
    <g id="xtick_6">
     <g id="line2d_6">
      <g>
       <use style="stroke:#000000;stroke-width:0.8;" x="268.817281" xlink:href="#me47cba3491" y="315"/>
      </g>
     </g>
     <g id="text_6">
      <!-- 650 -->
      <g transform="translate(259.273531 329.598437)scale(0.1 -0.1)">
       <use xlink:href="#DejaVuSans-54"/>
       <use x="63.623047" xlink:href="#DejaVuSans-53"/>
       <use x="127.246094" xlink:href="#DejaVuSans-48"/>
      </g>
     </g>
    </g>
    <g id="xtick_7">
     <g id="line2d_7">
      <g>
       <use style="stroke:#000000;stroke-width:0.8;" x="310.725926" xlink:href="#me47cba3491" y="315"/>
      </g>
     </g>
     <g id="text_7">
      <!-- 700 -->
      <defs>
       <path d="M 8.203125 72.90625 
L 55.078125 72.90625 
L 55.078125 68.703125 
L 28.609375 0 
L 18.3125 0 
L 43.21875 64.59375 
L 8.203125 64.59375 
z
" id="DejaVuSans-55"/>
      </defs>
      <g transform="translate(301.182176 329.598437)scale(0.1 -0.1)">
       <use xlink:href="#DejaVuSans-55"/>
       <use x="63.623047" xlink:href="#DejaVuSans-48"/>
       <use x="127.246094" xlink:href="#DejaVuSans-48"/>
      </g>
     </g>
    </g>
    <g id="text_8">
     <!-- Wavelenght -->
     <defs>
      <path d="M 3.328125 72.90625 
L 13.28125 72.90625 
L 28.609375 11.28125 
L 43.890625 72.90625 
L 54.984375 72.90625 
L 70.3125 11.28125 
L 85.59375 72.90625 
L 95.609375 72.90625 
L 77.296875 0 
L 64.890625 0 
L 49.515625 63.28125 
L 33.984375 0 
L 21.578125 0 
z
" id="DejaVuSans-87"/>
      <path d="M 34.28125 27.484375 
Q 23.390625 27.484375 19.1875 25 
Q 14.984375 22.515625 14.984375 16.5 
Q 14.984375 11.71875 18.140625 8.90625 
Q 21.296875 6.109375 26.703125 6.109375 
Q 34.1875 6.109375 38.703125 11.40625 
Q 43.21875 16.703125 43.21875 25.484375 
L 43.21875 27.484375 
z
M 52.203125 31.203125 
L 52.203125 0 
L 43.21875 0 
L 43.21875 8.296875 
Q 40.140625 3.328125 35.546875 0.953125 
Q 30.953125 -1.421875 24.3125 -1.421875 
Q 15.921875 -1.421875 10.953125 3.296875 
Q 6 8.015625 6 15.921875 
Q 6 25.140625 12.171875 29.828125 
Q 18.359375 34.515625 30.609375 34.515625 
L 43.21875 34.515625 
L 43.21875 35.40625 
Q 43.21875 41.609375 39.140625 45 
Q 35.0625 48.390625 27.6875 48.390625 
Q 23 48.390625 18.546875 47.265625 
Q 14.109375 46.140625 10.015625 43.890625 
L 10.015625 52.203125 
Q 14.9375 54.109375 19.578125 55.046875 
Q 24.21875 56 28.609375 56 
Q 40.484375 56 46.34375 49.84375 
Q 52.203125 43.703125 52.203125 31.203125 
z
" id="DejaVuSans-97"/>
      <path d="M 2.984375 54.6875 
L 12.5 54.6875 
L 29.59375 8.796875 
L 46.6875 54.6875 
L 56.203125 54.6875 
L 35.6875 0 
L 23.484375 0 
z
" id="DejaVuSans-118"/>
      <path d="M 56.203125 29.59375 
L 56.203125 25.203125 
L 14.890625 25.203125 
Q 15.484375 15.921875 20.484375 11.0625 
Q 25.484375 6.203125 34.421875 6.203125 
Q 39.59375 6.203125 44.453125 7.46875 
Q 49.3125 8.734375 54.109375 11.28125 
L 54.109375 2.78125 
Q 49.265625 0.734375 44.1875 -0.34375 
Q 39.109375 -1.421875 33.890625 -1.421875 
Q 20.796875 -1.421875 13.15625 6.1875 
Q 5.515625 13.8125 5.515625 26.8125 
Q 5.515625 40.234375 12.765625 48.109375 
Q 20.015625 56 32.328125 56 
Q 43.359375 56 49.78125 48.890625 
Q 56.203125 41.796875 56.203125 29.59375 
z
M 47.21875 32.234375 
Q 47.125 39.59375 43.09375 43.984375 
Q 39.0625 48.390625 32.421875 48.390625 
Q 24.90625 48.390625 20.390625 44.140625 
Q 15.875 39.890625 15.1875 32.171875 
z
" id="DejaVuSans-101"/>
      <path d="M 9.421875 75.984375 
L 18.40625 75.984375 
L 18.40625 0 
L 9.421875 0 
z
" id="DejaVuSans-108"/>
      <path d="M 54.890625 33.015625 
L 54.890625 0 
L 45.90625 0 
L 45.90625 32.71875 
Q 45.90625 40.484375 42.875 44.328125 
Q 39.84375 48.1875 33.796875 48.1875 
Q 26.515625 48.1875 22.3125 43.546875 
Q 18.109375 38.921875 18.109375 30.90625 
L 18.109375 0 
L 9.078125 0 
L 9.078125 54.6875 
L 18.109375 54.6875 
L 18.109375 46.1875 
Q 21.34375 51.125 25.703125 53.5625 
Q 30.078125 56 35.796875 56 
Q 45.21875 56 50.046875 50.171875 
Q 54.890625 44.34375 54.890625 33.015625 
z
" id="DejaVuSans-110"/>
      <path d="M 45.40625 27.984375 
Q 45.40625 37.75 41.375 43.109375 
Q 37.359375 48.484375 30.078125 48.484375 
Q 22.859375 48.484375 18.828125 43.109375 
Q 14.796875 37.75 14.796875 27.984375 
Q 14.796875 18.265625 18.828125 12.890625 
Q 22.859375 7.515625 30.078125 7.515625 
Q 37.359375 7.515625 41.375 12.890625 
Q 45.40625 18.265625 45.40625 27.984375 
z
M 54.390625 6.78125 
Q 54.390625 -7.171875 48.1875 -13.984375 
Q 42 -20.796875 29.203125 -20.796875 
Q 24.46875 -20.796875 20.265625 -20.09375 
Q 16.0625 -19.390625 12.109375 -17.921875 
L 12.109375 -9.1875 
Q 16.0625 -11.328125 19.921875 -12.34375 
Q 23.78125 -13.375 27.78125 -13.375 
Q 36.625 -13.375 41.015625 -8.765625 
Q 45.40625 -4.15625 45.40625 5.171875 
L 45.40625 9.625 
Q 42.625 4.78125 38.28125 2.390625 
Q 33.9375 0 27.875 0 
Q 17.828125 0 11.671875 7.65625 
Q 5.515625 15.328125 5.515625 27.984375 
Q 5.515625 40.671875 11.671875 48.328125 
Q 17.828125 56 27.875 56 
Q 33.9375 56 38.28125 53.609375 
Q 42.625 51.21875 45.40625 46.390625 
L 45.40625 54.6875 
L 54.390625 54.6875 
z
" id="DejaVuSans-103"/>
      <path d="M 54.890625 33.015625 
L 54.890625 0 
L 45.90625 0 
L 45.90625 32.71875 
Q 45.90625 40.484375 42.875 44.328125 
Q 39.84375 48.1875 33.796875 48.1875 
Q 26.515625 48.1875 22.3125 43.546875 
Q 18.109375 38.921875 18.109375 30.90625 
L 18.109375 0 
L 9.078125 0 
L 9.078125 75.984375 
L 18.109375 75.984375 
L 18.109375 46.1875 
Q 21.34375 51.125 25.703125 53.5625 
Q 30.078125 56 35.796875 56 
Q 45.21875 56 50.046875 50.171875 
Q 54.890625 44.34375 54.890625 33.015625 
z
" id="DejaVuSans-104"/>
      <path d="M 18.3125 70.21875 
L 18.3125 54.6875 
L 36.8125 54.6875 
L 36.8125 47.703125 
L 18.3125 47.703125 
L 18.3125 18.015625 
Q 18.3125 11.328125 20.140625 9.421875 
Q 21.96875 7.515625 27.59375 7.515625 
L 36.8125 7.515625 
L 36.8125 0 
L 27.59375 0 
Q 17.1875 0 13.234375 3.875 
Q 9.28125 7.765625 9.28125 18.015625 
L 9.28125 47.703125 
L 2.6875 47.703125 
L 2.6875 54.6875 
L 9.28125 54.6875 
L 9.28125 70.21875 
z
" id="DejaVuSans-116"/>
     </defs>
     <g transform="translate(154.523438 343.276563)scale(0.1 -0.1)">
      <use xlink:href="#DejaVuSans-87"/>
      <use x="98.783203" xlink:href="#DejaVuSans-97"/>
      <use x="160.0625" xlink:href="#DejaVuSans-118"/>
      <use x="219.242188" xlink:href="#DejaVuSans-101"/>
      <use x="280.765625" xlink:href="#DejaVuSans-108"/>
      <use x="308.548828" xlink:href="#DejaVuSans-101"/>
      <use x="370.072266" xlink:href="#DejaVuSans-110"/>
      <use x="433.451172" xlink:href="#DejaVuSans-103"/>
      <use x="496.927734" xlink:href="#DejaVuSans-104"/>
      <use x="560.306641" xlink:href="#DejaVuSans-116"/>
     </g>
    </g>
   </g>
   <g id="matplotlib.axis_2">
    <g id="ytick_1">
     <g id="line2d_8">
      <defs>
       <path d="M 0 0 
L -3.5 0 
" id="m96186b995b" style="stroke:#000000;stroke-width:0.8;"/>
      </defs>
      <g>
       <use style="stroke:#000000;stroke-width:0.8;" x="45" xlink:href="#m96186b995b" y="295.626577"/>
      </g>
     </g>
     <g id="text_9">
      <!-- 0.00 -->
      <defs>
       <path d="M 10.6875 12.40625 
L 21 12.40625 
L 21 0 
L 10.6875 0 
z
" id="DejaVuSans-46"/>
      </defs>
      <g transform="translate(15.734375 299.425796)scale(0.1 -0.1)">
       <use xlink:href="#DejaVuSans-48"/>
       <use x="63.623047" xlink:href="#DejaVuSans-46"/>
       <use x="95.410156" xlink:href="#DejaVuSans-48"/>
       <use x="159.033203" xlink:href="#DejaVuSans-48"/>
      </g>
     </g>
    </g>
    <g id="ytick_2">
     <g id="line2d_9">
      <g>
       <use style="stroke:#000000;stroke-width:0.8;" x="45" xlink:href="#m96186b995b" y="264.241436"/>
      </g>
     </g>
     <g id="text_10">
      <!-- 0.02 -->
      <defs>
       <path d="M 19.1875 8.296875 
L 53.609375 8.296875 
L 53.609375 0 
L 7.328125 0 
L 7.328125 8.296875 
Q 12.9375 14.109375 22.625 23.890625 
Q 32.328125 33.6875 34.8125 36.53125 
Q 39.546875 41.84375 41.421875 45.53125 
Q 43.3125 49.21875 43.3125 52.78125 
Q 43.3125 58.59375 39.234375 62.25 
Q 35.15625 65.921875 28.609375 65.921875 
Q 23.96875 65.921875 18.8125 64.3125 
Q 13.671875 62.703125 7.8125 59.421875 
L 7.8125 69.390625 
Q 13.765625 71.78125 18.9375 73 
Q 24.125 74.21875 28.421875 74.21875 
Q 39.75 74.21875 46.484375 68.546875 
Q 53.21875 62.890625 53.21875 53.421875 
Q 53.21875 48.921875 51.53125 44.890625 
Q 49.859375 40.875 45.40625 35.40625 
Q 44.1875 33.984375 37.640625 27.21875 
Q 31.109375 20.453125 19.1875 8.296875 
z
" id="DejaVuSans-50"/>
      </defs>
      <g transform="translate(15.734375 268.040654)scale(0.1 -0.1)">
       <use xlink:href="#DejaVuSans-48"/>
       <use x="63.623047" xlink:href="#DejaVuSans-46"/>
       <use x="95.410156" xlink:href="#DejaVuSans-48"/>
       <use x="159.033203" xlink:href="#DejaVuSans-50"/>
      </g>
     </g>
    </g>
    <g id="ytick_3">
     <g id="line2d_10">
      <g>
       <use style="stroke:#000000;stroke-width:0.8;" x="45" xlink:href="#m96186b995b" y="232.856294"/>
      </g>
     </g>
     <g id="text_11">
      <!-- 0.04 -->
      <g transform="translate(15.734375 236.655513)scale(0.1 -0.1)">
       <use xlink:href="#DejaVuSans-48"/>
       <use x="63.623047" xlink:href="#DejaVuSans-46"/>
       <use x="95.410156" xlink:href="#DejaVuSans-48"/>
       <use x="159.033203" xlink:href="#DejaVuSans-52"/>
      </g>
     </g>
    </g>
    <g id="ytick_4">
     <g id="line2d_11">
      <g>
       <use style="stroke:#000000;stroke-width:0.8;" x="45" xlink:href="#m96186b995b" y="201.471153"/>
      </g>
     </g>
     <g id="text_12">
      <!-- 0.06 -->
      <g transform="translate(15.734375 205.270372)scale(0.1 -0.1)">
       <use xlink:href="#DejaVuSans-48"/>
       <use x="63.623047" xlink:href="#DejaVuSans-46"/>
       <use x="95.410156" xlink:href="#DejaVuSans-48"/>
       <use x="159.033203" xlink:href="#DejaVuSans-54"/>
      </g>
     </g>
    </g>
    <g id="ytick_5">
     <g id="line2d_12">
      <g>
       <use style="stroke:#000000;stroke-width:0.8;" x="45" xlink:href="#m96186b995b" y="170.086011"/>
      </g>
     </g>
     <g id="text_13">
      <!-- 0.08 -->
      <defs>
       <path d="M 31.78125 34.625 
Q 24.75 34.625 20.71875 30.859375 
Q 16.703125 27.09375 16.703125 20.515625 
Q 16.703125 13.921875 20.71875 10.15625 
Q 24.75 6.390625 31.78125 6.390625 
Q 38.8125 6.390625 42.859375 10.171875 
Q 46.921875 13.96875 46.921875 20.515625 
Q 46.921875 27.09375 42.890625 30.859375 
Q 38.875 34.625 31.78125 34.625 
z
M 21.921875 38.8125 
Q 15.578125 40.375 12.03125 44.71875 
Q 8.5 49.078125 8.5 55.328125 
Q 8.5 64.0625 14.71875 69.140625 
Q 20.953125 74.21875 31.78125 74.21875 
Q 42.671875 74.21875 48.875 69.140625 
Q 55.078125 64.0625 55.078125 55.328125 
Q 55.078125 49.078125 51.53125 44.71875 
Q 48 40.375 41.703125 38.8125 
Q 48.828125 37.15625 52.796875 32.3125 
Q 56.78125 27.484375 56.78125 20.515625 
Q 56.78125 9.90625 50.3125 4.234375 
Q 43.84375 -1.421875 31.78125 -1.421875 
Q 19.734375 -1.421875 13.25 4.234375 
Q 6.78125 9.90625 6.78125 20.515625 
Q 6.78125 27.484375 10.78125 32.3125 
Q 14.796875 37.15625 21.921875 38.8125 
z
M 18.3125 54.390625 
Q 18.3125 48.734375 21.84375 45.5625 
Q 25.390625 42.390625 31.78125 42.390625 
Q 38.140625 42.390625 41.71875 45.5625 
Q 45.3125 48.734375 45.3125 54.390625 
Q 45.3125 60.0625 41.71875 63.234375 
Q 38.140625 66.40625 31.78125 66.40625 
Q 25.390625 66.40625 21.84375 63.234375 
Q 18.3125 60.0625 18.3125 54.390625 
z
" id="DejaVuSans-56"/>
      </defs>
      <g transform="translate(15.734375 173.88523)scale(0.1 -0.1)">
       <use xlink:href="#DejaVuSans-48"/>
       <use x="63.623047" xlink:href="#DejaVuSans-46"/>
       <use x="95.410156" xlink:href="#DejaVuSans-48"/>
       <use x="159.033203" xlink:href="#DejaVuSans-56"/>
      </g>
     </g>
    </g>
    <g id="ytick_6">
     <g id="line2d_13">
      <g>
       <use style="stroke:#000000;stroke-width:0.8;" x="45" xlink:href="#m96186b995b" y="138.70087"/>
      </g>
     </g>
     <g id="text_14">
      <!-- 0.10 -->
      <defs>
       <path d="M 12.40625 8.296875 
L 28.515625 8.296875 
L 28.515625 63.921875 
L 10.984375 60.40625 
L 10.984375 69.390625 
L 28.421875 72.90625 
L 38.28125 72.90625 
L 38.28125 8.296875 
L 54.390625 8.296875 
L 54.390625 0 
L 12.40625 0 
z
" id="DejaVuSans-49"/>
      </defs>
      <g transform="translate(15.734375 142.500089)scale(0.1 -0.1)">
       <use xlink:href="#DejaVuSans-48"/>
       <use x="63.623047" xlink:href="#DejaVuSans-46"/>
       <use x="95.410156" xlink:href="#DejaVuSans-49"/>
       <use x="159.033203" xlink:href="#DejaVuSans-48"/>
      </g>
     </g>
    </g>
    <g id="ytick_7">
     <g id="line2d_14">
      <g>
       <use style="stroke:#000000;stroke-width:0.8;" x="45" xlink:href="#m96186b995b" y="107.315729"/>
      </g>
     </g>
     <g id="text_15">
      <!-- 0.12 -->
      <g transform="translate(15.734375 111.114947)scale(0.1 -0.1)">
       <use xlink:href="#DejaVuSans-48"/>
       <use x="63.623047" xlink:href="#DejaVuSans-46"/>
       <use x="95.410156" xlink:href="#DejaVuSans-49"/>
       <use x="159.033203" xlink:href="#DejaVuSans-50"/>
      </g>
     </g>
    </g>
    <g id="ytick_8">
     <g id="line2d_15">
      <g>
       <use style="stroke:#000000;stroke-width:0.8;" x="45" xlink:href="#m96186b995b" y="75.930587"/>
      </g>
     </g>
     <g id="text_16">
      <!-- 0.14 -->
      <g transform="translate(15.734375 79.729806)scale(0.1 -0.1)">
       <use xlink:href="#DejaVuSans-48"/>
       <use x="63.623047" xlink:href="#DejaVuSans-46"/>
       <use x="95.410156" xlink:href="#DejaVuSans-49"/>
       <use x="159.033203" xlink:href="#DejaVuSans-52"/>
      </g>
     </g>
    </g>
    <g id="ytick_9">
     <g id="line2d_16">
      <g>
       <use style="stroke:#000000;stroke-width:0.8;" x="45" xlink:href="#m96186b995b" y="44.545446"/>
      </g>
     </g>
     <g id="text_17">
      <!-- 0.16 -->
      <g transform="translate(15.734375 48.344664)scale(0.1 -0.1)">
       <use xlink:href="#DejaVuSans-48"/>
       <use x="63.623047" xlink:href="#DejaVuSans-46"/>
       <use x="95.410156" xlink:href="#DejaVuSans-49"/>
       <use x="159.033203" xlink:href="#DejaVuSans-54"/>
      </g>
     </g>
    </g>
    <g id="text_18">
     <!-- Intensity (a.u.) -->
     <defs>
      <path d="M 9.8125 72.90625 
L 19.671875 72.90625 
L 19.671875 0 
L 9.8125 0 
z
" id="DejaVuSans-73"/>
      <path d="M 44.28125 53.078125 
L 44.28125 44.578125 
Q 40.484375 46.53125 36.375 47.5 
Q 32.28125 48.484375 27.875 48.484375 
Q 21.1875 48.484375 17.84375 46.4375 
Q 14.5 44.390625 14.5 40.28125 
Q 14.5 37.15625 16.890625 35.375 
Q 19.28125 33.59375 26.515625 31.984375 
L 29.59375 31.296875 
Q 39.15625 29.25 43.1875 25.515625 
Q 47.21875 21.78125 47.21875 15.09375 
Q 47.21875 7.46875 41.1875 3.015625 
Q 35.15625 -1.421875 24.609375 -1.421875 
Q 20.21875 -1.421875 15.453125 -0.5625 
Q 10.6875 0.296875 5.421875 2 
L 5.421875 11.28125 
Q 10.40625 8.6875 15.234375 7.390625 
Q 20.0625 6.109375 24.8125 6.109375 
Q 31.15625 6.109375 34.5625 8.28125 
Q 37.984375 10.453125 37.984375 14.40625 
Q 37.984375 18.0625 35.515625 20.015625 
Q 33.0625 21.96875 24.703125 23.78125 
L 21.578125 24.515625 
Q 13.234375 26.265625 9.515625 29.90625 
Q 5.8125 33.546875 5.8125 39.890625 
Q 5.8125 47.609375 11.28125 51.796875 
Q 16.75 56 26.8125 56 
Q 31.78125 56 36.171875 55.265625 
Q 40.578125 54.546875 44.28125 53.078125 
z
" id="DejaVuSans-115"/>
      <path d="M 9.421875 54.6875 
L 18.40625 54.6875 
L 18.40625 0 
L 9.421875 0 
z
M 9.421875 75.984375 
L 18.40625 75.984375 
L 18.40625 64.59375 
L 9.421875 64.59375 
z
" id="DejaVuSans-105"/>
      <path d="M 32.171875 -5.078125 
Q 28.375 -14.84375 24.75 -17.8125 
Q 21.140625 -20.796875 15.09375 -20.796875 
L 7.90625 -20.796875 
L 7.90625 -13.28125 
L 13.1875 -13.28125 
Q 16.890625 -13.28125 18.9375 -11.515625 
Q 21 -9.765625 23.484375 -3.21875 
L 25.09375 0.875 
L 2.984375 54.6875 
L 12.5 54.6875 
L 29.59375 11.921875 
L 46.6875 54.6875 
L 56.203125 54.6875 
z
" id="DejaVuSans-121"/>
      <path id="DejaVuSans-32"/>
      <path d="M 31 75.875 
Q 24.46875 64.65625 21.28125 53.65625 
Q 18.109375 42.671875 18.109375 31.390625 
Q 18.109375 20.125 21.3125 9.0625 
Q 24.515625 -2 31 -13.1875 
L 23.1875 -13.1875 
Q 15.875 -1.703125 12.234375 9.375 
Q 8.59375 20.453125 8.59375 31.390625 
Q 8.59375 42.28125 12.203125 53.3125 
Q 15.828125 64.359375 23.1875 75.875 
z
" id="DejaVuSans-40"/>
      <path d="M 8.5 21.578125 
L 8.5 54.6875 
L 17.484375 54.6875 
L 17.484375 21.921875 
Q 17.484375 14.15625 20.5 10.265625 
Q 23.53125 6.390625 29.59375 6.390625 
Q 36.859375 6.390625 41.078125 11.03125 
Q 45.3125 15.671875 45.3125 23.6875 
L 45.3125 54.6875 
L 54.296875 54.6875 
L 54.296875 0 
L 45.3125 0 
L 45.3125 8.40625 
Q 42.046875 3.421875 37.71875 1 
Q 33.40625 -1.421875 27.6875 -1.421875 
Q 18.265625 -1.421875 13.375 4.4375 
Q 8.5 10.296875 8.5 21.578125 
z
M 31.109375 56 
z
" id="DejaVuSans-117"/>
      <path d="M 8.015625 75.875 
L 15.828125 75.875 
Q 23.140625 64.359375 26.78125 53.3125 
Q 30.421875 42.28125 30.421875 31.390625 
Q 30.421875 20.453125 26.78125 9.375 
Q 23.140625 -1.703125 15.828125 -13.1875 
L 8.015625 -13.1875 
Q 14.5 -2 17.703125 9.0625 
Q 20.90625 20.125 20.90625 31.390625 
Q 20.90625 42.671875 17.703125 53.65625 
Q 14.5 64.65625 8.015625 75.875 
z
" id="DejaVuSans-41"/>
     </defs>
     <g transform="translate(9.654687 215.764062)rotate(-90)scale(0.1 -0.1)">
      <use xlink:href="#DejaVuSans-73"/>
      <use x="29.492188" xlink:href="#DejaVuSans-110"/>
      <use x="92.871094" xlink:href="#DejaVuSans-116"/>
      <use x="132.080078" xlink:href="#DejaVuSans-101"/>
      <use x="193.603516" xlink:href="#DejaVuSans-110"/>
      <use x="256.982422" xlink:href="#DejaVuSans-115"/>
      <use x="309.082031" xlink:href="#DejaVuSans-105"/>
      <use x="336.865234" xlink:href="#DejaVuSans-116"/>
      <use x="376.074219" xlink:href="#DejaVuSans-121"/>
      <use x="435.253906" xlink:href="#DejaVuSans-32"/>
      <use x="467.041016" xlink:href="#DejaVuSans-40"/>
      <use x="506.054688" xlink:href="#DejaVuSans-97"/>
      <use x="567.333984" xlink:href="#DejaVuSans-46"/>
      <use x="599.121094" xlink:href="#DejaVuSans-117"/>
      <use x="662.5" xlink:href="#DejaVuSans-46"/>
      <use x="694.287109" xlink:href="#DejaVuSans-41"/>
     </g>
    </g>
   </g>
   <g id="line2d_17">
    <path clip-path="url(#pe985c98202)" d="M 57.681818 295.626577 
L 59.274828 295.635535 
L 59.368575 290.709989 
L 59.462322 296.169083 
L 59.556094 290.514225 
L 59.743614 297.031626 
L 59.931185 296.405858 
L 60.118756 297.177716 
L 60.212554 290.398293 
L 60.306352 296.506318 
L 60.493949 286.28055 
L 60.681596 294.672954 
L 60.77542 294.268563 
L 60.869244 292.695971 
L 60.963068 299.177138 
L 61.150741 295.634997 
L 61.24459 299.965164 
L 61.432314 293.77073 
L 61.526164 295.786122 
L 61.620039 293.566955 
L 61.713914 293.921806 
L 61.807789 299.149671 
L 61.995564 291.361133 
L 62.089439 299.145488 
L 62.18334 292.225358 
L 62.27724 294.683442 
L 62.371141 293.480738 
L 62.558967 296.734473 
L 62.652893 299.435886 
L 62.74682 299.087645 
L 62.840746 299.831982 
L 62.934672 294.887052 
L 63.028624 296.92601 
L 63.12255 294.940449 
L 63.216501 297.762967 
L 63.404405 292.19966 
L 63.498382 295.830795 
L 63.780288 291.697042 
L 63.874265 290.684812 
L 64.156248 296.029658 
L 64.250251 295.339108 
L 64.344254 300.15368 
L 64.438257 299.472574 
L 64.532285 298.728301 
L 64.626314 295.438244 
L 64.720317 299.669099 
L 64.814345 298.937388 
L 64.908399 301.973441 
L 65.19051 290.683618 
L 65.284564 296.436607 
L 65.378618 290.590843 
L 65.472698 293.166177 
L 65.566752 287.727106 
L 65.660831 293.423419 
L 65.754911 292.148466 
L 65.84899 297.148407 
L 65.94307 289.749351 
L 66.22536 298.442483 
L 66.319465 292.592357 
L 66.41357 296.498351 
L 66.507675 295.395465 
L 66.601806 297.350042 
L 66.695937 294.350602 
L 66.790068 296.156341 
L 66.884198 295.72884 
L 67.07246 288.436575 
L 67.166616 295.819832 
L 67.260772 288.026481 
L 67.543241 295.634348 
L 67.637423 292.973337 
L 67.731605 298.197488 
L 67.825787 297.450427 
L 67.919969 300.370905 
L 68.014151 292.161539 
L 68.108358 297.53073 
L 68.20254 297.063688 
L 68.296748 299.643778 
L 68.390955 293.230544 
L 68.485163 299.16813 
L 68.673603 292.932192 
L 68.862069 296.381225 
L 69.144794 291.464375 
L 69.239027 291.573448 
L 69.427545 295.68022 
L 69.521803 295.359577 
L 69.616087 293.579121 
L 69.80463 301.649607 
L 69.898914 293.088697 
L 70.087483 298.014129 
L 70.181793 298.49002 
L 70.276077 290.395826 
L 70.464696 297.215784 
L 70.559006 292.116891 
L 70.653342 294.840593 
L 70.841987 291.266625 
L 70.936322 294.529327 
L 71.030658 293.33481 
L 71.124993 294.176803 
L 71.219354 296.559125 
L 71.313689 293.390998 
L 71.40805 297.264469 
L 71.502411 296.869791 
L 71.596772 297.313665 
L 71.691159 300.579795 
L 71.78552 297.134569 
L 71.879906 298.36925 
L 71.974293 296.911644 
L 72.068679 298.53575 
L 72.163066 293.702543 
L 72.257478 293.795804 
L 72.351864 297.507291 
L 72.540689 289.79337 
L 72.635101 292.818334 
L 72.729513 288.582926 
L 72.823951 293.20834 
L 72.918388 291.639182 
L 73.0128 296.458218 
L 73.107238 294.59061 
L 73.201701 294.897733 
L 73.390602 302.365968 
L 73.48504 292.107653 
L 73.768455 297.187108 
L 73.862919 298.494863 
L 73.957407 296.197042 
L 74.051871 289.911799 
L 74.14636 294.114738 
L 74.240874 292.828477 
L 74.335363 296.149299 
L 74.429852 289.761943 
L 74.618881 293.102804 
L 74.713395 293.188846 
L 74.807909 298.419067 
L 74.902449 293.489664 
L 75.091504 300.390833 
L 75.280584 296.834187 
L 75.375124 298.119622 
L 75.46969 297.821753 
L 75.658795 296.328788 
L 75.753361 293.761357 
L 75.847926 297.503572 
L 76.037083 292.861647 
L 76.131674 292.982138 
L 76.226265 295.022095 
L 76.320857 287.847447 
L 76.699272 299.347458 
L 76.888506 296.315071 
L 76.983123 297.992142 
L 77.077739 297.014125 
L 77.172382 294.345677 
L 77.361666 296.799078 
L 77.456309 295.46724 
L 77.550951 296.793053 
L 77.645619 296.045899 
L 77.834929 294.158176 
L 77.929597 293.996001 
L 78.024265 289.609299 
L 78.118958 289.799396 
L 78.403013 298.779328 
L 78.497707 296.459518 
L 78.5924 296.628192 
L 78.687119 296.297928 
L 78.781813 294.927221 
L 78.876532 295.46748 
L 78.971251 293.934084 
L 79.06597 299.110487 
L 79.160689 296.256341 
L 79.255434 297.125994 
L 79.444897 295.468339 
L 79.539642 293.697145 
L 79.634387 295.633421 
L 79.729131 292.716796 
L 79.918646 295.303668 
L 80.013416 293.132283 
L 80.108187 295.551635 
L 80.202957 294.005529 
L 80.392523 297.877127 
L 80.487319 292.473165 
L 80.582114 298.063843 
L 80.67691 293.108285 
L 80.771706 296.297016 
L 80.866502 294.843652 
L 80.961323 298.168197 
L 81.056144 292.79965 
L 81.15094 292.918877 
L 81.245762 291.453591 
L 81.340609 294.038794 
L 81.43543 293.94234 
L 81.530277 294.195396 
L 81.625098 288.584875 
L 81.719945 296.175372 
L 81.909665 291.44745 
L 82.099384 296.781636 
L 82.194231 297.23807 
L 82.289104 297.119708 
L 82.383976 294.474643 
L 82.478874 297.453171 
L 82.573747 295.262045 
L 82.668645 295.385674 
L 82.763518 294.105066 
L 82.953339 296.214926 
L 83.048238 294.338687 
L 83.143136 289.492036 
L 83.238059 292.256137 
L 83.332983 288.409251 
L 83.427907 296.531013 
L 83.52283 291.533505 
L 83.617754 297.640897 
L 83.712703 294.265472 
L 83.807627 296.625306 
L 83.902576 293.451567 
L 84.092475 297.267916 
L 84.282399 294.547185 
L 84.377374 296.591527 
L 84.472323 295.118316 
L 84.567298 296.733988 
L 84.662298 293.832075 
L 84.757273 297.309708 
L 84.947249 292.146173 
L 85.042249 292.289434 
L 85.137249 295.198684 
L 85.32725 292.144933 
L 85.422276 296.560381 
L 85.517277 296.362865 
L 85.612303 296.819293 
L 85.707329 296.410853 
L 85.802355 300.062905 
L 85.992432 295.84015 
L 86.277587 292.097094 
L 86.46769 294.329465 
L 86.562767 293.814208 
L 86.657819 289.82426 
L 86.752896 291.907813 
L 86.847973 287.428195 
L 86.943051 293.470743 
L 87.038153 291.991039 
L 87.228333 296.487465 
L 87.323436 296.180747 
L 87.418539 296.615469 
L 87.513641 299.422222 
L 87.608744 296.026195 
L 87.703872 296.572692 
L 87.894104 293.536451 
L 88.08436 295.251817 
L 88.179514 295.365379 
L 88.274642 290.825634 
L 88.369796 291.889111 
L 88.46495 291.00248 
L 88.560104 288.882669 
L 88.655258 293.546257 
L 88.750412 291.481361 
L 88.845591 296.748052 
L 88.940745 294.643814 
L 89.035925 294.845985 
L 89.131104 293.530298 
L 89.226284 296.633082 
L 89.321463 295.062746 
L 89.511873 297.712672 
L 89.607053 297.720031 
L 89.797463 294.376022 
L 89.892694 297.768222 
L 89.987899 296.852974 
L 90.178334 292.990169 
L 90.273565 293.758215 
L 90.368796 297.722298 
L 90.464052 291.975922 
L 90.749795 298.071754 
L 90.845026 295.442109 
L 90.940282 296.013003 
L 91.035564 294.83996 
L 91.13082 297.812802 
L 91.226102 293.912677 
L 91.321358 298.06047 
L 91.41664 295.521087 
L 91.607229 298.412537 
L 91.797792 291.394155 
L 91.8931 297.068077 
L 91.988407 291.441732 
L 92.179022 295.376527 
L 92.274355 292.552836 
L 92.464995 294.890845 
L 92.655661 297.292378 
L 92.750994 295.708563 
L 92.846327 299.274689 
L 92.941686 293.736916 
L 93.132377 298.038809 
L 93.227736 294.884981 
L 93.323094 295.706796 
L 93.418453 295.010098 
L 93.513837 293.009031 
L 93.609195 293.746656 
L 93.70458 292.164591 
L 93.799964 293.799374 
L 93.895348 290.783863 
L 94.181526 298.160454 
L 94.276935 293.735472 
L 94.372345 296.149492 
L 94.467755 295.079062 
L 94.563164 297.264516 
L 94.658574 296.887542 
L 94.754009 295.000456 
L 94.94488 298.883898 
L 95.04029 297.469576 
L 95.135751 293.525949 
L 95.231186 296.050128 
L 95.422082 293.006026 
L 95.517543 294.668034 
L 95.803925 291.303316 
L 95.899412 296.818475 
L 95.994873 295.598477 
L 96.090359 295.934505 
L 96.281332 297.381517 
L 96.376818 293.583082 
L 96.472305 299.014011 
L 96.567817 295.162696 
L 96.663329 297.518118 
L 96.758841 297.050922 
L 96.949865 295.020996 
L 97.045377 295.802354 
L 97.140914 292.89483 
L 97.236426 295.290097 
L 97.331964 291.323966 
L 97.427502 296.552149 
L 97.523039 293.494372 
L 97.618577 294.754312 
L 97.71414 293.412205 
L 97.809678 295.025305 
L 97.905241 292.813792 
L 98.000804 298.80864 
L 98.096367 296.008277 
L 98.19193 297.171695 
L 98.287493 294.949062 
L 98.383082 298.325557 
L 98.478671 294.614586 
L 98.57426 295.497034 
L 98.669848 294.922258 
L 98.765437 298.268254 
L 98.861026 293.29443 
L 99.147843 296.047915 
L 99.243458 293.029432 
L 99.339072 293.137685 
L 99.434686 292.833277 
L 99.530301 291.932221 
L 99.817195 297.670389 
L 99.912835 297.04933 
L 100.0085 297.808006 
L 100.10414 297.602556 
L 100.295445 294.348981 
L 100.391111 294.939658 
L 100.582442 294.460314 
L 100.678107 295.046118 
L 100.773798 294.251843 
L 100.869464 297.074037 
L 100.965155 294.017339 
L 101.060846 296.045386 
L 101.156537 292.49299 
L 101.347919 297.496466 
L 101.443636 294.182073 
L 101.539327 295.805471 
L 101.635044 300.19877 
L 101.73076 295.3871 
L 101.826477 296.161689 
L 101.922193 297.467444 
L 102.113652 294.22891 
L 102.209395 295.667434 
L 102.305137 291.326715 
L 102.400879 298.645594 
L 102.496621 293.744865 
L 102.592363 295.846251 
L 102.783873 291.36432 
L 102.879641 290.337773 
L 103.166945 297.145911 
L 103.262738 295.491378 
L 103.358506 299.248801 
L 103.645886 293.986436 
L 103.741679 297.847691 
L 103.837473 291.749351 
L 103.933292 299.647953 
L 104.029085 293.172489 
L 104.124904 295.275143 
L 104.220723 292.390357 
L 104.412361 295.010919 
L 104.604024 292.94964 
L 104.699869 294.171549 
L 104.795713 293.307052 
L 104.891532 295.234167 
L 104.987403 294.081067 
L 105.083247 297.214588 
L 105.179092 295.238341 
L 105.274962 295.275552 
L 105.370832 294.452401 
L 105.466676 297.204566 
L 105.562547 291.276505 
L 105.658442 295.347238 
L 105.754312 294.956641 
L 105.850182 297.339656 
L 105.946078 292.835574 
L 106.13787 296.769836 
L 106.329661 293.384272 
L 106.425557 294.630332 
L 106.521478 292.456436 
L 106.617374 295.196865 
L 106.713295 294.426288 
L 106.809216 298.333117 
L 106.905137 296.618311 
L 107.001059 292.578963 
L 107.097006 294.981417 
L 107.192927 293.763884 
L 107.288874 296.098343 
L 107.384821 295.596629 
L 107.480767 294.193738 
L 107.576714 296.35087 
L 107.86458 292.273485 
L 107.960553 295.277216 
L 108.056525 290.158961 
L 108.440441 297.723092 
L 108.536439 297.970973 
L 108.632411 297.176712 
L 108.728409 298.916743 
L 108.920431 296.165406 
L 109.016429 297.597174 
L 109.20845 296.245619 
L 109.400497 291.853363 
L 109.496521 295.85097 
L 109.688594 291.256602 
L 109.784617 295.342998 
L 109.880666 292.968995 
L 109.976716 293.072324 
L 110.072765 297.871626 
L 110.168814 293.59803 
L 110.360938 297.097618 
L 110.456987 297.393338 
L 110.553062 298.358993 
L 110.649137 294.819054 
L 110.745211 299.931965 
L 110.841286 296.928025 
L 110.937361 299.613951 
L 111.225636 290.43391 
L 111.321737 294.41317 
L 111.417837 291.971771 
L 111.513937 294.804659 
L 111.610038 291.928286 
L 111.706163 292.786964 
L 111.802264 292.419919 
L 111.994516 295.846175 
L 112.090641 294.675309 
L 112.186767 298.285347 
L 112.282893 295.174589 
L 112.379045 296.158822 
L 112.475171 294.82462 
L 112.571322 296.159494 
L 112.667474 295.456882 
L 112.763625 296.332467 
L 112.955954 293.00886 
L 113.052105 293.077642 
L 113.148282 293.564841 
L 113.340611 293.407837 
L 113.53299 295.879583 
L 113.629168 292.687333 
L 113.725345 293.677222 
L 113.821547 297.404259 
L 113.91775 293.450845 
L 114.013953 298.367768 
L 114.110155 294.383429 
L 114.206358 298.213978 
L 114.398789 293.357284 
L 114.59122 294.560942 
L 114.687448 294.419526 
L 114.783676 293.539489 
L 114.879904 297.221815 
L 115.072386 295.028492 
L 115.16864 291.931271 
L 115.361122 296.142713 
L 115.457376 293.594848 
L 115.649909 297.659544 
L 115.746163 295.526538 
L 115.842442 298.237374 
L 116.13128 295.28288 
L 116.22756 297.898405 
L 116.420119 293.667632 
L 116.516424 294.373301 
L 116.612729 293.888354 
L 116.709033 295.702104 
L 116.901643 292.512868 
L 116.997948 292.781368 
L 117.094279 296.646796 
L 117.190584 294.366779 
L 117.286914 298.841445 
L 117.383245 295.314544 
L 117.479575 299.444773 
L 117.575906 296.160817 
L 117.672237 297.28728 
L 117.768567 296.264766 
L 117.864923 298.010819 
L 117.961279 297.488548 
L 118.153991 294.29931 
L 118.250348 297.607634 
L 118.346704 292.626853 
L 118.44306 294.282575 
L 118.539442 292.477268 
L 118.732179 297.041105 
L 118.828561 291.205136 
L 118.924943 296.193987 
L 119.117732 291.936928 
L 119.310521 299.683434 
L 119.406928 300.072222 
L 119.503335 293.92819 
L 119.792557 299.479681 
L 119.88899 290.908795 
L 119.985397 295.285659 
L 120.08183 295.251466 
L 120.274696 292.801896 
L 120.371129 297.318935 
L 120.467561 288.331432 
L 120.756911 296.312566 
L 120.85337 293.278019 
L 120.949828 299.434091 
L 121.046286 296.184472 
L 121.142745 299.738781 
L 121.239229 296.473632 
L 121.335687 298.270851 
L 121.432171 295.456419 
L 121.528655 296.545357 
L 121.625139 294.757034 
L 121.721623 295.876492 
L 121.818107 293.372278 
L 121.914591 295.07661 
L 122.011101 292.370686 
L 122.107585 293.299229 
L 122.204095 291.660758 
L 122.300604 291.867963 
L 122.397114 291.805753 
L 122.590159 294.295057 
L 122.686668 293.795055 
L 122.783203 294.481244 
L 122.976248 298.001945 
L 123.072783 296.041113 
L 123.169318 297.762853 
L 123.265854 297.161675 
L 123.362414 297.279775 
L 123.45895 296.970299 
L 123.55551 293.761418 
L 123.652071 295.667733 
L 123.748632 293.55601 
L 123.845193 295.212533 
L 124.038314 292.241659 
L 124.1349 293.35196 
L 124.231461 292.667096 
L 124.328047 294.941561 
L 124.424634 292.277253 
L 124.617806 294.587671 
L 124.714393 295.144238 
L 124.811005 298.13462 
L 125.004203 294.873279 
L 125.100815 295.185501 
L 125.197427 294.601997 
L 125.294039 296.1514 
L 125.390651 295.422524 
L 125.487262 292.80462 
L 125.5839 294.279806 
L 125.777149 292.59537 
L 125.873787 293.912478 
L 125.970424 291.677713 
L 126.260337 295.871858 
L 126.357 295.495147 
L 126.453663 298.599589 
L 126.646963 296.047336 
L 126.743627 297.97453 
L 126.840315 295.325104 
L 126.936978 296.847238 
L 127.033641 293.622905 
L 127.13033 295.665729 
L 127.227019 295.261409 
L 127.323682 295.699749 
L 127.42037 291.491812 
L 127.517084 294.510072 
L 127.613773 293.394815 
L 127.807176 295.395441 
L 127.903865 295.22639 
L 128.000579 295.66604 
L 128.097293 299.176636 
L 128.194007 294.924639 
L 128.290722 295.632202 
L 128.484176 299.969504 
L 128.67763 292.93905 
L 128.871109 299.468 
L 128.967849 293.208827 
L 129.064589 296.634769 
L 129.161329 291.725247 
L 129.258094 296.358496 
L 129.451599 289.183494 
L 129.548365 288.74839 
L 129.741895 293.733511 
L 130.032217 297.50766 
L 130.129008 295.677168 
L 130.225773 298.258042 
L 130.322564 297.898711 
L 130.419355 298.064211 
L 130.516172 292.015131 
L 130.612963 296.429911 
L 130.709754 295.872354 
L 130.80657 293.243239 
L 130.903361 284.58397 
L 131.000178 294.818662 
L 131.290627 279.53084 
L 131.38747 295.642651 
L 131.484286 288.684699 
L 131.581128 289.908335 
L 131.774787 299.95759 
L 131.871629 298.382873 
L 131.968471 299.79248 
L 132.065313 292.954894 
L 132.162155 296.935962 
L 132.259023 292.501668 
L 132.355891 296.38885 
L 132.452733 293.715314 
L 132.646468 298.214368 
L 132.743336 292.701317 
L 132.937097 296.257766 
L 133.130858 292.75441 
L 133.227726 294.435955 
L 133.324619 291.502933 
L 133.421512 295.964301 
L 133.518405 293.936646 
L 133.712218 298.011776 
L 133.809111 294.122332 
L 133.90603 294.915294 
L 134.002949 294.501563 
L 134.099842 296.2712 
L 134.293705 293.98034 
L 134.390624 295.853312 
L 134.487543 293.22387 
L 134.584487 293.503959 
L 134.681406 294.584154 
L 134.875295 291.445114 
L 135.166128 295.350666 
L 135.263073 296.196499 
L 135.360043 298.447045 
L 135.456987 293.285544 
L 135.553957 297.850711 
L 135.650927 295.853313 
L 135.747897 296.833273 
L 135.844867 295.094155 
L 135.941837 298.217394 
L 136.038833 293.930679 
L 136.135803 295.883712 
L 136.232798 293.523442 
L 136.329794 295.123844 
L 136.426764 294.546867 
L 136.52376 295.696086 
L 136.620755 292.415849 
L 136.717776 294.476743 
L 136.814772 294.232396 
L 136.911768 294.146459 
L 137.008789 294.842669 
L 137.10581 294.589924 
L 137.202831 293.883538 
L 137.299827 297.993573 
L 137.493895 296.272279 
L 137.590916 293.008348 
L 137.88203 297.154362 
L 137.979077 294.339026 
L 138.076124 296.640305 
L 138.173171 294.368224 
L 138.270217 294.743635 
L 138.367264 294.609366 
L 138.464337 295.278648 
L 138.561383 294.333565 
L 138.755528 297.03311 
L 138.852575 297.262524 
L 138.949647 296.608426 
L 139.046745 298.162221 
L 139.24089 296.625823 
L 139.337988 294.196234 
L 139.43506 295.505192 
L 139.532158 295.160279 
L 139.629256 295.819215 
L 139.823452 291.795101 
L 139.920575 292.611818 
L 140.114771 294.449043 
L 140.211894 292.837166 
L 140.309018 294.98327 
L 140.503265 294.491598 
L 140.600388 298.185497 
L 140.697512 294.017812 
L 140.794635 298.270546 
L 140.891784 295.772192 
L 140.988908 298.079137 
L 141.183206 294.446196 
L 141.280355 294.733213 
L 141.377504 298.692577 
L 141.571802 293.234797 
L 141.668977 294.878248 
L 141.766126 294.277913 
L 141.863301 292.531775 
L 141.96045 293.705604 
L 142.057624 293.210211 
L 142.154799 294.021634 
L 142.251999 296.444607 
L 142.446348 295.48083 
L 142.543549 297.207304 
L 142.640723 293.440971 
L 142.835124 297.051739 
L 142.932324 293.550777 
L 143.223925 295.631811 
L 143.418351 293.968434 
L 143.612802 294.880061 
L 143.710028 291.19811 
L 144.001705 296.520662 
L 144.196183 294.249323 
L 144.487911 298.025875 
L 144.585163 296.426555 
L 144.682414 296.487956 
L 144.779665 296.15414 
L 144.876942 297.426167 
L 144.974194 294.975862 
L 145.168722 297.070702 
L 145.265999 293.637577 
L 145.363276 293.995703 
L 145.460553 294.350312 
L 145.55783 292.805999 
L 145.655107 295.050731 
L 145.752409 294.212449 
L 145.849686 295.383691 
L 145.946989 294.635036 
L 146.238871 297.49733 
L 146.336174 297.379126 
L 146.530779 296.007836 
L 146.628107 295.663315 
L 146.725409 294.720204 
L 146.822737 296.386197 
L 146.920065 294.024837 
L 147.017394 294.08658 
L 147.114722 294.621676 
L 147.309378 292.242711 
L 147.406706 293.546352 
L 147.50406 290.89796 
L 147.601388 295.443745 
L 147.796095 292.859485 
L 147.893423 299.197355 
L 147.990777 298.517268 
L 148.282864 292.744543 
L 148.380243 297.522305 
L 148.477597 295.382262 
L 148.574976 295.537978 
L 148.672355 294.320626 
L 148.769709 296.130011 
L 148.867088 294.328487 
L 148.964493 295.04582 
L 149.159252 291.902415 
L 149.256657 294.404071 
L 149.354036 293.924028 
L 149.451441 291.220268 
L 149.548846 294.744472 
L 149.64625 294.305485 
L 149.84106 297.894761 
L 149.938465 297.855135 
L 150.035895 297.081158 
L 150.1333 297.169647 
L 150.230731 294.428633 
L 150.425566 296.160831 
L 150.522996 293.888473 
L 150.620427 296.067462 
L 150.912744 293.489839 
L 151.010174 291.335427 
L 151.302542 297.346154 
L 151.399973 294.325139 
L 151.59491 297.458941 
L 151.789822 294.100272 
L 151.887304 298.200133 
L 152.082241 294.597124 
L 152.277205 295.148923 
L 152.374686 293.282383 
L 152.472168 294.035089 
L 152.667157 296.388277 
L 152.862145 293.238683 
L 152.959653 295.842559 
L 153.154641 293.977721 
L 153.252149 297.804345 
L 153.349656 296.863912 
L 153.447163 298.784583 
L 153.642228 294.699275 
L 153.739736 294.938099 
L 153.837243 297.050627 
L 153.934801 295.117646 
L 154.032308 295.54092 
L 154.227374 293.738048 
L 154.324932 294.940103 
L 154.42249 294.845844 
L 154.519998 293.344403 
L 154.617556 294.007674 
L 154.715114 290.816489 
L 154.910231 294.668316 
L 155.007789 294.452675 
L 155.202906 299.29617 
L 155.300464 299.010124 
L 155.398023 298.521589 
L 155.495632 293.566545 
L 155.690749 296.432634 
L 155.788358 296.214992 
L 155.983526 294.766503 
L 156.178694 294.637036 
L 156.276303 292.982611 
L 156.373862 294.820134 
L 156.471471 291.2685 
L 156.959519 296.270533 
L 157.057128 295.357583 
L 157.154738 296.120101 
L 157.252398 294.281678 
L 157.350008 297.807282 
L 157.447617 297.735566 
L 157.545278 297.153466 
L 157.642887 294.870801 
L 157.740497 295.936585 
L 157.935818 294.285897 
L 158.033428 293.324037 
L 158.131088 295.817507 
L 158.32641 292.908523 
L 158.424019 293.391116 
L 158.52168 295.327015 
L 158.61934 291.798514 
L 158.717001 296.633061 
L 158.814662 294.11888 
L 158.912322 297.755629 
L 159.010034 297.154282 
L 159.205355 294.329596 
L 159.303067 297.331604 
L 159.498388 294.266447 
L 159.5961 293.476234 
L 159.693761 294.624619 
L 159.889184 292.133688 
L 159.986845 296.861622 
L 160.084557 293.940493 
L 160.182269 295.478403 
L 160.279981 292.505863 
L 160.377692 295.753781 
L 160.475404 295.662031 
L 160.573116 295.692664 
L 160.670828 296.516452 
L 160.76854 298.49863 
L 160.866251 295.69257 
L 160.963963 295.996307 
L 161.061675 297.205648 
L 161.159438 300.396219 
L 161.452624 292.856503 
L 161.550387 295.752259 
L 161.648099 295.571112 
L 161.745862 291.574765 
L 161.843574 293.685923 
L 161.941337 291.042115 
L 162.0391 297.128019 
L 162.136863 296.822687 
L 162.234626 294.628179 
L 162.430152 298.498694 
L 162.527915 296.657973 
L 162.625678 298.159342 
L 162.723441 296.112437 
L 162.918967 296.985317 
L 163.016781 296.053181 
L 163.114544 296.596965 
L 163.310121 293.280091 
L 163.407884 293.112748 
L 163.505698 295.391096 
L 163.701275 292.851512 
L 163.799089 294.268872 
L 163.896852 293.635228 
L 163.994666 296.145673 
L 164.09248 294.783746 
L 164.385923 298.054778 
L 164.483737 297.870263 
L 164.581551 294.603829 
L 164.679365 296.385474 
L 164.777179 294.364569 
L 164.875044 296.233741 
L 164.972859 293.95284 
L 165.070673 294.467274 
L 165.168538 292.563221 
L 165.266352 296.758929 
L 165.462031 292.722377 
L 165.657711 295.009228 
L 165.755576 293.82062 
L 165.951307 296.997289 
L 166.049172 297.353994 
L 166.146986 296.523288 
L 166.244851 294.563836 
L 166.342717 295.719993 
L 166.440582 301.09624 
L 166.538447 294.637977 
L 166.636364 295.83484 
L 166.832094 294.676425 
L 167.027876 296.26578 
L 167.125741 291.911892 
L 167.223606 292.8614 
L 167.321523 292.193055 
L 167.419388 296.036217 
L 167.517305 295.400548 
L 167.615221 292.356569 
L 167.811003 299.68386 
L 168.006836 296.128019 
L 168.202617 295.455446 
L 168.39845 297.223453 
L 168.496367 295.21782 
L 168.594334 295.779427 
L 168.692251 295.189395 
L 168.790167 296.396788 
L 169.181884 293.26726 
L 169.279852 291.666311 
L 169.377768 295.047388 
L 169.475736 294.753244 
L 169.573652 297.213138 
L 169.769587 295.338433 
L 169.965471 297.85067 
L 170.063439 297.170772 
L 170.161407 297.715028 
L 170.259374 294.30506 
L 170.357342 296.611217 
L 170.455309 295.48718 
L 170.553277 296.236204 
L 170.749212 294.12997 
L 170.84718 296.466244 
L 171.043166 292.08417 
L 171.533106 297.224839 
L 171.631125 295.54584 
L 171.827111 297.73927 
L 172.023149 294.779127 
L 172.121168 296.649402 
L 172.219135 295.828679 
L 172.317154 292.503802 
L 172.415173 292.560325 
L 172.61121 296.224055 
L 172.709229 294.785728 
L 172.905318 296.44832 
L 173.003336 294.556523 
L 173.101355 297.652408 
L 173.199425 295.545527 
L 173.297444 297.49596 
L 173.395514 294.681602 
L 173.689621 297.024771 
L 173.787691 294.55511 
L 173.88571 295.166711 
L 173.98378 295.079994 
L 174.08185 295.573511 
L 174.17992 295.312489 
L 174.376008 293.169423 
L 174.474078 297.076802 
L 174.572148 292.355607 
L 174.866409 296.174169 
L 174.964479 294.545289 
L 175.160619 297.990344 
L 175.258689 295.745266 
L 175.35681 297.22566 
L 175.553001 295.943914 
L 175.651071 298.358677 
L 175.945383 293.631491 
L 176.043504 295.001229 
L 176.141574 293.13247 
L 176.239695 295.688973 
L 176.337816 293.381135 
L 176.534058 297.137946 
L 176.632128 296.531162 
L 176.730249 294.476052 
L 176.82837 296.989356 
L 176.926542 296.123201 
L 177.024663 292.555643 
L 177.220905 296.792223 
L 177.319026 295.544293 
L 177.417199 297.0831 
L 177.51532 293.976532 
L 177.613441 295.139554 
L 177.711613 294.764007 
L 177.809734 293.757398 
L 177.907906 294.105226 
L 178.006027 292.210056 
L 178.1042 294.478555 
L 178.202372 292.334156 
L 178.300493 292.646705 
L 178.398665 297.401816 
L 178.496837 294.615718 
L 178.791303 298.01814 
L 178.889475 297.436632 
L 178.987647 295.34052 
L 179.184043 296.097575 
L 179.282215 294.699446 
L 179.380387 295.165946 
L 179.47856 293.039978 
L 179.576732 294.904705 
L 179.674955 294.352071 
L 179.773128 294.55355 
L 179.969523 295.107352 
L 180.067695 293.65893 
L 180.264091 297.224859 
L 180.362314 295.457853 
L 180.55871 297.746202 
L 180.656933 295.457149 
L 180.755157 298.659008 
L 180.85338 296.389476 
L 180.951603 299.044405 
L 181.14805 295.164567 
L 181.246274 295.427228 
L 181.344497 296.685763 
L 181.44272 292.991079 
L 181.540944 297.279622 
L 181.737391 293.214278 
L 181.835614 292.947993 
L 182.032112 294.983605 
L 182.130386 293.103051 
L 182.22861 294.662558 
L 182.326833 300.561862 
L 182.523382 294.57791 
L 182.71988 296.153093 
L 182.916378 294.770121 
L 183.014653 296.462869 
L 183.309476 293.117589 
L 183.4077 295.288642 
L 183.505974 292.464868 
L 183.702574 295.230621 
L 183.800849 294.19818 
L 183.899124 295.373021 
L 183.997398 293.789685 
L 184.095673 297.164795 
L 184.193998 294.818934 
L 184.292273 298.580267 
L 184.488873 294.463142 
L 184.587148 296.507783 
L 184.685473 293.06313 
L 184.783748 298.292502 
L 184.980348 291.876139 
L 185.177 296.102247 
L 185.275274 292.982457 
L 185.3736 295.189296 
L 185.471925 294.299185 
L 185.570251 295.393712 
L 185.668577 293.282487 
L 185.766903 296.876104 
L 185.865228 295.75008 
L 185.963554 297.464432 
L 186.06188 294.155722 
L 186.160205 297.224706 
L 186.258531 294.275497 
L 186.356857 297.604279 
L 186.455183 297.131628 
L 186.553559 294.604972 
L 186.651885 295.367398 
L 186.750211 294.457628 
L 186.848588 294.604869 
L 186.946913 295.602205 
L 187.04529 292.660061 
L 187.143616 295.602324 
L 187.241993 293.652977 
L 187.340318 297.730314 
L 187.537072 294.958162 
L 187.635398 294.106939 
L 187.832152 298.219359 
L 187.930528 294.098029 
L 188.028905 294.862703 
L 188.127231 298.859114 
L 188.225608 295.275945 
L 188.323985 297.114932 
L 188.422362 293.204227 
L 188.52079 295.572428 
L 188.717543 293.08703 
L 188.81592 292.616289 
L 188.914297 293.919837 
L 189.012725 293.390382 
L 189.209479 295.660917 
L 189.307907 295.160971 
L 189.406284 297.708964 
L 189.504712 296.564518 
L 189.701517 296.963398 
L 189.799893 294.59041 
L 189.898321 295.747462 
L 189.996698 293.679899 
L 190.095126 297.265351 
L 190.39041 293.227836 
L 190.488787 296.631409 
L 190.685643 292.307047 
L 190.784071 293.100913 
L 190.980927 296.10269 
L 191.079355 294.276266 
L 191.276262 298.339864 
L 191.374691 298.453219 
L 191.473119 299.045042 
L 191.571598 296.220164 
L 191.670026 296.836324 
L 191.768454 295.396144 
L 191.866933 296.337254 
L 191.965361 294.101602 
L 192.06384 296.692062 
L 192.162268 295.513304 
L 192.260747 296.430798 
L 192.359175 294.384293 
L 192.457655 294.562633 
L 192.556134 294.711351 
L 192.654562 292.254011 
L 192.753041 292.735289 
L 192.85152 296.132942 
L 192.949999 294.014602 
L 193.048478 296.747511 
L 193.146958 295.719244 
L 193.245437 298.987984 
L 193.343865 295.310836 
L 193.442395 298.364303 
L 193.540874 294.878627 
L 193.639353 297.825036 
L 193.737833 294.855079 
L 193.836312 297.925829 
L 194.03327 293.571688 
L 194.23028 295.974842 
L 194.328759 291.017363 
L 194.427289 294.226241 
L 194.525768 291.844226 
L 194.722778 295.660198 
L 194.821308 296.149574 
L 194.919787 294.421754 
L 195.018318 295.862153 
L 195.116848 299.067853 
L 195.412388 293.546222 
L 195.510918 296.007453 
L 195.609449 295.949719 
L 195.707928 293.571419 
L 195.806458 294.295693 
L 195.904988 292.407087 
L 196.003519 295.312324 
L 196.102049 292.035118 
L 196.200579 292.997203 
L 196.397691 297.079032 
L 196.496222 295.22616 
L 196.594752 297.571091 
L 196.693282 296.355763 
L 196.791864 297.026385 
L 196.890394 298.65287 
L 196.988924 294.991227 
L 197.186036 297.611409 
L 197.284618 295.049711 
L 197.383148 296.097065 
L 197.48173 295.543914 
L 197.678841 293.969714 
L 197.777423 293.093565 
L 197.875953 295.689793 
L 198.073116 293.499386 
L 198.171698 298.23037 
L 198.270228 295.398044 
L 198.467391 296.977447 
L 198.565972 294.840558 
L 198.763135 297.672267 
L 199.05888 292.820215 
L 199.157513 296.55903 
L 199.354676 292.933641 
L 199.453257 294.181133 
L 199.650471 291.787668 
L 199.749053 294.883747 
L 199.847685 294.627049 
L 199.946267 295.746028 
L 200.044899 295.430727 
L 200.242114 297.706189 
L 200.340695 295.515877 
L 200.537909 296.38504 
L 200.636542 295.428603 
L 200.735175 296.528233 
L 200.833807 294.765236 
L 201.129654 297.445922 
L 201.228287 294.187131 
L 201.326919 295.805044 
L 201.425552 293.397446 
L 201.524185 295.689473 
L 201.622817 293.165696 
L 201.72145 298.618725 
L 201.820082 294.503475 
L 202.017348 296.637573 
L 202.214664 295.775263 
L 202.313297 296.064818 
L 202.411929 298.004252 
L 202.510613 297.455409 
L 202.609246 293.898703 
L 202.707879 297.816188 
L 202.905195 293.002295 
L 203.003879 293.429904 
L 203.102512 296.948816 
L 203.201195 293.394862 
L 203.299879 294.101515 
L 203.497196 292.871795 
L 203.595879 293.365595 
L 203.694512 294.574004 
L 203.793196 294.195072 
L 203.89188 297.914609 
L 203.990563 295.77783 
L 204.089247 297.568419 
L 204.187931 296.19265 
L 204.286615 298.300229 
L 204.582666 294.831635 
L 204.68135 295.159508 
L 204.780034 292.757237 
L 204.878718 294.174652 
L 204.977402 291.574403 
L 205.076085 294.124033 
L 205.17482 291.539052 
L 205.372188 295.079844 
L 205.569607 294.436686 
L 205.865709 298.143199 
L 205.964444 295.221041 
L 206.063128 295.454864 
L 206.260598 297.709509 
L 206.458017 292.212411 
L 206.556752 292.861653 
L 206.655436 295.750964 
L 206.754171 294.07859 
L 206.852905 294.137385 
L 206.95164 293.655252 
L 207.050375 292.299455 
L 207.149059 292.409585 
L 207.247794 295.209274 
L 207.346529 293.674991 
L 207.445264 296.6212 
L 207.543999 295.39295 
L 207.642734 298.357101 
L 207.840255 297.84341 
L 207.93899 298.10658 
L 208.13646 294.774883 
L 208.235246 296.10538 
L 208.432716 292.509411 
L 208.531451 295.274854 
L 208.728972 292.094506 
L 208.827758 295.601694 
L 209.025279 293.379932 
L 209.124014 295.269968 
L 209.2228 292.293134 
L 209.321535 297.678157 
L 209.420322 297.163362 
L 209.519108 297.405399 
L 209.617843 294.015083 
L 209.716629 297.737438 
L 209.815415 296.701269 
L 209.914201 297.223434 
L 210.111722 295.785942 
L 210.210508 294.982866 
L 210.309294 297.76652 
L 210.506867 292.866672 
L 210.704439 295.995712 
L 210.803225 294.062423 
L 211.000797 296.472922 
L 211.099583 297.703833 
L 211.198421 295.961524 
L 211.297207 298.895681 
L 211.395993 296.587479 
L 211.494779 297.090506 
L 211.593616 292.872222 
L 211.692402 296.341065 
L 211.791188 293.624137 
L 211.890026 296.846722 
L 211.988812 292.280292 
L 212.087649 294.180385 
L 212.186435 293.803086 
L 212.285273 291.853652 
L 212.384059 292.012253 
L 212.680519 297.332174 
L 212.779357 297.273403 
L 212.97698 294.90366 
L 213.075817 296.487913 
L 213.174655 293.886679 
L 213.273492 297.222045 
L 213.372278 295.31377 
L 213.471115 296.617914 
L 213.767627 293.300052 
L 213.866464 294.281742 
L 213.965302 292.597864 
L 214.064139 296.005965 
L 214.162976 294.015404 
L 214.261814 294.389151 
L 214.360702 293.115205 
L 214.459539 295.818446 
L 214.558377 295.320775 
L 214.657214 296.752482 
L 214.756051 296.504023 
L 214.85494 298.002767 
L 215.052614 295.946723 
L 215.151503 293.64073 
L 215.25034 296.043343 
L 215.349228 295.030478 
L 215.448066 295.631855 
L 215.546903 295.505144 
L 215.645791 294.807821 
L 215.74468 293.289719 
L 215.843517 295.473803 
L 215.942405 291.681001 
L 216.041243 294.683446 
L 216.140131 293.136856 
L 216.23902 295.442539 
L 216.337857 294.180682 
L 216.436745 296.009414 
L 216.634522 295.286829 
L 216.733411 293.215094 
L 216.832248 296.449973 
L 216.931136 295.189887 
L 217.128913 297.789456 
L 217.32669 293.616832 
L 217.425579 294.703236 
L 217.623355 293.965375 
L 217.722244 293.133523 
L 217.821183 293.838752 
L 217.920072 292.07496 
L 218.01896 296.177158 
L 218.315677 292.866147 
L 218.414565 297.5611 
L 218.711282 294.698663 
L 218.810221 295.986511 
L 218.90911 292.85877 
L 219.007998 295.599649 
L 219.106938 293.233589 
L 219.205826 297.969433 
L 219.304766 292.152209 
L 219.403705 294.621577 
L 219.700422 291.20248 
L 219.799361 294.835127 
L 219.898301 292.997199 
L 219.997241 296.768824 
L 220.096129 292.581705 
L 220.195069 298.321818 
L 220.294008 294.013618 
L 220.392948 297.598972 
L 220.590827 295.052407 
L 220.689767 297.963191 
L 220.887595 294.07691 
L 220.986534 294.455361 
L 221.085525 293.725389 
L 221.283404 294.833626 
L 221.481283 290.300157 
L 221.580223 295.423078 
L 221.679163 291.617522 
L 221.976033 297.015458 
L 222.173963 292.926926 
L 222.272903 296.652514 
L 222.371842 294.212249 
L 222.470833 295.362949 
L 222.569773 295.297483 
L 222.668763 295.232847 
L 222.767703 296.823752 
L 223.163564 291.760039 
L 223.361494 292.247932 
L 223.460485 295.859906 
L 223.559475 295.077928 
L 223.658466 292.433665 
L 223.757406 296.678403 
L 223.856397 294.094256 
L 223.955387 297.497408 
L 224.054378 294.583946 
L 224.351299 295.632038 
L 224.45029 297.697026 
L 224.648271 291.689738 
L 224.747262 293.562492 
L 224.846253 293.067371 
L 224.945244 293.924265 
L 225.044234 292.283748 
L 225.143225 292.415997 
L 225.242216 292.94139 
L 225.341207 298.157276 
L 225.440249 293.270615 
L 225.63823 295.632048 
L 225.737221 297.406485 
L 225.935254 295.368378 
L 226.034244 296.32442 
L 226.133235 299.42338 
L 226.232277 292.566041 
L 226.331268 295.697927 
L 226.5293 293.954368 
L 226.628291 288.946474 
L 226.826324 295.433913 
L 227.024356 292.726295 
L 227.123398 293.915105 
L 227.22244 292.430416 
L 227.321431 295.731144 
L 227.420473 292.628174 
L 227.519464 294.840088 
L 227.618506 292.491466 
L 227.717548 296.821959 
L 227.81659 292.29223 
L 227.91558 295.168142 
L 228.212706 291.550639 
L 228.311748 293.905381 
L 228.410739 289.847236 
L 228.509781 290.780131 
L 228.608822 292.904609 
L 228.707864 290.770481 
L 228.806906 291.764849 
L 228.905948 289.500754 
L 229.00499 293.266691 
L 229.104032 292.771703 
L 229.203074 290.570723 
L 229.302116 294.499312 
L 229.401158 292.368238 
L 229.500251 294.432657 
L 229.698335 292.694775 
L 229.797377 295.532046 
L 229.896418 291.228022 
L 229.995512 296.133842 
L 230.193595 289.767597 
L 230.292637 292.344069 
L 230.490772 288.455709 
L 230.589865 289.794609 
L 230.688907 292.527784 
L 230.787949 286.621464 
L 231.085177 295.024076 
L 231.283312 292.253357 
L 231.382354 292.788448 
L 231.481447 291.674261 
L 231.58054 292.144394 
L 231.679582 289.601753 
L 231.778675 290.010587 
L 231.877768 291.265083 
L 232.174996 287.042143 
L 232.274038 290.015428 
L 232.472224 286.845251 
L 232.571317 289.614462 
L 232.670411 288.154072 
L 232.769504 292.787437 
L 232.868546 288.253714 
L 232.967639 290.88837 
L 233.066732 290.214896 
L 233.165825 288.452786 
L 233.463104 289.462584 
L 233.66129 288.034879 
L 233.760383 285.732069 
L 233.859476 286.734661 
L 233.958621 285.669215 
L 234.057714 285.752851 
L 234.156807 286.505134 
L 234.454086 286.216442 
L 234.652323 283.838821 
L 234.850561 288.259929 
L 234.949654 284.860822 
L 235.048747 285.842841 
L 235.147891 281.691348 
L 235.346077 284.765629 
L 235.544314 280.822515 
L 235.643458 276.965502 
L 235.841696 281.841288 
L 236.039933 277.154026 
L 236.139026 279.543994 
L 236.23817 279.332521 
L 236.337315 276.919486 
L 236.535552 282.14798 
L 236.634696 278.761366 
L 236.733789 279.180882 
L 236.832933 280.824336 
L 237.031222 276.082311 
L 237.130315 278.000431 
L 237.229459 272.950129 
L 237.328603 273.099962 
L 237.427748 277.246079 
L 237.526892 270.465583 
L 237.725129 274.325028 
L 237.923418 270.336534 
L 238.022562 271.023859 
L 238.121706 273.101647 
L 238.22085 271.719883 
L 238.419139 272.557674 
L 238.518283 270.010787 
L 238.617427 273.392371 
L 238.716571 268.523639 
L 238.815716 270.785637 
L 239.014055 268.236749 
L 239.1132 266.448725 
L 239.311488 267.818601 
L 239.410632 263.542598 
L 239.509828 265.147431 
L 239.608972 261.985343 
L 239.708116 263.375384 
L 239.80726 263.338549 
L 239.906456 259.166048 
L 240.0056 261.763036 
L 240.104744 261.039657 
L 240.20394 258.659887 
L 240.303084 266.144041 
L 240.402279 256.77527 
L 240.501423 264.905734 
L 240.699763 258.750297 
L 240.798907 260.890074 
L 240.898103 257.191399 
L 240.997247 258.905106 
L 241.195586 253.735394 
L 241.294782 256.822415 
L 241.493122 250.026322 
L 241.592317 252.849585 
L 241.691461 249.311615 
L 241.790657 249.675016 
L 241.889852 251.449284 
L 241.989047 245.83132 
L 242.088191 251.341652 
L 242.187387 245.937255 
L 242.286582 247.480977 
L 242.385727 247.113451 
L 242.484922 243.744069 
L 242.584117 246.267363 
L 242.782508 242.421297 
L 242.881703 243.245814 
L 242.980848 236.56241 
L 243.080043 240.306675 
L 243.179238 235.03223 
L 243.278434 238.381163 
L 243.476825 233.721226 
L 243.57602 231.276636 
L 243.675215 234.068591 
L 243.774411 234.044027 
L 243.873606 233.042617 
L 243.972802 226.45089 
L 244.071997 236.113968 
L 244.568025 224.873457 
L 244.66722 224.555116 
L 244.766416 219.560995 
L 244.865611 223.478136 
L 244.964807 222.29973 
L 245.163248 213.182089 
L 245.262444 215.729877 
L 245.361639 212.740259 
L 245.460886 215.651735 
L 245.659277 211.656855 
L 245.758523 211.099164 
L 245.956914 207.613225 
L 246.056161 209.866735 
L 246.254551 200.950855 
L 246.353798 199.288591 
L 246.452993 201.802322 
L 246.651435 198.181137 
L 246.750682 198.924126 
L 247.147566 185.584263 
L 247.246761 187.772421 
L 247.346007 181.258654 
L 247.445254 181.877727 
L 247.544449 182.588149 
L 247.643696 181.715187 
L 247.941384 171.93298 
L 248.040631 174.082087 
L 248.338319 165.040771 
L 248.536761 162.347723 
L 248.636008 160.169152 
L 248.735254 164.511971 
L 249.032943 150.855766 
L 249.132189 148.103135 
L 249.231436 153.555455 
L 249.529176 140.378933 
L 249.628422 142.724077 
L 249.727669 137.484585 
L 249.826915 139.831086 
L 249.926162 136.162398 
L 250.025408 139.836079 
L 250.124655 126.832082 
L 250.223902 128.794505 
L 250.323148 128.04806 
L 250.521641 121.05592 
L 250.620888 119.74684 
L 250.720134 116.839666 
L 250.819381 121.132268 
L 250.918627 103.196124 
L 251.017874 111.387627 
L 251.117172 106.547004 
L 251.216418 109.985397 
L 251.315665 102.910374 
L 251.414911 103.586106 
L 251.514158 103.064508 
L 251.613455 101.416585 
L 251.911195 89.733805 
L 252.010493 92.501763 
L 252.308232 76.798989 
L 252.506777 80.449754 
L 252.705321 68.711344 
L 252.903865 74.150802 
L 253.003112 68.216473 
L 253.102358 68.869044 
L 253.201656 63.391446 
L 253.300902 70.518206 
L 253.4002 63.292533 
L 253.598744 65.909362 
L 253.697991 62.545375 
L 253.797289 65.043462 
L 253.896535 62.957584 
L 253.995833 64.241376 
L 254.095079 61.478562 
L 254.194377 63.692793 
L 254.293624 60.71686 
L 254.392921 63.34545 
L 254.591466 55.554545 
L 254.690763 56.614952 
L 255.18715 72.860627 
L 255.286447 73.270474 
L 255.484991 77.971941 
L 255.683587 82.681756 
L 255.782885 79.292234 
L 255.981429 93.781603 
L 256.080727 85.719516 
L 256.180024 99.250431 
L 256.279322 90.84161 
L 256.378569 98.853796 
L 256.477866 97.087294 
L 256.676462 107.171771 
L 256.875057 118.354676 
L 256.974355 117.532012 
L 257.073652 117.794577 
L 257.57009 143.778334 
L 257.669388 143.748788 
L 257.967281 154.856048 
L 258.066578 150.929413 
L 258.165876 154.374962 
L 258.265174 152.889684 
L 258.463769 168.186669 
L 258.563118 171.731704 
L 258.662416 171.234987 
L 258.861011 183.691126 
L 258.960309 187.200933 
L 259.059606 184.401746 
L 259.556146 200.829131 
L 259.655444 200.329391 
L 259.754742 198.145588 
L 259.953388 208.163287 
L 260.052686 210.656533 
L 260.151984 207.737036 
L 260.648574 229.678017 
L 260.747872 224.772129 
L 260.84717 232.772488 
L 260.946519 227.610104 
L 261.045816 233.353124 
L 261.145114 226.510343 
L 261.244463 233.400354 
L 261.343761 232.834496 
L 261.542407 238.201424 
L 261.741054 233.119959 
L 261.939649 240.159714 
L 262.634938 253.186428 
L 262.734235 250.134904 
L 262.932882 253.114593 
L 263.032231 251.201987 
L 263.230877 257.26331 
L 263.330175 250.500758 
L 263.429524 256.520063 
L 263.628171 254.825901 
L 263.826817 260.183543 
L 263.926166 257.525854 
L 264.025464 263.294082 
L 264.124813 261.992685 
L 264.323459 266.699601 
L 264.422808 269.334049 
L 264.621455 268.013902 
L 264.720803 262.996699 
L 264.820152 269.268747 
L 264.91945 268.674467 
L 265.118148 269.462315 
L 265.217497 270.239097 
L 265.316794 267.669571 
L 265.416143 271.293544 
L 265.515492 268.09844 
L 265.61479 273.608281 
L 265.813487 272.211029 
L 265.912836 272.584772 
L 266.012185 278.076761 
L 266.210832 275.389953 
L 266.608176 279.99877 
L 266.707525 275.868098 
L 266.906223 279.134563 
L 267.005571 280.462561 
L 267.10492 279.029035 
L 267.204218 275.220352 
L 267.303567 276.106382 
L 267.601613 281.074093 
L 267.700962 279.406076 
L 267.999009 286.621882 
L 268.098358 283.124997 
L 268.197707 287.828951 
L 268.297004 287.083101 
L 268.495702 282.140015 
L 268.6944 284.996959 
L 268.793749 286.963655 
L 268.893097 282.040962 
L 269.091795 284.908869 
L 269.191144 289.374198 
L 269.290493 277.427939 
L 269.389842 289.244132 
L 269.588539 283.085496 
L 269.687888 290.267853 
L 269.787237 286.561205 
L 269.886637 287.296198 
L 269.985986 291.75193 
L 270.085335 288.702328 
L 270.184684 291.406612 
L 270.284033 289.437851 
L 270.383382 290.939797 
L 270.48273 286.022026 
L 270.582079 290.681141 
L 270.681428 283.867032 
L 270.780777 289.400939 
L 270.880126 288.680748 
L 270.979475 282.492055 
L 271.078875 287.486675 
L 271.178224 285.797436 
L 271.277572 286.507793 
L 271.376921 290.813149 
L 271.47627 284.37545 
L 271.575619 289.194127 
L 271.674968 288.890593 
L 271.774368 292.147634 
L 271.873717 290.472597 
L 271.973066 292.724174 
L 272.072415 287.596726 
L 272.171763 293.563739 
L 272.271163 288.4913 
L 272.370512 288.927601 
L 272.469861 293.396372 
L 272.668559 288.38469 
L 272.767959 290.468064 
L 272.867308 289.797973 
L 272.966657 285.932304 
L 273.066005 291.647181 
L 273.165354 283.835764 
L 273.364103 294.242044 
L 273.463452 291.302752 
L 273.562801 294.617491 
L 273.76155 293.098673 
L 273.860899 290.086268 
L 273.960247 293.870228 
L 274.059648 292.527734 
L 274.158996 294.296166 
L 274.258345 289.601871 
L 274.357745 290.52298 
L 274.457094 288.426656 
L 274.755192 293.096006 
L 274.854541 284.549434 
L 274.95389 293.030149 
L 275.05329 292.050445 
L 275.152638 292.87011 
L 275.251987 296.038345 
L 275.351387 294.158753 
L 275.450736 294.921982 
L 275.550085 294.481037 
L 275.649485 290.851939 
L 275.748834 292.055943 
L 275.848183 288.969046 
L 275.947583 293.074809 
L 276.046932 290.871699 
L 276.146281 291.052239 
L 276.345029 293.868482 
L 276.444429 293.158486 
L 276.643127 289.826215 
L 276.841876 293.280879 
L 276.941225 293.277823 
L 277.040625 293.989479 
L 277.139974 297.68071 
L 277.338723 292.515735 
L 277.438072 290.600345 
L 277.537472 294.92105 
L 277.63682 292.513984 
L 277.73622 292.556414 
L 277.835569 292.020785 
L 277.934918 297.062438 
L 278.133667 290.100663 
L 278.233067 290.048392 
L 278.332416 292.370414 
L 278.531165 287.230376 
L 278.630514 282.144723 
L 278.729914 294.650645 
L 278.829263 293.664954 
L 278.928663 296.66337 
L 279.028011 293.975915 
L 279.127411 295.544322 
L 279.32616 294.915602 
L 279.624258 291.533937 
L 279.723607 293.245491 
L 279.922356 292.016956 
L 280.021756 294.90969 
L 280.220505 291.36181 
L 280.518602 295.132131 
L 280.618002 293.30348 
L 280.717351 293.52875 
L 280.816751 296.87249 
L 281.0155 292.147907 
L 281.114849 293.429875 
L 281.214249 296.415275 
L 281.313598 295.588226 
L 281.412998 295.818455 
L 281.512347 296.371361 
L 281.611747 293.14609 
L 281.711096 297.384778 
L 281.810496 289.320932 
L 281.909845 293.789234 
L 282.009193 291.943965 
L 282.108593 295.172588 
L 282.207942 294.803215 
L 282.406742 296.372831 
L 282.605491 291.468732 
L 282.70484 297.070281 
L 282.80424 293.691006 
L 283.002989 296.00438 
L 283.102338 293.784542 
L 283.201738 294.246955 
L 283.301087 296.142775 
L 283.400487 290.828827 
L 283.499836 294.386802 
L 283.599236 288.892585 
L 283.698585 294.342097 
L 283.797985 291.754661 
L 283.897333 292.490703 
L 283.996733 295.403439 
L 284.195482 293.556213 
L 284.394231 295.172487 
L 284.49358 297.391879 
L 284.59298 293.96857 
L 284.692329 294.060287 
L 284.791729 292.253643 
L 284.990478 292.90147 
L 285.089827 295.21796 
L 285.189227 291.970871 
L 285.387976 295.634302 
L 285.586724 291.152486 
L 285.785473 294.529312 
L 285.884822 291.21723 
L 286.083571 297.01011 
L 286.182971 283.5392 
L 286.28232 299.796438 
L 286.481069 291.019557 
L 286.580469 295.268101 
L 286.679818 292.895533 
L 286.779218 297.003839 
L 286.878618 289.300859 
L 286.977967 298.366473 
L 287.077367 293.26291 
L 287.176716 295.679896 
L 287.276116 293.718082 
L 287.375464 297.640235 
L 287.474864 288.657594 
L 287.673613 296.136329 
L 287.772962 299.470398 
L 287.971711 294.401416 
L 288.071111 296.546901 
L 288.17046 295.36042 
L 288.269809 297.276781 
L 288.468558 293.215175 
L 288.667307 293.215754 
L 288.766707 297.186406 
L 288.866055 291.885285 
L 288.965455 293.437542 
L 289.064804 290.049732 
L 289.164204 296.137674 
L 289.263553 293.938671 
L 289.362953 294.578182 
L 289.561702 298.62473 
L 289.661051 294.20607 
L 289.760451 297.109534 
L 289.9592 293.971184 
L 290.058549 294.432123 
L 290.157898 294.80148 
L 290.257298 290.725316 
L 290.456046 295.773364 
L 290.654795 287.923161 
L 290.754144 294.611685 
L 290.853544 291.453639 
L 290.952893 293.219085 
L 291.052242 289.72545 
L 291.250991 295.960282 
L 291.350391 295.913904 
L 291.44974 292.605626 
L 291.648489 299.925823 
L 291.847237 293.066884 
L 291.946586 295.027278 
L 292.045986 293.951792 
L 292.145335 294.886138 
L 292.244684 294.278585 
L 292.344084 294.698549 
L 292.443433 290.345875 
L 292.542833 295.119424 
L 292.642182 289.734806 
L 292.741531 294.229214 
L 292.840931 288.139659 
L 293.03968 295.305534 
L 293.139028 294.177579 
L 293.337777 299.915328 
L 293.437126 298.647374 
L 293.536475 300.669961 
L 293.735224 290.356202 
L 293.933973 297.520755 
L 294.033322 292.241008 
L 294.132671 296.48468 
L 294.331419 292.79751 
L 294.530168 295.350686 
L 294.629517 290.997265 
L 294.728866 292.081361 
L 295.026964 297.482276 
L 295.126364 293.168399 
L 295.325062 297.296742 
L 295.42441 291.973241 
L 295.52381 296.15833 
L 295.722508 293.631202 
L 295.821857 293.150719 
L 295.921257 294.774496 
L 296.119955 290.319972 
L 296.219304 290.365086 
L 296.318704 294.627179 
L 296.517401 290.770283 
L 296.815499 296.602365 
L 296.914848 294.472832 
L 297.014197 296.458684 
L 297.113546 301.064454 
L 297.312294 297.284142 
L 297.411643 293.25603 
L 297.610341 295.245896 
L 297.709741 289.896458 
L 297.80909 291.647187 
L 297.908439 290.968943 
L 298.007788 291.015106 
L 298.107137 293.005951 
L 298.206485 291.934731 
L 298.305834 297.726467 
L 298.504583 293.197732 
L 298.603932 295.3419 
L 298.703281 293.192319 
L 298.80263 294.069602 
L 298.901979 293.284308 
L 299.100676 297.987119 
L 299.200025 297.44937 
L 299.299374 292.589331 
L 299.398774 292.979501 
L 299.597472 294.846862 
L 299.696821 293.811825 
L 299.79617 289.767874 
L 299.895518 298.793349 
L 300.193565 292.620351 
L 300.491612 299.990435 
L 300.690309 295.187933 
L 300.988356 298.823364 
L 301.187054 293.036221 
L 301.385751 295.234219 
L 301.4851 293.028231 
L 301.584398 294.731466 
L 301.683747 290.252044 
L 301.783096 290.485665 
L 301.882444 300.288637 
L 301.981793 293.252109 
L 302.081142 293.604679 
L 302.180491 294.465634 
L 302.27984 293.698257 
L 302.379189 295.022289 
L 302.478538 301.315373 
L 302.577835 292.968788 
L 302.677184 294.814152 
L 302.776533 293.066245 
L 302.875882 294.502962 
L 302.975231 291.927272 
L 303.07458 295.120377 
L 303.173877 291.155942 
L 303.273226 291.212716 
L 303.372575 296.149703 
L 303.571273 286.789703 
L 303.769919 293.83696 
L 303.968617 297.636577 
L 304.067915 291.274653 
L 304.266612 297.177639 
L 304.365961 292.18904 
L 304.465259 296.819059 
L 304.564608 295.016695 
L 304.663957 301.61688 
L 304.763254 291.554766 
L 304.862603 294.188712 
L 304.961952 294.134229 
L 305.06125 294.133972 
L 305.160599 294.287156 
L 305.359245 293.660375 
L 305.458594 294.542978 
L 305.557892 290.065864 
L 305.75659 297.09442 
L 305.955236 294.800767 
L 306.153883 300.34478 
L 306.352529 296.263988 
L 306.451878 296.474228 
L 306.551176 294.848213 
L 306.650525 298.632451 
L 306.749822 293.531638 
L 306.849171 297.21497 
L 306.948469 291.840871 
L 307.047818 292.364681 
L 307.147116 289.296139 
L 307.345762 296.482247 
L 307.643706 298.132246 
L 307.842353 294.783237 
L 308.140297 299.324353 
L 308.338944 291.405243 
L 308.438241 298.960465 
L 308.53759 295.957661 
L 308.636888 297.892222 
L 308.835535 287.72124 
L 308.934832 293.910676 
L 309.03413 290.455867 
L 309.232777 297.042717 
L 309.332074 290.320149 
L 309.530721 296.721724 
L 309.729316 296.017747 
L 309.828614 292.792898 
L 310.027261 302.645455 
L 310.126558 292.892917 
L 310.325154 299.492352 
L 310.5238 290.280011 
L 310.623098 297.843947 
L 310.722396 291.432896 
L 311.119586 295.626577 
L 311.318182 295.626577 
L 311.318182 295.626577 
" style="fill:none;stroke:#0000ff;stroke-linecap:square;stroke-width:1.5;"/>
   </g>
   <g id="patch_3">
    <path d="M 45 315 
L 45 43.2 
" style="fill:none;stroke:#000000;stroke-linecap:square;stroke-linejoin:miter;stroke-width:0.8;"/>
   </g>
   <g id="patch_4">
    <path d="M 45 315 
L 324 315 
" style="fill:none;stroke:#000000;stroke-linecap:square;stroke-linejoin:miter;stroke-width:0.8;"/>
   </g>
   <g id="text_19">
    <!-- DLP LightCrafter 4500 corrected -->
    <defs>
     <path d="M 19.671875 64.796875 
L 19.671875 8.109375 
L 31.59375 8.109375 
Q 46.6875 8.109375 53.6875 14.9375 
Q 60.6875 21.78125 60.6875 36.53125 
Q 60.6875 51.171875 53.6875 57.984375 
Q 46.6875 64.796875 31.59375 64.796875 
z
M 9.8125 72.90625 
L 30.078125 72.90625 
Q 51.265625 72.90625 61.171875 64.09375 
Q 71.09375 55.28125 71.09375 36.53125 
Q 71.09375 17.671875 61.125 8.828125 
Q 51.171875 0 30.078125 0 
L 9.8125 0 
z
" id="DejaVuSans-68"/>
     <path d="M 9.8125 72.90625 
L 19.671875 72.90625 
L 19.671875 8.296875 
L 55.171875 8.296875 
L 55.171875 0 
L 9.8125 0 
z
" id="DejaVuSans-76"/>
     <path d="M 19.671875 64.796875 
L 19.671875 37.40625 
L 32.078125 37.40625 
Q 38.96875 37.40625 42.71875 40.96875 
Q 46.484375 44.53125 46.484375 51.125 
Q 46.484375 57.671875 42.71875 61.234375 
Q 38.96875 64.796875 32.078125 64.796875 
z
M 9.8125 72.90625 
L 32.078125 72.90625 
Q 44.34375 72.90625 50.609375 67.359375 
Q 56.890625 61.8125 56.890625 51.125 
Q 56.890625 40.328125 50.609375 34.8125 
Q 44.34375 29.296875 32.078125 29.296875 
L 19.671875 29.296875 
L 19.671875 0 
L 9.8125 0 
z
" id="DejaVuSans-80"/>
     <path d="M 64.40625 67.28125 
L 64.40625 56.890625 
Q 59.421875 61.53125 53.78125 63.8125 
Q 48.140625 66.109375 41.796875 66.109375 
Q 29.296875 66.109375 22.65625 58.46875 
Q 16.015625 50.828125 16.015625 36.375 
Q 16.015625 21.96875 22.65625 14.328125 
Q 29.296875 6.6875 41.796875 6.6875 
Q 48.140625 6.6875 53.78125 8.984375 
Q 59.421875 11.28125 64.40625 15.921875 
L 64.40625 5.609375 
Q 59.234375 2.09375 53.4375 0.328125 
Q 47.65625 -1.421875 41.21875 -1.421875 
Q 24.65625 -1.421875 15.125 8.703125 
Q 5.609375 18.84375 5.609375 36.375 
Q 5.609375 53.953125 15.125 64.078125 
Q 24.65625 74.21875 41.21875 74.21875 
Q 47.75 74.21875 53.53125 72.484375 
Q 59.328125 70.75 64.40625 67.28125 
z
" id="DejaVuSans-67"/>
     <path d="M 41.109375 46.296875 
Q 39.59375 47.171875 37.8125 47.578125 
Q 36.03125 48 33.890625 48 
Q 26.265625 48 22.1875 43.046875 
Q 18.109375 38.09375 18.109375 28.8125 
L 18.109375 0 
L 9.078125 0 
L 9.078125 54.6875 
L 18.109375 54.6875 
L 18.109375 46.1875 
Q 20.953125 51.171875 25.484375 53.578125 
Q 30.03125 56 36.53125 56 
Q 37.453125 56 38.578125 55.875 
Q 39.703125 55.765625 41.0625 55.515625 
z
" id="DejaVuSans-114"/>
     <path d="M 37.109375 75.984375 
L 37.109375 68.5 
L 28.515625 68.5 
Q 23.6875 68.5 21.796875 66.546875 
Q 19.921875 64.59375 19.921875 59.515625 
L 19.921875 54.6875 
L 34.71875 54.6875 
L 34.71875 47.703125 
L 19.921875 47.703125 
L 19.921875 0 
L 10.890625 0 
L 10.890625 47.703125 
L 2.296875 47.703125 
L 2.296875 54.6875 
L 10.890625 54.6875 
L 10.890625 58.5 
Q 10.890625 67.625 15.140625 71.796875 
Q 19.390625 75.984375 28.609375 75.984375 
z
" id="DejaVuSans-102"/>
     <path d="M 48.78125 52.59375 
L 48.78125 44.1875 
Q 44.96875 46.296875 41.140625 47.34375 
Q 37.3125 48.390625 33.40625 48.390625 
Q 24.65625 48.390625 19.8125 42.84375 
Q 14.984375 37.3125 14.984375 27.296875 
Q 14.984375 17.28125 19.8125 11.734375 
Q 24.65625 6.203125 33.40625 6.203125 
Q 37.3125 6.203125 41.140625 7.25 
Q 44.96875 8.296875 48.78125 10.40625 
L 48.78125 2.09375 
Q 45.015625 0.34375 40.984375 -0.53125 
Q 36.96875 -1.421875 32.421875 -1.421875 
Q 20.0625 -1.421875 12.78125 6.34375 
Q 5.515625 14.109375 5.515625 27.296875 
Q 5.515625 40.671875 12.859375 48.328125 
Q 20.21875 56 33.015625 56 
Q 37.15625 56 41.109375 55.140625 
Q 45.0625 54.296875 48.78125 52.59375 
z
" id="DejaVuSans-99"/>
     <path d="M 30.609375 48.390625 
Q 23.390625 48.390625 19.1875 42.75 
Q 14.984375 37.109375 14.984375 27.296875 
Q 14.984375 17.484375 19.15625 11.84375 
Q 23.34375 6.203125 30.609375 6.203125 
Q 37.796875 6.203125 41.984375 11.859375 
Q 46.1875 17.53125 46.1875 27.296875 
Q 46.1875 37.015625 41.984375 42.703125 
Q 37.796875 48.390625 30.609375 48.390625 
z
M 30.609375 56 
Q 42.328125 56 49.015625 48.375 
Q 55.71875 40.765625 55.71875 27.296875 
Q 55.71875 13.875 49.015625 6.21875 
Q 42.328125 -1.421875 30.609375 -1.421875 
Q 18.84375 -1.421875 12.171875 6.21875 
Q 5.515625 13.875 5.515625 27.296875 
Q 5.515625 40.765625 12.171875 48.375 
Q 18.84375 56 30.609375 56 
z
" id="DejaVuSans-111"/>
     <path d="M 45.40625 46.390625 
L 45.40625 75.984375 
L 54.390625 75.984375 
L 54.390625 0 
L 45.40625 0 
L 45.40625 8.203125 
Q 42.578125 3.328125 38.25 0.953125 
Q 33.9375 -1.421875 27.875 -1.421875 
Q 17.96875 -1.421875 11.734375 6.484375 
Q 5.515625 14.40625 5.515625 27.296875 
Q 5.515625 40.1875 11.734375 48.09375 
Q 17.96875 56 27.875 56 
Q 33.9375 56 38.25 53.625 
Q 42.578125 51.265625 45.40625 46.390625 
z
M 14.796875 27.296875 
Q 14.796875 17.390625 18.875 11.75 
Q 22.953125 6.109375 30.078125 6.109375 
Q 37.203125 6.109375 41.296875 11.75 
Q 45.40625 17.390625 45.40625 27.296875 
Q 45.40625 37.203125 41.296875 42.84375 
Q 37.203125 48.484375 30.078125 48.484375 
Q 22.953125 48.484375 18.875 42.84375 
Q 14.796875 37.203125 14.796875 27.296875 
z
" id="DejaVuSans-100"/>
    </defs>
    <g transform="translate(87.255 37.2)scale(0.12 -0.12)">
     <use xlink:href="#DejaVuSans-68"/>
     <use x="77.001953" xlink:href="#DejaVuSans-76"/>
     <use x="132.714844" xlink:href="#DejaVuSans-80"/>
     <use x="193.017578" xlink:href="#DejaVuSans-32"/>
     <use x="224.804688" xlink:href="#DejaVuSans-76"/>
     <use x="280.517578" xlink:href="#DejaVuSans-105"/>
     <use x="308.300781" xlink:href="#DejaVuSans-103"/>
     <use x="371.777344" xlink:href="#DejaVuSans-104"/>
     <use x="435.15625" xlink:href="#DejaVuSans-116"/>
     <use x="474.365234" xlink:href="#DejaVuSans-67"/>
     <use x="544.189453" xlink:href="#DejaVuSans-114"/>
     <use x="585.302734" xlink:href="#DejaVuSans-97"/>
     <use x="646.582031" xlink:href="#DejaVuSans-102"/>
     <use x="681.771484" xlink:href="#DejaVuSans-116"/>
     <use x="720.980469" xlink:href="#DejaVuSans-101"/>
     <use x="782.503906" xlink:href="#DejaVuSans-114"/>
     <use x="823.617188" xlink:href="#DejaVuSans-32"/>
     <use x="855.404297" xlink:href="#DejaVuSans-52"/>
     <use x="919.027344" xlink:href="#DejaVuSans-53"/>
     <use x="982.650391" xlink:href="#DejaVuSans-48"/>
     <use x="1046.273438" xlink:href="#DejaVuSans-48"/>
     <use x="1109.896484" xlink:href="#DejaVuSans-32"/>
     <use x="1141.683594" xlink:href="#DejaVuSans-99"/>
     <use x="1196.664062" xlink:href="#DejaVuSans-111"/>
     <use x="1257.845703" xlink:href="#DejaVuSans-114"/>
     <use x="1298.943359" xlink:href="#DejaVuSans-114"/>
     <use x="1340.025391" xlink:href="#DejaVuSans-101"/>
     <use x="1401.548828" xlink:href="#DejaVuSans-99"/>
     <use x="1456.529297" xlink:href="#DejaVuSans-116"/>
     <use x="1495.738281" xlink:href="#DejaVuSans-101"/>
     <use x="1557.261719" xlink:href="#DejaVuSans-100"/>
    </g>
   </g>
  </g>
 </g>
 <defs>
  <clipPath id="pe985c98202">
   <rect height="271.8" width="279" x="45" y="43.2"/>
  </clipPath>
 </defs>
</svg>
