<?xml version="1.0" encoding="utf-8" standalone="no"?>
<!DOCTYPE svg PUBLIC "-//W3C//DTD SVG 1.1//EN"
  "http://www.w3.org/Graphics/SVG/1.1/DTD/svg11.dtd">
<!-- Created with matplotlib (https://matplotlib.org/) -->
<svg height="360pt" version="1.1" viewBox="0 0 360 360" width="360pt" xmlns="http://www.w3.org/2000/svg" xmlns:xlink="http://www.w3.org/1999/xlink">
 <defs>
  <style type="text/css">
*{stroke-linecap:butt;stroke-linejoin:round;}
  </style>
 </defs>
 <g id="figure_1">
  <g id="patch_1">
   <path d="M 0 360 
L 360 360 
L 360 0 
L 0 0 
z
" style="fill:#ffffff;"/>
  </g>
  <g id="axes_1">
   <g id="patch_2">
    <path d="M 45 315 
L 324 315 
L 324 43.2 
L 45 43.2 
z
" style="fill:#ffffff;"/>
   </g>
   <g id="matplotlib.axis_1">
    <g id="xtick_1">
     <g id="line2d_1">
      <defs>
       <path d="M 0 0 
L 0 3.5 
" id="m42505ed7cd" style="stroke:#000000;stroke-width:0.8;"/>
      </defs>
      <g>
       <use style="stroke:#000000;stroke-width:0.8;" x="59.27406" xlink:href="#m42505ed7cd" y="315"/>
      </g>
     </g>
     <g id="text_1">
      <!-- 400 -->
      <defs>
       <path d="M 37.796875 64.3125 
L 12.890625 25.390625 
L 37.796875 25.390625 
z
M 35.203125 72.90625 
L 47.609375 72.90625 
L 47.609375 25.390625 
L 58.015625 25.390625 
L 58.015625 17.1875 
L 47.609375 17.1875 
L 47.609375 0 
L 37.796875 0 
L 37.796875 17.1875 
L 4.890625 17.1875 
L 4.890625 26.703125 
z
" id="DejaVuSans-52"/>
       <path d="M 31.78125 66.40625 
Q 24.171875 66.40625 20.328125 58.90625 
Q 16.5 51.421875 16.5 36.375 
Q 16.5 21.390625 20.328125 13.890625 
Q 24.171875 6.390625 31.78125 6.390625 
Q 39.453125 6.390625 43.28125 13.890625 
Q 47.125 21.390625 47.125 36.375 
Q 47.125 51.421875 43.28125 58.90625 
Q 39.453125 66.40625 31.78125 66.40625 
z
M 31.78125 74.21875 
Q 44.046875 74.21875 50.515625 64.515625 
Q 56.984375 54.828125 56.984375 36.375 
Q 56.984375 17.96875 50.515625 8.265625 
Q 44.046875 -1.421875 31.78125 -1.421875 
Q 19.53125 -1.421875 13.0625 8.265625 
Q 6.59375 17.96875 6.59375 36.375 
Q 6.59375 54.828125 13.0625 64.515625 
Q 19.53125 74.21875 31.78125 74.21875 
z
" id="DejaVuSans-48"/>
      </defs>
      <g transform="translate(49.73031 329.598437)scale(0.1 -0.1)">
       <use xlink:href="#DejaVuSans-52"/>
       <use x="63.623047" xlink:href="#DejaVuSans-48"/>
       <use x="127.246094" xlink:href="#DejaVuSans-48"/>
      </g>
     </g>
    </g>
    <g id="xtick_2">
     <g id="line2d_2">
      <g>
       <use style="stroke:#000000;stroke-width:0.8;" x="101.182704" xlink:href="#m42505ed7cd" y="315"/>
      </g>
     </g>
     <g id="text_2">
      <!-- 450 -->
      <defs>
       <path d="M 10.796875 72.90625 
L 49.515625 72.90625 
L 49.515625 64.59375 
L 19.828125 64.59375 
L 19.828125 46.734375 
Q 21.96875 47.46875 24.109375 47.828125 
Q 26.265625 48.1875 28.421875 48.1875 
Q 40.625 48.1875 47.75 41.5 
Q 54.890625 34.8125 54.890625 23.390625 
Q 54.890625 11.625 47.5625 5.09375 
Q 40.234375 -1.421875 26.90625 -1.421875 
Q 22.3125 -1.421875 17.546875 -0.640625 
Q 12.796875 0.140625 7.71875 1.703125 
L 7.71875 11.625 
Q 12.109375 9.234375 16.796875 8.0625 
Q 21.484375 6.890625 26.703125 6.890625 
Q 35.15625 6.890625 40.078125 11.328125 
Q 45.015625 15.765625 45.015625 23.390625 
Q 45.015625 31 40.078125 35.4375 
Q 35.15625 39.890625 26.703125 39.890625 
Q 22.75 39.890625 18.8125 39.015625 
Q 14.890625 38.140625 10.796875 36.28125 
z
" id="DejaVuSans-53"/>
      </defs>
      <g transform="translate(91.638954 329.598437)scale(0.1 -0.1)">
       <use xlink:href="#DejaVuSans-52"/>
       <use x="63.623047" xlink:href="#DejaVuSans-53"/>
       <use x="127.246094" xlink:href="#DejaVuSans-48"/>
      </g>
     </g>
    </g>
    <g id="xtick_3">
     <g id="line2d_3">
      <g>
       <use style="stroke:#000000;stroke-width:0.8;" x="143.091349" xlink:href="#m42505ed7cd" y="315"/>
      </g>
     </g>
     <g id="text_3">
      <!-- 500 -->
      <g transform="translate(133.547599 329.598437)scale(0.1 -0.1)">
       <use xlink:href="#DejaVuSans-53"/>
       <use x="63.623047" xlink:href="#DejaVuSans-48"/>
       <use x="127.246094" xlink:href="#DejaVuSans-48"/>
      </g>
     </g>
    </g>
    <g id="xtick_4">
     <g id="line2d_4">
      <g>
       <use style="stroke:#000000;stroke-width:0.8;" x="184.999993" xlink:href="#m42505ed7cd" y="315"/>
      </g>
     </g>
     <g id="text_4">
      <!-- 550 -->
      <g transform="translate(175.456243 329.598437)scale(0.1 -0.1)">
       <use xlink:href="#DejaVuSans-53"/>
       <use x="63.623047" xlink:href="#DejaVuSans-53"/>
       <use x="127.246094" xlink:href="#DejaVuSans-48"/>
      </g>
     </g>
    </g>
    <g id="xtick_5">
     <g id="line2d_5">
      <g>
       <use style="stroke:#000000;stroke-width:0.8;" x="226.908637" xlink:href="#m42505ed7cd" y="315"/>
      </g>
     </g>
     <g id="text_5">
      <!-- 600 -->
      <defs>
       <path d="M 33.015625 40.375 
Q 26.375 40.375 22.484375 35.828125 
Q 18.609375 31.296875 18.609375 23.390625 
Q 18.609375 15.53125 22.484375 10.953125 
Q 26.375 6.390625 33.015625 6.390625 
Q 39.65625 6.390625 43.53125 10.953125 
Q 47.40625 15.53125 47.40625 23.390625 
Q 47.40625 31.296875 43.53125 35.828125 
Q 39.65625 40.375 33.015625 40.375 
z
M 52.59375 71.296875 
L 52.59375 62.3125 
Q 48.875 64.0625 45.09375 64.984375 
Q 41.3125 65.921875 37.59375 65.921875 
Q 27.828125 65.921875 22.671875 59.328125 
Q 17.53125 52.734375 16.796875 39.40625 
Q 19.671875 43.65625 24.015625 45.921875 
Q 28.375 48.1875 33.59375 48.1875 
Q 44.578125 48.1875 50.953125 41.515625 
Q 57.328125 34.859375 57.328125 23.390625 
Q 57.328125 12.15625 50.6875 5.359375 
Q 44.046875 -1.421875 33.015625 -1.421875 
Q 20.359375 -1.421875 13.671875 8.265625 
Q 6.984375 17.96875 6.984375 36.375 
Q 6.984375 53.65625 15.1875 63.9375 
Q 23.390625 74.21875 37.203125 74.21875 
Q 40.921875 74.21875 44.703125 73.484375 
Q 48.484375 72.75 52.59375 71.296875 
z
" id="DejaVuSans-54"/>
      </defs>
      <g transform="translate(217.364887 329.598437)scale(0.1 -0.1)">
       <use xlink:href="#DejaVuSans-54"/>
       <use x="63.623047" xlink:href="#DejaVuSans-48"/>
       <use x="127.246094" xlink:href="#DejaVuSans-48"/>
      </g>
     </g>
    </g>
    <g id="xtick_6">
     <g id="line2d_6">
      <g>
       <use style="stroke:#000000;stroke-width:0.8;" x="268.817281" xlink:href="#m42505ed7cd" y="315"/>
      </g>
     </g>
     <g id="text_6">
      <!-- 650 -->
      <g transform="translate(259.273531 329.598437)scale(0.1 -0.1)">
       <use xlink:href="#DejaVuSans-54"/>
       <use x="63.623047" xlink:href="#DejaVuSans-53"/>
       <use x="127.246094" xlink:href="#DejaVuSans-48"/>
      </g>
     </g>
    </g>
    <g id="xtick_7">
     <g id="line2d_7">
      <g>
       <use style="stroke:#000000;stroke-width:0.8;" x="310.725926" xlink:href="#m42505ed7cd" y="315"/>
      </g>
     </g>
     <g id="text_7">
      <!-- 700 -->
      <defs>
       <path d="M 8.203125 72.90625 
L 55.078125 72.90625 
L 55.078125 68.703125 
L 28.609375 0 
L 18.3125 0 
L 43.21875 64.59375 
L 8.203125 64.59375 
z
" id="DejaVuSans-55"/>
      </defs>
      <g transform="translate(301.182176 329.598437)scale(0.1 -0.1)">
       <use xlink:href="#DejaVuSans-55"/>
       <use x="63.623047" xlink:href="#DejaVuSans-48"/>
       <use x="127.246094" xlink:href="#DejaVuSans-48"/>
      </g>
     </g>
    </g>
    <g id="text_8">
     <!-- Wavelenght -->
     <defs>
      <path d="M 3.328125 72.90625 
L 13.28125 72.90625 
L 28.609375 11.28125 
L 43.890625 72.90625 
L 54.984375 72.90625 
L 70.3125 11.28125 
L 85.59375 72.90625 
L 95.609375 72.90625 
L 77.296875 0 
L 64.890625 0 
L 49.515625 63.28125 
L 33.984375 0 
L 21.578125 0 
z
" id="DejaVuSans-87"/>
      <path d="M 34.28125 27.484375 
Q 23.390625 27.484375 19.1875 25 
Q 14.984375 22.515625 14.984375 16.5 
Q 14.984375 11.71875 18.140625 8.90625 
Q 21.296875 6.109375 26.703125 6.109375 
Q 34.1875 6.109375 38.703125 11.40625 
Q 43.21875 16.703125 43.21875 25.484375 
L 43.21875 27.484375 
z
M 52.203125 31.203125 
L 52.203125 0 
L 43.21875 0 
L 43.21875 8.296875 
Q 40.140625 3.328125 35.546875 0.953125 
Q 30.953125 -1.421875 24.3125 -1.421875 
Q 15.921875 -1.421875 10.953125 3.296875 
Q 6 8.015625 6 15.921875 
Q 6 25.140625 12.171875 29.828125 
Q 18.359375 34.515625 30.609375 34.515625 
L 43.21875 34.515625 
L 43.21875 35.40625 
Q 43.21875 41.609375 39.140625 45 
Q 35.0625 48.390625 27.6875 48.390625 
Q 23 48.390625 18.546875 47.265625 
Q 14.109375 46.140625 10.015625 43.890625 
L 10.015625 52.203125 
Q 14.9375 54.109375 19.578125 55.046875 
Q 24.21875 56 28.609375 56 
Q 40.484375 56 46.34375 49.84375 
Q 52.203125 43.703125 52.203125 31.203125 
z
" id="DejaVuSans-97"/>
      <path d="M 2.984375 54.6875 
L 12.5 54.6875 
L 29.59375 8.796875 
L 46.6875 54.6875 
L 56.203125 54.6875 
L 35.6875 0 
L 23.484375 0 
z
" id="DejaVuSans-118"/>
      <path d="M 56.203125 29.59375 
L 56.203125 25.203125 
L 14.890625 25.203125 
Q 15.484375 15.921875 20.484375 11.0625 
Q 25.484375 6.203125 34.421875 6.203125 
Q 39.59375 6.203125 44.453125 7.46875 
Q 49.3125 8.734375 54.109375 11.28125 
L 54.109375 2.78125 
Q 49.265625 0.734375 44.1875 -0.34375 
Q 39.109375 -1.421875 33.890625 -1.421875 
Q 20.796875 -1.421875 13.15625 6.1875 
Q 5.515625 13.8125 5.515625 26.8125 
Q 5.515625 40.234375 12.765625 48.109375 
Q 20.015625 56 32.328125 56 
Q 43.359375 56 49.78125 48.890625 
Q 56.203125 41.796875 56.203125 29.59375 
z
M 47.21875 32.234375 
Q 47.125 39.59375 43.09375 43.984375 
Q 39.0625 48.390625 32.421875 48.390625 
Q 24.90625 48.390625 20.390625 44.140625 
Q 15.875 39.890625 15.1875 32.171875 
z
" id="DejaVuSans-101"/>
      <path d="M 9.421875 75.984375 
L 18.40625 75.984375 
L 18.40625 0 
L 9.421875 0 
z
" id="DejaVuSans-108"/>
      <path d="M 54.890625 33.015625 
L 54.890625 0 
L 45.90625 0 
L 45.90625 32.71875 
Q 45.90625 40.484375 42.875 44.328125 
Q 39.84375 48.1875 33.796875 48.1875 
Q 26.515625 48.1875 22.3125 43.546875 
Q 18.109375 38.921875 18.109375 30.90625 
L 18.109375 0 
L 9.078125 0 
L 9.078125 54.6875 
L 18.109375 54.6875 
L 18.109375 46.1875 
Q 21.34375 51.125 25.703125 53.5625 
Q 30.078125 56 35.796875 56 
Q 45.21875 56 50.046875 50.171875 
Q 54.890625 44.34375 54.890625 33.015625 
z
" id="DejaVuSans-110"/>
      <path d="M 45.40625 27.984375 
Q 45.40625 37.75 41.375 43.109375 
Q 37.359375 48.484375 30.078125 48.484375 
Q 22.859375 48.484375 18.828125 43.109375 
Q 14.796875 37.75 14.796875 27.984375 
Q 14.796875 18.265625 18.828125 12.890625 
Q 22.859375 7.515625 30.078125 7.515625 
Q 37.359375 7.515625 41.375 12.890625 
Q 45.40625 18.265625 45.40625 27.984375 
z
M 54.390625 6.78125 
Q 54.390625 -7.171875 48.1875 -13.984375 
Q 42 -20.796875 29.203125 -20.796875 
Q 24.46875 -20.796875 20.265625 -20.09375 
Q 16.0625 -19.390625 12.109375 -17.921875 
L 12.109375 -9.1875 
Q 16.0625 -11.328125 19.921875 -12.34375 
Q 23.78125 -13.375 27.78125 -13.375 
Q 36.625 -13.375 41.015625 -8.765625 
Q 45.40625 -4.15625 45.40625 5.171875 
L 45.40625 9.625 
Q 42.625 4.78125 38.28125 2.390625 
Q 33.9375 0 27.875 0 
Q 17.828125 0 11.671875 7.65625 
Q 5.515625 15.328125 5.515625 27.984375 
Q 5.515625 40.671875 11.671875 48.328125 
Q 17.828125 56 27.875 56 
Q 33.9375 56 38.28125 53.609375 
Q 42.625 51.21875 45.40625 46.390625 
L 45.40625 54.6875 
L 54.390625 54.6875 
z
" id="DejaVuSans-103"/>
      <path d="M 54.890625 33.015625 
L 54.890625 0 
L 45.90625 0 
L 45.90625 32.71875 
Q 45.90625 40.484375 42.875 44.328125 
Q 39.84375 48.1875 33.796875 48.1875 
Q 26.515625 48.1875 22.3125 43.546875 
Q 18.109375 38.921875 18.109375 30.90625 
L 18.109375 0 
L 9.078125 0 
L 9.078125 75.984375 
L 18.109375 75.984375 
L 18.109375 46.1875 
Q 21.34375 51.125 25.703125 53.5625 
Q 30.078125 56 35.796875 56 
Q 45.21875 56 50.046875 50.171875 
Q 54.890625 44.34375 54.890625 33.015625 
z
" id="DejaVuSans-104"/>
      <path d="M 18.3125 70.21875 
L 18.3125 54.6875 
L 36.8125 54.6875 
L 36.8125 47.703125 
L 18.3125 47.703125 
L 18.3125 18.015625 
Q 18.3125 11.328125 20.140625 9.421875 
Q 21.96875 7.515625 27.59375 7.515625 
L 36.8125 7.515625 
L 36.8125 0 
L 27.59375 0 
Q 17.1875 0 13.234375 3.875 
Q 9.28125 7.765625 9.28125 18.015625 
L 9.28125 47.703125 
L 2.6875 47.703125 
L 2.6875 54.6875 
L 9.28125 54.6875 
L 9.28125 70.21875 
z
" id="DejaVuSans-116"/>
     </defs>
     <g transform="translate(154.523438 343.276563)scale(0.1 -0.1)">
      <use xlink:href="#DejaVuSans-87"/>
      <use x="98.783203" xlink:href="#DejaVuSans-97"/>
      <use x="160.0625" xlink:href="#DejaVuSans-118"/>
      <use x="219.242188" xlink:href="#DejaVuSans-101"/>
      <use x="280.765625" xlink:href="#DejaVuSans-108"/>
      <use x="308.548828" xlink:href="#DejaVuSans-101"/>
      <use x="370.072266" xlink:href="#DejaVuSans-110"/>
      <use x="433.451172" xlink:href="#DejaVuSans-103"/>
      <use x="496.927734" xlink:href="#DejaVuSans-104"/>
      <use x="560.306641" xlink:href="#DejaVuSans-116"/>
     </g>
    </g>
   </g>
   <g id="matplotlib.axis_2">
    <g id="ytick_1">
     <g id="line2d_8">
      <defs>
       <path d="M 0 0 
L -3.5 0 
" id="m4d48788c39" style="stroke:#000000;stroke-width:0.8;"/>
      </defs>
      <g>
       <use style="stroke:#000000;stroke-width:0.8;" x="45" xlink:href="#m4d48788c39" y="301.254889"/>
      </g>
     </g>
     <g id="text_9">
      <!-- 0.0 -->
      <defs>
       <path d="M 10.6875 12.40625 
L 21 12.40625 
L 21 0 
L 10.6875 0 
z
" id="DejaVuSans-46"/>
      </defs>
      <g transform="translate(22.096875 305.054108)scale(0.1 -0.1)">
       <use xlink:href="#DejaVuSans-48"/>
       <use x="63.623047" xlink:href="#DejaVuSans-46"/>
       <use x="95.410156" xlink:href="#DejaVuSans-48"/>
      </g>
     </g>
    </g>
    <g id="ytick_2">
     <g id="line2d_9">
      <g>
       <use style="stroke:#000000;stroke-width:0.8;" x="45" xlink:href="#m4d48788c39" y="252.871099"/>
      </g>
     </g>
     <g id="text_10">
      <!-- 0.2 -->
      <defs>
       <path d="M 19.1875 8.296875 
L 53.609375 8.296875 
L 53.609375 0 
L 7.328125 0 
L 7.328125 8.296875 
Q 12.9375 14.109375 22.625 23.890625 
Q 32.328125 33.6875 34.8125 36.53125 
Q 39.546875 41.84375 41.421875 45.53125 
Q 43.3125 49.21875 43.3125 52.78125 
Q 43.3125 58.59375 39.234375 62.25 
Q 35.15625 65.921875 28.609375 65.921875 
Q 23.96875 65.921875 18.8125 64.3125 
Q 13.671875 62.703125 7.8125 59.421875 
L 7.8125 69.390625 
Q 13.765625 71.78125 18.9375 73 
Q 24.125 74.21875 28.421875 74.21875 
Q 39.75 74.21875 46.484375 68.546875 
Q 53.21875 62.890625 53.21875 53.421875 
Q 53.21875 48.921875 51.53125 44.890625 
Q 49.859375 40.875 45.40625 35.40625 
Q 44.1875 33.984375 37.640625 27.21875 
Q 31.109375 20.453125 19.1875 8.296875 
z
" id="DejaVuSans-50"/>
      </defs>
      <g transform="translate(22.096875 256.670318)scale(0.1 -0.1)">
       <use xlink:href="#DejaVuSans-48"/>
       <use x="63.623047" xlink:href="#DejaVuSans-46"/>
       <use x="95.410156" xlink:href="#DejaVuSans-50"/>
      </g>
     </g>
    </g>
    <g id="ytick_3">
     <g id="line2d_10">
      <g>
       <use style="stroke:#000000;stroke-width:0.8;" x="45" xlink:href="#m4d48788c39" y="204.48731"/>
      </g>
     </g>
     <g id="text_11">
      <!-- 0.4 -->
      <g transform="translate(22.096875 208.286529)scale(0.1 -0.1)">
       <use xlink:href="#DejaVuSans-48"/>
       <use x="63.623047" xlink:href="#DejaVuSans-46"/>
       <use x="95.410156" xlink:href="#DejaVuSans-52"/>
      </g>
     </g>
    </g>
    <g id="ytick_4">
     <g id="line2d_11">
      <g>
       <use style="stroke:#000000;stroke-width:0.8;" x="45" xlink:href="#m4d48788c39" y="156.103521"/>
      </g>
     </g>
     <g id="text_12">
      <!-- 0.6 -->
      <g transform="translate(22.096875 159.902739)scale(0.1 -0.1)">
       <use xlink:href="#DejaVuSans-48"/>
       <use x="63.623047" xlink:href="#DejaVuSans-46"/>
       <use x="95.410156" xlink:href="#DejaVuSans-54"/>
      </g>
     </g>
    </g>
    <g id="ytick_5">
     <g id="line2d_12">
      <g>
       <use style="stroke:#000000;stroke-width:0.8;" x="45" xlink:href="#m4d48788c39" y="107.719731"/>
      </g>
     </g>
     <g id="text_13">
      <!-- 0.8 -->
      <defs>
       <path d="M 31.78125 34.625 
Q 24.75 34.625 20.71875 30.859375 
Q 16.703125 27.09375 16.703125 20.515625 
Q 16.703125 13.921875 20.71875 10.15625 
Q 24.75 6.390625 31.78125 6.390625 
Q 38.8125 6.390625 42.859375 10.171875 
Q 46.921875 13.96875 46.921875 20.515625 
Q 46.921875 27.09375 42.890625 30.859375 
Q 38.875 34.625 31.78125 34.625 
z
M 21.921875 38.8125 
Q 15.578125 40.375 12.03125 44.71875 
Q 8.5 49.078125 8.5 55.328125 
Q 8.5 64.0625 14.71875 69.140625 
Q 20.953125 74.21875 31.78125 74.21875 
Q 42.671875 74.21875 48.875 69.140625 
Q 55.078125 64.0625 55.078125 55.328125 
Q 55.078125 49.078125 51.53125 44.71875 
Q 48 40.375 41.703125 38.8125 
Q 48.828125 37.15625 52.796875 32.3125 
Q 56.78125 27.484375 56.78125 20.515625 
Q 56.78125 9.90625 50.3125 4.234375 
Q 43.84375 -1.421875 31.78125 -1.421875 
Q 19.734375 -1.421875 13.25 4.234375 
Q 6.78125 9.90625 6.78125 20.515625 
Q 6.78125 27.484375 10.78125 32.3125 
Q 14.796875 37.15625 21.921875 38.8125 
z
M 18.3125 54.390625 
Q 18.3125 48.734375 21.84375 45.5625 
Q 25.390625 42.390625 31.78125 42.390625 
Q 38.140625 42.390625 41.71875 45.5625 
Q 45.3125 48.734375 45.3125 54.390625 
Q 45.3125 60.0625 41.71875 63.234375 
Q 38.140625 66.40625 31.78125 66.40625 
Q 25.390625 66.40625 21.84375 63.234375 
Q 18.3125 60.0625 18.3125 54.390625 
z
" id="DejaVuSans-56"/>
      </defs>
      <g transform="translate(22.096875 111.51895)scale(0.1 -0.1)">
       <use xlink:href="#DejaVuSans-48"/>
       <use x="63.623047" xlink:href="#DejaVuSans-46"/>
       <use x="95.410156" xlink:href="#DejaVuSans-56"/>
      </g>
     </g>
    </g>
    <g id="ytick_6">
     <g id="line2d_13">
      <g>
       <use style="stroke:#000000;stroke-width:0.8;" x="45" xlink:href="#m4d48788c39" y="59.335942"/>
      </g>
     </g>
     <g id="text_14">
      <!-- 1.0 -->
      <defs>
       <path d="M 12.40625 8.296875 
L 28.515625 8.296875 
L 28.515625 63.921875 
L 10.984375 60.40625 
L 10.984375 69.390625 
L 28.421875 72.90625 
L 38.28125 72.90625 
L 38.28125 8.296875 
L 54.390625 8.296875 
L 54.390625 0 
L 12.40625 0 
z
" id="DejaVuSans-49"/>
      </defs>
      <g transform="translate(22.096875 63.135161)scale(0.1 -0.1)">
       <use xlink:href="#DejaVuSans-49"/>
       <use x="63.623047" xlink:href="#DejaVuSans-46"/>
       <use x="95.410156" xlink:href="#DejaVuSans-48"/>
      </g>
     </g>
    </g>
    <g id="text_15">
     <!-- Intensity (a.u.) -->
     <defs>
      <path d="M 9.8125 72.90625 
L 19.671875 72.90625 
L 19.671875 0 
L 9.8125 0 
z
" id="DejaVuSans-73"/>
      <path d="M 44.28125 53.078125 
L 44.28125 44.578125 
Q 40.484375 46.53125 36.375 47.5 
Q 32.28125 48.484375 27.875 48.484375 
Q 21.1875 48.484375 17.84375 46.4375 
Q 14.5 44.390625 14.5 40.28125 
Q 14.5 37.15625 16.890625 35.375 
Q 19.28125 33.59375 26.515625 31.984375 
L 29.59375 31.296875 
Q 39.15625 29.25 43.1875 25.515625 
Q 47.21875 21.78125 47.21875 15.09375 
Q 47.21875 7.46875 41.1875 3.015625 
Q 35.15625 -1.421875 24.609375 -1.421875 
Q 20.21875 -1.421875 15.453125 -0.5625 
Q 10.6875 0.296875 5.421875 2 
L 5.421875 11.28125 
Q 10.40625 8.6875 15.234375 7.390625 
Q 20.0625 6.109375 24.8125 6.109375 
Q 31.15625 6.109375 34.5625 8.28125 
Q 37.984375 10.453125 37.984375 14.40625 
Q 37.984375 18.0625 35.515625 20.015625 
Q 33.0625 21.96875 24.703125 23.78125 
L 21.578125 24.515625 
Q 13.234375 26.265625 9.515625 29.90625 
Q 5.8125 33.546875 5.8125 39.890625 
Q 5.8125 47.609375 11.28125 51.796875 
Q 16.75 56 26.8125 56 
Q 31.78125 56 36.171875 55.265625 
Q 40.578125 54.546875 44.28125 53.078125 
z
" id="DejaVuSans-115"/>
      <path d="M 9.421875 54.6875 
L 18.40625 54.6875 
L 18.40625 0 
L 9.421875 0 
z
M 9.421875 75.984375 
L 18.40625 75.984375 
L 18.40625 64.59375 
L 9.421875 64.59375 
z
" id="DejaVuSans-105"/>
      <path d="M 32.171875 -5.078125 
Q 28.375 -14.84375 24.75 -17.8125 
Q 21.140625 -20.796875 15.09375 -20.796875 
L 7.90625 -20.796875 
L 7.90625 -13.28125 
L 13.1875 -13.28125 
Q 16.890625 -13.28125 18.9375 -11.515625 
Q 21 -9.765625 23.484375 -3.21875 
L 25.09375 0.875 
L 2.984375 54.6875 
L 12.5 54.6875 
L 29.59375 11.921875 
L 46.6875 54.6875 
L 56.203125 54.6875 
z
" id="DejaVuSans-121"/>
      <path id="DejaVuSans-32"/>
      <path d="M 31 75.875 
Q 24.46875 64.65625 21.28125 53.65625 
Q 18.109375 42.671875 18.109375 31.390625 
Q 18.109375 20.125 21.3125 9.0625 
Q 24.515625 -2 31 -13.1875 
L 23.1875 -13.1875 
Q 15.875 -1.703125 12.234375 9.375 
Q 8.59375 20.453125 8.59375 31.390625 
Q 8.59375 42.28125 12.203125 53.3125 
Q 15.828125 64.359375 23.1875 75.875 
z
" id="DejaVuSans-40"/>
      <path d="M 8.5 21.578125 
L 8.5 54.6875 
L 17.484375 54.6875 
L 17.484375 21.921875 
Q 17.484375 14.15625 20.5 10.265625 
Q 23.53125 6.390625 29.59375 6.390625 
Q 36.859375 6.390625 41.078125 11.03125 
Q 45.3125 15.671875 45.3125 23.6875 
L 45.3125 54.6875 
L 54.296875 54.6875 
L 54.296875 0 
L 45.3125 0 
L 45.3125 8.40625 
Q 42.046875 3.421875 37.71875 1 
Q 33.40625 -1.421875 27.6875 -1.421875 
Q 18.265625 -1.421875 13.375 4.4375 
Q 8.5 10.296875 8.5 21.578125 
z
M 31.109375 56 
z
" id="DejaVuSans-117"/>
      <path d="M 8.015625 75.875 
L 15.828125 75.875 
Q 23.140625 64.359375 26.78125 53.3125 
Q 30.421875 42.28125 30.421875 31.390625 
Q 30.421875 20.453125 26.78125 9.375 
Q 23.140625 -1.703125 15.828125 -13.1875 
L 8.015625 -13.1875 
Q 14.5 -2 17.703125 9.0625 
Q 20.90625 20.125 20.90625 31.390625 
Q 20.90625 42.671875 17.703125 53.65625 
Q 14.5 64.65625 8.015625 75.875 
z
" id="DejaVuSans-41"/>
     </defs>
     <g transform="translate(16.017187 215.764062)rotate(-90)scale(0.1 -0.1)">
      <use xlink:href="#DejaVuSans-73"/>
      <use x="29.492188" xlink:href="#DejaVuSans-110"/>
      <use x="92.871094" xlink:href="#DejaVuSans-116"/>
      <use x="132.080078" xlink:href="#DejaVuSans-101"/>
      <use x="193.603516" xlink:href="#DejaVuSans-110"/>
      <use x="256.982422" xlink:href="#DejaVuSans-115"/>
      <use x="309.082031" xlink:href="#DejaVuSans-105"/>
      <use x="336.865234" xlink:href="#DejaVuSans-116"/>
      <use x="376.074219" xlink:href="#DejaVuSans-121"/>
      <use x="435.253906" xlink:href="#DejaVuSans-32"/>
      <use x="467.041016" xlink:href="#DejaVuSans-40"/>
      <use x="506.054688" xlink:href="#DejaVuSans-97"/>
      <use x="567.333984" xlink:href="#DejaVuSans-46"/>
      <use x="599.121094" xlink:href="#DejaVuSans-117"/>
      <use x="662.5" xlink:href="#DejaVuSans-46"/>
      <use x="694.287109" xlink:href="#DejaVuSans-41"/>
     </g>
    </g>
   </g>
   <g id="line2d_14">
    <path clip-path="url(#p6489914d76)" d="M 57.681818 301.254889 
L 59.18108 301.254889 
L 59.368575 300.815029 
L 59.462322 300.997608 
L 59.556094 300.207536 
L 59.649841 300.900553 
L 59.743614 300.790072 
L 59.931185 300.872388 
L 60.024957 301.355921 
L 60.118756 301.038706 
L 60.306352 301.150124 
L 60.40015 301.237128 
L 60.493949 300.970546 
L 60.681596 301.323247 
L 60.77542 301.791715 
L 60.869244 300.721292 
L 60.963068 301.729178 
L 61.056917 300.466525 
L 61.150741 301.876522 
L 61.24459 301.167493 
L 61.338465 301.424097 
L 61.620039 300.280165 
L 61.713914 301.29959 
L 61.807789 300.966319 
L 61.901664 301.392471 
L 61.995564 300.981432 
L 62.089439 301.322593 
L 62.18334 302.645455 
L 62.371141 300.843298 
L 62.558967 301.414899 
L 62.652893 301.839403 
L 62.74682 301.12171 
L 62.840746 301.229834 
L 62.934672 301.391424 
L 63.12255 300.610157 
L 63.216501 301.130805 
L 63.310453 300.811963 
L 63.404405 300.965285 
L 63.498382 301.812586 
L 63.592359 301.124766 
L 63.780288 301.59053 
L 63.874265 301.365326 
L 63.968268 302.028402 
L 64.062246 301.618202 
L 64.156248 301.648973 
L 64.250251 301.541915 
L 64.344254 301.707698 
L 64.438257 302.201909 
L 64.626314 300.396431 
L 64.814345 301.427908 
L 64.908399 301.48219 
L 65.19051 300.681946 
L 65.284564 302.095589 
L 65.378618 300.467128 
L 65.472698 301.481512 
L 65.566752 300.995343 
L 65.660831 301.510777 
L 65.754911 301.389362 
L 65.84899 302.262518 
L 65.94307 301.245508 
L 66.037175 302.038346 
L 66.22536 300.954253 
L 66.319465 301.17107 
L 66.507675 300.913681 
L 66.601806 300.856025 
L 66.695937 300.453358 
L 66.790068 301.355534 
L 66.884198 301.238504 
L 66.978329 300.47859 
L 67.07246 300.909194 
L 67.166616 301.91861 
L 67.260772 301.131426 
L 67.354929 302.035776 
L 67.449085 301.547869 
L 67.543241 301.986826 
L 67.637423 301.152248 
L 67.731605 302.036824 
L 68.014151 300.974485 
L 68.108358 301.34588 
L 68.20254 301.167739 
L 68.296748 301.246001 
L 68.485163 300.97331 
L 68.579396 301.051895 
L 68.767836 300.584586 
L 68.862069 300.914593 
L 68.956302 301.743103 
L 69.144794 301.460409 
L 69.239027 301.922362 
L 69.333286 301.160876 
L 69.427545 301.7568 
L 69.616087 300.731721 
L 69.710346 301.535029 
L 69.898914 301.112874 
L 69.993199 301.455058 
L 70.087483 300.84437 
L 70.181793 301.43218 
L 70.276077 300.773747 
L 70.370387 300.789362 
L 70.464696 301.32099 
L 70.559006 301.259976 
L 70.653342 301.171588 
L 70.747651 300.681993 
L 70.841987 301.620726 
L 70.936322 301.403161 
L 71.030658 301.928532 
L 71.124993 301.532505 
L 71.219354 301.898953 
L 71.40805 301.259988 
L 71.502411 301.72988 
L 71.596772 300.796244 
L 71.691159 301.621101 
L 71.879906 300.824354 
L 71.974293 300.784139 
L 72.068679 301.205708 
L 72.163066 300.840082 
L 72.257478 301.293714 
L 72.351864 301.192709 
L 72.446277 301.427018 
L 72.540689 301.066324 
L 72.635101 301.66756 
L 72.729513 300.552451 
L 72.823951 301.500469 
L 72.918388 300.857964 
L 73.0128 301.46744 
L 73.107238 300.676458 
L 73.201701 301.193096 
L 73.296139 301.012685 
L 73.390602 301.446315 
L 73.48504 300.483623 
L 73.579503 301.060679 
L 73.673966 300.734348 
L 73.768455 301.406341 
L 73.862919 300.805102 
L 73.957407 301.31338 
L 74.051871 301.159583 
L 74.14636 301.346964 
L 74.240874 301.033484 
L 74.335363 301.478608 
L 74.429852 300.671316 
L 74.524366 301.742109 
L 74.713395 301.319412 
L 74.996964 301.332404 
L 75.186044 300.935361 
L 75.280584 300.935721 
L 75.375124 300.67792 
L 75.46969 300.829597 
L 75.658795 301.199601 
L 75.847926 300.776886 
L 75.942517 301.773883 
L 76.037083 301.400243 
L 76.131674 301.615386 
L 76.226265 301.536367 
L 76.415448 301.205817 
L 76.699272 300.833485 
L 76.793889 301.061157 
L 76.888506 300.707879 
L 77.077739 301.195183 
L 77.172382 300.823848 
L 77.267024 300.875489 
L 77.361666 300.932155 
L 77.550951 301.815574 
L 77.740261 301.316721 
L 77.834929 301.449306 
L 77.929597 301.689097 
L 78.118958 301.430792 
L 78.213626 301.520536 
L 78.497707 301.068493 
L 78.687119 301.195623 
L 78.876532 300.856272 
L 79.160689 300.881712 
L 79.255434 301.438789 
L 79.350153 301.393828 
L 79.444897 301.240559 
L 79.539642 301.367713 
L 79.634387 301.772798 
L 80.013416 301.019241 
L 80.108187 300.963195 
L 80.202957 301.378896 
L 80.297753 301.284773 
L 80.392523 301.398083 
L 80.487319 300.316124 
L 80.582114 301.04992 
L 80.67691 300.978652 
L 80.961323 301.323807 
L 81.056144 300.745321 
L 81.530277 301.879802 
L 81.625098 300.92114 
L 81.719945 301.613406 
L 82.004512 300.684643 
L 82.099384 300.785107 
L 82.289104 300.877483 
L 82.478874 300.449306 
L 82.573747 300.909473 
L 82.668645 300.520547 
L 82.953339 301.823567 
L 83.048238 301.639948 
L 83.143136 301.723774 
L 83.238059 301.576464 
L 83.332983 300.987837 
L 83.427907 301.767463 
L 83.52283 301.090218 
L 83.617754 301.311346 
L 83.712703 301.240498 
L 83.807627 301.559352 
L 83.997526 300.873006 
L 84.187424 301.222104 
L 84.377374 300.581849 
L 84.472323 300.850067 
L 84.567298 301.702258 
L 84.662298 301.289623 
L 84.852248 301.795823 
L 85.042249 300.99846 
L 85.23225 301.583899 
L 85.32725 301.092499 
L 85.422276 301.446124 
L 85.707329 300.735624 
L 85.802355 301.379865 
L 85.897406 300.477074 
L 85.992432 300.940785 
L 86.087484 300.653275 
L 86.46769 301.811462 
L 86.562767 301.076994 
L 86.752896 301.492251 
L 86.847973 301.057082 
L 86.943051 301.253344 
L 87.038153 300.975436 
L 87.13323 301.588402 
L 87.228333 300.654183 
L 87.323436 301.506867 
L 87.418539 300.69562 
L 87.513641 300.912346 
L 87.608744 300.374016 
L 87.894104 301.031748 
L 88.08436 301.512143 
L 88.179514 301.271107 
L 88.46495 301.616742 
L 88.560104 301.011554 
L 88.655258 301.352418 
L 88.750412 300.988493 
L 88.845591 301.898375 
L 89.035925 300.46396 
L 89.226284 301.045691 
L 89.416668 300.435423 
L 89.511873 301.206756 
L 89.607053 300.919697 
L 89.892694 301.64758 
L 90.083129 301.218283 
L 90.368796 302.203332 
L 90.464052 300.913772 
L 90.559283 301.241833 
L 90.654539 300.867053 
L 90.749795 301.488594 
L 90.940282 300.690446 
L 91.035564 300.880598 
L 91.13082 300.951892 
L 91.226102 300.538033 
L 91.607229 301.73953 
L 91.702511 301.829654 
L 91.797792 301.156795 
L 91.8931 301.753172 
L 91.988407 301.213766 
L 92.083715 301.688194 
L 92.179022 301.055874 
L 92.274355 301.581577 
L 92.369662 301.230718 
L 92.464995 301.264905 
L 92.655661 301.206881 
L 92.750994 300.920652 
L 92.846327 301.019308 
L 92.941686 300.802935 
L 93.132377 301.520247 
L 93.227736 300.964995 
L 93.513837 301.568322 
L 93.70458 300.969239 
L 93.799964 301.408787 
L 93.895348 301.259014 
L 93.990732 301.633225 
L 94.086142 300.882565 
L 94.372345 301.631244 
L 94.467755 301.066821 
L 94.563164 301.467865 
L 94.754009 300.41932 
L 95.04029 301.776806 
L 95.135751 302.011877 
L 95.231186 301.172979 
L 95.326621 301.691411 
L 95.422082 301.226897 
L 95.517543 301.710518 
L 95.613004 301.120825 
L 95.708465 301.179589 
L 95.803925 301.195724 
L 95.899412 301.651004 
L 95.994873 301.11312 
L 96.090359 301.17585 
L 96.185845 301.181015 
L 96.376818 300.724949 
L 96.472305 301.217434 
L 96.663329 301.014574 
L 96.758841 301.092024 
L 96.854353 301.629688 
L 96.949865 301.567936 
L 97.045377 301.741741 
L 97.140914 301.364437 
L 97.236426 301.654809 
L 97.331964 300.931761 
L 97.427502 301.779235 
L 97.523039 301.353057 
L 97.618577 301.514063 
L 97.905241 300.771575 
L 98.000804 301.279919 
L 98.096367 300.99515 
L 98.19193 301.11634 
L 98.287493 300.705436 
L 98.383082 301.064213 
L 98.478671 300.672643 
L 98.669848 301.571764 
L 98.765437 301.337013 
L 98.861026 301.666549 
L 98.956615 301.306214 
L 99.052229 301.741136 
L 99.243458 301.355289 
L 99.339072 301.349776 
L 99.434686 300.709732 
L 99.530301 301.32825 
L 99.817195 300.93378 
L 100.0085 301.509313 
L 100.10414 300.752254 
L 100.19978 301.851409 
L 100.295445 301.296364 
L 100.486776 301.493801 
L 100.678107 301.89199 
L 101.156537 300.939522 
L 101.252228 301.296144 
L 101.443636 300.869973 
L 101.635044 301.221275 
L 101.73076 300.647945 
L 101.826477 300.736387 
L 101.922193 301.035746 
L 102.017936 301.003353 
L 102.113652 300.815032 
L 102.209395 301.874905 
L 102.305137 301.329761 
L 102.400879 301.953584 
L 102.592363 301.324965 
L 102.783873 301.396198 
L 102.879641 300.59012 
L 103.071177 301.155582 
L 103.454299 300.929668 
L 103.550093 301.259024 
L 103.645886 300.728997 
L 103.741679 301.766168 
L 103.837473 301.30848 
L 103.933292 301.829192 
L 104.029085 301.29752 
L 104.124904 301.518187 
L 104.220723 300.897776 
L 104.316542 301.730156 
L 104.604024 300.93591 
L 104.699869 301.298566 
L 104.987403 300.596591 
L 105.083247 300.565623 
L 105.179092 301.220331 
L 105.370832 300.988665 
L 105.466676 301.005453 
L 105.562547 300.73017 
L 105.658442 301.660658 
L 105.754312 301.352306 
L 105.850182 301.813226 
L 105.946078 301.624965 
L 106.041974 301.827622 
L 106.13787 301.664792 
L 106.233765 301.720999 
L 106.329661 301.35262 
L 106.425557 301.441272 
L 106.521478 301.376007 
L 106.713295 300.853017 
L 106.809216 301.619455 
L 107.097006 300.929755 
L 107.192927 300.904198 
L 107.384821 301.586191 
L 107.576714 301.142678 
L 107.768634 301.480219 
L 107.86458 301.077082 
L 107.960553 301.549523 
L 108.056525 300.727076 
L 108.24847 301.943053 
L 108.344468 301.231333 
L 108.440441 301.375841 
L 108.632411 300.743774 
L 108.824407 301.204108 
L 108.920431 301.028781 
L 109.016429 301.093684 
L 109.112452 301.353279 
L 109.20845 301.298008 
L 109.304474 301.454653 
L 109.400497 301.303947 
L 109.496521 301.764379 
L 109.688594 301.208471 
L 109.784617 301.443398 
L 109.880666 300.748134 
L 109.976716 300.830663 
L 110.168814 301.337572 
L 110.264863 300.627535 
L 110.360938 300.914444 
L 110.456987 300.789412 
L 110.553062 301.389889 
L 110.649137 301.110801 
L 110.937361 301.998535 
L 111.033436 301.394422 
L 111.129536 301.905608 
L 111.321737 301.207848 
L 111.417837 301.138172 
L 111.513937 301.340559 
L 111.802264 300.605708 
L 111.89839 301.259055 
L 111.994516 300.84694 
L 112.186767 301.351758 
L 112.379045 301.053201 
L 112.475171 301.67621 
L 112.571322 301.221006 
L 112.955954 301.653076 
L 113.340611 300.997465 
L 113.436788 301.395582 
L 113.53299 301.013866 
L 113.629168 301.264355 
L 113.725345 300.779506 
L 113.821547 301.178503 
L 113.91775 300.783411 
L 114.110155 301.510477 
L 114.206358 301.167423 
L 114.302561 301.666268 
L 114.398789 301.505826 
L 114.494991 300.789396 
L 114.59122 301.95342 
L 114.783676 301.26994 
L 114.879904 301.662222 
L 114.976158 301.471304 
L 115.072386 300.891719 
L 115.16864 300.943021 
L 115.264868 301.219936 
L 115.361122 301.118575 
L 115.55363 300.363446 
L 115.649909 301.143781 
L 115.746163 300.921224 
L 115.842442 301.677164 
L 115.938722 300.940026 
L 116.034975 301.096825 
L 116.13128 301.598673 
L 116.22756 301.210514 
L 116.516424 301.717616 
L 116.612729 301.221253 
L 116.709033 301.533214 
L 116.805338 301.034021 
L 116.901643 301.242856 
L 116.997948 300.985331 
L 117.094279 301.070048 
L 117.190584 300.982317 
L 117.286914 301.171917 
L 117.383245 300.746664 
L 117.479575 301.373344 
L 117.575906 301.041576 
L 117.672237 301.29699 
L 117.768567 300.819928 
L 117.864923 301.69605 
L 117.961279 300.940143 
L 118.057635 300.999792 
L 118.250348 301.716089 
L 118.346704 301.215335 
L 118.44306 301.642667 
L 118.539442 300.952683 
L 118.635798 301.482419 
L 118.828561 300.657196 
L 118.924943 301.020685 
L 119.117732 300.471581 
L 119.310521 301.220623 
L 119.406928 301.264479 
L 119.503335 301.050826 
L 119.599743 301.220799 
L 119.69615 301.622694 
L 119.88899 301.269625 
L 119.985397 301.547752 
L 120.08183 300.949041 
L 120.274696 301.439954 
L 120.371129 301.258872 
L 120.467561 300.677129 
L 120.56402 300.7197 
L 120.660453 301.101083 
L 120.85337 300.842964 
L 120.949828 301.32755 
L 121.046286 301.125774 
L 121.239229 301.399549 
L 121.335687 301.324091 
L 121.432171 301.041694 
L 121.528655 301.372718 
L 121.625139 301.037442 
L 121.721623 301.280445 
L 121.914591 301.033824 
L 122.107585 301.323392 
L 122.204095 301.11379 
L 122.300604 301.43639 
L 122.397114 300.588004 
L 122.493623 300.784067 
L 122.590159 300.655771 
L 122.686668 300.739156 
L 122.879713 301.362953 
L 123.072783 301.632064 
L 123.169318 301.741338 
L 123.362414 301.453626 
L 123.652071 301.351497 
L 123.748632 301.791098 
L 123.941753 300.84584 
L 124.038314 300.938602 
L 124.1349 300.592535 
L 124.328047 301.173623 
L 124.424634 301.018745 
L 124.52122 301.414149 
L 124.617806 300.995648 
L 124.811005 301.86482 
L 125.004203 301.716682 
L 125.100815 301.179324 
L 125.197427 301.343643 
L 125.294039 301.189487 
L 125.390651 301.555775 
L 125.487262 301.002652 
L 125.5839 301.253516 
L 125.777149 300.986542 
L 125.873787 300.955674 
L 125.970424 301.173267 
L 126.067062 300.220535 
L 126.163699 300.862729 
L 126.260337 300.820566 
L 126.5503 301.963734 
L 126.646963 301.07214 
L 126.743627 301.455505 
L 126.840315 301.306229 
L 126.936978 301.576443 
L 127.033641 301.222597 
L 127.13033 301.46588 
L 127.227019 301.128772 
L 127.323682 301.269218 
L 127.613773 300.929298 
L 127.710462 301.154066 
L 127.903865 300.658755 
L 128.290722 301.404579 
L 128.484176 301.431335 
L 128.58089 301.080687 
L 128.67763 301.516567 
L 128.774369 301.460037 
L 128.871109 301.744053 
L 128.967849 300.927709 
L 129.064589 301.296221 
L 129.258094 301.114843 
L 129.354834 300.836422 
L 129.451599 300.877064 
L 129.64513 300.822881 
L 129.838661 301.426361 
L 130.032217 301.008143 
L 130.225773 301.565605 
L 130.322564 301.252948 
L 130.419355 301.336076 
L 130.516172 301.690251 
L 130.612963 301.551801 
L 130.709754 301.68299 
L 130.903361 299.517901 
L 131.000178 300.85624 
L 131.290627 299.034827 
L 131.38747 300.135152 
L 131.484286 300.045366 
L 131.968471 302.190401 
L 132.065313 300.646201 
L 132.259023 301.639729 
L 132.452733 301.015228 
L 132.549601 301.603373 
L 132.646468 300.689188 
L 132.743336 301.168435 
L 132.840204 300.732536 
L 132.937097 301.294266 
L 133.033965 300.806015 
L 133.227726 301.17671 
L 133.324619 300.914511 
L 133.421512 301.356112 
L 133.615299 301.038696 
L 133.712218 301.355602 
L 133.809111 301.182731 
L 133.90603 301.313949 
L 134.002949 300.894864 
L 134.196761 301.42077 
L 134.293705 301.381069 
L 134.390624 301.64417 
L 134.487543 301.038574 
L 134.584487 301.287965 
L 134.681406 301.028335 
L 134.778351 301.29276 
L 134.875295 300.967122 
L 135.069184 301.378881 
L 135.263073 300.93906 
L 135.360043 301.502566 
L 135.456987 301.170502 
L 135.553957 301.732944 
L 135.844867 301.224389 
L 135.941837 301.637998 
L 136.038833 301.151603 
L 136.135803 301.58401 
L 136.232798 300.84584 
L 136.426764 301.224116 
L 136.620755 300.707825 
L 136.717776 301.218995 
L 136.814772 300.743299 
L 137.008789 301.341338 
L 137.10581 301.243928 
L 137.396873 301.431847 
L 137.493895 301.856337 
L 137.687963 301.040904 
L 137.88203 301.904542 
L 138.076124 301.292572 
L 138.173171 301.190308 
L 138.270217 301.297715 
L 138.367264 301.04659 
L 138.464337 301.104994 
L 138.561383 300.908066 
L 138.658456 301.378948 
L 138.755528 301.07265 
L 138.852575 301.364321 
L 138.949647 301.113026 
L 139.143817 301.681009 
L 139.24089 301.085465 
L 139.337988 301.160134 
L 139.43506 301.654288 
L 139.532158 301.132422 
L 139.629256 301.229585 
L 139.726354 300.954565 
L 139.823452 301.19545 
L 140.017673 301.072999 
L 140.114771 300.518719 
L 140.211894 301.223912 
L 140.309018 301.058465 
L 140.406141 301.660887 
L 140.503265 301.507207 
L 140.600388 301.68953 
L 140.697512 301.391362 
L 140.891784 301.485396 
L 140.988908 301.846756 
L 141.086057 301.523467 
L 141.183206 301.716464 
L 141.280355 301.162851 
L 141.377504 301.709809 
L 141.474653 301.055258 
L 141.571802 301.525876 
L 141.766126 301.104423 
L 141.96045 300.994855 
L 142.057624 301.551644 
L 142.154799 300.916262 
L 142.251999 301.230498 
L 142.446348 301.202548 
L 142.543549 301.585655 
L 142.640723 301.047163 
L 142.835124 301.577572 
L 143.126724 301.079828 
L 143.223925 300.992054 
L 143.32115 301.403991 
L 143.418351 301.224625 
L 143.612802 301.451819 
L 143.710028 301.321597 
L 143.90448 300.84333 
L 144.001705 300.783504 
L 144.098931 301.253666 
L 144.196183 301.050071 
L 144.293408 301.406798 
L 144.39066 301.139711 
L 144.585163 301.701819 
L 144.682414 301.173497 
L 144.876942 301.778773 
L 145.460553 300.637087 
L 145.655107 301.15936 
L 145.752409 300.987119 
L 145.849686 301.411563 
L 145.946989 301.373831 
L 146.044266 300.979357 
L 146.238871 301.277676 
L 146.336174 301.325898 
L 146.433476 301.736617 
L 146.530779 301.098966 
L 146.725409 301.394327 
L 146.822737 301.447663 
L 146.920065 300.845303 
L 147.017394 301.292597 
L 147.21205 300.824158 
L 147.309378 301.019094 
L 147.406706 301.204918 
L 147.50406 300.518423 
L 147.601388 301.49547 
L 147.698742 301.138293 
L 147.796095 301.201424 
L 147.893423 301.225501 
L 147.990777 301.619264 
L 148.088156 301.235054 
L 148.18551 301.366227 
L 148.282864 301.121016 
L 148.380243 301.358893 
L 148.477597 301.292183 
L 148.574976 301.079997 
L 148.769709 301.493915 
L 148.867088 301.129215 
L 148.964493 301.239426 
L 149.159252 300.793377 
L 149.256657 301.418816 
L 149.354036 301.341501 
L 149.451441 301.136141 
L 149.548846 301.302564 
L 149.64625 301.209819 
L 149.938465 301.672975 
L 150.035895 301.591525 
L 150.1333 301.035399 
L 150.230731 301.068078 
L 150.328136 301.760492 
L 150.522996 301.042356 
L 150.717857 301.268036 
L 150.912744 301.191429 
L 151.010174 300.787756 
L 151.205086 301.215191 
L 151.302542 301.455674 
L 151.399973 300.965695 
L 151.497454 301.38289 
L 151.59491 301.172465 
L 151.789822 301.480534 
L 151.887304 301.357497 
L 151.98476 301.027785 
L 152.179723 301.253722 
L 152.277205 301.705211 
L 152.472168 300.84474 
L 152.569649 301.588855 
L 152.667157 301.491876 
L 152.764638 301.122515 
L 152.959653 301.560611 
L 153.057134 301.035583 
L 153.154641 301.105266 
L 153.252149 301.719318 
L 153.349656 301.309378 
L 153.447163 301.869925 
L 153.642228 301.253729 
L 153.739736 301.239769 
L 153.837243 301.589117 
L 153.934801 301.179088 
L 154.032308 301.277045 
L 154.227374 301.151709 
L 154.42249 300.992602 
L 154.519998 301.146934 
L 154.715114 300.335484 
L 154.910231 301.615994 
L 155.007789 301.263051 
L 155.202906 301.767271 
L 155.300464 301.651749 
L 155.398023 301.737524 
L 155.495632 301.139564 
L 155.59319 301.568248 
L 155.690749 301.310734 
L 155.788358 301.542638 
L 155.983526 301.072527 
L 156.081084 300.995532 
L 156.178694 301.392775 
L 156.276303 300.849762 
L 156.373862 301.244052 
L 156.471471 300.979598 
L 156.7643 301.272507 
L 156.861909 301.267779 
L 156.959519 301.572901 
L 157.057128 301.258413 
L 157.154738 301.51276 
L 157.350008 301.097692 
L 157.447617 301.568911 
L 157.642887 301.094065 
L 157.740497 301.437193 
L 158.033428 300.802712 
L 158.228749 301.086486 
L 158.424019 301.215821 
L 158.52168 300.971701 
L 158.717001 301.291175 
L 158.814662 301.104348 
L 158.912322 301.72187 
L 159.303067 301.028903 
L 159.400728 301.544157 
L 159.498388 300.921389 
L 159.5961 301.375497 
L 159.693761 301.070087 
L 159.791473 301.136093 
L 159.889184 300.387347 
L 159.986845 301.09715 
L 160.084557 300.912118 
L 160.182269 301.234786 
L 160.279981 301.187512 
L 160.475404 301.474081 
L 160.573116 301.253712 
L 160.670828 301.733858 
L 161.061675 301.178997 
L 161.159438 301.495664 
L 161.354913 300.905507 
L 161.452624 300.825561 
L 161.550387 301.29561 
L 161.745862 301.11826 
L 161.941337 301.206501 
L 162.136863 301.437471 
L 162.234626 301.281865 
L 162.332389 301.674076 
L 162.527915 301.41208 
L 162.625678 301.6948 
L 162.821204 300.970787 
L 162.918967 301.462592 
L 163.016781 301.263019 
L 163.114544 301.481794 
L 163.310121 300.923477 
L 163.407884 301.031661 
L 163.505698 301.068205 
L 163.603461 301.667007 
L 163.701275 300.927359 
L 163.896852 301.561741 
L 163.994666 301.472998 
L 164.09248 301.636828 
L 164.190294 301.370816 
L 164.288109 301.913419 
L 164.385923 301.29578 
L 164.483737 301.589782 
L 164.581551 301.183763 
L 164.679365 301.477047 
L 164.777179 301.021001 
L 164.875044 301.272308 
L 164.972859 300.99935 
L 165.070673 301.737367 
L 165.168538 300.715989 
L 165.266352 301.427689 
L 165.462031 300.92856 
L 165.559897 301.180432 
L 165.657711 301.016004 
L 165.853441 301.638002 
L 165.951307 301.386589 
L 166.049172 301.75318 
L 166.146986 301.6344 
L 166.244851 301.006649 
L 166.440582 301.516672 
L 166.538447 300.978759 
L 166.636364 301.18203 
L 166.734229 301.038577 
L 166.832094 301.097502 
L 166.929959 300.888954 
L 167.027876 301.218184 
L 167.125741 301.022449 
L 167.223606 301.516433 
L 167.321523 300.522675 
L 167.517305 301.35617 
L 167.615221 301.475386 
L 167.713086 301.3736 
L 167.811003 301.700375 
L 167.908919 301.563212 
L 168.006836 301.100532 
L 168.202617 301.588703 
L 168.300534 301.276448 
L 168.39845 301.526663 
L 168.496367 301.053153 
L 168.692251 301.340151 
L 168.790167 301.140218 
L 168.888084 301.249234 
L 168.986051 301.154487 
L 169.083968 300.721435 
L 169.181884 301.073633 
L 169.279852 300.961374 
L 169.377768 301.506078 
L 169.67162 301.068523 
L 169.769587 301.335138 
L 169.965471 301.298815 
L 170.161407 301.543996 
L 170.259374 300.946824 
L 170.357342 301.565023 
L 170.455309 301.155881 
L 170.553277 301.191566 
L 170.651245 300.919595 
L 170.945198 301.479426 
L 171.043166 300.803599 
L 171.141134 301.289033 
L 171.239152 301.135087 
L 171.435139 301.539127 
L 171.533106 301.780635 
L 171.92513 301.052062 
L 172.121168 301.17962 
L 172.219135 301.271205 
L 172.317154 300.875603 
L 172.807299 301.201621 
L 172.905318 301.714574 
L 173.003336 301.275617 
L 173.101355 301.688594 
L 173.297444 301.222801 
L 173.493533 301.458557 
L 173.591603 301.164446 
L 173.787691 301.177468 
L 173.98378 300.985104 
L 174.277938 301.043583 
L 174.376008 300.847105 
L 174.572148 301.329148 
L 174.670218 301.364359 
L 174.768288 301.161203 
L 174.866409 301.209707 
L 175.258689 301.438378 
L 175.553001 300.968795 
L 175.651071 301.358993 
L 175.847262 301.082394 
L 175.945383 301.3728 
L 176.141574 301.103107 
L 176.239695 301.213789 
L 176.337816 301.022319 
L 176.435937 301.47693 
L 176.632128 301.155252 
L 176.730249 301.120084 
L 176.926542 301.46802 
L 177.024663 301.535816 
L 177.122784 301.258246 
L 177.220905 301.51794 
L 177.319026 300.998365 
L 177.417199 301.603173 
L 177.51532 301.074591 
L 177.613441 301.450183 
L 177.809734 301.120331 
L 177.907906 300.729533 
L 178.1042 301.14261 
L 178.202372 301.276086 
L 178.300493 301.128586 
L 178.398665 301.562744 
L 178.496837 301.289589 
L 178.693131 301.717047 
L 178.889475 301.285212 
L 179.08582 301.325735 
L 179.282215 301.100984 
L 179.380387 301.128085 
L 179.47856 300.6967 
L 179.576732 301.249283 
L 179.773128 301.002062 
L 179.8713 300.993337 
L 180.165919 301.298455 
L 180.264091 300.864881 
L 180.362314 301.601858 
L 180.55871 301.504074 
L 180.656933 301.397169 
L 180.755157 300.957326 
L 180.85338 301.649616 
L 180.951603 301.325774 
L 181.049827 301.384463 
L 181.246274 301.091726 
L 181.344497 301.429981 
L 181.44272 300.878063 
L 181.639167 301.331035 
L 181.737391 301.28104 
L 181.835614 300.930716 
L 182.032112 301.226491 
L 182.130386 301.285507 
L 182.326833 301.874089 
L 182.621606 300.935142 
L 182.818104 301.320411 
L 182.916378 300.784276 
L 183.014653 301.302445 
L 183.112927 300.944423 
L 183.4077 301.077542 
L 183.505974 300.853269 
L 183.604249 301.341962 
L 183.702574 301.138963 
L 184.095673 301.45911 
L 184.193998 300.962766 
L 184.292273 301.668188 
L 184.390547 301.492586 
L 184.488873 300.960848 
L 184.587148 301.479109 
L 184.685473 300.726919 
L 184.783748 301.348507 
L 184.882074 300.630467 
L 184.980348 301.271863 
L 185.078674 301.158513 
L 185.177 301.689554 
L 185.275274 300.967655 
L 185.3736 301.426589 
L 185.471925 301.139546 
L 185.570251 301.395926 
L 185.668577 301.134461 
L 185.766903 301.454914 
L 185.865228 301.368075 
L 185.963554 301.718997 
L 186.06188 301.312951 
L 186.160205 301.344793 
L 186.258531 301.385647 
L 186.553559 300.982257 
L 186.651885 301.181326 
L 186.750211 301.02737 
L 186.946913 301.21315 
L 187.340318 301.334722 
L 187.438695 301.091209 
L 187.537072 301.714449 
L 187.635398 301.366842 
L 187.733775 301.693327 
L 187.832152 301.603123 
L 188.028905 301.199002 
L 188.127231 301.568981 
L 188.225608 301.409183 
L 188.323985 301.651982 
L 188.422362 300.815308 
L 188.52079 301.180837 
L 188.619166 300.925992 
L 188.717543 301.203534 
L 188.914297 301.135366 
L 189.307907 301.535054 
L 189.504712 301.406725 
L 189.701517 301.696066 
L 189.799893 301.057471 
L 189.898321 301.356723 
L 189.996698 301.082994 
L 190.095126 301.564377 
L 190.193554 300.838488 
L 190.291982 301.362046 
L 190.39041 301.149739 
L 190.587215 301.253754 
L 190.685643 300.954173 
L 190.784071 301.317313 
L 190.882499 301.19021 
L 190.980927 301.344629 
L 191.079355 301.167388 
L 191.177835 301.267385 
L 191.276262 301.726128 
L 191.473119 301.476227 
L 191.571598 300.913155 
L 191.768454 301.412608 
L 191.866933 301.557746 
L 191.965361 301.03133 
L 192.06384 301.412841 
L 192.359175 300.626046 
L 192.457655 301.290392 
L 192.556134 301.065975 
L 192.654562 301.413735 
L 192.753041 301.354062 
L 192.85152 301.372078 
L 192.949999 301.249219 
L 193.048478 301.421416 
L 193.146958 301.091222 
L 193.245437 301.974282 
L 193.343865 300.89852 
L 193.442395 301.527391 
L 193.540874 301.27164 
L 193.639353 301.423002 
L 193.836312 301.218382 
L 193.934791 301.492291 
L 194.131801 300.798496 
L 194.23028 301.315614 
L 194.328759 300.966378 
L 194.624299 301.422425 
L 194.722778 300.960323 
L 194.821308 301.427007 
L 194.919787 301.178237 
L 195.116848 301.570115 
L 195.215327 301.561827 
L 195.412388 301.182279 
L 195.510918 301.191289 
L 195.609449 301.414505 
L 195.707928 301.020992 
L 195.806458 301.092484 
L 195.904988 300.989345 
L 196.003519 301.164258 
L 196.102049 300.801825 
L 196.200579 301.365427 
L 196.299161 301.186773 
L 196.397691 301.253772 
L 196.496222 301.057269 
L 196.594752 301.829979 
L 196.693282 301.039193 
L 196.791864 301.666284 
L 196.988924 301.307644 
L 197.186036 301.694025 
L 197.284618 301.181966 
L 197.383148 301.222335 
L 197.48173 301.312282 
L 197.678841 300.655537 
L 197.875953 301.361801 
L 197.974535 301.217726 
L 198.073116 300.798639 
L 198.368809 301.908122 
L 198.467391 301.195071 
L 198.565972 301.755423 
L 198.664554 301.231246 
L 198.763135 301.694589 
L 199.05888 300.998897 
L 199.256094 301.513341 
L 199.453257 301.03001 
L 199.551839 301.289472 
L 199.650471 301.035286 
L 199.749053 301.147304 
L 199.847685 301.054557 
L 199.946267 301.40417 
L 200.044899 301.298004 
L 200.143481 301.435598 
L 200.242114 301.142625 
L 200.439328 301.450238 
L 200.537909 300.985441 
L 200.636542 301.218011 
L 200.833807 301.191411 
L 200.932389 301.422692 
L 201.425552 300.819571 
L 201.524185 301.204503 
L 201.622817 301.132928 
L 201.72145 301.334317 
L 201.820082 300.704927 
L 201.918715 301.582806 
L 202.116032 301.173992 
L 202.214664 301.014015 
L 202.411929 301.200197 
L 202.510613 300.97235 
L 202.609246 301.164664 
L 202.806562 300.727875 
L 202.905195 301.121516 
L 203.003879 300.398032 
L 203.102512 301.130055 
L 203.201195 300.576927 
L 203.299879 300.692622 
L 203.398512 300.548102 
L 203.595879 301.167489 
L 203.694512 300.682715 
L 203.89188 301.082145 
L 204.385299 300.717232 
L 204.483983 300.946917 
L 204.68135 300.516433 
L 204.780034 300.728848 
L 204.977402 299.979524 
L 205.076085 300.457667 
L 205.17482 300.322341 
L 205.470923 300.505005 
L 205.569607 300.206204 
L 205.66829 300.920669 
L 205.767025 300.628193 
L 205.865709 300.726537 
L 205.964444 300.52102 
L 206.161863 300.613562 
L 206.260598 300.479706 
L 206.359282 300.067089 
L 206.458017 300.308778 
L 206.556752 299.85678 
L 206.655436 300.023957 
L 206.754171 299.885234 
L 206.852905 300.00425 
L 207.050375 299.535413 
L 207.247794 300.471799 
L 207.346529 299.944034 
L 207.543999 300.117147 
L 207.642734 300.261857 
L 207.74152 299.941137 
L 207.840255 300.384646 
L 207.93899 299.808078 
L 208.037725 300.171731 
L 208.13646 299.799929 
L 208.235246 300.225612 
L 208.432716 299.27187 
L 208.531451 299.786253 
L 208.728972 298.791126 
L 208.827758 299.263542 
L 208.926493 298.947647 
L 209.124014 299.67286 
L 209.2228 299.596066 
L 209.321535 299.090601 
L 209.519108 299.42771 
L 209.617843 299.046599 
L 209.716629 299.4456 
L 210.012936 298.828904 
L 210.111722 298.921807 
L 210.210508 298.407675 
L 210.309294 298.532803 
L 210.506867 298.182117 
L 210.704439 299.100426 
L 211.000797 298.180065 
L 211.198421 298.73616 
L 211.395993 298.285559 
L 211.494779 298.658192 
L 211.593616 298.104287 
L 211.692402 298.183848 
L 211.890026 297.929206 
L 211.988812 296.978757 
L 212.087649 297.312025 
L 212.186435 297.176994 
L 212.285273 297.410318 
L 212.384059 297.005724 
L 212.482896 297.802013 
L 212.581682 296.598644 
L 212.680519 296.822995 
L 212.779357 297.464314 
L 213.075817 296.577117 
L 213.174655 296.646856 
L 213.273492 296.567606 
L 213.372278 296.070783 
L 213.471115 296.341233 
L 213.569953 296.229056 
L 213.66879 296.303199 
L 213.866464 296.104336 
L 213.965302 295.612384 
L 214.064139 296.019224 
L 214.162976 295.268487 
L 214.261814 295.914332 
L 214.360702 295.410427 
L 214.459539 295.704312 
L 214.558377 295.404782 
L 214.657214 296.143156 
L 214.85494 294.505368 
L 214.953777 294.999071 
L 215.25034 294.523956 
L 215.448066 293.973667 
L 215.546903 294.059166 
L 215.645791 293.302592 
L 215.843517 293.709264 
L 215.942405 293.758441 
L 216.041243 292.961841 
L 216.140131 293.238036 
L 216.337857 292.633716 
L 216.436745 293.223808 
L 216.535634 292.928642 
L 216.634522 293.303751 
L 216.733411 292.091749 
L 216.832248 293.145784 
L 217.128913 291.193546 
L 217.227802 290.476781 
L 217.32669 291.3739 
L 217.821183 290.31065 
L 218.01896 290.129609 
L 218.117849 290.344607 
L 218.216737 289.538225 
L 218.315677 289.607961 
L 218.513454 289.157645 
L 218.612393 289.098598 
L 218.810221 288.87052 
L 219.106938 286.721989 
L 219.205826 286.928253 
L 219.304766 287.530365 
L 219.502594 285.853555 
L 219.601533 286.113601 
L 219.700422 285.56014 
L 219.898301 286.170515 
L 219.997241 285.583337 
L 220.096129 284.284402 
L 220.195069 284.426239 
L 220.294008 284.079665 
L 220.392948 284.914673 
L 220.590827 282.89758 
L 220.788655 283.418502 
L 220.986534 282.025911 
L 221.085525 282.022169 
L 221.184465 281.730694 
L 221.283404 281.878762 
L 221.382344 281.595437 
L 221.481283 280.648473 
L 221.580223 281.35477 
L 221.679163 281.334325 
L 221.877093 282.14739 
L 222.668763 279.671911 
L 223.658466 273.287188 
L 223.757406 273.011205 
L 223.856397 272.232229 
L 223.955387 272.766012 
L 224.054378 272.616276 
L 224.153318 271.488252 
L 224.252308 271.661855 
L 224.549281 270.650633 
L 224.648271 270.217633 
L 224.945244 267.835966 
L 225.044234 267.649208 
L 225.143225 266.945158 
L 225.242216 267.258108 
L 225.341207 267.06387 
L 225.539239 264.982961 
L 225.63823 266.424103 
L 225.737221 264.862115 
L 225.836212 266.484437 
L 226.034244 264.349599 
L 226.133235 264.528801 
L 226.232277 262.046352 
L 226.331268 262.288906 
L 226.430259 261.694332 
L 226.628291 257.783074 
L 226.826324 258.978659 
L 227.024356 257.944219 
L 227.123398 257.747555 
L 227.321431 253.831779 
L 227.420473 254.530177 
L 227.618506 252.267232 
L 227.717548 253.420106 
L 227.91558 252.61799 
L 228.113664 250.144225 
L 228.212706 249.882763 
L 228.311748 250.102253 
L 228.707864 246.589366 
L 228.806906 242.301156 
L 228.905948 242.941183 
L 229.00499 241.338806 
L 229.104032 242.757234 
L 229.203074 241.955644 
L 229.401158 239.52933 
L 229.500251 240.187652 
L 229.599293 239.474319 
L 229.797377 236.954073 
L 229.896418 236.706166 
L 229.995512 235.253193 
L 230.094553 231.273456 
L 230.39173 233.991819 
L 230.589865 229.257373 
L 230.787949 231.41326 
L 230.887042 232.367744 
L 231.085177 224.513331 
L 231.283312 225.454354 
L 232.075903 211.714661 
L 232.174996 212.664387 
L 232.373131 216.150818 
L 232.571317 211.161212 
L 232.670411 210.543056 
L 232.769504 210.972908 
L 233.066732 205.488771 
L 233.364011 197.478238 
L 233.562197 199.117626 
L 233.66129 199.697997 
L 233.958621 193.992499 
L 234.057714 193.855593 
L 234.156807 195.275863 
L 234.2559 195.197651 
L 234.652323 180.23034 
L 234.751416 179.766927 
L 234.850561 179.850704 
L 235.048747 182.165126 
L 235.346077 173.324845 
L 235.445221 172.501853 
L 235.544314 176.627716 
L 235.643458 176.452895 
L 236.039933 162.626461 
L 236.23817 158.920132 
L 236.337315 160.440913 
L 236.436408 160.113288 
L 236.634696 154.349888 
L 236.733789 154.937612 
L 236.932078 153.183856 
L 237.031222 153.54394 
L 237.328603 139.483406 
L 237.427748 138.757658 
L 237.725129 132.975312 
L 237.923418 138.960858 
L 238.22085 130.003555 
L 238.518283 134.114841 
L 238.617427 132.795342 
L 239.014055 112.220499 
L 239.1132 111.985692 
L 239.212344 112.084624 
L 239.509828 122.082106 
L 239.80726 108.491532 
L 240.303084 102.183033 
L 240.402279 95.679942 
L 240.600568 100.877203 
L 240.798907 87.616634 
L 240.898103 87.504969 
L 240.997247 86.510414 
L 241.096442 90.517504 
L 241.195586 100.634783 
L 241.294782 99.064788 
L 241.493122 87.241309 
L 242.088191 71.359449 
L 242.286582 79.960402 
L 242.484922 73.174964 
L 242.584117 69.175256 
L 242.683313 70.261289 
L 242.881703 63.464315 
L 242.980848 66.102145 
L 243.377629 57.742271 
L 243.57602 71.056034 
L 243.774411 64.106516 
L 243.873606 64.74964 
L 244.171192 55.554545 
L 244.270388 58.758874 
L 244.468778 71.45368 
L 244.568025 70.343639 
L 244.66722 72.097626 
L 244.766416 70.182818 
L 244.865611 73.298698 
L 245.064053 69.28421 
L 245.163248 69.318211 
L 245.361639 72.652171 
L 245.460886 75.07342 
L 245.560081 82.405011 
L 245.758523 72.488308 
L 245.857719 74.086434 
L 246.056161 79.845955 
L 246.155356 72.34244 
L 246.452993 91.072741 
L 246.55224 96.972131 
L 246.750682 86.653513 
L 246.949124 87.277617 
L 247.147566 99.30023 
L 247.346007 101.407595 
L 247.544449 110.897655 
L 247.643696 111.982304 
L 247.842138 107.943173 
L 248.338319 127.256772 
L 248.536761 134.223766 
L 248.735254 138.06558 
L 248.834501 136.411621 
L 248.933748 138.417416 
L 249.132189 146.926762 
L 249.330683 149.011489 
L 249.429929 148.848304 
L 249.628422 159.322753 
L 249.727669 159.19925 
L 250.124655 171.860675 
L 250.223902 170.257415 
L 250.323148 171.736697 
L 250.620888 185.926811 
L 250.720134 184.719035 
L 250.918627 194.822434 
L 251.017874 198.852899 
L 251.117172 196.401564 
L 251.414911 204.311787 
L 251.514158 205.005661 
L 251.613455 207.661327 
L 251.811949 216.924475 
L 252.010493 220.173367 
L 252.109739 220.16385 
L 253.003112 236.043388 
L 253.102358 235.551128 
L 253.201656 235.048061 
L 253.598744 243.043302 
L 253.797289 243.41096 
L 254.095079 250.425264 
L 254.194377 250.517758 
L 254.293624 250.214437 
L 254.591466 252.264218 
L 254.889308 256.232567 
L 254.988605 258.563716 
L 255.087903 257.901761 
L 255.385745 259.805509 
L 255.484991 260.174294 
L 255.683587 263.500662 
L 255.782885 263.100125 
L 256.080727 267.17458 
L 256.279322 266.810358 
L 256.577164 269.457603 
L 256.775759 271.09201 
L 256.974355 272.054379 
L 257.272197 275.23832 
L 257.371494 276.280852 
L 257.470792 275.674173 
L 257.669388 277.825626 
L 257.867983 276.198837 
L 258.066578 275.855334 
L 258.265174 278.276257 
L 258.861011 282.228898 
L 258.960309 282.057473 
L 259.158904 283.334455 
L 259.258202 283.611801 
L 259.357551 284.931855 
L 259.456848 284.358201 
L 259.655444 285.120156 
L 259.754742 286.416291 
L 259.85409 285.269392 
L 259.953388 287.096624 
L 260.151984 286.19485 
L 260.449928 288.575041 
L 260.648574 287.986107 
L 260.747872 288.411704 
L 260.84717 289.479071 
L 260.946519 288.825874 
L 261.145114 290.316818 
L 261.244463 290.398098 
L 261.343761 290.841759 
L 261.443058 290.3746 
L 261.641705 290.836581 
L 261.840351 290.732203 
L 262.038998 291.501348 
L 262.138296 291.55836 
L 262.237645 292.095107 
L 262.336942 291.945756 
L 262.436291 292.067504 
L 262.932882 294.39589 
L 263.131529 293.788798 
L 263.230877 294.179107 
L 263.330175 292.936986 
L 263.429524 294.088697 
L 263.528822 293.444046 
L 263.727519 294.622388 
L 263.826817 294.599452 
L 263.926166 294.790844 
L 264.025464 294.650264 
L 264.124813 293.989358 
L 264.422808 296.243504 
L 264.720803 295.683285 
L 264.820152 295.761283 
L 265.018799 295.512982 
L 265.217497 296.212316 
L 265.316794 295.721325 
L 265.416143 295.742179 
L 265.714139 296.318014 
L 265.813487 296.895541 
L 265.912836 295.684799 
L 266.111483 296.615389 
L 266.310181 296.432528 
L 266.409529 297.326468 
L 266.508878 296.754761 
L 266.608176 297.59729 
L 266.707525 297.061777 
L 266.806874 298.004451 
L 266.906223 297.293554 
L 267.005571 297.629053 
L 267.10492 297.501817 
L 267.303567 297.673278 
L 267.502265 297.499429 
L 267.601613 297.820731 
L 267.700962 297.318066 
L 267.800311 298.225915 
L 267.999009 298.131303 
L 268.197707 298.597872 
L 268.396353 298.023937 
L 268.6944 299.294181 
L 268.793749 298.527051 
L 268.893097 298.601573 
L 268.992446 298.761156 
L 269.091795 298.518925 
L 269.191144 299.353806 
L 269.290493 298.239649 
L 269.489191 298.650767 
L 269.588539 298.246712 
L 269.687888 299.212526 
L 269.787237 298.620735 
L 269.886637 298.847812 
L 269.985986 299.437309 
L 270.085335 299.275532 
L 270.184684 299.509864 
L 270.284033 300.168175 
L 270.383382 299.843688 
L 270.48273 298.805442 
L 270.582079 299.45958 
L 270.780777 299.141594 
L 270.880126 299.192303 
L 270.979475 299.017729 
L 271.078875 299.07147 
L 271.178224 299.370914 
L 271.277572 298.332958 
L 271.376921 299.680966 
L 271.47627 298.686939 
L 271.674968 299.51276 
L 271.774368 299.593781 
L 271.873717 298.989404 
L 271.973066 300.038553 
L 272.171763 299.736173 
L 272.271163 299.930821 
L 272.370512 299.452581 
L 272.56921 299.955962 
L 272.668559 299.754946 
L 272.767959 300.41413 
L 272.966657 299.065303 
L 273.066005 299.649163 
L 273.165354 298.835744 
L 273.364103 300.03267 
L 273.463452 300.001623 
L 273.562801 299.777146 
L 273.662201 300.586049 
L 273.76155 299.423904 
L 274.158996 300.323246 
L 274.258345 299.548983 
L 274.357745 299.995664 
L 274.556443 299.417448 
L 274.655792 299.559898 
L 274.755192 299.036055 
L 274.854541 299.273512 
L 275.152638 300.51209 
L 275.351387 301.087625 
L 275.450736 300.394932 
L 275.550085 300.623746 
L 275.649485 300.283102 
L 275.748834 300.537577 
L 275.947583 300.50435 
L 276.046932 300.185075 
L 276.146281 300.627858 
L 276.245681 300.457762 
L 276.345029 300.892273 
L 276.643127 299.502091 
L 276.742527 300.582259 
L 276.841876 300.006463 
L 276.941225 300.080285 
L 277.040625 300.299984 
L 277.139974 300.951119 
L 277.239374 300.510771 
L 277.338723 300.813298 
L 277.438072 300.318464 
L 277.537472 301.19817 
L 277.63682 300.537975 
L 277.73622 300.750806 
L 277.835569 300.441042 
L 278.034318 300.901591 
L 278.133667 300.764339 
L 278.233067 300.232801 
L 278.332416 301.011743 
L 278.431816 299.868409 
L 278.531165 300.266936 
L 278.630514 298.179558 
L 278.729914 300.735925 
L 278.829263 300.210559 
L 279.028011 300.568644 
L 279.127411 300.60246 
L 279.32616 301.474856 
L 279.624258 300.856905 
L 279.723607 301.072362 
L 279.922356 300.653206 
L 280.021756 300.547587 
L 280.121105 300.762912 
L 280.220505 300.201269 
L 280.319854 300.578968 
L 280.419254 300.514537 
L 280.518602 300.295435 
L 280.618002 300.604435 
L 280.717351 300.299771 
L 281.0155 301.5433 
L 281.114849 300.927184 
L 281.214249 301.423241 
L 281.313598 301.238913 
L 281.412998 300.322352 
L 281.512347 301.22468 
L 281.611747 300.456888 
L 281.711096 301.210467 
L 281.810496 301.025592 
L 281.909845 300.569912 
L 282.009193 300.754913 
L 282.108593 301.281601 
L 282.307342 299.986427 
L 282.506091 300.589138 
L 282.605491 300.339049 
L 282.80424 301.345907 
L 283.002989 300.624996 
L 283.201738 301.253105 
L 283.301087 301.217445 
L 283.400487 300.754073 
L 283.499836 301.089151 
L 283.698585 300.434284 
L 283.897333 300.753825 
L 283.996733 300.191792 
L 284.096082 300.825975 
L 284.195482 299.849508 
L 284.294831 300.7256 
L 284.394231 300.241386 
L 284.692329 301.153106 
L 284.791729 301.053039 
L 284.990478 301.403178 
L 285.288576 300.888626 
L 285.387976 301.446191 
L 285.487324 300.838758 
L 285.686073 301.317015 
L 285.984222 300.310693 
L 286.083571 300.488902 
L 286.182971 299.259775 
L 286.38172 301.196676 
L 286.679818 301.013689 
L 286.779218 301.372876 
L 286.878618 300.943817 
L 286.977967 301.68172 
L 287.077367 300.458094 
L 287.176716 301.168511 
L 287.276116 300.668907 
L 287.474864 301.070212 
L 287.673613 300.816453 
L 287.772962 301.013557 
L 288.071111 300.478612 
L 288.17046 301.513597 
L 288.269809 301.464323 
L 288.369209 301.027826 
L 288.567958 301.217921 
L 288.667307 300.879995 
L 288.766707 301.703929 
L 288.866055 301.013296 
L 288.965455 301.493191 
L 289.064804 300.829378 
L 289.164204 301.422605 
L 289.263553 300.213786 
L 289.362953 301.281454 
L 289.462302 300.813014 
L 289.561702 301.09695 
L 289.661051 300.414355 
L 289.8598 300.726454 
L 289.9592 301.238852 
L 290.058549 300.853613 
L 290.157898 301.524365 
L 290.257298 301.381717 
L 290.356646 301.639185 
L 290.456046 300.995636 
L 290.555395 301.68997 
L 290.654795 300.815905 
L 290.754144 301.410877 
L 290.853544 300.830246 
L 290.952893 300.858958 
L 291.151642 300.470578 
L 291.350391 300.965539 
L 291.54914 300.771257 
L 291.648489 301.152332 
L 291.747837 300.857372 
L 291.847237 300.89297 
L 291.946586 301.548494 
L 292.045986 301.15213 
L 292.145335 301.664351 
L 292.244684 300.993413 
L 292.344084 301.671805 
L 292.443433 301.180876 
L 292.542833 301.209746 
L 292.642182 301.072481 
L 292.741531 301.267535 
L 292.840931 300.646002 
L 292.94028 301.260316 
L 293.03968 300.48471 
L 293.238377 300.781205 
L 293.437126 300.722841 
L 293.536475 301.354727 
L 293.735224 301.005853 
L 293.933973 301.631416 
L 294.033322 301.267614 
L 294.132671 302.222342 
L 294.331419 301.318721 
L 294.430768 301.501124 
L 294.530168 301.866024 
L 294.728866 300.697551 
L 294.927615 300.799763 
L 295.026964 300.734046 
L 295.126364 300.375015 
L 295.225713 300.571897 
L 295.325062 301.113833 
L 295.42441 300.915589 
L 295.52381 301.407342 
L 295.623159 301.267745 
L 295.722508 301.606293 
L 295.821857 300.869824 
L 295.921257 302.130303 
L 296.119955 301.12746 
L 296.219304 300.898271 
L 296.318704 301.475079 
L 296.517401 300.63628 
L 296.61675 300.658132 
L 296.71615 301.230685 
L 296.815499 301.066388 
L 296.914848 300.52107 
L 297.014197 300.57246 
L 297.212946 301.065965 
L 297.312294 300.49702 
L 297.510992 301.627653 
L 297.610341 301.238018 
L 297.709741 301.545625 
L 297.80909 300.967911 
L 297.908439 301.732924 
L 298.007788 301.12547 
L 298.107137 301.500867 
L 298.206485 300.832379 
L 298.405234 301.561009 
L 298.504583 300.192705 
L 298.603932 301.381008 
L 298.80263 300.4531 
L 299.001328 301.230323 
L 299.200025 301.684307 
L 299.299374 301.366673 
L 299.597472 302.058369 
L 299.79617 301.321447 
L 299.895518 302.029659 
L 299.994867 300.963514 
L 300.094216 301.512277 
L 300.292914 300.673525 
L 300.491612 301.077339 
L 300.59096 300.579274 
L 300.690309 301.030787 
L 300.789658 300.862037 
L 300.889007 301.291359 
L 300.988356 300.79177 
L 301.087705 300.898656 
L 301.286402 301.561755 
L 301.385751 300.42606 
L 301.4851 302.057319 
L 301.683747 301.299519 
L 301.783096 300.925804 
L 301.882444 301.74461 
L 302.081142 300.571592 
L 302.27984 301.213604 
L 302.379189 300.015924 
L 302.677184 301.37166 
L 302.776533 300.991317 
L 302.875882 301.673732 
L 302.975231 300.998644 
L 303.07458 301.467348 
L 303.173877 300.990766 
L 303.273226 301.260839 
L 303.372575 301.951525 
L 303.571273 300.80857 
L 303.67057 301.62563 
L 303.769919 301.49071 
L 303.869268 300.991518 
L 303.968617 301.347924 
L 304.067915 300.271461 
L 304.167264 300.991434 
L 304.365961 300.110163 
L 304.465259 301.221136 
L 304.564608 300.751932 
L 304.763254 301.563691 
L 304.862603 301.205073 
L 305.06125 301.748083 
L 305.160599 301.796861 
L 305.359245 301.405233 
L 305.458594 301.581904 
L 305.557892 301.421526 
L 305.657241 301.743159 
L 305.75659 300.665932 
L 305.855887 300.730134 
L 305.955236 300.850522 
L 306.153883 301.301311 
L 306.253232 301.139819 
L 306.352529 300.258645 
L 306.451878 301.107253 
L 306.551176 300.686138 
L 306.650525 302.072231 
L 306.749822 300.725425 
L 306.849171 301.69967 
L 306.948469 301.35043 
L 307.047818 301.659811 
L 307.147116 301.008334 
L 307.445111 301.743598 
L 307.544409 301.318373 
L 307.643706 301.383981 
L 307.941702 300.067332 
L 308.140297 301.467288 
L 308.338944 300.715811 
L 308.438241 302.096786 
L 308.53759 301.319087 
L 308.636888 302.123265 
L 308.736186 301.319213 
L 308.835535 301.352492 
L 308.934832 302.001296 
L 309.03413 301.743961 
L 309.133479 301.870436 
L 309.431372 299.997397 
L 309.530721 301.303066 
L 309.630019 301.101808 
L 309.729316 299.905376 
L 309.828614 299.979131 
L 310.027261 301.60765 
L 310.126558 301.540536 
L 310.225856 300.828624 
L 310.424451 301.150551 
L 310.623098 302.274839 
L 310.722396 301.150368 
L 310.821693 301.51735 
L 311.020289 301.254889 
L 311.318182 301.254889 
L 311.318182 301.254889 
" style="fill:none;stroke:#008000;stroke-linecap:square;stroke-width:1.5;"/>
   </g>
   <g id="patch_3">
    <path d="M 45 315 
L 45 43.2 
" style="fill:none;stroke:#000000;stroke-linecap:square;stroke-linejoin:miter;stroke-width:0.8;"/>
   </g>
   <g id="patch_4">
    <path d="M 45 315 
L 324 315 
" style="fill:none;stroke:#000000;stroke-linecap:square;stroke-linejoin:miter;stroke-width:0.8;"/>
   </g>
   <g id="text_16">
    <!-- LG PA72G_corrected -->
    <defs>
     <path d="M 9.8125 72.90625 
L 19.671875 72.90625 
L 19.671875 8.296875 
L 55.171875 8.296875 
L 55.171875 0 
L 9.8125 0 
z
" id="DejaVuSans-76"/>
     <path d="M 59.515625 10.40625 
L 59.515625 29.984375 
L 43.40625 29.984375 
L 43.40625 38.09375 
L 69.28125 38.09375 
L 69.28125 6.78125 
Q 63.578125 2.734375 56.6875 0.65625 
Q 49.8125 -1.421875 42 -1.421875 
Q 24.90625 -1.421875 15.25 8.5625 
Q 5.609375 18.5625 5.609375 36.375 
Q 5.609375 54.25 15.25 64.234375 
Q 24.90625 74.21875 42 74.21875 
Q 49.125 74.21875 55.546875 72.453125 
Q 61.96875 70.703125 67.390625 67.28125 
L 67.390625 56.78125 
Q 61.921875 61.421875 55.765625 63.765625 
Q 49.609375 66.109375 42.828125 66.109375 
Q 29.4375 66.109375 22.71875 58.640625 
Q 16.015625 51.171875 16.015625 36.375 
Q 16.015625 21.625 22.71875 14.15625 
Q 29.4375 6.6875 42.828125 6.6875 
Q 48.046875 6.6875 52.140625 7.59375 
Q 56.25 8.5 59.515625 10.40625 
z
" id="DejaVuSans-71"/>
     <path d="M 19.671875 64.796875 
L 19.671875 37.40625 
L 32.078125 37.40625 
Q 38.96875 37.40625 42.71875 40.96875 
Q 46.484375 44.53125 46.484375 51.125 
Q 46.484375 57.671875 42.71875 61.234375 
Q 38.96875 64.796875 32.078125 64.796875 
z
M 9.8125 72.90625 
L 32.078125 72.90625 
Q 44.34375 72.90625 50.609375 67.359375 
Q 56.890625 61.8125 56.890625 51.125 
Q 56.890625 40.328125 50.609375 34.8125 
Q 44.34375 29.296875 32.078125 29.296875 
L 19.671875 29.296875 
L 19.671875 0 
L 9.8125 0 
z
" id="DejaVuSans-80"/>
     <path d="M 34.1875 63.1875 
L 20.796875 26.90625 
L 47.609375 26.90625 
z
M 28.609375 72.90625 
L 39.796875 72.90625 
L 67.578125 0 
L 57.328125 0 
L 50.6875 18.703125 
L 17.828125 18.703125 
L 11.1875 0 
L 0.78125 0 
z
" id="DejaVuSans-65"/>
     <path d="M 50.984375 -16.609375 
L 50.984375 -23.578125 
L -0.984375 -23.578125 
L -0.984375 -16.609375 
z
" id="DejaVuSans-95"/>
     <path d="M 48.78125 52.59375 
L 48.78125 44.1875 
Q 44.96875 46.296875 41.140625 47.34375 
Q 37.3125 48.390625 33.40625 48.390625 
Q 24.65625 48.390625 19.8125 42.84375 
Q 14.984375 37.3125 14.984375 27.296875 
Q 14.984375 17.28125 19.8125 11.734375 
Q 24.65625 6.203125 33.40625 6.203125 
Q 37.3125 6.203125 41.140625 7.25 
Q 44.96875 8.296875 48.78125 10.40625 
L 48.78125 2.09375 
Q 45.015625 0.34375 40.984375 -0.53125 
Q 36.96875 -1.421875 32.421875 -1.421875 
Q 20.0625 -1.421875 12.78125 6.34375 
Q 5.515625 14.109375 5.515625 27.296875 
Q 5.515625 40.671875 12.859375 48.328125 
Q 20.21875 56 33.015625 56 
Q 37.15625 56 41.109375 55.140625 
Q 45.0625 54.296875 48.78125 52.59375 
z
" id="DejaVuSans-99"/>
     <path d="M 30.609375 48.390625 
Q 23.390625 48.390625 19.1875 42.75 
Q 14.984375 37.109375 14.984375 27.296875 
Q 14.984375 17.484375 19.15625 11.84375 
Q 23.34375 6.203125 30.609375 6.203125 
Q 37.796875 6.203125 41.984375 11.859375 
Q 46.1875 17.53125 46.1875 27.296875 
Q 46.1875 37.015625 41.984375 42.703125 
Q 37.796875 48.390625 30.609375 48.390625 
z
M 30.609375 56 
Q 42.328125 56 49.015625 48.375 
Q 55.71875 40.765625 55.71875 27.296875 
Q 55.71875 13.875 49.015625 6.21875 
Q 42.328125 -1.421875 30.609375 -1.421875 
Q 18.84375 -1.421875 12.171875 6.21875 
Q 5.515625 13.875 5.515625 27.296875 
Q 5.515625 40.765625 12.171875 48.375 
Q 18.84375 56 30.609375 56 
z
" id="DejaVuSans-111"/>
     <path d="M 41.109375 46.296875 
Q 39.59375 47.171875 37.8125 47.578125 
Q 36.03125 48 33.890625 48 
Q 26.265625 48 22.1875 43.046875 
Q 18.109375 38.09375 18.109375 28.8125 
L 18.109375 0 
L 9.078125 0 
L 9.078125 54.6875 
L 18.109375 54.6875 
L 18.109375 46.1875 
Q 20.953125 51.171875 25.484375 53.578125 
Q 30.03125 56 36.53125 56 
Q 37.453125 56 38.578125 55.875 
Q 39.703125 55.765625 41.0625 55.515625 
z
" id="DejaVuSans-114"/>
     <path d="M 45.40625 46.390625 
L 45.40625 75.984375 
L 54.390625 75.984375 
L 54.390625 0 
L 45.40625 0 
L 45.40625 8.203125 
Q 42.578125 3.328125 38.25 0.953125 
Q 33.9375 -1.421875 27.875 -1.421875 
Q 17.96875 -1.421875 11.734375 6.484375 
Q 5.515625 14.40625 5.515625 27.296875 
Q 5.515625 40.1875 11.734375 48.09375 
Q 17.96875 56 27.875 56 
Q 33.9375 56 38.25 53.625 
Q 42.578125 51.265625 45.40625 46.390625 
z
M 14.796875 27.296875 
Q 14.796875 17.390625 18.875 11.75 
Q 22.953125 6.109375 30.078125 6.109375 
Q 37.203125 6.109375 41.296875 11.75 
Q 45.40625 17.390625 45.40625 27.296875 
Q 45.40625 37.203125 41.296875 42.84375 
Q 37.203125 48.484375 30.078125 48.484375 
Q 22.953125 48.484375 18.875 42.84375 
Q 14.796875 37.203125 14.796875 27.296875 
z
" id="DejaVuSans-100"/>
    </defs>
    <g transform="translate(122.855625 37.2)scale(0.12 -0.12)">
     <use xlink:href="#DejaVuSans-76"/>
     <use x="55.712891" xlink:href="#DejaVuSans-71"/>
     <use x="133.203125" xlink:href="#DejaVuSans-32"/>
     <use x="164.990234" xlink:href="#DejaVuSans-80"/>
     <use x="225.199219" xlink:href="#DejaVuSans-65"/>
     <use x="293.607422" xlink:href="#DejaVuSans-55"/>
     <use x="357.230469" xlink:href="#DejaVuSans-50"/>
     <use x="420.853516" xlink:href="#DejaVuSans-71"/>
     <use x="498.34375" xlink:href="#DejaVuSans-95"/>
     <use x="548.34375" xlink:href="#DejaVuSans-99"/>
     <use x="603.324219" xlink:href="#DejaVuSans-111"/>
     <use x="664.505859" xlink:href="#DejaVuSans-114"/>
     <use x="705.603516" xlink:href="#DejaVuSans-114"/>
     <use x="746.685547" xlink:href="#DejaVuSans-101"/>
     <use x="808.208984" xlink:href="#DejaVuSans-99"/>
     <use x="863.189453" xlink:href="#DejaVuSans-116"/>
     <use x="902.398438" xlink:href="#DejaVuSans-101"/>
     <use x="963.921875" xlink:href="#DejaVuSans-100"/>
    </g>
   </g>
  </g>
 </g>
 <defs>
  <clipPath id="p6489914d76">
   <rect height="271.8" width="279" x="45" y="43.2"/>
  </clipPath>
 </defs>
</svg>
