<?xml version="1.0" encoding="utf-8" standalone="no"?>
<!DOCTYPE svg PUBLIC "-//W3C//DTD SVG 1.1//EN"
  "http://www.w3.org/Graphics/SVG/1.1/DTD/svg11.dtd">
<!-- Created with matplotlib (https://matplotlib.org/) -->
<svg height="360pt" version="1.1" viewBox="0 0 360 360" width="360pt" xmlns="http://www.w3.org/2000/svg" xmlns:xlink="http://www.w3.org/1999/xlink">
 <defs>
  <style type="text/css">
*{stroke-linecap:butt;stroke-linejoin:round;}
  </style>
 </defs>
 <g id="figure_1">
  <g id="patch_1">
   <path d="M 0 360 
L 360 360 
L 360 0 
L 0 0 
z
" style="fill:#ffffff;"/>
  </g>
  <g id="axes_1">
   <g id="patch_2">
    <path d="M 45 315 
L 324 315 
L 324 43.2 
L 45 43.2 
z
" style="fill:#ffffff;"/>
   </g>
   <g id="matplotlib.axis_1">
    <g id="xtick_1">
     <g id="line2d_1">
      <defs>
       <path d="M 0 0 
L 0 3.5 
" id="ma252ce3008" style="stroke:#000000;stroke-width:0.8;"/>
      </defs>
      <g>
       <use style="stroke:#000000;stroke-width:0.8;" x="59.27406" xlink:href="#ma252ce3008" y="315"/>
      </g>
     </g>
     <g id="text_1">
      <!-- 400 -->
      <defs>
       <path d="M 37.796875 64.3125 
L 12.890625 25.390625 
L 37.796875 25.390625 
z
M 35.203125 72.90625 
L 47.609375 72.90625 
L 47.609375 25.390625 
L 58.015625 25.390625 
L 58.015625 17.1875 
L 47.609375 17.1875 
L 47.609375 0 
L 37.796875 0 
L 37.796875 17.1875 
L 4.890625 17.1875 
L 4.890625 26.703125 
z
" id="DejaVuSans-52"/>
       <path d="M 31.78125 66.40625 
Q 24.171875 66.40625 20.328125 58.90625 
Q 16.5 51.421875 16.5 36.375 
Q 16.5 21.390625 20.328125 13.890625 
Q 24.171875 6.390625 31.78125 6.390625 
Q 39.453125 6.390625 43.28125 13.890625 
Q 47.125 21.390625 47.125 36.375 
Q 47.125 51.421875 43.28125 58.90625 
Q 39.453125 66.40625 31.78125 66.40625 
z
M 31.78125 74.21875 
Q 44.046875 74.21875 50.515625 64.515625 
Q 56.984375 54.828125 56.984375 36.375 
Q 56.984375 17.96875 50.515625 8.265625 
Q 44.046875 -1.421875 31.78125 -1.421875 
Q 19.53125 -1.421875 13.0625 8.265625 
Q 6.59375 17.96875 6.59375 36.375 
Q 6.59375 54.828125 13.0625 64.515625 
Q 19.53125 74.21875 31.78125 74.21875 
z
" id="DejaVuSans-48"/>
      </defs>
      <g transform="translate(49.73031 329.598437)scale(0.1 -0.1)">
       <use xlink:href="#DejaVuSans-52"/>
       <use x="63.623047" xlink:href="#DejaVuSans-48"/>
       <use x="127.246094" xlink:href="#DejaVuSans-48"/>
      </g>
     </g>
    </g>
    <g id="xtick_2">
     <g id="line2d_2">
      <g>
       <use style="stroke:#000000;stroke-width:0.8;" x="101.182704" xlink:href="#ma252ce3008" y="315"/>
      </g>
     </g>
     <g id="text_2">
      <!-- 450 -->
      <defs>
       <path d="M 10.796875 72.90625 
L 49.515625 72.90625 
L 49.515625 64.59375 
L 19.828125 64.59375 
L 19.828125 46.734375 
Q 21.96875 47.46875 24.109375 47.828125 
Q 26.265625 48.1875 28.421875 48.1875 
Q 40.625 48.1875 47.75 41.5 
Q 54.890625 34.8125 54.890625 23.390625 
Q 54.890625 11.625 47.5625 5.09375 
Q 40.234375 -1.421875 26.90625 -1.421875 
Q 22.3125 -1.421875 17.546875 -0.640625 
Q 12.796875 0.140625 7.71875 1.703125 
L 7.71875 11.625 
Q 12.109375 9.234375 16.796875 8.0625 
Q 21.484375 6.890625 26.703125 6.890625 
Q 35.15625 6.890625 40.078125 11.328125 
Q 45.015625 15.765625 45.015625 23.390625 
Q 45.015625 31 40.078125 35.4375 
Q 35.15625 39.890625 26.703125 39.890625 
Q 22.75 39.890625 18.8125 39.015625 
Q 14.890625 38.140625 10.796875 36.28125 
z
" id="DejaVuSans-53"/>
      </defs>
      <g transform="translate(91.638954 329.598437)scale(0.1 -0.1)">
       <use xlink:href="#DejaVuSans-52"/>
       <use x="63.623047" xlink:href="#DejaVuSans-53"/>
       <use x="127.246094" xlink:href="#DejaVuSans-48"/>
      </g>
     </g>
    </g>
    <g id="xtick_3">
     <g id="line2d_3">
      <g>
       <use style="stroke:#000000;stroke-width:0.8;" x="143.091349" xlink:href="#ma252ce3008" y="315"/>
      </g>
     </g>
     <g id="text_3">
      <!-- 500 -->
      <g transform="translate(133.547599 329.598437)scale(0.1 -0.1)">
       <use xlink:href="#DejaVuSans-53"/>
       <use x="63.623047" xlink:href="#DejaVuSans-48"/>
       <use x="127.246094" xlink:href="#DejaVuSans-48"/>
      </g>
     </g>
    </g>
    <g id="xtick_4">
     <g id="line2d_4">
      <g>
       <use style="stroke:#000000;stroke-width:0.8;" x="184.999993" xlink:href="#ma252ce3008" y="315"/>
      </g>
     </g>
     <g id="text_4">
      <!-- 550 -->
      <g transform="translate(175.456243 329.598437)scale(0.1 -0.1)">
       <use xlink:href="#DejaVuSans-53"/>
       <use x="63.623047" xlink:href="#DejaVuSans-53"/>
       <use x="127.246094" xlink:href="#DejaVuSans-48"/>
      </g>
     </g>
    </g>
    <g id="xtick_5">
     <g id="line2d_5">
      <g>
       <use style="stroke:#000000;stroke-width:0.8;" x="226.908637" xlink:href="#ma252ce3008" y="315"/>
      </g>
     </g>
     <g id="text_5">
      <!-- 600 -->
      <defs>
       <path d="M 33.015625 40.375 
Q 26.375 40.375 22.484375 35.828125 
Q 18.609375 31.296875 18.609375 23.390625 
Q 18.609375 15.53125 22.484375 10.953125 
Q 26.375 6.390625 33.015625 6.390625 
Q 39.65625 6.390625 43.53125 10.953125 
Q 47.40625 15.53125 47.40625 23.390625 
Q 47.40625 31.296875 43.53125 35.828125 
Q 39.65625 40.375 33.015625 40.375 
z
M 52.59375 71.296875 
L 52.59375 62.3125 
Q 48.875 64.0625 45.09375 64.984375 
Q 41.3125 65.921875 37.59375 65.921875 
Q 27.828125 65.921875 22.671875 59.328125 
Q 17.53125 52.734375 16.796875 39.40625 
Q 19.671875 43.65625 24.015625 45.921875 
Q 28.375 48.1875 33.59375 48.1875 
Q 44.578125 48.1875 50.953125 41.515625 
Q 57.328125 34.859375 57.328125 23.390625 
Q 57.328125 12.15625 50.6875 5.359375 
Q 44.046875 -1.421875 33.015625 -1.421875 
Q 20.359375 -1.421875 13.671875 8.265625 
Q 6.984375 17.96875 6.984375 36.375 
Q 6.984375 53.65625 15.1875 63.9375 
Q 23.390625 74.21875 37.203125 74.21875 
Q 40.921875 74.21875 44.703125 73.484375 
Q 48.484375 72.75 52.59375 71.296875 
z
" id="DejaVuSans-54"/>
      </defs>
      <g transform="translate(217.364887 329.598437)scale(0.1 -0.1)">
       <use xlink:href="#DejaVuSans-54"/>
       <use x="63.623047" xlink:href="#DejaVuSans-48"/>
       <use x="127.246094" xlink:href="#DejaVuSans-48"/>
      </g>
     </g>
    </g>
    <g id="xtick_6">
     <g id="line2d_6">
      <g>
       <use style="stroke:#000000;stroke-width:0.8;" x="268.817281" xlink:href="#ma252ce3008" y="315"/>
      </g>
     </g>
     <g id="text_6">
      <!-- 650 -->
      <g transform="translate(259.273531 329.598437)scale(0.1 -0.1)">
       <use xlink:href="#DejaVuSans-54"/>
       <use x="63.623047" xlink:href="#DejaVuSans-53"/>
       <use x="127.246094" xlink:href="#DejaVuSans-48"/>
      </g>
     </g>
    </g>
    <g id="xtick_7">
     <g id="line2d_7">
      <g>
       <use style="stroke:#000000;stroke-width:0.8;" x="310.725926" xlink:href="#ma252ce3008" y="315"/>
      </g>
     </g>
     <g id="text_7">
      <!-- 700 -->
      <defs>
       <path d="M 8.203125 72.90625 
L 55.078125 72.90625 
L 55.078125 68.703125 
L 28.609375 0 
L 18.3125 0 
L 43.21875 64.59375 
L 8.203125 64.59375 
z
" id="DejaVuSans-55"/>
      </defs>
      <g transform="translate(301.182176 329.598437)scale(0.1 -0.1)">
       <use xlink:href="#DejaVuSans-55"/>
       <use x="63.623047" xlink:href="#DejaVuSans-48"/>
       <use x="127.246094" xlink:href="#DejaVuSans-48"/>
      </g>
     </g>
    </g>
    <g id="text_8">
     <!-- Wavelenght -->
     <defs>
      <path d="M 3.328125 72.90625 
L 13.28125 72.90625 
L 28.609375 11.28125 
L 43.890625 72.90625 
L 54.984375 72.90625 
L 70.3125 11.28125 
L 85.59375 72.90625 
L 95.609375 72.90625 
L 77.296875 0 
L 64.890625 0 
L 49.515625 63.28125 
L 33.984375 0 
L 21.578125 0 
z
" id="DejaVuSans-87"/>
      <path d="M 34.28125 27.484375 
Q 23.390625 27.484375 19.1875 25 
Q 14.984375 22.515625 14.984375 16.5 
Q 14.984375 11.71875 18.140625 8.90625 
Q 21.296875 6.109375 26.703125 6.109375 
Q 34.1875 6.109375 38.703125 11.40625 
Q 43.21875 16.703125 43.21875 25.484375 
L 43.21875 27.484375 
z
M 52.203125 31.203125 
L 52.203125 0 
L 43.21875 0 
L 43.21875 8.296875 
Q 40.140625 3.328125 35.546875 0.953125 
Q 30.953125 -1.421875 24.3125 -1.421875 
Q 15.921875 -1.421875 10.953125 3.296875 
Q 6 8.015625 6 15.921875 
Q 6 25.140625 12.171875 29.828125 
Q 18.359375 34.515625 30.609375 34.515625 
L 43.21875 34.515625 
L 43.21875 35.40625 
Q 43.21875 41.609375 39.140625 45 
Q 35.0625 48.390625 27.6875 48.390625 
Q 23 48.390625 18.546875 47.265625 
Q 14.109375 46.140625 10.015625 43.890625 
L 10.015625 52.203125 
Q 14.9375 54.109375 19.578125 55.046875 
Q 24.21875 56 28.609375 56 
Q 40.484375 56 46.34375 49.84375 
Q 52.203125 43.703125 52.203125 31.203125 
z
" id="DejaVuSans-97"/>
      <path d="M 2.984375 54.6875 
L 12.5 54.6875 
L 29.59375 8.796875 
L 46.6875 54.6875 
L 56.203125 54.6875 
L 35.6875 0 
L 23.484375 0 
z
" id="DejaVuSans-118"/>
      <path d="M 56.203125 29.59375 
L 56.203125 25.203125 
L 14.890625 25.203125 
Q 15.484375 15.921875 20.484375 11.0625 
Q 25.484375 6.203125 34.421875 6.203125 
Q 39.59375 6.203125 44.453125 7.46875 
Q 49.3125 8.734375 54.109375 11.28125 
L 54.109375 2.78125 
Q 49.265625 0.734375 44.1875 -0.34375 
Q 39.109375 -1.421875 33.890625 -1.421875 
Q 20.796875 -1.421875 13.15625 6.1875 
Q 5.515625 13.8125 5.515625 26.8125 
Q 5.515625 40.234375 12.765625 48.109375 
Q 20.015625 56 32.328125 56 
Q 43.359375 56 49.78125 48.890625 
Q 56.203125 41.796875 56.203125 29.59375 
z
M 47.21875 32.234375 
Q 47.125 39.59375 43.09375 43.984375 
Q 39.0625 48.390625 32.421875 48.390625 
Q 24.90625 48.390625 20.390625 44.140625 
Q 15.875 39.890625 15.1875 32.171875 
z
" id="DejaVuSans-101"/>
      <path d="M 9.421875 75.984375 
L 18.40625 75.984375 
L 18.40625 0 
L 9.421875 0 
z
" id="DejaVuSans-108"/>
      <path d="M 54.890625 33.015625 
L 54.890625 0 
L 45.90625 0 
L 45.90625 32.71875 
Q 45.90625 40.484375 42.875 44.328125 
Q 39.84375 48.1875 33.796875 48.1875 
Q 26.515625 48.1875 22.3125 43.546875 
Q 18.109375 38.921875 18.109375 30.90625 
L 18.109375 0 
L 9.078125 0 
L 9.078125 54.6875 
L 18.109375 54.6875 
L 18.109375 46.1875 
Q 21.34375 51.125 25.703125 53.5625 
Q 30.078125 56 35.796875 56 
Q 45.21875 56 50.046875 50.171875 
Q 54.890625 44.34375 54.890625 33.015625 
z
" id="DejaVuSans-110"/>
      <path d="M 45.40625 27.984375 
Q 45.40625 37.75 41.375 43.109375 
Q 37.359375 48.484375 30.078125 48.484375 
Q 22.859375 48.484375 18.828125 43.109375 
Q 14.796875 37.75 14.796875 27.984375 
Q 14.796875 18.265625 18.828125 12.890625 
Q 22.859375 7.515625 30.078125 7.515625 
Q 37.359375 7.515625 41.375 12.890625 
Q 45.40625 18.265625 45.40625 27.984375 
z
M 54.390625 6.78125 
Q 54.390625 -7.171875 48.1875 -13.984375 
Q 42 -20.796875 29.203125 -20.796875 
Q 24.46875 -20.796875 20.265625 -20.09375 
Q 16.0625 -19.390625 12.109375 -17.921875 
L 12.109375 -9.1875 
Q 16.0625 -11.328125 19.921875 -12.34375 
Q 23.78125 -13.375 27.78125 -13.375 
Q 36.625 -13.375 41.015625 -8.765625 
Q 45.40625 -4.15625 45.40625 5.171875 
L 45.40625 9.625 
Q 42.625 4.78125 38.28125 2.390625 
Q 33.9375 0 27.875 0 
Q 17.828125 0 11.671875 7.65625 
Q 5.515625 15.328125 5.515625 27.984375 
Q 5.515625 40.671875 11.671875 48.328125 
Q 17.828125 56 27.875 56 
Q 33.9375 56 38.28125 53.609375 
Q 42.625 51.21875 45.40625 46.390625 
L 45.40625 54.6875 
L 54.390625 54.6875 
z
" id="DejaVuSans-103"/>
      <path d="M 54.890625 33.015625 
L 54.890625 0 
L 45.90625 0 
L 45.90625 32.71875 
Q 45.90625 40.484375 42.875 44.328125 
Q 39.84375 48.1875 33.796875 48.1875 
Q 26.515625 48.1875 22.3125 43.546875 
Q 18.109375 38.921875 18.109375 30.90625 
L 18.109375 0 
L 9.078125 0 
L 9.078125 75.984375 
L 18.109375 75.984375 
L 18.109375 46.1875 
Q 21.34375 51.125 25.703125 53.5625 
Q 30.078125 56 35.796875 56 
Q 45.21875 56 50.046875 50.171875 
Q 54.890625 44.34375 54.890625 33.015625 
z
" id="DejaVuSans-104"/>
      <path d="M 18.3125 70.21875 
L 18.3125 54.6875 
L 36.8125 54.6875 
L 36.8125 47.703125 
L 18.3125 47.703125 
L 18.3125 18.015625 
Q 18.3125 11.328125 20.140625 9.421875 
Q 21.96875 7.515625 27.59375 7.515625 
L 36.8125 7.515625 
L 36.8125 0 
L 27.59375 0 
Q 17.1875 0 13.234375 3.875 
Q 9.28125 7.765625 9.28125 18.015625 
L 9.28125 47.703125 
L 2.6875 47.703125 
L 2.6875 54.6875 
L 9.28125 54.6875 
L 9.28125 70.21875 
z
" id="DejaVuSans-116"/>
     </defs>
     <g transform="translate(154.523438 343.276563)scale(0.1 -0.1)">
      <use xlink:href="#DejaVuSans-87"/>
      <use x="98.783203" xlink:href="#DejaVuSans-97"/>
      <use x="160.0625" xlink:href="#DejaVuSans-118"/>
      <use x="219.242188" xlink:href="#DejaVuSans-101"/>
      <use x="280.765625" xlink:href="#DejaVuSans-108"/>
      <use x="308.548828" xlink:href="#DejaVuSans-101"/>
      <use x="370.072266" xlink:href="#DejaVuSans-110"/>
      <use x="433.451172" xlink:href="#DejaVuSans-103"/>
      <use x="496.927734" xlink:href="#DejaVuSans-104"/>
      <use x="560.306641" xlink:href="#DejaVuSans-116"/>
     </g>
    </g>
   </g>
   <g id="matplotlib.axis_2">
    <g id="ytick_1">
     <g id="line2d_8">
      <defs>
       <path d="M 0 0 
L -3.5 0 
" id="mcaf39a6ca4" style="stroke:#000000;stroke-width:0.8;"/>
      </defs>
      <g>
       <use style="stroke:#000000;stroke-width:0.8;" x="45" xlink:href="#mcaf39a6ca4" y="301.637312"/>
      </g>
     </g>
     <g id="text_9">
      <!-- 0.0 -->
      <defs>
       <path d="M 10.6875 12.40625 
L 21 12.40625 
L 21 0 
L 10.6875 0 
z
" id="DejaVuSans-46"/>
      </defs>
      <g transform="translate(22.096875 305.436531)scale(0.1 -0.1)">
       <use xlink:href="#DejaVuSans-48"/>
       <use x="63.623047" xlink:href="#DejaVuSans-46"/>
       <use x="95.410156" xlink:href="#DejaVuSans-48"/>
      </g>
     </g>
    </g>
    <g id="ytick_2">
     <g id="line2d_9">
      <g>
       <use style="stroke:#000000;stroke-width:0.8;" x="45" xlink:href="#mcaf39a6ca4" y="270.947662"/>
      </g>
     </g>
     <g id="text_10">
      <!-- 0.1 -->
      <defs>
       <path d="M 12.40625 8.296875 
L 28.515625 8.296875 
L 28.515625 63.921875 
L 10.984375 60.40625 
L 10.984375 69.390625 
L 28.421875 72.90625 
L 38.28125 72.90625 
L 38.28125 8.296875 
L 54.390625 8.296875 
L 54.390625 0 
L 12.40625 0 
z
" id="DejaVuSans-49"/>
      </defs>
      <g transform="translate(22.096875 274.746881)scale(0.1 -0.1)">
       <use xlink:href="#DejaVuSans-48"/>
       <use x="63.623047" xlink:href="#DejaVuSans-46"/>
       <use x="95.410156" xlink:href="#DejaVuSans-49"/>
      </g>
     </g>
    </g>
    <g id="ytick_3">
     <g id="line2d_10">
      <g>
       <use style="stroke:#000000;stroke-width:0.8;" x="45" xlink:href="#mcaf39a6ca4" y="240.258013"/>
      </g>
     </g>
     <g id="text_11">
      <!-- 0.2 -->
      <defs>
       <path d="M 19.1875 8.296875 
L 53.609375 8.296875 
L 53.609375 0 
L 7.328125 0 
L 7.328125 8.296875 
Q 12.9375 14.109375 22.625 23.890625 
Q 32.328125 33.6875 34.8125 36.53125 
Q 39.546875 41.84375 41.421875 45.53125 
Q 43.3125 49.21875 43.3125 52.78125 
Q 43.3125 58.59375 39.234375 62.25 
Q 35.15625 65.921875 28.609375 65.921875 
Q 23.96875 65.921875 18.8125 64.3125 
Q 13.671875 62.703125 7.8125 59.421875 
L 7.8125 69.390625 
Q 13.765625 71.78125 18.9375 73 
Q 24.125 74.21875 28.421875 74.21875 
Q 39.75 74.21875 46.484375 68.546875 
Q 53.21875 62.890625 53.21875 53.421875 
Q 53.21875 48.921875 51.53125 44.890625 
Q 49.859375 40.875 45.40625 35.40625 
Q 44.1875 33.984375 37.640625 27.21875 
Q 31.109375 20.453125 19.1875 8.296875 
z
" id="DejaVuSans-50"/>
      </defs>
      <g transform="translate(22.096875 244.057232)scale(0.1 -0.1)">
       <use xlink:href="#DejaVuSans-48"/>
       <use x="63.623047" xlink:href="#DejaVuSans-46"/>
       <use x="95.410156" xlink:href="#DejaVuSans-50"/>
      </g>
     </g>
    </g>
    <g id="ytick_4">
     <g id="line2d_11">
      <g>
       <use style="stroke:#000000;stroke-width:0.8;" x="45" xlink:href="#mcaf39a6ca4" y="209.568363"/>
      </g>
     </g>
     <g id="text_12">
      <!-- 0.3 -->
      <defs>
       <path d="M 40.578125 39.3125 
Q 47.65625 37.796875 51.625 33 
Q 55.609375 28.21875 55.609375 21.1875 
Q 55.609375 10.40625 48.1875 4.484375 
Q 40.765625 -1.421875 27.09375 -1.421875 
Q 22.515625 -1.421875 17.65625 -0.515625 
Q 12.796875 0.390625 7.625 2.203125 
L 7.625 11.71875 
Q 11.71875 9.328125 16.59375 8.109375 
Q 21.484375 6.890625 26.8125 6.890625 
Q 36.078125 6.890625 40.9375 10.546875 
Q 45.796875 14.203125 45.796875 21.1875 
Q 45.796875 27.640625 41.28125 31.265625 
Q 36.765625 34.90625 28.71875 34.90625 
L 20.21875 34.90625 
L 20.21875 43.015625 
L 29.109375 43.015625 
Q 36.375 43.015625 40.234375 45.921875 
Q 44.09375 48.828125 44.09375 54.296875 
Q 44.09375 59.90625 40.109375 62.90625 
Q 36.140625 65.921875 28.71875 65.921875 
Q 24.65625 65.921875 20.015625 65.03125 
Q 15.375 64.15625 9.8125 62.3125 
L 9.8125 71.09375 
Q 15.4375 72.65625 20.34375 73.4375 
Q 25.25 74.21875 29.59375 74.21875 
Q 40.828125 74.21875 47.359375 69.109375 
Q 53.90625 64.015625 53.90625 55.328125 
Q 53.90625 49.265625 50.4375 45.09375 
Q 46.96875 40.921875 40.578125 39.3125 
z
" id="DejaVuSans-51"/>
      </defs>
      <g transform="translate(22.096875 213.367582)scale(0.1 -0.1)">
       <use xlink:href="#DejaVuSans-48"/>
       <use x="63.623047" xlink:href="#DejaVuSans-46"/>
       <use x="95.410156" xlink:href="#DejaVuSans-51"/>
      </g>
     </g>
    </g>
    <g id="ytick_5">
     <g id="line2d_12">
      <g>
       <use style="stroke:#000000;stroke-width:0.8;" x="45" xlink:href="#mcaf39a6ca4" y="178.878714"/>
      </g>
     </g>
     <g id="text_13">
      <!-- 0.4 -->
      <g transform="translate(22.096875 182.677932)scale(0.1 -0.1)">
       <use xlink:href="#DejaVuSans-48"/>
       <use x="63.623047" xlink:href="#DejaVuSans-46"/>
       <use x="95.410156" xlink:href="#DejaVuSans-52"/>
      </g>
     </g>
    </g>
    <g id="ytick_6">
     <g id="line2d_13">
      <g>
       <use style="stroke:#000000;stroke-width:0.8;" x="45" xlink:href="#mcaf39a6ca4" y="148.189064"/>
      </g>
     </g>
     <g id="text_14">
      <!-- 0.5 -->
      <g transform="translate(22.096875 151.988283)scale(0.1 -0.1)">
       <use xlink:href="#DejaVuSans-48"/>
       <use x="63.623047" xlink:href="#DejaVuSans-46"/>
       <use x="95.410156" xlink:href="#DejaVuSans-53"/>
      </g>
     </g>
    </g>
    <g id="ytick_7">
     <g id="line2d_14">
      <g>
       <use style="stroke:#000000;stroke-width:0.8;" x="45" xlink:href="#mcaf39a6ca4" y="117.499414"/>
      </g>
     </g>
     <g id="text_15">
      <!-- 0.6 -->
      <g transform="translate(22.096875 121.298633)scale(0.1 -0.1)">
       <use xlink:href="#DejaVuSans-48"/>
       <use x="63.623047" xlink:href="#DejaVuSans-46"/>
       <use x="95.410156" xlink:href="#DejaVuSans-54"/>
      </g>
     </g>
    </g>
    <g id="ytick_8">
     <g id="line2d_15">
      <g>
       <use style="stroke:#000000;stroke-width:0.8;" x="45" xlink:href="#mcaf39a6ca4" y="86.809765"/>
      </g>
     </g>
     <g id="text_16">
      <!-- 0.7 -->
      <g transform="translate(22.096875 90.608984)scale(0.1 -0.1)">
       <use xlink:href="#DejaVuSans-48"/>
       <use x="63.623047" xlink:href="#DejaVuSans-46"/>
       <use x="95.410156" xlink:href="#DejaVuSans-55"/>
      </g>
     </g>
    </g>
    <g id="ytick_9">
     <g id="line2d_16">
      <g>
       <use style="stroke:#000000;stroke-width:0.8;" x="45" xlink:href="#mcaf39a6ca4" y="56.120115"/>
      </g>
     </g>
     <g id="text_17">
      <!-- 0.8 -->
      <defs>
       <path d="M 31.78125 34.625 
Q 24.75 34.625 20.71875 30.859375 
Q 16.703125 27.09375 16.703125 20.515625 
Q 16.703125 13.921875 20.71875 10.15625 
Q 24.75 6.390625 31.78125 6.390625 
Q 38.8125 6.390625 42.859375 10.171875 
Q 46.921875 13.96875 46.921875 20.515625 
Q 46.921875 27.09375 42.890625 30.859375 
Q 38.875 34.625 31.78125 34.625 
z
M 21.921875 38.8125 
Q 15.578125 40.375 12.03125 44.71875 
Q 8.5 49.078125 8.5 55.328125 
Q 8.5 64.0625 14.71875 69.140625 
Q 20.953125 74.21875 31.78125 74.21875 
Q 42.671875 74.21875 48.875 69.140625 
Q 55.078125 64.0625 55.078125 55.328125 
Q 55.078125 49.078125 51.53125 44.71875 
Q 48 40.375 41.703125 38.8125 
Q 48.828125 37.15625 52.796875 32.3125 
Q 56.78125 27.484375 56.78125 20.515625 
Q 56.78125 9.90625 50.3125 4.234375 
Q 43.84375 -1.421875 31.78125 -1.421875 
Q 19.734375 -1.421875 13.25 4.234375 
Q 6.78125 9.90625 6.78125 20.515625 
Q 6.78125 27.484375 10.78125 32.3125 
Q 14.796875 37.15625 21.921875 38.8125 
z
M 18.3125 54.390625 
Q 18.3125 48.734375 21.84375 45.5625 
Q 25.390625 42.390625 31.78125 42.390625 
Q 38.140625 42.390625 41.71875 45.5625 
Q 45.3125 48.734375 45.3125 54.390625 
Q 45.3125 60.0625 41.71875 63.234375 
Q 38.140625 66.40625 31.78125 66.40625 
Q 25.390625 66.40625 21.84375 63.234375 
Q 18.3125 60.0625 18.3125 54.390625 
z
" id="DejaVuSans-56"/>
      </defs>
      <g transform="translate(22.096875 59.919334)scale(0.1 -0.1)">
       <use xlink:href="#DejaVuSans-48"/>
       <use x="63.623047" xlink:href="#DejaVuSans-46"/>
       <use x="95.410156" xlink:href="#DejaVuSans-56"/>
      </g>
     </g>
    </g>
    <g id="text_18">
     <!-- Intensity (a.u.) -->
     <defs>
      <path d="M 9.8125 72.90625 
L 19.671875 72.90625 
L 19.671875 0 
L 9.8125 0 
z
" id="DejaVuSans-73"/>
      <path d="M 44.28125 53.078125 
L 44.28125 44.578125 
Q 40.484375 46.53125 36.375 47.5 
Q 32.28125 48.484375 27.875 48.484375 
Q 21.1875 48.484375 17.84375 46.4375 
Q 14.5 44.390625 14.5 40.28125 
Q 14.5 37.15625 16.890625 35.375 
Q 19.28125 33.59375 26.515625 31.984375 
L 29.59375 31.296875 
Q 39.15625 29.25 43.1875 25.515625 
Q 47.21875 21.78125 47.21875 15.09375 
Q 47.21875 7.46875 41.1875 3.015625 
Q 35.15625 -1.421875 24.609375 -1.421875 
Q 20.21875 -1.421875 15.453125 -0.5625 
Q 10.6875 0.296875 5.421875 2 
L 5.421875 11.28125 
Q 10.40625 8.6875 15.234375 7.390625 
Q 20.0625 6.109375 24.8125 6.109375 
Q 31.15625 6.109375 34.5625 8.28125 
Q 37.984375 10.453125 37.984375 14.40625 
Q 37.984375 18.0625 35.515625 20.015625 
Q 33.0625 21.96875 24.703125 23.78125 
L 21.578125 24.515625 
Q 13.234375 26.265625 9.515625 29.90625 
Q 5.8125 33.546875 5.8125 39.890625 
Q 5.8125 47.609375 11.28125 51.796875 
Q 16.75 56 26.8125 56 
Q 31.78125 56 36.171875 55.265625 
Q 40.578125 54.546875 44.28125 53.078125 
z
" id="DejaVuSans-115"/>
      <path d="M 9.421875 54.6875 
L 18.40625 54.6875 
L 18.40625 0 
L 9.421875 0 
z
M 9.421875 75.984375 
L 18.40625 75.984375 
L 18.40625 64.59375 
L 9.421875 64.59375 
z
" id="DejaVuSans-105"/>
      <path d="M 32.171875 -5.078125 
Q 28.375 -14.84375 24.75 -17.8125 
Q 21.140625 -20.796875 15.09375 -20.796875 
L 7.90625 -20.796875 
L 7.90625 -13.28125 
L 13.1875 -13.28125 
Q 16.890625 -13.28125 18.9375 -11.515625 
Q 21 -9.765625 23.484375 -3.21875 
L 25.09375 0.875 
L 2.984375 54.6875 
L 12.5 54.6875 
L 29.59375 11.921875 
L 46.6875 54.6875 
L 56.203125 54.6875 
z
" id="DejaVuSans-121"/>
      <path id="DejaVuSans-32"/>
      <path d="M 31 75.875 
Q 24.46875 64.65625 21.28125 53.65625 
Q 18.109375 42.671875 18.109375 31.390625 
Q 18.109375 20.125 21.3125 9.0625 
Q 24.515625 -2 31 -13.1875 
L 23.1875 -13.1875 
Q 15.875 -1.703125 12.234375 9.375 
Q 8.59375 20.453125 8.59375 31.390625 
Q 8.59375 42.28125 12.203125 53.3125 
Q 15.828125 64.359375 23.1875 75.875 
z
" id="DejaVuSans-40"/>
      <path d="M 8.5 21.578125 
L 8.5 54.6875 
L 17.484375 54.6875 
L 17.484375 21.921875 
Q 17.484375 14.15625 20.5 10.265625 
Q 23.53125 6.390625 29.59375 6.390625 
Q 36.859375 6.390625 41.078125 11.03125 
Q 45.3125 15.671875 45.3125 23.6875 
L 45.3125 54.6875 
L 54.296875 54.6875 
L 54.296875 0 
L 45.3125 0 
L 45.3125 8.40625 
Q 42.046875 3.421875 37.71875 1 
Q 33.40625 -1.421875 27.6875 -1.421875 
Q 18.265625 -1.421875 13.375 4.4375 
Q 8.5 10.296875 8.5 21.578125 
z
M 31.109375 56 
z
" id="DejaVuSans-117"/>
      <path d="M 8.015625 75.875 
L 15.828125 75.875 
Q 23.140625 64.359375 26.78125 53.3125 
Q 30.421875 42.28125 30.421875 31.390625 
Q 30.421875 20.453125 26.78125 9.375 
Q 23.140625 -1.703125 15.828125 -13.1875 
L 8.015625 -13.1875 
Q 14.5 -2 17.703125 9.0625 
Q 20.90625 20.125 20.90625 31.390625 
Q 20.90625 42.671875 17.703125 53.65625 
Q 14.5 64.65625 8.015625 75.875 
z
" id="DejaVuSans-41"/>
     </defs>
     <g transform="translate(16.017187 215.764062)rotate(-90)scale(0.1 -0.1)">
      <use xlink:href="#DejaVuSans-73"/>
      <use x="29.492188" xlink:href="#DejaVuSans-110"/>
      <use x="92.871094" xlink:href="#DejaVuSans-116"/>
      <use x="132.080078" xlink:href="#DejaVuSans-101"/>
      <use x="193.603516" xlink:href="#DejaVuSans-110"/>
      <use x="256.982422" xlink:href="#DejaVuSans-115"/>
      <use x="309.082031" xlink:href="#DejaVuSans-105"/>
      <use x="336.865234" xlink:href="#DejaVuSans-116"/>
      <use x="376.074219" xlink:href="#DejaVuSans-121"/>
      <use x="435.253906" xlink:href="#DejaVuSans-32"/>
      <use x="467.041016" xlink:href="#DejaVuSans-40"/>
      <use x="506.054688" xlink:href="#DejaVuSans-97"/>
      <use x="567.333984" xlink:href="#DejaVuSans-46"/>
      <use x="599.121094" xlink:href="#DejaVuSans-117"/>
      <use x="662.5" xlink:href="#DejaVuSans-46"/>
      <use x="694.287109" xlink:href="#DejaVuSans-41"/>
     </g>
    </g>
   </g>
   <g id="line2d_17">
    <path clip-path="url(#p5f14a6b356)" d="M 57.681818 301.565203 
L 57.869159 301.262072 
L 57.962829 301.592761 
L 58.243891 301.267583 
L 58.337587 301.355767 
L 58.525005 301.118773 
L 58.6187 301.273095 
L 58.806143 301.851801 
L 58.993612 302.116352 
L 59.087333 301.592761 
L 59.274828 301.934473 
L 59.368575 301.521112 
L 59.462322 301.598272 
L 59.556094 301.499066 
L 59.649841 301.780151 
L 59.743614 301.526623 
L 59.837387 300.898314 
L 60.024957 301.669922 
L 60.212554 301.427416 
L 60.40015 301.482531 
L 60.493949 301.201445 
L 60.77542 302.165955 
L 60.869244 301.686456 
L 60.963068 301.835266 
L 61.056917 301.36679 
L 61.150741 302.22107 
L 61.24459 301.752594 
L 61.338465 301.973053 
L 61.432314 301.151842 
L 61.526164 301.493554 
L 61.620039 300.892802 
L 61.807789 301.647876 
L 61.995564 300.909337 
L 62.089439 301.702991 
L 62.18334 301.581738 
L 62.27724 301.658899 
L 62.371141 301.063658 
L 62.558967 301.829755 
L 62.840746 301.984076 
L 62.934672 301.697479 
L 63.028624 302.011634 
L 63.12255 301.284118 
L 63.216501 301.802197 
L 63.404405 300.799107 
L 63.498382 301.780151 
L 63.592359 301.471508 
L 63.686311 301.543157 
L 63.780288 301.240026 
L 63.874265 301.741571 
L 64.062246 301.350256 
L 64.156248 302.044703 
L 64.250251 301.81322 
L 64.438257 302.430507 
L 64.626314 301.631341 
L 64.720317 302.210047 
L 64.814345 301.686456 
L 64.908399 302.099818 
L 65.002428 301.344744 
L 65.096482 301.846289 
L 65.19051 301.21798 
L 65.284564 301.5156 
L 65.378618 301.229003 
L 65.472698 301.537646 
L 65.566752 300.975475 
L 65.754911 301.890381 
L 65.84899 302.083283 
L 65.94307 301.647876 
L 66.037175 302.298231 
L 66.131255 301.063658 
L 66.22536 302.044703 
L 66.41357 301.361278 
L 66.601806 301.989588 
L 66.790068 301.460485 
L 66.978329 301.482531 
L 67.07246 301.096727 
L 67.166616 301.675433 
L 67.260772 301.614807 
L 67.354929 301.25656 
L 67.543241 301.66441 
L 67.637423 301.416393 
L 67.731605 302.408461 
L 67.825787 301.598272 
L 67.919969 301.917938 
L 68.014151 301.697479 
L 68.108358 302.061237 
L 68.20254 301.576226 
L 68.296748 301.895893 
L 68.390955 301.388836 
L 68.485163 301.824243 
L 68.767836 301.080193 
L 68.862069 301.769128 
L 68.956302 301.284118 
L 69.050536 301.543157 
L 69.144794 301.306164 
L 69.239027 301.702991 
L 69.333286 301.454974 
L 69.427545 302.099818 
L 69.521803 301.708502 
L 69.616087 301.81322 
L 69.710346 302.358857 
L 69.80463 302.193513 
L 69.898914 301.570715 
L 70.087483 301.917938 
L 70.181793 301.454974 
L 70.276077 301.691968 
L 70.559006 301.300652 
L 70.653342 301.669922 
L 70.747651 301.118773 
L 70.841987 301.339233 
L 70.936322 301.10775 
L 71.219354 302.276185 
L 71.313689 301.361278 
L 71.596772 302.099818 
L 71.78552 301.40537 
L 71.879906 301.873847 
L 72.163066 301.179399 
L 72.257478 301.686456 
L 72.540689 300.793595 
L 72.729513 301.427416 
L 72.823951 301.206957 
L 73.0128 302.154932 
L 73.107238 301.758105 
L 73.201701 301.691968 
L 73.296139 301.785663 
L 73.390602 301.691968 
L 73.48504 300.953429 
L 73.579503 301.587249 
L 73.768455 301.454974 
L 73.862919 301.824243 
L 74.051871 301.543157 
L 74.14636 301.598272 
L 74.240874 301.206957 
L 74.335363 301.372301 
L 74.429852 300.55109 
L 74.524366 301.835266 
L 74.618881 301.454974 
L 74.713395 301.488043 
L 74.807909 301.521112 
L 74.902449 302.121863 
L 74.996964 301.460485 
L 75.186044 302.011634 
L 75.280584 301.989588 
L 75.753361 301.339233 
L 75.942517 301.642364 
L 76.037083 301.421905 
L 76.226265 301.669922 
L 76.510039 301.162865 
L 76.793889 302.022657 
L 76.888506 301.499066 
L 76.983123 302.11084 
L 77.172382 301.306164 
L 77.456309 301.510089 
L 77.645619 301.311675 
L 77.740261 300.799107 
L 77.834929 301.058147 
L 77.929597 301.758105 
L 78.118958 301.32821 
L 78.213626 301.510089 
L 78.30832 302.276185 
L 78.497707 301.984076 
L 78.5924 301.978565 
L 78.781813 301.168376 
L 78.876532 301.680945 
L 78.971251 301.25656 
L 79.160689 301.603784 
L 79.255434 301.62583 
L 79.350153 301.063658 
L 79.444897 301.372301 
L 79.539642 301.273095 
L 79.634387 301.725037 
L 79.729131 301.521112 
L 79.823901 301.934473 
L 80.108187 301.344744 
L 80.202957 301.758105 
L 80.297753 301.526623 
L 80.392523 302.083283 
L 80.487319 300.980986 
L 80.582114 301.614807 
L 80.67691 301.504577 
L 80.771706 301.62583 
L 80.866502 301.306164 
L 80.961323 301.851801 
L 81.15094 301.229003 
L 81.43543 301.526623 
L 81.530277 302.077772 
L 81.625098 301.273095 
L 81.814792 302.022657 
L 82.004512 301.636853 
L 82.099384 301.66441 
L 82.194231 301.543157 
L 82.289104 301.636853 
L 82.383976 301.32821 
L 82.478874 301.592761 
L 82.763518 301.113262 
L 82.858416 301.736059 
L 82.953339 301.548669 
L 83.048238 301.708502 
L 83.238059 301.532135 
L 83.332983 300.95894 
L 83.427907 302.088795 
L 83.52283 301.96203 
L 83.712703 301.399859 
L 83.807627 301.5156 
L 83.902576 301.526623 
L 83.997526 302.077772 
L 84.282399 301.229003 
L 84.377374 301.669922 
L 84.472323 300.909337 
L 84.567298 301.603784 
L 84.662298 301.135308 
L 84.757273 301.669922 
L 84.852248 301.609295 
L 84.947249 301.273095 
L 85.042249 301.377813 
L 85.23225 301.978565 
L 85.32725 301.686456 
L 85.422276 302.171467 
L 85.517277 301.460485 
L 85.612303 301.504577 
L 85.707329 301.399859 
L 85.802355 302.132886 
L 85.897406 301.350256 
L 85.992432 301.5156 
L 86.277587 300.732969 
L 86.46769 301.465997 
L 86.562767 301.151842 
L 86.752896 301.807709 
L 86.847973 301.322698 
L 86.943051 301.901404 
L 87.038153 301.267583 
L 87.13323 302.165955 
L 87.228333 301.835266 
L 87.323436 301.912427 
L 87.608744 301.421905 
L 87.703872 301.581738 
L 87.894104 301.184911 
L 88.08436 301.526623 
L 88.274642 301.416393 
L 88.369796 301.636853 
L 88.46495 301.581738 
L 88.560104 301.785663 
L 88.655258 301.691968 
L 88.750412 301.295141 
L 88.845591 301.978565 
L 89.035925 301.344744 
L 89.226284 301.719525 
L 89.416668 301.091216 
L 89.511873 301.267583 
L 89.607053 301.77464 
L 89.702258 301.620318 
L 89.797463 301.019566 
L 89.892694 301.901404 
L 89.987899 301.647876 
L 90.178334 302.358857 
L 90.273565 301.769128 
L 90.368796 302.281697 
L 90.559283 301.691968 
L 90.749795 301.824243 
L 90.940282 301.036101 
L 91.13082 301.432928 
L 91.321358 301.201445 
L 91.41664 301.295141 
L 91.511922 301.956519 
L 91.607229 300.975475 
L 91.702511 301.570715 
L 91.797792 301.289629 
L 91.8931 301.780151 
L 91.988407 301.333721 
L 92.083715 302.11084 
L 92.179022 301.609295 
L 92.274355 302.011634 
L 92.369662 301.714014 
L 92.560328 302.050214 
L 92.846327 301.289629 
L 92.941686 301.383324 
L 93.132377 301.785663 
L 93.323094 300.947917 
L 93.609195 301.702991 
L 93.70458 301.350256 
L 93.799964 301.658899 
L 93.895348 301.499066 
L 93.990732 301.725037 
L 94.086142 301.361278 
L 94.181526 302.276185 
L 94.276935 301.559692 
L 94.372345 302.176978 
L 94.563164 301.504577 
L 94.658574 301.769128 
L 94.849445 301.36679 
L 95.04029 301.559692 
L 95.231186 301.146331 
L 95.326621 301.570715 
L 95.422082 301.432928 
L 95.613004 302.006122 
L 95.708465 301.857312 
L 95.803925 301.686456 
L 95.899412 302.105329 
L 96.090359 301.493554 
L 96.281332 301.934473 
L 96.376818 301.421905 
L 96.472305 301.642364 
L 96.663329 301.532135 
L 96.758841 301.460485 
L 96.854353 301.669922 
L 96.949865 300.986498 
L 97.236426 302.088795 
L 97.331964 301.559692 
L 97.523039 301.973053 
L 97.618577 302.171467 
L 97.71414 301.438439 
L 98.000804 302.3313 
L 98.096367 301.047124 
L 98.19193 301.548669 
L 98.287493 301.10775 
L 98.383082 301.862824 
L 98.478671 300.606205 
L 98.57426 300.6999 
L 98.765437 301.603784 
L 98.861026 301.802197 
L 99.052229 301.510089 
L 99.147843 301.714014 
L 99.243458 301.295141 
L 99.339072 302.07226 
L 99.434686 301.592761 
L 99.530301 302.000611 
L 99.625941 301.399859 
L 99.72158 301.714014 
L 99.817195 300.99752 
L 99.912835 301.81322 
L 100.0085 301.609295 
L 100.10414 302.039191 
L 100.19978 301.609295 
L 100.295445 301.906916 
L 100.391111 301.201445 
L 100.486776 301.587249 
L 100.582442 301.333721 
L 100.678107 301.769128 
L 100.773798 301.603784 
L 100.869464 301.956519 
L 100.965155 301.714014 
L 101.060846 301.901404 
L 101.156537 301.146331 
L 101.347919 301.934473 
L 101.443636 301.66441 
L 101.635044 301.934473 
L 101.826477 300.953429 
L 101.922193 301.587249 
L 102.113652 301.229003 
L 102.209395 301.36679 
L 102.305137 300.804618 
L 102.400879 301.333721 
L 102.496621 301.063658 
L 102.975409 302.210047 
L 103.166945 301.807709 
L 103.358506 302.083283 
L 103.454299 301.631341 
L 103.550093 301.736059 
L 103.645886 301.537646 
L 103.741679 301.917938 
L 103.837473 301.21798 
L 103.933292 301.702991 
L 104.124904 301.223491 
L 104.220723 301.289629 
L 104.316542 301.096727 
L 104.412361 301.818732 
L 104.508205 301.454974 
L 104.604024 301.510089 
L 104.699869 301.989588 
L 104.795713 301.818732 
L 104.891532 301.361278 
L 104.987403 301.609295 
L 105.083247 301.427416 
L 105.179092 301.603784 
L 105.466676 301.40537 
L 105.562547 300.705412 
L 105.658442 301.647876 
L 105.754312 301.229003 
L 105.850182 301.388836 
L 105.946078 300.99752 
L 106.041974 301.504577 
L 106.13787 301.251049 
L 106.521478 302.138398 
L 106.713295 301.653387 
L 106.905137 301.978565 
L 107.001059 301.438439 
L 107.192927 301.796686 
L 107.288874 301.769128 
L 107.480767 301.184911 
L 107.672661 301.339233 
L 107.86458 300.964452 
L 107.960553 301.736059 
L 108.056525 301.372301 
L 108.24847 302.028168 
L 108.344468 301.984076 
L 108.440441 302.237605 
L 108.632411 301.840778 
L 108.728409 302.011634 
L 108.920431 301.32821 
L 109.112452 301.780151 
L 109.304474 301.383324 
L 109.400497 301.361278 
L 109.496521 301.807709 
L 109.592545 301.317187 
L 109.688594 301.802197 
L 109.784617 301.653387 
L 109.880666 302.171467 
L 109.976716 301.361278 
L 110.072765 301.890381 
L 110.168814 301.81322 
L 110.264863 302.050214 
L 110.360938 301.350256 
L 110.553062 301.714014 
L 110.745211 301.680945 
L 110.841286 301.333721 
L 110.937361 301.669922 
L 111.033436 301.267583 
L 111.129536 301.339233 
L 111.321737 301.416393 
L 111.417837 301.289629 
L 111.513937 301.669922 
L 111.802264 301.438439 
L 111.89839 302.259651 
L 111.994516 301.339233 
L 112.090641 301.873847 
L 112.186767 301.835266 
L 112.379045 301.195934 
L 112.475171 301.973053 
L 112.667474 301.173888 
L 112.763625 301.344744 
L 112.955954 301.306164 
L 113.148282 301.576226 
L 113.436788 301.978565 
L 113.53299 301.719525 
L 113.629168 302.088795 
L 113.725345 301.603784 
L 113.91775 301.88487 
L 114.206358 301.32821 
L 114.302561 301.229003 
L 114.59122 301.526623 
L 114.783676 301.300652 
L 114.976158 302.204536 
L 115.072386 301.973053 
L 115.16864 302.419484 
L 115.264868 301.714014 
L 115.361122 302.176978 
L 115.55363 301.471508 
L 115.649909 301.791174 
L 115.746163 301.460485 
L 115.842442 301.956519 
L 115.938722 300.986498 
L 116.323839 301.697479 
L 116.420119 301.06917 
L 116.516424 301.140819 
L 116.709033 301.658899 
L 116.805338 301.532135 
L 117.094279 301.77464 
L 117.190584 302.176978 
L 117.286914 302.088795 
L 117.383245 301.162865 
L 117.479575 302.226582 
L 117.768567 301.036101 
L 117.864923 301.680945 
L 118.153991 300.99752 
L 118.250348 301.747082 
L 118.346704 301.091216 
L 118.44306 301.581738 
L 118.539442 301.32821 
L 118.732179 301.912427 
L 118.828561 301.714014 
L 118.924943 301.780151 
L 119.117732 301.289629 
L 119.406928 301.989588 
L 119.503335 301.333721 
L 119.599743 301.482531 
L 119.69615 301.388836 
L 119.792557 301.653387 
L 119.88899 300.865245 
L 120.08183 301.736059 
L 120.178263 301.394347 
L 120.371129 302.36988 
L 120.467561 301.372301 
L 120.660453 301.758105 
L 120.756911 301.802197 
L 120.85337 301.493554 
L 120.949828 302.11084 
L 121.046286 301.5156 
L 121.239229 301.973053 
L 121.432171 300.843199 
L 121.625139 301.537646 
L 121.721623 301.851801 
L 121.818107 301.278606 
L 122.011101 301.719525 
L 122.107585 301.548669 
L 122.204095 301.879358 
L 122.300604 301.697479 
L 122.397114 301.88487 
L 122.686668 301.504577 
L 122.783203 301.570715 
L 122.879713 301.92345 
L 123.169318 301.306164 
L 123.265854 301.559692 
L 123.362414 301.322698 
L 123.45895 301.510089 
L 123.55551 301.184911 
L 123.748632 301.763617 
L 123.941753 301.587249 
L 124.038314 301.824243 
L 124.1349 301.190422 
L 124.231461 302.000611 
L 124.424634 301.427416 
L 124.52122 301.714014 
L 124.617806 301.311675 
L 124.811005 301.824243 
L 124.907591 302.061237 
L 125.197427 300.6999 
L 125.390651 301.879358 
L 125.487262 301.454974 
L 125.680512 301.835266 
L 125.777149 301.62583 
L 125.873787 302.237605 
L 126.067062 301.162865 
L 126.163699 301.906916 
L 126.260337 301.565203 
L 126.357 301.747082 
L 126.453663 301.427416 
L 126.5503 301.465997 
L 126.646963 301.388836 
L 126.743627 301.548669 
L 126.840315 301.151842 
L 126.936978 301.526623 
L 127.033641 301.306164 
L 127.227019 301.901404 
L 127.323682 301.81322 
L 127.42037 301.879358 
L 127.517084 302.210047 
L 127.613773 301.714014 
L 127.710462 302.083283 
L 127.807176 301.454974 
L 127.903865 302.061237 
L 128.097293 301.532135 
L 128.194007 301.642364 
L 128.290722 301.262072 
L 128.387436 301.708502 
L 128.58089 300.821153 
L 128.871109 302.342323 
L 128.967849 301.234514 
L 129.064589 302.083283 
L 129.161329 301.454974 
L 129.258094 301.978565 
L 129.451599 301.454974 
L 129.548365 301.603784 
L 129.64513 301.47702 
L 129.741895 301.752594 
L 129.838661 301.614807 
L 129.935452 301.278606 
L 130.032217 301.454974 
L 130.225773 301.063658 
L 130.419355 301.493554 
L 130.612963 301.416393 
L 130.709754 301.432928 
L 130.80657 301.719525 
L 130.903361 301.47702 
L 131.000178 302.199024 
L 131.096994 301.614807 
L 131.193811 301.714014 
L 131.290627 301.311675 
L 131.38747 301.680945 
L 131.581128 301.262072 
L 131.677945 301.978565 
L 131.774787 301.322698 
L 131.871629 301.708502 
L 132.355891 301.052635 
L 132.549601 301.747082 
L 132.646468 301.62583 
L 132.840204 301.680945 
L 132.937097 302.121863 
L 133.033965 301.88487 
L 133.130858 302.088795 
L 133.324619 301.620318 
L 133.518405 301.592761 
L 133.615299 301.273095 
L 133.712218 301.510089 
L 133.809111 300.931383 
L 133.90603 301.383324 
L 134.002949 300.644785 
L 134.196761 301.603784 
L 134.390624 302.055726 
L 134.487543 301.829755 
L 134.584487 302.193513 
L 134.681406 301.62583 
L 134.778351 301.890381 
L 134.875295 301.460485 
L 134.972239 301.802197 
L 135.069184 301.614807 
L 135.166128 301.680945 
L 135.263073 301.449462 
L 135.360043 301.752594 
L 135.456987 300.755015 
L 135.553957 301.399859 
L 135.650927 301.273095 
L 135.747897 301.421905 
L 135.844867 301.184911 
L 135.941837 301.708502 
L 136.038833 301.085704 
L 136.135803 301.851801 
L 136.232798 301.5156 
L 136.426764 302.18249 
L 136.620755 301.488043 
L 136.717776 302.050214 
L 136.814772 301.47702 
L 136.911768 301.81322 
L 137.202831 300.969963 
L 137.299827 301.780151 
L 137.396873 301.499066 
L 137.493895 301.576226 
L 137.687963 301.284118 
L 137.88203 302.050214 
L 138.076124 301.702991 
L 138.270217 302.017145 
L 138.367264 301.758105 
L 138.464337 302.07226 
L 138.561383 301.449462 
L 138.658456 301.780151 
L 138.755528 301.195934 
L 138.852575 301.747082 
L 138.949647 301.543157 
L 139.046745 301.752594 
L 139.24089 301.190422 
L 139.337988 301.488043 
L 139.43506 301.416393 
L 139.532158 301.162865 
L 139.629256 301.212468 
L 139.920575 302.171467 
L 140.114771 301.725037 
L 140.309018 302.171467 
L 140.503265 301.548669 
L 140.600388 301.802197 
L 140.794635 301.454974 
L 140.891784 301.691968 
L 140.988908 301.262072 
L 141.086057 301.714014 
L 141.280355 300.81013 
L 141.377504 301.956519 
L 141.474653 301.36679 
L 141.668977 302.088795 
L 141.766126 302.022657 
L 141.863301 301.66441 
L 141.96045 302.226582 
L 142.349174 301.21798 
L 142.446348 301.526623 
L 142.737923 301.284118 
L 142.835124 301.736059 
L 143.029524 301.234514 
L 143.223925 301.361278 
L 143.32115 301.846289 
L 143.418351 301.658899 
L 143.515576 302.342323 
L 143.90448 301.40537 
L 144.001705 301.725037 
L 144.196183 300.969963 
L 144.293408 301.862824 
L 144.39066 301.350256 
L 144.487911 301.526623 
L 144.682414 301.135308 
L 144.779665 301.32821 
L 144.876942 302.000611 
L 144.974194 301.581738 
L 145.168722 301.973053 
L 145.363276 301.714014 
L 145.460553 302.022657 
L 145.55783 301.598272 
L 145.655107 301.802197 
L 145.752409 301.416393 
L 145.849686 301.956519 
L 145.946989 301.25656 
L 146.044266 301.587249 
L 146.141568 301.40537 
L 146.238871 301.510089 
L 146.336174 301.284118 
L 146.433476 301.576226 
L 146.628107 301.10775 
L 146.822737 301.55418 
L 146.920065 301.195934 
L 147.114722 301.603784 
L 147.21205 301.719525 
L 147.50406 301.361278 
L 147.601388 301.917938 
L 147.698742 301.267583 
L 147.796095 301.730548 
L 147.893423 301.212468 
L 147.990777 301.510089 
L 148.088156 301.388836 
L 148.18551 300.936894 
L 148.282864 300.992009 
L 148.574976 301.443951 
L 148.672355 301.388836 
L 148.769709 302.165955 
L 148.867088 301.835266 
L 148.964493 301.906916 
L 149.061872 301.399859 
L 149.159252 302.132886 
L 149.256657 301.769128 
L 149.354036 301.851801 
L 149.451441 301.454974 
L 149.548846 301.92345 
L 149.743655 301.40537 
L 149.84106 301.587249 
L 149.938465 301.355767 
L 150.035895 301.432928 
L 150.1333 301.074681 
L 150.328136 301.680945 
L 150.425566 301.284118 
L 150.912744 302.121863 
L 151.010174 301.741571 
L 151.10763 302.11084 
L 151.205086 301.532135 
L 151.302542 301.691968 
L 151.497454 301.438439 
L 151.789822 301.350256 
L 151.887304 301.311675 
L 151.98476 301.135308 
L 152.179723 301.410882 
L 152.277205 301.879358 
L 152.374686 301.532135 
L 152.569649 301.846289 
L 152.667157 302.061237 
L 152.764638 301.763617 
L 152.862145 301.96203 
L 152.959653 301.77464 
L 153.057134 301.267583 
L 153.154641 301.537646 
L 153.252149 301.493554 
L 153.349656 301.041612 
L 153.447163 301.548669 
L 153.739736 300.914848 
L 153.837243 301.074681 
L 153.934801 301.140819 
L 154.032308 302.105329 
L 154.129867 301.394347 
L 154.42249 301.978565 
L 154.715114 301.383324 
L 154.910231 301.939984 
L 155.105348 301.620318 
L 155.202906 301.978565 
L 155.300464 301.559692 
L 155.398023 301.642364 
L 155.495632 301.179399 
L 155.59319 301.47702 
L 155.690749 301.234514 
L 155.885916 301.471508 
L 155.983526 301.377813 
L 156.178694 301.697479 
L 156.276303 301.361278 
L 156.373862 302.022657 
L 156.471471 301.499066 
L 156.569081 301.537646 
L 156.66669 301.752594 
L 156.7643 301.598272 
L 156.959519 301.857312 
L 157.057128 301.311675 
L 157.154738 301.383324 
L 157.252398 301.229003 
L 157.350008 301.361278 
L 157.447617 301.245537 
L 157.545278 301.691968 
L 157.642887 301.317187 
L 157.740497 302.028168 
L 157.838157 301.747082 
L 157.935818 301.956519 
L 158.033428 301.680945 
L 158.228749 301.912427 
L 158.32641 301.835266 
L 158.424019 301.421905 
L 158.61934 301.658899 
L 158.717001 301.581738 
L 158.814662 301.223491 
L 159.010034 301.565203 
L 159.205355 300.622739 
L 159.303067 301.769128 
L 159.400728 301.372301 
L 159.498388 301.829755 
L 159.693761 301.62583 
L 159.791473 302.320277 
L 159.889184 301.66441 
L 159.986845 301.780151 
L 160.084557 301.598272 
L 160.182269 301.714014 
L 160.279981 301.394347 
L 160.377692 301.647876 
L 160.475404 301.388836 
L 160.670828 301.62583 
L 160.76854 301.532135 
L 160.866251 301.080193 
L 160.963963 301.245537 
L 161.061675 301.697479 
L 161.159438 301.658899 
L 161.25715 301.862824 
L 161.354913 301.273095 
L 161.550387 301.780151 
L 161.648099 301.714014 
L 161.745862 302.077772 
L 161.941337 301.537646 
L 162.0391 302.066749 
L 162.136863 302.017145 
L 162.430152 301.570715 
L 162.527915 301.62583 
L 162.625678 301.543157 
L 162.821204 300.99752 
L 162.918967 302.143909 
L 163.016781 301.460485 
L 163.212307 301.802197 
L 163.310121 301.714014 
L 163.407884 301.416393 
L 163.603461 302.055726 
L 163.701275 301.581738 
L 163.799089 302.121863 
L 163.994666 301.124285 
L 164.288109 301.691968 
L 164.385923 301.212468 
L 164.483737 301.471508 
L 164.581551 300.716435 
L 164.679365 301.879358 
L 164.777179 301.096727 
L 165.070673 302.645455 
L 165.168538 301.488043 
L 165.266352 302.176978 
L 165.462031 301.807709 
L 165.559897 301.890381 
L 165.657711 301.736059 
L 165.755576 301.262072 
L 165.951307 301.631341 
L 166.049172 301.421905 
L 166.146986 301.697479 
L 166.342717 301.014055 
L 166.538447 301.675433 
L 166.636364 301.521112 
L 166.734229 301.609295 
L 166.832094 302.017145 
L 166.929959 301.857312 
L 167.027876 302.105329 
L 167.125741 301.945496 
L 167.223606 302.193513 
L 167.419388 301.570715 
L 167.517305 301.829755 
L 167.615221 301.691968 
L 167.713086 301.140819 
L 167.811003 302.03368 
L 167.908919 301.025078 
L 168.202617 301.708502 
L 168.39845 301.598272 
L 168.496367 301.080193 
L 168.692251 301.857312 
L 168.790167 302.402949 
L 168.986051 302.105329 
L 169.181884 301.526623 
L 169.279852 301.168376 
L 169.475736 302.03368 
L 169.573652 301.262072 
L 169.67162 301.284118 
L 169.867504 301.465997 
L 170.063439 301.267583 
L 170.357342 301.88487 
L 170.455309 301.653387 
L 170.553277 302.188001 
L 170.651245 301.576226 
L 170.749212 301.714014 
L 170.84718 301.504577 
L 170.945198 302.017145 
L 171.043166 301.019566 
L 171.141134 301.537646 
L 171.239152 301.179399 
L 171.33712 301.32821 
L 171.435139 301.88487 
L 171.533106 301.62583 
L 171.631125 301.691968 
L 171.92513 301.195934 
L 172.121168 302.088795 
L 172.219135 301.96203 
L 172.415173 301.493554 
L 172.513192 301.879358 
L 172.61121 301.658899 
L 172.807299 301.967542 
L 172.905318 301.862824 
L 173.003336 301.394347 
L 173.101355 301.780151 
L 173.199425 300.854222 
L 173.297444 301.449462 
L 173.395514 300.947917 
L 173.493533 301.647876 
L 173.591603 301.311675 
L 173.689621 301.361278 
L 173.787691 301.223491 
L 174.08185 301.879358 
L 174.17992 301.609295 
L 174.277938 302.000611 
L 174.376008 301.609295 
L 174.474078 301.857312 
L 174.572148 301.388836 
L 174.670218 301.614807 
L 174.768288 301.096727 
L 174.964479 301.526623 
L 175.062549 301.454974 
L 175.160619 301.052635 
L 175.258689 301.658899 
L 175.35681 301.526623 
L 175.45488 301.66441 
L 175.553001 300.980986 
L 175.651071 302.259651 
L 175.749192 301.708502 
L 175.847262 301.769128 
L 175.945383 301.581738 
L 176.043504 301.973053 
L 176.141574 301.581738 
L 176.239695 301.967542 
L 176.337816 301.669922 
L 176.435937 302.496644 
L 176.534058 301.488043 
L 176.632128 302.011634 
L 176.730249 301.399859 
L 176.82837 301.482531 
L 176.926542 301.5156 
L 177.024663 301.350256 
L 177.122784 300.81013 
L 177.220905 301.504577 
L 177.319026 301.06917 
L 177.417199 301.890381 
L 177.51532 301.675433 
L 177.613441 301.995099 
L 177.711613 301.686456 
L 177.809734 302.287208 
L 177.907906 301.631341 
L 178.1042 301.752594 
L 178.300493 301.355767 
L 178.398665 301.62583 
L 178.693131 301.262072 
L 178.791303 301.570715 
L 178.889475 301.388836 
L 178.987647 301.741571 
L 179.08582 301.691968 
L 179.282215 301.427416 
L 179.380387 301.570715 
L 179.47856 301.245537 
L 179.576732 302.287208 
L 179.8713 301.691968 
L 180.067695 301.714014 
L 180.165919 302.094306 
L 180.362314 301.383324 
L 180.460538 301.499066 
L 180.755157 301.151842 
L 180.951603 301.592761 
L 181.049827 301.488043 
L 181.246274 302.011634 
L 181.44272 301.537646 
L 181.540944 301.945496 
L 181.835614 301.581738 
L 181.933888 301.928961 
L 182.032112 301.091216 
L 182.130386 301.355767 
L 182.22861 301.129796 
L 182.326833 301.912427 
L 182.425108 301.32821 
L 182.523382 301.807709 
L 182.621606 300.865245 
L 182.71988 301.802197 
L 182.818104 301.741571 
L 183.014653 301.581738 
L 183.211202 301.802197 
L 183.309476 301.669922 
L 183.4077 302.061237 
L 183.604249 301.344744 
L 183.800849 301.697479 
L 183.899124 301.603784 
L 183.997398 301.295141 
L 184.095673 301.548669 
L 184.193998 300.980986 
L 184.390547 301.5156 
L 184.488873 301.355767 
L 184.587148 301.92345 
L 184.783748 301.686456 
L 184.882074 301.890381 
L 185.078674 301.598272 
L 185.177 301.956519 
L 185.275274 301.36679 
L 185.3736 301.81322 
L 185.668577 301.019566 
L 185.766903 301.449462 
L 185.865228 301.399859 
L 185.963554 301.355767 
L 186.06188 300.969963 
L 186.160205 301.598272 
L 186.258531 301.383324 
L 186.356857 301.81322 
L 186.455183 301.620318 
L 186.553559 301.691968 
L 186.651885 301.40537 
L 186.750211 301.906916 
L 186.848588 301.399859 
L 186.946913 302.094306 
L 187.143616 301.537646 
L 187.241993 302.22107 
L 187.340318 302.127375 
L 187.635398 301.394347 
L 187.733775 301.5156 
L 187.930528 301.322698 
L 188.028905 301.333721 
L 188.127231 302.132886 
L 188.225608 301.55418 
L 188.323985 302.044703 
L 188.422362 301.653387 
L 188.52079 301.92345 
L 188.619166 301.835266 
L 188.717543 301.945496 
L 188.914297 301.333721 
L 189.012725 302.259651 
L 189.209479 301.587249 
L 189.307907 301.978565 
L 189.406284 301.019566 
L 189.504712 301.510089 
L 189.701517 301.377813 
L 189.799893 300.799107 
L 189.898321 301.686456 
L 189.996698 301.322698 
L 190.193554 301.725037 
L 190.39041 301.77464 
L 190.488787 301.66441 
L 190.587215 301.796686 
L 190.685643 301.680945 
L 190.784071 301.846289 
L 190.980927 301.603784 
L 191.177835 301.129796 
L 191.276262 301.939984 
L 191.571598 300.727458 
L 191.670026 301.592761 
L 191.768454 301.372301 
L 192.162268 302.298231 
L 192.359175 301.642364 
L 192.457655 301.879358 
L 192.556134 301.333721 
L 192.654562 301.763617 
L 192.85152 301.449462 
L 192.949999 301.443951 
L 193.048478 301.758105 
L 193.146958 301.162865 
L 193.245437 301.879358 
L 193.343865 300.909337 
L 193.442395 301.741571 
L 193.540874 301.647876 
L 193.737833 301.702991 
L 193.836312 301.824243 
L 193.934791 302.386415 
L 194.131801 301.96203 
L 194.23028 301.873847 
L 194.328759 301.333721 
L 194.427289 302.165955 
L 194.624299 301.383324 
L 194.722778 301.317187 
L 194.821308 301.40537 
L 194.919787 301.014055 
L 195.018318 301.041612 
L 195.116848 301.240026 
L 195.215327 301.702991 
L 195.313858 301.653387 
L 195.412388 301.592761 
L 195.510918 301.322698 
L 195.609449 301.96203 
L 195.806458 301.344744 
L 196.003519 301.906916 
L 196.102049 301.521112 
L 196.397691 301.912427 
L 196.496222 300.865245 
L 196.594752 301.835266 
L 196.693282 301.190422 
L 196.791864 301.653387 
L 196.988924 301.383324 
L 197.087506 301.278606 
L 197.186036 302.121863 
L 197.284618 301.603784 
L 197.383148 302.171467 
L 197.48173 301.532135 
L 197.58026 301.741571 
L 197.678841 301.548669 
L 197.875953 301.780151 
L 197.974535 301.77464 
L 198.073116 301.102239 
L 198.171698 302.022657 
L 198.270228 301.118773 
L 198.368809 301.846289 
L 198.467391 301.267583 
L 198.763135 301.653387 
L 198.960298 301.504577 
L 199.05888 301.195934 
L 199.256094 302.105329 
L 199.354676 301.642364 
L 199.453257 301.741571 
L 199.551839 302.105329 
L 199.650471 301.206957 
L 199.946267 301.835266 
L 200.044899 301.631341 
L 200.143481 301.780151 
L 200.242114 301.229003 
L 200.340695 301.702991 
L 200.636542 300.84871 
L 201.031021 302.077772 
L 201.129654 301.967542 
L 201.228287 301.973053 
L 201.326919 301.576226 
L 201.524185 302.000611 
L 201.622817 301.499066 
L 201.72145 301.96203 
L 201.918715 301.383324 
L 202.017348 301.350256 
L 202.116032 300.832176 
L 202.214664 301.06917 
L 202.313297 300.777061 
L 202.411929 301.333721 
L 202.510613 300.854222 
L 202.707879 301.438439 
L 202.806562 300.837687 
L 202.905195 302.188001 
L 203.003879 301.504577 
L 203.102512 301.521112 
L 203.398512 301.003032 
L 203.497196 301.306164 
L 203.595879 300.953429 
L 203.694512 301.278606 
L 203.793196 300.396768 
L 203.89188 301.168376 
L 203.990563 300.688877 
L 204.089247 301.372301 
L 204.187931 300.242447 
L 204.483983 301.361278 
L 204.68135 300.716435 
L 204.780034 300.876268 
L 204.878718 300.578648 
L 205.076085 300.936894 
L 205.273504 300.6999 
L 205.372188 300.40228 
L 205.569607 300.732969 
L 205.865709 300.429837 
L 206.063128 300.071591 
L 206.260598 300.529044 
L 206.359282 300.231424 
L 206.458017 300.540067 
L 206.655436 300.203867 
L 206.852905 300.859733 
L 206.95164 300.451883 
L 207.050375 300.788084 
L 207.149059 300.066079 
L 207.247794 300.40228 
L 207.543999 299.740902 
L 207.642734 299.977896 
L 207.74152 299.360609 
L 207.93899 299.966873 
L 208.037725 299.553511 
L 208.235246 299.80704 
L 208.333981 299.536977 
L 208.531451 300.077102 
L 208.630237 299.911758 
L 208.728972 299.470839 
L 208.827758 299.536977 
L 209.124014 299.167707 
L 209.2228 299.189753 
L 209.321535 298.897645 
L 209.519108 299.564534 
L 209.617843 298.561444 
L 209.716629 299.079524 
L 209.815415 298.456726 
L 209.914201 299.685787 
L 210.111722 298.925202 
L 210.309294 299.007874 
L 210.40808 298.765369 
L 210.506867 299.013386 
L 210.803225 298.092968 
L 210.902011 297.982738 
L 211.099583 298.445703 
L 211.198421 297.65756 
L 211.395993 298.015807 
L 211.593616 297.47017 
L 211.791188 297.437101 
L 211.890026 297.894554 
L 212.087649 296.814303 
L 212.285273 296.99067 
L 212.482896 297.398521 
L 212.581682 296.748165 
L 212.680519 296.781234 
L 213.075817 296.489125 
L 213.273492 295.816724 
L 213.372278 295.734052 
L 213.66879 296.389918 
L 213.965302 295.463989 
L 214.162976 295.960023 
L 214.360702 294.973467 
L 214.459539 295.519104 
L 214.558377 294.934887 
L 214.657214 295.24353 
L 214.953777 293.689291 
L 215.151503 294.245951 
L 215.25034 293.854635 
L 215.349228 292.956263 
L 215.546903 293.540481 
L 215.645791 293.077516 
L 215.74468 293.733383 
L 215.942405 293.027912 
L 216.041243 292.531879 
L 216.140131 292.71927 
L 216.337857 291.716179 
L 216.436745 291.936638 
L 216.535634 291.407536 
L 216.634522 291.550834 
L 216.733411 290.437514 
L 216.832248 291.242191 
L 217.128913 290.211544 
L 217.227802 289.721022 
L 217.32669 290.398934 
L 217.425579 289.379309 
L 217.524467 290.487118 
L 217.623355 289.803694 
L 217.722244 290.239102 
L 217.920072 289.032085 
L 218.117849 289.213965 
L 218.216737 288.315593 
L 218.414565 288.596678 
L 218.612393 288.023484 
L 218.711282 286.573963 
L 218.810221 287.665238 
L 219.106938 285.851959 
L 219.205826 286.772377 
L 219.502594 285.388994 
L 219.601533 285.785821 
L 219.700422 285.603942 
L 219.898301 285.758264 
L 220.096129 283.531624 
L 220.195069 283.570204 
L 220.392948 282.875757 
L 220.491888 281.817552 
L 220.689767 282.952918 
L 220.788655 282.126194 
L 220.887595 282.153751 
L 220.986534 282.489953 
L 221.085525 281.624649 
L 221.283404 281.878178 
L 221.481283 280.616048 
L 221.679163 281.839597 
L 221.778102 281.519931 
L 221.877093 281.767947 
L 222.074972 280.158595 
L 222.173963 280.417635 
L 222.371842 279.183061 
L 222.569773 279.601935 
L 222.767703 277.733541 
L 223.064624 275.154166 
L 223.163564 274.939218 
L 223.460485 271.841763 
L 223.559475 271.885855 
L 223.658466 271.593747 
L 223.757406 271.737046 
L 224.054378 268.391572 
L 224.252308 270.45838 
L 224.351299 269.278923 
L 224.45029 269.675749 
L 224.747262 267.344391 
L 224.846253 265.6689 
L 225.044234 266.418461 
L 225.242216 264.869735 
L 225.539239 262.692699 
L 225.63823 262.742299 
L 225.737221 263.40919 
L 225.935254 260.929023 
L 226.133235 262.042343 
L 226.331268 258.757498 
L 226.430259 257.528437 
L 226.5293 257.715825 
L 226.628291 255.257703 
L 226.727333 256.045847 
L 226.826324 255.825386 
L 227.22244 252.893275 
L 227.420473 251.146135 
L 227.519464 250.578451 
L 227.618506 248.351811 
L 227.81659 249.211602 
L 227.91558 249.404505 
L 228.113664 244.73628 
L 228.212706 245.160665 
L 228.311748 246.632229 
L 228.707864 241.798657 
L 228.806906 238.16659 
L 228.905948 238.568928 
L 229.00499 237.687089 
L 229.104032 238.662622 
L 229.203074 238.579949 
L 229.500251 234.325082 
L 229.599293 234.45736 
L 229.698335 235.124248 
L 230.094553 229.513558 
L 230.193595 229.667878 
L 230.292637 230.086752 
L 230.589865 227.04441 
L 230.688907 227.105036 
L 230.787949 227.771929 
L 230.986084 225.947626 
L 231.184219 221.130582 
L 231.283312 222.034468 
L 231.778675 211.226452 
L 231.97681 208.906109 
L 232.075903 209.374588 
L 232.274038 213.386946 
L 232.373131 212.37284 
L 232.571317 208.349451 
L 232.769504 211.011497 
L 233.264918 194.416416 
L 233.463104 196.235207 
L 233.562197 193.644813 
L 233.66129 194.184934 
L 233.859476 192.889737 
L 234.057714 188.860841 
L 234.156807 191.489815 
L 234.2559 190.205639 
L 234.55323 174.205803 
L 234.751416 177.077289 
L 234.850561 175.583673 
L 234.949654 178.389014 
L 235.147891 170.08872 
L 235.246984 172.480706 
L 235.445221 169.895817 
L 235.643458 171.450054 
L 235.940789 156.591091 
L 236.039933 156.695816 
L 236.139026 154.794351 
L 236.23817 154.94316 
L 236.337315 158.503577 
L 236.436408 156.370631 
L 236.634696 148.847455 
L 236.733789 151.459902 
L 236.932078 148.279776 
L 237.031222 150.291462 
L 237.625985 130.979228 
L 237.824273 131.872083 
L 238.121706 128.102227 
L 238.22085 131.128037 
L 238.319995 128.212458 
L 238.518283 132.461814 
L 238.617427 129.46357 
L 238.815716 116.191899 
L 238.914911 118.071321 
L 239.212344 107.566439 
L 239.509828 117.983133 
L 239.608972 116.996584 
L 239.708116 109.842679 
L 239.80726 109.908806 
L 240.0056 103.355661 
L 240.20394 102.787973 
L 240.402279 91.924833 
L 240.600568 96.449765 
L 240.699763 90.387133 
L 240.798907 91.031978 
L 240.997247 85.823622 
L 241.195586 96.422217 
L 241.294782 95.171104 
L 241.889852 70.551305 
L 242.187387 78.53192 
L 242.286582 82.577351 
L 242.683313 69.553726 
L 242.782508 62.972996 
L 242.980848 68.478971 
L 243.179238 55.554545 
L 243.377629 63.871375 
L 243.57602 75.495098 
L 243.675215 70.992208 
L 243.774411 74.221943 
L 243.873606 72.138596 
L 243.972802 67.519971 
L 244.071997 70.639475 
L 244.171192 67.817607 
L 244.270388 70.066281 
L 244.369583 75.191973 
L 244.468778 75.098279 
L 244.568025 77.253259 
L 244.66722 76.310795 
L 244.766416 78.44375 
L 244.865611 77.550877 
L 244.964807 70.959154 
L 245.064053 71.355972 
L 245.262444 79.711381 
L 245.361639 78.884671 
L 245.460886 79.342111 
L 245.560081 84.120576 
L 245.659277 83.663118 
L 245.758523 77.572938 
L 245.857719 78.294941 
L 245.956914 83.211185 
L 246.056161 82.963158 
L 246.155356 83.999315 
L 246.55224 106.227138 
L 246.750682 93.005094 
L 246.949124 100.26923 
L 247.147566 108.580554 
L 247.246761 110.17337 
L 247.445254 116.021047 
L 247.544449 115.045511 
L 248.040631 124.089868 
L 248.636008 147.25463 
L 248.735254 147.419976 
L 248.834501 144.548499 
L 248.933748 145.386239 
L 249.132189 157.230422 
L 249.231436 157.05957 
L 249.429929 160.619986 
L 249.727669 170.650893 
L 249.926162 175.80964 
L 250.124655 179.006302 
L 250.323148 183.217079 
L 250.620888 195.83838 
L 251.017874 208.702184 
L 251.117172 205.395292 
L 251.216418 208.718721 
L 251.315665 208.691163 
L 251.414911 209.517891 
L 251.911195 225.622446 
L 252.010493 226.14604 
L 252.308232 230.654436 
L 252.40753 231.49769 
L 252.606023 235.107711 
L 252.804567 238.662622 
L 253.003112 242.471056 
L 253.102358 241.473477 
L 253.201656 242.123833 
L 253.697991 248.787222 
L 253.797289 249.652524 
L 254.095079 255.362423 
L 254.194377 255.610441 
L 254.293624 256.189146 
L 254.392921 255.803339 
L 254.591466 258.415786 
L 254.690763 258.856703 
L 254.988605 263.993407 
L 255.087903 263.535954 
L 255.286447 264.18631 
L 255.385745 264.55558 
L 255.882131 269.504892 
L 255.981429 269.262387 
L 256.180024 271.968527 
L 256.279322 272.233077 
L 256.477866 271.174873 
L 256.775759 274.525856 
L 257.073652 276.851703 
L 257.272197 276.769031 
L 257.57009 279.574378 
L 257.669388 279.629493 
L 257.768685 278.890953 
L 257.867983 279.183061 
L 257.967281 279.039762 
L 258.463769 282.594671 
L 258.662416 282.671831 
L 258.761713 284.474088 
L 258.861011 283.581227 
L 258.960309 285.212626 
L 259.059606 284.843357 
L 259.357551 286.491291 
L 259.556146 286.772377 
L 259.754742 288.326616 
L 259.85409 287.659726 
L 260.151984 289.059643 
L 260.251332 288.624236 
L 260.35063 289.654884 
L 260.449928 289.632838 
L 260.549226 289.34624 
L 260.648574 289.919435 
L 260.747872 289.671418 
L 261.145114 291.5343 
L 261.244463 290.911503 
L 261.443058 292.107495 
L 261.641705 292.234259 
L 261.741054 291.898058 
L 262.138296 293.099562 
L 262.336942 293.347579 
L 262.436291 293.176723 
L 262.634938 293.534969 
L 262.734235 293.490877 
L 262.932882 294.196348 
L 263.032231 294.306577 
L 263.131529 294.212882 
L 263.230877 294.620732 
L 263.330175 294.3176 
L 263.628171 295.585242 
L 263.826817 295.320691 
L 264.025464 296.075764 
L 264.124813 295.629334 
L 264.224161 296.434011 
L 264.422808 295.860816 
L 264.522157 295.926954 
L 264.621455 296.69305 
L 264.720803 295.943488 
L 264.91945 296.588332 
L 265.018799 296.511171 
L 265.316794 297.189084 
L 265.515492 297.266245 
L 265.714139 297.668583 
L 265.813487 297.668583 
L 265.912836 297.161527 
L 266.111483 297.822905 
L 266.210832 296.996182 
L 266.409529 297.238687 
L 266.508878 297.310337 
L 266.608176 298.048876 
L 266.707525 297.900066 
L 266.806874 298.197686 
L 266.906223 298.103991 
L 267.10492 298.550421 
L 267.204218 298.577978 
L 267.303567 298.930714 
L 267.402916 298.638605 
L 267.601613 298.859064 
L 267.700962 298.721277 
L 267.800311 299.013386 
L 267.999009 298.58349 
L 268.098358 298.875599 
L 268.197707 298.594513 
L 268.297004 298.655139 
L 268.396353 298.340984 
L 268.495702 298.451214 
L 268.595051 299.118104 
L 268.6944 298.787415 
L 268.793749 299.801528 
L 268.893097 299.151173 
L 268.992446 299.564534 
L 269.091795 299.465327 
L 269.191144 299.718856 
L 269.290493 298.809461 
L 269.389842 299.873178 
L 269.489191 299.39919 
L 269.687888 299.895223 
L 269.985986 299.432259 
L 270.085335 299.393678 
L 270.284033 299.906246 
L 270.383382 299.707833 
L 270.48273 300.099148 
L 270.681428 299.878689 
L 270.880126 300.187332 
L 271.078875 299.999942 
L 271.178224 300.479441 
L 271.277572 299.377144 
L 271.376921 300.319608 
L 271.674968 299.718856 
L 271.774368 299.663741 
L 271.873717 299.796017 
L 271.973066 300.308585 
L 272.072415 299.84562 
L 272.171763 299.999942 
L 272.271163 299.818063 
L 272.469861 300.606205 
L 272.56921 301.157354 
L 272.668559 300.666831 
L 272.767959 300.782572 
L 272.966657 300.391257 
L 273.066005 300.782572 
L 273.165354 300.236935 
L 273.264754 300.330631 
L 273.364103 300.611716 
L 273.562801 300.082614 
L 273.76155 300.578648 
L 274.059648 300.016476 
L 274.258345 300.738481 
L 274.357745 300.77155 
L 274.457094 300.501487 
L 274.655792 301.074681 
L 274.755192 300.413303 
L 274.95389 300.644785 
L 275.05329 301.576226 
L 275.152638 300.573136 
L 275.251987 300.898314 
L 275.351387 300.319608 
L 275.450736 300.3637 
L 275.550085 300.66132 
L 275.649485 300.088125 
L 275.748834 301.047124 
L 275.848183 300.330631 
L 275.947583 301.052635 
L 276.046932 300.352677 
L 276.245681 301.085704 
L 276.444429 301.322698 
L 276.543778 301.179399 
L 276.742527 300.81013 
L 276.841876 300.721946 
L 276.941225 301.355767 
L 277.040625 301.080193 
L 277.139974 301.410882 
L 277.239374 300.418814 
L 277.338723 300.931383 
L 277.438072 300.435349 
L 277.537472 300.749504 
L 277.63682 300.716435 
L 277.73622 300.826664 
L 277.835569 300.44086 
L 277.934918 301.581738 
L 278.133667 301.361278 
L 278.233067 301.438439 
L 278.531165 300.710923 
L 278.630514 299.614138 
L 278.729914 301.482531 
L 278.829263 301.047124 
L 278.928663 301.146331 
L 279.028011 300.40228 
L 279.22676 301.10775 
L 279.32616 301.052635 
L 279.425509 301.135308 
L 279.624258 300.992009 
L 279.823007 301.581738 
L 279.922356 301.162865 
L 280.121105 301.81322 
L 280.220505 301.510089 
L 280.419254 301.851801 
L 280.618002 301.063658 
L 280.717351 301.06917 
L 280.816751 301.311675 
L 280.9161 300.589671 
L 281.0155 300.909337 
L 281.114849 300.81013 
L 281.214249 300.92036 
L 281.313598 301.240026 
L 281.412998 301.10775 
L 281.512347 301.559692 
L 281.611747 301.096727 
L 281.711096 301.421905 
L 281.810496 301.32821 
L 281.909845 301.901404 
L 282.207942 301.151842 
L 282.307342 301.92345 
L 282.406742 301.862824 
L 282.506091 301.581738 
L 282.605491 300.903825 
L 282.70484 301.416393 
L 282.80424 300.788084 
L 283.002989 301.025078 
L 283.301087 301.102239 
L 283.400487 301.32821 
L 283.499836 300.887291 
L 283.599236 301.796686 
L 283.698585 301.581738 
L 283.797985 301.725037 
L 283.897333 301.212468 
L 283.996733 301.36679 
L 284.096082 301.939984 
L 284.195482 301.096727 
L 284.294831 301.548669 
L 284.692329 301.102239 
L 284.791729 300.55109 
L 284.891078 301.284118 
L 284.990478 301.019566 
L 285.089827 301.190422 
L 285.189227 301.074681 
L 285.387976 301.719525 
L 285.586724 301.388836 
L 285.686073 302.237605 
L 285.785473 301.140819 
L 285.884822 301.223491 
L 286.083571 301.449462 
L 286.182971 300.077102 
L 286.28232 301.807709 
L 286.38172 301.168376 
L 286.481069 301.223491 
L 286.779218 301.576226 
L 286.878618 301.118773 
L 286.977967 301.92345 
L 287.077367 301.686456 
L 287.276116 301.818732 
L 287.375464 301.636853 
L 287.474864 301.157354 
L 287.673613 301.691968 
L 287.872362 301.410882 
L 287.971711 301.333721 
L 288.17046 301.113262 
L 288.269809 301.173888 
L 288.369209 300.975475 
L 288.766707 301.55418 
L 288.866055 301.041612 
L 288.965455 301.647876 
L 289.064804 301.603784 
L 289.164204 301.901404 
L 289.263553 301.81322 
L 289.362953 301.989588 
L 289.462302 301.570715 
L 289.561702 301.702991 
L 289.661051 301.465997 
L 289.760451 301.526623 
L 289.8598 300.898314 
L 289.9592 301.223491 
L 290.058549 300.677854 
L 290.157898 301.482531 
L 290.257298 301.432928 
L 290.356646 301.526623 
L 290.456046 301.21798 
L 290.555395 301.631341 
L 290.654795 300.617228 
L 290.754144 301.691968 
L 290.853544 301.157354 
L 290.952893 301.460485 
L 291.052242 301.223491 
L 291.151642 301.702991 
L 291.250991 301.058147 
L 291.350391 301.388836 
L 291.44974 301.306164 
L 291.54914 301.824243 
L 291.747837 300.980986 
L 291.847237 301.113262 
L 291.946586 301.647876 
L 292.145335 301.06917 
L 292.244684 301.151842 
L 292.344084 301.725037 
L 292.443433 301.063658 
L 292.642182 301.736059 
L 292.840931 301.014055 
L 293.03968 301.587249 
L 293.139028 301.394347 
L 293.238377 301.570715 
L 293.337777 301.482531 
L 293.437126 301.548669 
L 293.635875 301.295141 
L 293.735224 300.898314 
L 293.933973 301.647876 
L 294.033322 300.738481 
L 294.132671 301.647876 
L 294.232071 300.870756 
L 294.430768 301.697479 
L 294.530168 301.642364 
L 294.629517 301.912427 
L 294.728866 301.471508 
L 294.927615 302.055726 
L 295.026964 301.091216 
L 295.126364 301.796686 
L 295.225713 301.493554 
L 295.325062 301.780151 
L 295.42441 301.262072 
L 295.52381 301.499066 
L 295.623159 301.030589 
L 295.722508 301.449462 
L 295.821857 300.914848 
L 295.921257 301.173888 
L 296.020606 300.589671 
L 296.318704 301.879358 
L 296.418052 301.702991 
L 296.517401 301.201445 
L 296.71615 302.022657 
L 296.815499 301.912427 
L 296.914848 302.03368 
L 297.014197 301.355767 
L 297.212946 301.88487 
L 297.312294 300.777061 
L 297.411643 301.344744 
L 297.510992 300.683366 
L 297.610341 301.620318 
L 297.709741 300.99752 
L 297.908439 301.543157 
L 298.007788 301.096727 
L 298.107137 301.879358 
L 298.206485 301.532135 
L 298.305834 302.149421 
L 298.405234 301.669922 
L 298.504583 301.77464 
L 298.80263 301.168376 
L 298.901979 301.614807 
L 299.001328 301.465997 
L 299.299374 301.691968 
L 299.498123 301.003032 
L 299.597472 301.471508 
L 299.696821 301.047124 
L 299.895518 301.47702 
L 299.994867 301.212468 
L 300.094216 302.022657 
L 300.193565 301.680945 
L 300.292914 301.835266 
L 300.491612 301.537646 
L 300.59096 301.658899 
L 300.690309 301.5156 
L 300.889007 301.702991 
L 300.988356 301.636853 
L 301.286402 301.047124 
L 301.4851 301.890381 
L 301.584398 301.135308 
L 301.683747 301.603784 
L 301.783096 301.124285 
L 301.981793 301.857312 
L 302.081142 302.011634 
L 302.180491 301.708502 
L 302.27984 302.000611 
L 302.379189 301.251049 
L 302.577835 301.77464 
L 302.677184 301.747082 
L 302.776533 301.416393 
L 302.875882 301.912427 
L 302.975231 301.135308 
L 303.07458 301.21798 
L 303.273226 301.184911 
L 303.372575 301.548669 
L 303.471924 301.399859 
L 303.571273 300.705412 
L 303.769919 301.88487 
L 303.869268 301.642364 
L 303.968617 302.055726 
L 304.067915 301.532135 
L 304.266612 302.066749 
L 304.365961 301.443951 
L 304.465259 301.973053 
L 304.564608 300.854222 
L 304.663957 302.028168 
L 304.763254 301.251049 
L 304.862603 301.598272 
L 305.06125 300.986498 
L 305.160599 301.355767 
L 305.259948 301.124285 
L 305.458594 301.388836 
L 305.557892 301.311675 
L 305.75659 301.984076 
L 305.955236 301.454974 
L 306.054534 302.050214 
L 306.153883 301.791174 
L 306.253232 302.397438 
L 306.352529 301.537646 
L 306.451878 301.725037 
L 306.551176 301.195934 
L 306.650525 301.697479 
L 306.749822 301.383324 
L 306.849171 301.443951 
L 306.948469 300.992009 
L 307.246464 301.576226 
L 307.345762 301.427416 
L 307.445111 301.945496 
L 307.544409 301.559692 
L 307.643706 302.276185 
L 307.743055 301.499066 
L 307.842353 301.824243 
L 308.041 301.543157 
L 308.140297 302.066749 
L 308.239646 301.537646 
L 308.338944 301.758105 
L 308.438241 301.421905 
L 308.53759 301.47702 
L 308.636888 301.55418 
L 308.736186 301.284118 
L 308.934832 301.532135 
L 309.133479 301.289629 
L 309.332074 301.609295 
L 309.431372 301.394347 
L 309.630019 302.000611 
L 309.729316 301.752594 
L 309.828614 301.289629 
L 309.927963 302.022657 
L 310.027261 301.537646 
L 310.126558 301.598272 
L 310.225856 301.620318 
L 310.325154 301.421905 
L 310.424451 300.77155 
L 310.623098 301.620318 
L 310.722396 301.058147 
L 310.821693 301.592761 
L 310.920991 300.942406 
L 311.020289 302.094306 
L 311.218884 301.984076 
L 311.318182 301.989588 
L 311.318182 301.989588 
" style="fill:none;stroke:#00bfbf;stroke-linecap:square;stroke-width:1.5;"/>
   </g>
   <g id="patch_3">
    <path d="M 45 315 
L 45 43.2 
" style="fill:none;stroke:#000000;stroke-linecap:square;stroke-linejoin:miter;stroke-width:0.8;"/>
   </g>
   <g id="patch_4">
    <path d="M 45 315 
L 324 315 
" style="fill:none;stroke:#000000;stroke-linecap:square;stroke-linejoin:miter;stroke-width:0.8;"/>
   </g>
   <g id="text_19">
    <!-- LG PA72G uncorrected -->
    <defs>
     <path d="M 9.8125 72.90625 
L 19.671875 72.90625 
L 19.671875 8.296875 
L 55.171875 8.296875 
L 55.171875 0 
L 9.8125 0 
z
" id="DejaVuSans-76"/>
     <path d="M 59.515625 10.40625 
L 59.515625 29.984375 
L 43.40625 29.984375 
L 43.40625 38.09375 
L 69.28125 38.09375 
L 69.28125 6.78125 
Q 63.578125 2.734375 56.6875 0.65625 
Q 49.8125 -1.421875 42 -1.421875 
Q 24.90625 -1.421875 15.25 8.5625 
Q 5.609375 18.5625 5.609375 36.375 
Q 5.609375 54.25 15.25 64.234375 
Q 24.90625 74.21875 42 74.21875 
Q 49.125 74.21875 55.546875 72.453125 
Q 61.96875 70.703125 67.390625 67.28125 
L 67.390625 56.78125 
Q 61.921875 61.421875 55.765625 63.765625 
Q 49.609375 66.109375 42.828125 66.109375 
Q 29.4375 66.109375 22.71875 58.640625 
Q 16.015625 51.171875 16.015625 36.375 
Q 16.015625 21.625 22.71875 14.15625 
Q 29.4375 6.6875 42.828125 6.6875 
Q 48.046875 6.6875 52.140625 7.59375 
Q 56.25 8.5 59.515625 10.40625 
z
" id="DejaVuSans-71"/>
     <path d="M 19.671875 64.796875 
L 19.671875 37.40625 
L 32.078125 37.40625 
Q 38.96875 37.40625 42.71875 40.96875 
Q 46.484375 44.53125 46.484375 51.125 
Q 46.484375 57.671875 42.71875 61.234375 
Q 38.96875 64.796875 32.078125 64.796875 
z
M 9.8125 72.90625 
L 32.078125 72.90625 
Q 44.34375 72.90625 50.609375 67.359375 
Q 56.890625 61.8125 56.890625 51.125 
Q 56.890625 40.328125 50.609375 34.8125 
Q 44.34375 29.296875 32.078125 29.296875 
L 19.671875 29.296875 
L 19.671875 0 
L 9.8125 0 
z
" id="DejaVuSans-80"/>
     <path d="M 34.1875 63.1875 
L 20.796875 26.90625 
L 47.609375 26.90625 
z
M 28.609375 72.90625 
L 39.796875 72.90625 
L 67.578125 0 
L 57.328125 0 
L 50.6875 18.703125 
L 17.828125 18.703125 
L 11.1875 0 
L 0.78125 0 
z
" id="DejaVuSans-65"/>
     <path d="M 48.78125 52.59375 
L 48.78125 44.1875 
Q 44.96875 46.296875 41.140625 47.34375 
Q 37.3125 48.390625 33.40625 48.390625 
Q 24.65625 48.390625 19.8125 42.84375 
Q 14.984375 37.3125 14.984375 27.296875 
Q 14.984375 17.28125 19.8125 11.734375 
Q 24.65625 6.203125 33.40625 6.203125 
Q 37.3125 6.203125 41.140625 7.25 
Q 44.96875 8.296875 48.78125 10.40625 
L 48.78125 2.09375 
Q 45.015625 0.34375 40.984375 -0.53125 
Q 36.96875 -1.421875 32.421875 -1.421875 
Q 20.0625 -1.421875 12.78125 6.34375 
Q 5.515625 14.109375 5.515625 27.296875 
Q 5.515625 40.671875 12.859375 48.328125 
Q 20.21875 56 33.015625 56 
Q 37.15625 56 41.109375 55.140625 
Q 45.0625 54.296875 48.78125 52.59375 
z
" id="DejaVuSans-99"/>
     <path d="M 30.609375 48.390625 
Q 23.390625 48.390625 19.1875 42.75 
Q 14.984375 37.109375 14.984375 27.296875 
Q 14.984375 17.484375 19.15625 11.84375 
Q 23.34375 6.203125 30.609375 6.203125 
Q 37.796875 6.203125 41.984375 11.859375 
Q 46.1875 17.53125 46.1875 27.296875 
Q 46.1875 37.015625 41.984375 42.703125 
Q 37.796875 48.390625 30.609375 48.390625 
z
M 30.609375 56 
Q 42.328125 56 49.015625 48.375 
Q 55.71875 40.765625 55.71875 27.296875 
Q 55.71875 13.875 49.015625 6.21875 
Q 42.328125 -1.421875 30.609375 -1.421875 
Q 18.84375 -1.421875 12.171875 6.21875 
Q 5.515625 13.875 5.515625 27.296875 
Q 5.515625 40.765625 12.171875 48.375 
Q 18.84375 56 30.609375 56 
z
" id="DejaVuSans-111"/>
     <path d="M 41.109375 46.296875 
Q 39.59375 47.171875 37.8125 47.578125 
Q 36.03125 48 33.890625 48 
Q 26.265625 48 22.1875 43.046875 
Q 18.109375 38.09375 18.109375 28.8125 
L 18.109375 0 
L 9.078125 0 
L 9.078125 54.6875 
L 18.109375 54.6875 
L 18.109375 46.1875 
Q 20.953125 51.171875 25.484375 53.578125 
Q 30.03125 56 36.53125 56 
Q 37.453125 56 38.578125 55.875 
Q 39.703125 55.765625 41.0625 55.515625 
z
" id="DejaVuSans-114"/>
     <path d="M 45.40625 46.390625 
L 45.40625 75.984375 
L 54.390625 75.984375 
L 54.390625 0 
L 45.40625 0 
L 45.40625 8.203125 
Q 42.578125 3.328125 38.25 0.953125 
Q 33.9375 -1.421875 27.875 -1.421875 
Q 17.96875 -1.421875 11.734375 6.484375 
Q 5.515625 14.40625 5.515625 27.296875 
Q 5.515625 40.1875 11.734375 48.09375 
Q 17.96875 56 27.875 56 
Q 33.9375 56 38.25 53.625 
Q 42.578125 51.265625 45.40625 46.390625 
z
M 14.796875 27.296875 
Q 14.796875 17.390625 18.875 11.75 
Q 22.953125 6.109375 30.078125 6.109375 
Q 37.203125 6.109375 41.296875 11.75 
Q 45.40625 17.390625 45.40625 27.296875 
Q 45.40625 37.203125 41.296875 42.84375 
Q 37.203125 48.484375 30.078125 48.484375 
Q 22.953125 48.484375 18.875 42.84375 
Q 14.796875 37.203125 14.796875 27.296875 
z
" id="DejaVuSans-100"/>
    </defs>
    <g transform="translate(116.34375 37.2)scale(0.12 -0.12)">
     <use xlink:href="#DejaVuSans-76"/>
     <use x="55.712891" xlink:href="#DejaVuSans-71"/>
     <use x="133.203125" xlink:href="#DejaVuSans-32"/>
     <use x="164.990234" xlink:href="#DejaVuSans-80"/>
     <use x="225.199219" xlink:href="#DejaVuSans-65"/>
     <use x="293.607422" xlink:href="#DejaVuSans-55"/>
     <use x="357.230469" xlink:href="#DejaVuSans-50"/>
     <use x="420.853516" xlink:href="#DejaVuSans-71"/>
     <use x="498.34375" xlink:href="#DejaVuSans-32"/>
     <use x="530.130859" xlink:href="#DejaVuSans-117"/>
     <use x="593.509766" xlink:href="#DejaVuSans-110"/>
     <use x="656.888672" xlink:href="#DejaVuSans-99"/>
     <use x="711.869141" xlink:href="#DejaVuSans-111"/>
     <use x="773.050781" xlink:href="#DejaVuSans-114"/>
     <use x="814.148438" xlink:href="#DejaVuSans-114"/>
     <use x="855.230469" xlink:href="#DejaVuSans-101"/>
     <use x="916.753906" xlink:href="#DejaVuSans-99"/>
     <use x="971.734375" xlink:href="#DejaVuSans-116"/>
     <use x="1010.943359" xlink:href="#DejaVuSans-101"/>
     <use x="1072.466797" xlink:href="#DejaVuSans-100"/>
    </g>
   </g>
  </g>
 </g>
 <defs>
  <clipPath id="p5f14a6b356">
   <rect height="271.8" width="279" x="45" y="43.2"/>
  </clipPath>
 </defs>
</svg>
